<svg width="761" height="687" viewBox="0 0 761 687" fill="none" xmlns="http://www.w3.org/2000/svg">
<path d="M153 117L153 553" stroke="#D1CECE" stroke-width="6" stroke-linecap="round"/>
<path d="M589 553L153 553" stroke="#D1CECE" stroke-width="6" stroke-linecap="round"/>
<path d="M35.367 322V311.409H38.92C39.7247 311.409 40.382 311.551 40.892 311.834C41.4133 312.106 41.7987 312.474 42.048 312.939C42.2973 313.404 42.422 313.914 42.422 314.469C42.422 314.888 42.354 315.279 42.218 315.642C42.082 316.005 41.8723 316.328 41.589 316.611C41.317 316.883 40.9657 317.098 40.535 317.257C40.1043 317.404 39.5943 317.478 39.005 317.478H37.084V322H35.367ZM37.084 316.067H38.869C39.2883 316.067 39.6283 316.005 39.889 315.88C40.161 315.744 40.365 315.557 40.501 315.319C40.637 315.07 40.705 314.792 40.705 314.486C40.705 314.18 40.637 313.908 40.501 313.67C40.365 313.432 40.161 313.245 39.889 313.109C39.6283 312.962 39.294 312.888 38.886 312.888H37.084V316.067ZM47.607 322.187C47.0403 322.187 46.519 322.096 46.043 321.915C45.567 321.734 45.1533 321.473 44.802 321.133C44.462 320.782 44.1957 320.351 44.003 319.841C43.8103 319.331 43.714 318.753 43.714 318.107C43.714 317.45 43.8103 316.866 44.003 316.356C44.1957 315.835 44.4563 315.398 44.785 315.047C45.125 314.696 45.516 314.424 45.958 314.231C46.4113 314.038 46.893 313.942 47.403 313.942C47.845 313.942 48.2643 314.021 48.661 314.18C49.069 314.339 49.4203 314.577 49.715 314.894C50.021 315.2 50.259 315.591 50.429 316.067C50.6103 316.543 50.701 317.098 50.701 317.733C50.701 317.846 50.701 317.977 50.701 318.124C50.701 318.26 50.6953 318.379 50.684 318.481H45.346C45.3687 318.889 45.448 319.246 45.584 319.552C45.72 319.847 45.89 320.09 46.094 320.283C46.3093 320.476 46.553 320.617 46.825 320.708C47.097 320.799 47.3803 320.844 47.675 320.844C47.9357 320.844 48.1737 320.821 48.389 320.776C48.6157 320.719 48.831 320.634 49.035 320.521C49.239 320.408 49.426 320.255 49.596 320.062L50.48 320.929C50.242 321.212 49.9757 321.45 49.681 321.643C49.3863 321.824 49.0633 321.96 48.712 322.051C48.372 322.142 48.0037 322.187 47.607 322.187ZM45.38 317.206H49.052C49.052 316.889 49.0123 316.611 48.933 316.373C48.8537 316.135 48.7347 315.931 48.576 315.761C48.4287 315.591 48.2473 315.466 48.032 315.387C47.8167 315.296 47.5787 315.251 47.318 315.251C47.0687 315.251 46.8363 315.291 46.621 315.37C46.417 315.449 46.23 315.568 46.06 315.727C45.89 315.886 45.7427 316.09 45.618 316.339C45.5047 316.577 45.4253 316.866 45.38 317.206ZM53.183 314.129H54.934L54.9 316.373L54.696 316.186C54.7527 315.846 54.8603 315.54 55.019 315.268C55.1777 314.985 55.3703 314.747 55.597 314.554C55.835 314.361 56.0957 314.214 56.379 314.112C56.6623 313.999 56.957 313.942 57.263 313.942C57.6937 313.942 58.0847 314.016 58.436 314.163C58.7873 314.31 59.1047 314.531 59.388 314.826L58.674 316.22L58.606 316.373L58.47 316.305C58.436 316.214 58.402 316.124 58.368 316.033C58.334 315.942 58.249 315.835 58.113 315.71C57.943 315.597 57.773 315.512 57.603 315.455C57.4443 315.398 57.2573 315.37 57.042 315.37C56.77 315.37 56.5037 315.421 56.243 315.523C55.9937 315.614 55.767 315.761 55.563 315.965C55.359 316.169 55.1947 316.43 55.07 316.747C54.9567 317.053 54.9 317.427 54.9 317.869V322.017H53.183V314.129ZM62.482 315.472H60.799V314.129H62.482V313.602C62.482 312.899 62.6237 312.321 62.907 311.868C63.2017 311.403 63.587 311.063 64.063 310.848C64.539 310.621 65.0603 310.508 65.627 310.508C66.1483 310.508 66.63 310.599 67.072 310.78C67.514 310.961 67.8937 311.233 68.211 311.596L67.497 312.769L67.412 312.905L67.293 312.837C67.2703 312.746 67.2363 312.656 67.191 312.565C67.157 312.474 67.072 312.367 66.936 312.242C66.7433 312.095 66.5563 311.993 66.375 311.936C66.1937 311.879 65.9727 311.851 65.712 311.851C65.3947 311.851 65.117 311.913 64.879 312.038C64.6523 312.151 64.471 312.338 64.335 312.599C64.2103 312.848 64.148 313.183 64.148 313.602V314.129H66.596V315.472H64.148V322H62.482V315.472ZM72.75 322.17C72.036 322.17 71.4013 322 70.846 321.66C70.2907 321.309 69.8487 320.827 69.52 320.215C69.1913 319.592 69.027 318.878 69.027 318.073C69.027 317.28 69.1913 316.577 69.52 315.965C69.8487 315.342 70.2907 314.854 70.846 314.503C71.4013 314.14 72.036 313.959 72.75 313.959C73.4527 313.959 74.0817 314.14 74.637 314.503C75.2037 314.854 75.6513 315.342 75.98 315.965C76.3087 316.577 76.473 317.28 76.473 318.073C76.473 318.866 76.3087 319.575 75.98 320.198C75.6513 320.81 75.2037 321.292 74.637 321.643C74.0817 321.994 73.4527 322.17 72.75 322.17ZM72.75 320.793C73.1353 320.793 73.4753 320.68 73.77 320.453C74.076 320.215 74.314 319.892 74.484 319.484C74.654 319.076 74.739 318.6 74.739 318.056C74.739 317.501 74.654 317.019 74.484 316.611C74.314 316.203 74.076 315.886 73.77 315.659C73.4753 315.432 73.1353 315.319 72.75 315.319C72.3647 315.319 72.019 315.432 71.713 315.659C71.4183 315.886 71.186 316.203 71.016 316.611C70.846 317.019 70.761 317.501 70.761 318.056C70.761 318.6 70.846 319.076 71.016 319.484C71.186 319.892 71.4183 320.215 71.713 320.453C72.019 320.68 72.3647 320.793 72.75 320.793ZM78.683 314.129H80.434L80.4 316.373L80.196 316.186C80.2527 315.846 80.3603 315.54 80.519 315.268C80.6777 314.985 80.8703 314.747 81.097 314.554C81.335 314.361 81.5957 314.214 81.879 314.112C82.1623 313.999 82.457 313.942 82.763 313.942C83.1937 313.942 83.5847 314.016 83.936 314.163C84.2873 314.31 84.6047 314.531 84.888 314.826L84.174 316.22L84.106 316.373L83.97 316.305C83.936 316.214 83.902 316.124 83.868 316.033C83.834 315.942 83.749 315.835 83.613 315.71C83.443 315.597 83.273 315.512 83.103 315.455C82.9443 315.398 82.7573 315.37 82.542 315.37C82.27 315.37 82.0037 315.421 81.743 315.523C81.4937 315.614 81.267 315.761 81.063 315.965C80.859 316.169 80.6947 316.43 80.57 316.747C80.4567 317.053 80.4 317.427 80.4 317.869V322.017H78.683V314.129ZM86.061 322V314.129H87.506V314.775C87.6307 314.594 87.7667 314.446 87.914 314.333C88.0727 314.208 88.237 314.112 88.407 314.044C88.5883 313.976 88.7697 313.942 88.951 313.942C89.155 313.942 89.3477 313.982 89.529 314.061C89.7103 314.14 89.869 314.254 90.005 314.401C90.141 314.548 90.243 314.741 90.311 314.979C90.4243 314.752 90.5603 314.565 90.719 314.418C90.889 314.271 91.0817 314.157 91.297 314.078C91.5237 313.987 91.7617 313.942 92.011 313.942C92.283 313.942 92.5153 313.999 92.708 314.112C92.912 314.214 93.0763 314.361 93.201 314.554C93.337 314.735 93.4333 314.962 93.49 315.234C93.558 315.495 93.5863 315.789 93.575 316.118V322H92.096V316.56C92.096 316.163 92.0733 315.869 92.028 315.676C91.9827 315.483 91.9147 315.353 91.824 315.285C91.7447 315.217 91.6483 315.183 91.535 315.183C91.365 315.183 91.2007 315.262 91.042 315.421C90.8947 315.568 90.77 315.772 90.668 316.033C90.5773 316.294 90.532 316.583 90.532 316.9V322H89.104V316.628C89.104 316.039 89.053 315.648 88.951 315.455C88.8603 315.262 88.696 315.166 88.458 315.166C88.3447 315.166 88.2313 315.206 88.118 315.285C88.016 315.353 87.9197 315.461 87.829 315.608C87.7383 315.744 87.6647 315.914 87.608 316.118C87.5627 316.322 87.54 316.56 87.54 316.832V322H86.061ZM97.434 322.187C96.5613 322.187 95.8813 321.989 95.394 321.592C94.918 321.184 94.68 320.657 94.68 320.011C94.68 319.58 94.7763 319.195 94.969 318.855C95.173 318.504 95.4563 318.203 95.819 317.954C96.193 317.705 96.6407 317.512 97.162 317.376C97.6833 317.229 98.2727 317.155 98.93 317.155C99.066 317.155 99.2077 317.161 99.355 317.172C99.5137 317.172 99.678 317.178 99.848 317.189C100.029 317.2 100.211 317.212 100.392 317.223L100.443 318.43C100.284 318.407 100.114 318.39 99.933 318.379C99.763 318.368 99.593 318.362 99.423 318.362C99.253 318.362 99.0943 318.362 98.947 318.362C98.505 318.362 98.1197 318.396 97.791 318.464C97.4737 318.521 97.2073 318.611 96.992 318.736C96.788 318.861 96.635 319.014 96.533 319.195C96.431 319.376 96.38 319.586 96.38 319.824C96.38 320.017 96.414 320.187 96.482 320.334C96.55 320.47 96.6407 320.578 96.754 320.657C96.8787 320.736 97.0203 320.799 97.179 320.844C97.349 320.878 97.5303 320.895 97.723 320.895C98.097 320.895 98.4257 320.833 98.709 320.708C98.9923 320.583 99.2303 320.402 99.423 320.164C99.627 319.915 99.78 319.609 99.882 319.246C99.984 318.872 100.035 318.436 100.035 317.937C100.035 317.246 99.9557 316.707 99.797 316.322C99.6497 315.937 99.4287 315.67 99.134 315.523C98.8393 315.376 98.471 315.302 98.029 315.302C97.6663 315.302 97.315 315.364 96.975 315.489C96.6463 315.602 96.3233 315.818 96.006 316.135L95.105 315.115C95.5357 314.707 96.006 314.412 96.516 314.231C97.0373 314.05 97.57 313.959 98.114 313.959C98.6127 313.959 99.0717 314.021 99.491 314.146C99.9217 314.259 100.296 314.452 100.613 314.724C100.942 314.996 101.191 315.364 101.361 315.829C101.542 316.294 101.633 316.883 101.633 317.597V322H99.865V321.031C99.7177 321.258 99.5533 321.45 99.372 321.609C99.1907 321.756 98.9923 321.875 98.777 321.966C98.573 322.045 98.3577 322.102 98.131 322.136C97.9043 322.17 97.672 322.187 97.434 322.187ZM103.52 322V314.129H105.22V315.336C105.413 315.053 105.628 314.809 105.866 314.605C106.104 314.401 106.37 314.242 106.665 314.129C106.96 314.004 107.277 313.942 107.617 313.942C108.059 313.942 108.467 314.055 108.841 314.282C109.215 314.509 109.515 314.866 109.742 315.353C109.969 315.829 110.082 316.464 110.082 317.257V322H108.399V317.274C108.399 316.809 108.348 316.43 108.246 316.135C108.144 315.84 107.997 315.625 107.804 315.489C107.623 315.353 107.402 315.285 107.141 315.285C106.914 315.285 106.688 315.336 106.461 315.438C106.234 315.54 106.025 315.682 105.832 315.863C105.651 316.033 105.503 316.248 105.39 316.509C105.277 316.758 105.22 317.042 105.22 317.359V322H103.52ZM115.777 322.187C115.199 322.187 114.661 322.091 114.162 321.898C113.675 321.694 113.25 321.411 112.887 321.048C112.536 320.674 112.258 320.243 112.054 319.756C111.861 319.257 111.765 318.713 111.765 318.124C111.765 317.535 111.861 316.991 112.054 316.492C112.258 315.982 112.536 315.54 112.887 315.166C113.25 314.792 113.675 314.503 114.162 314.299C114.661 314.084 115.193 313.976 115.76 313.976C116.463 313.976 117.075 314.106 117.596 314.367C118.129 314.628 118.559 314.996 118.888 315.472L117.919 316.492L117.8 316.611L117.698 316.509C117.687 316.418 117.664 316.333 117.63 316.254C117.607 316.163 117.534 316.044 117.409 315.897C117.182 315.693 116.933 315.551 116.661 315.472C116.389 315.381 116.077 315.336 115.726 315.336C115.431 315.336 115.148 315.398 114.876 315.523C114.615 315.648 114.377 315.829 114.162 316.067C113.958 316.305 113.794 316.594 113.669 316.934C113.544 317.274 113.482 317.654 113.482 318.073C113.482 318.481 113.544 318.855 113.669 319.195C113.794 319.524 113.964 319.807 114.179 320.045C114.394 320.272 114.644 320.453 114.927 320.589C115.222 320.714 115.528 320.776 115.845 320.776C116.094 320.776 116.332 320.748 116.559 320.691C116.797 320.623 117.024 320.521 117.239 320.385C117.454 320.238 117.658 320.051 117.851 319.824L118.786 320.912C118.378 321.354 117.908 321.677 117.375 321.881C116.854 322.085 116.321 322.187 115.777 322.187ZM124.107 322.187C123.54 322.187 123.019 322.096 122.543 321.915C122.067 321.734 121.653 321.473 121.302 321.133C120.962 320.782 120.696 320.351 120.503 319.841C120.31 319.331 120.214 318.753 120.214 318.107C120.214 317.45 120.31 316.866 120.503 316.356C120.696 315.835 120.956 315.398 121.285 315.047C121.625 314.696 122.016 314.424 122.458 314.231C122.911 314.038 123.393 313.942 123.903 313.942C124.345 313.942 124.764 314.021 125.161 314.18C125.569 314.339 125.92 314.577 126.215 314.894C126.521 315.2 126.759 315.591 126.929 316.067C127.11 316.543 127.201 317.098 127.201 317.733C127.201 317.846 127.201 317.977 127.201 318.124C127.201 318.26 127.195 318.379 127.184 318.481H121.846C121.869 318.889 121.948 319.246 122.084 319.552C122.22 319.847 122.39 320.09 122.594 320.283C122.809 320.476 123.053 320.617 123.325 320.708C123.597 320.799 123.88 320.844 124.175 320.844C124.436 320.844 124.674 320.821 124.889 320.776C125.116 320.719 125.331 320.634 125.535 320.521C125.739 320.408 125.926 320.255 126.096 320.062L126.98 320.929C126.742 321.212 126.476 321.45 126.181 321.643C125.886 321.824 125.563 321.96 125.212 322.051C124.872 322.142 124.504 322.187 124.107 322.187ZM121.88 317.206H125.552C125.552 316.889 125.512 316.611 125.433 316.373C125.354 316.135 125.235 315.931 125.076 315.761C124.929 315.591 124.747 315.466 124.532 315.387C124.317 315.296 124.079 315.251 123.818 315.251C123.569 315.251 123.336 315.291 123.121 315.37C122.917 315.449 122.73 315.568 122.56 315.727C122.39 315.886 122.243 316.09 122.118 316.339C122.005 316.577 121.925 316.866 121.88 317.206ZM60.697 347V336.409H63.859C64.4823 336.409 65.0207 336.471 65.474 336.596C65.9387 336.721 66.3183 336.902 66.613 337.14C66.919 337.378 67.1457 337.661 67.293 337.99C67.4403 338.307 67.514 338.659 67.514 339.044C67.514 339.35 67.4517 339.662 67.327 339.979C67.2137 340.285 67.0437 340.563 66.817 340.812C66.6017 341.05 66.324 341.231 65.984 341.356C66.2787 341.469 66.545 341.617 66.783 341.798C67.021 341.979 67.225 342.189 67.395 342.427C67.565 342.654 67.6953 342.897 67.786 343.158C67.888 343.419 67.939 343.691 67.939 343.974C67.939 344.427 67.854 344.841 67.684 345.215C67.514 345.589 67.259 345.912 66.919 346.184C66.579 346.445 66.154 346.649 65.644 346.796C65.134 346.932 64.5333 347 63.842 347H60.697ZM62.363 345.589H64.029C64.471 345.589 64.8507 345.532 65.168 345.419C65.4853 345.294 65.729 345.107 65.899 344.858C66.0803 344.609 66.171 344.291 66.171 343.906C66.171 343.543 66.0917 343.226 65.933 342.954C65.7857 342.671 65.5363 342.45 65.185 342.291C64.8337 342.132 64.3577 342.053 63.757 342.053H62.363V345.589ZM62.363 340.693H63.689C64.233 340.693 64.658 340.631 64.964 340.506C65.2813 340.381 65.5023 340.206 65.627 339.979C65.763 339.752 65.831 339.497 65.831 339.214C65.831 338.999 65.7913 338.806 65.712 338.636C65.644 338.466 65.5307 338.319 65.372 338.194C65.2133 338.058 65.0093 337.956 64.76 337.888C64.5107 337.82 64.216 337.786 63.876 337.786H62.363V340.693ZM73.107 347.187C72.5403 347.187 72.019 347.096 71.543 346.915C71.067 346.734 70.6533 346.473 70.302 346.133C69.962 345.782 69.6957 345.351 69.503 344.841C69.3103 344.331 69.214 343.753 69.214 343.107C69.214 342.45 69.3103 341.866 69.503 341.356C69.6957 340.835 69.9563 340.398 70.285 340.047C70.625 339.696 71.016 339.424 71.458 339.231C71.9113 339.038 72.393 338.942 72.903 338.942C73.345 338.942 73.7643 339.021 74.161 339.18C74.569 339.339 74.9203 339.577 75.215 339.894C75.521 340.2 75.759 340.591 75.929 341.067C76.1103 341.543 76.201 342.098 76.201 342.733C76.201 342.846 76.201 342.977 76.201 343.124C76.201 343.26 76.1953 343.379 76.184 343.481H70.846C70.8687 343.889 70.948 344.246 71.084 344.552C71.22 344.847 71.39 345.09 71.594 345.283C71.8093 345.476 72.053 345.617 72.325 345.708C72.597 345.799 72.8803 345.844 73.175 345.844C73.4357 345.844 73.6737 345.821 73.889 345.776C74.1157 345.719 74.331 345.634 74.535 345.521C74.739 345.408 74.926 345.255 75.096 345.062L75.98 345.929C75.742 346.212 75.4757 346.45 75.181 346.643C74.8863 346.824 74.5633 346.96 74.212 347.051C73.872 347.142 73.5037 347.187 73.107 347.187ZM70.88 342.206H74.552C74.552 341.889 74.5123 341.611 74.433 341.373C74.3537 341.135 74.2347 340.931 74.076 340.761C73.9287 340.591 73.7473 340.466 73.532 340.387C73.3167 340.296 73.0787 340.251 72.818 340.251C72.5687 340.251 72.3363 340.291 72.121 340.37C71.917 340.449 71.73 340.568 71.56 340.727C71.39 340.886 71.2427 341.09 71.118 341.339C71.0047 341.577 70.9253 341.866 70.88 342.206ZM78.02 347V339.129H79.72V340.336C79.9127 340.053 80.128 339.809 80.366 339.605C80.604 339.401 80.8703 339.242 81.165 339.129C81.4597 339.004 81.777 338.942 82.117 338.942C82.559 338.942 82.967 339.055 83.341 339.282C83.715 339.509 84.0153 339.866 84.242 340.353C84.4687 340.829 84.582 341.464 84.582 342.257V347H82.899V342.274C82.899 341.809 82.848 341.43 82.746 341.135C82.644 340.84 82.4967 340.625 82.304 340.489C82.1227 340.353 81.9017 340.285 81.641 340.285C81.4143 340.285 81.1877 340.336 80.961 340.438C80.7343 340.54 80.5247 340.682 80.332 340.863C80.1507 341.033 80.0033 341.248 79.89 341.509C79.7767 341.758 79.72 342.042 79.72 342.359V347H78.02ZM90.107 347.187C89.5403 347.187 89.019 347.096 88.543 346.915C88.067 346.734 87.6533 346.473 87.302 346.133C86.962 345.782 86.6957 345.351 86.503 344.841C86.3103 344.331 86.214 343.753 86.214 343.107C86.214 342.45 86.3103 341.866 86.503 341.356C86.6957 340.835 86.9563 340.398 87.285 340.047C87.625 339.696 88.016 339.424 88.458 339.231C88.9113 339.038 89.393 338.942 89.903 338.942C90.345 338.942 90.7643 339.021 91.161 339.18C91.569 339.339 91.9203 339.577 92.215 339.894C92.521 340.2 92.759 340.591 92.929 341.067C93.1103 341.543 93.201 342.098 93.201 342.733C93.201 342.846 93.201 342.977 93.201 343.124C93.201 343.26 93.1953 343.379 93.184 343.481H87.846C87.8687 343.889 87.948 344.246 88.084 344.552C88.22 344.847 88.39 345.09 88.594 345.283C88.8093 345.476 89.053 345.617 89.325 345.708C89.597 345.799 89.8803 345.844 90.175 345.844C90.4357 345.844 90.6737 345.821 90.889 345.776C91.1157 345.719 91.331 345.634 91.535 345.521C91.739 345.408 91.926 345.255 92.096 345.062L92.98 345.929C92.742 346.212 92.4757 346.45 92.181 346.643C91.8863 346.824 91.5633 346.96 91.212 347.051C90.872 347.142 90.5037 347.187 90.107 347.187ZM87.88 342.206H91.552C91.552 341.889 91.5123 341.611 91.433 341.373C91.3537 341.135 91.2347 340.931 91.076 340.761C90.9287 340.591 90.7473 340.466 90.532 340.387C90.3167 340.296 90.0787 340.251 89.818 340.251C89.5687 340.251 89.3363 340.291 89.121 340.37C88.917 340.449 88.73 340.568 88.56 340.727C88.39 340.886 88.2427 341.09 88.118 341.339C88.0047 341.577 87.9253 341.866 87.88 342.206ZM96.482 340.472H94.799V339.129H96.482V338.602C96.482 337.899 96.6237 337.321 96.907 336.868C97.2017 336.403 97.587 336.063 98.063 335.848C98.539 335.621 99.0603 335.508 99.627 335.508C100.148 335.508 100.63 335.599 101.072 335.78C101.514 335.961 101.894 336.233 102.211 336.596L101.497 337.769L101.412 337.905L101.293 337.837C101.27 337.746 101.236 337.656 101.191 337.565C101.157 337.474 101.072 337.367 100.936 337.242C100.743 337.095 100.556 336.993 100.375 336.936C100.194 336.879 99.9727 336.851 99.712 336.851C99.3947 336.851 99.117 336.913 98.879 337.038C98.6523 337.151 98.471 337.338 98.335 337.599C98.2103 337.848 98.148 338.183 98.148 338.602V339.129H100.596V340.472H98.148V347H96.482V340.472ZM104.03 347V345.657H105.985V340.472H104.115V339.129H107.685V345.657H109.47V347H104.03ZM106.733 337.718C106.427 337.718 106.166 337.616 105.951 337.412C105.747 337.197 105.645 336.947 105.645 336.664C105.645 336.358 105.747 336.103 105.951 335.899C106.155 335.695 106.416 335.593 106.733 335.593C107.028 335.593 107.283 335.701 107.498 335.916C107.725 336.131 107.838 336.381 107.838 336.664C107.838 336.947 107.725 337.197 107.498 337.412C107.283 337.616 107.028 337.718 106.733 337.718ZM116.083 347.153C115.618 347.153 115.216 347.079 114.876 346.932C114.547 346.773 114.281 346.524 114.077 346.184C113.884 345.844 113.748 345.402 113.669 344.858C113.59 344.314 113.561 343.651 113.584 342.869L113.805 337.225L115.539 337.004L115.709 336.987L115.726 337.14C115.669 337.219 115.618 337.299 115.573 337.378C115.539 337.457 115.511 337.593 115.488 337.786L115.318 339.979L115.386 340.166L115.267 342.869C115.233 343.64 115.256 344.24 115.335 344.671C115.414 345.09 115.55 345.385 115.743 345.555C115.936 345.714 116.168 345.793 116.44 345.793C116.803 345.793 117.126 345.719 117.409 345.572C117.704 345.425 117.993 345.243 118.276 345.028L118.65 346.286C118.265 346.569 117.862 346.785 117.443 346.932C117.024 347.079 116.57 347.153 116.083 347.153ZM112.054 339.129H117.987L117.97 340.489H112.054V339.129ZM123.869 347.187C123.393 347.187 122.945 347.142 122.526 347.051C122.107 346.96 121.71 346.824 121.336 346.643C120.973 346.462 120.639 346.229 120.333 345.946L121.115 344.518L121.217 344.365L121.336 344.433C121.359 344.524 121.387 344.62 121.421 344.722C121.455 344.813 121.534 344.926 121.659 345.062C121.931 345.3 122.243 345.493 122.594 345.64C122.945 345.776 123.376 345.844 123.886 345.844C124.237 345.844 124.532 345.804 124.77 345.725C125.019 345.634 125.212 345.515 125.348 345.368C125.484 345.209 125.552 345.034 125.552 344.841C125.552 344.694 125.512 344.569 125.433 344.467C125.365 344.354 125.257 344.252 125.11 344.161C124.963 344.059 124.77 343.963 124.532 343.872C124.294 343.77 124.005 343.674 123.665 343.583C123.087 343.413 122.583 343.22 122.152 343.005C121.721 342.778 121.387 342.512 121.149 342.206C120.911 341.9 120.792 341.537 120.792 341.118C120.792 340.699 120.911 340.33 121.149 340.013C121.398 339.684 121.75 339.424 122.203 339.231C122.656 339.038 123.195 338.942 123.818 338.942C124.158 338.942 124.475 338.97 124.77 339.027C125.076 339.072 125.354 339.146 125.603 339.248C125.864 339.35 126.107 339.48 126.334 339.639C126.561 339.786 126.776 339.962 126.98 340.166L126.113 341.322L126.011 341.458L125.892 341.356C125.881 341.265 125.852 341.18 125.807 341.101C125.773 341.022 125.694 340.92 125.569 340.795C125.32 340.614 125.048 340.478 124.753 340.387C124.458 340.296 124.158 340.251 123.852 340.251C123.455 340.251 123.104 340.319 122.798 340.455C122.503 340.591 122.356 340.795 122.356 341.067C122.356 341.226 122.418 341.373 122.543 341.509C122.679 341.645 122.894 341.781 123.189 341.917C123.484 342.042 123.886 342.172 124.396 342.308C125.042 342.478 125.563 342.676 125.96 342.903C126.357 343.118 126.646 343.373 126.827 343.668C127.02 343.963 127.116 344.308 127.116 344.705C127.116 345.147 126.991 345.561 126.742 345.946C126.504 346.32 126.141 346.62 125.654 346.847C125.167 347.074 124.572 347.187 123.869 347.187Z" fill="white"/>
<path d="M332.277 595.187C331.699 595.187 331.155 595.079 330.645 594.864C330.146 594.649 329.704 594.32 329.319 593.878C328.934 593.436 328.628 592.875 328.401 592.195C328.186 591.515 328.078 590.705 328.078 589.764C328.078 588.937 328.157 588.217 328.316 587.605C328.486 586.982 328.713 586.46 328.996 586.041C329.279 585.61 329.602 585.27 329.965 585.021C330.328 584.76 330.707 584.573 331.104 584.46C331.501 584.335 331.897 584.273 332.294 584.273C333.087 584.273 333.762 584.46 334.317 584.834C334.884 585.197 335.309 585.701 335.592 586.347L334.453 587.112L334.317 587.197L334.232 587.078C334.255 586.987 334.249 586.902 334.215 586.823C334.192 586.732 334.13 586.613 334.028 586.466C333.779 586.137 333.512 585.916 333.229 585.803C332.946 585.69 332.657 585.633 332.362 585.633C331.999 585.633 331.654 585.724 331.325 585.905C331.008 586.075 330.73 586.33 330.492 586.67C330.254 587.01 330.067 587.435 329.931 587.945C329.795 588.444 329.727 589.022 329.727 589.679C329.727 590.314 329.789 590.886 329.914 591.396C330.05 591.895 330.231 592.325 330.458 592.688C330.696 593.039 330.968 593.311 331.274 593.504C331.591 593.685 331.931 593.776 332.294 593.776C332.577 593.776 332.838 593.736 333.076 593.657C333.314 593.578 333.535 593.447 333.739 593.266C333.943 593.073 334.124 592.847 334.283 592.586L335.473 593.419C335.099 594.042 334.651 594.496 334.13 594.779C333.609 595.051 332.991 595.187 332.277 595.187ZM340.25 595.17C339.536 595.17 338.901 595 338.346 594.66C337.791 594.309 337.349 593.827 337.02 593.215C336.691 592.592 336.527 591.878 336.527 591.073C336.527 590.28 336.691 589.577 337.02 588.965C337.349 588.342 337.791 587.854 338.346 587.503C338.901 587.14 339.536 586.959 340.25 586.959C340.953 586.959 341.582 587.14 342.137 587.503C342.704 587.854 343.151 588.342 343.48 588.965C343.809 589.577 343.973 590.28 343.973 591.073C343.973 591.866 343.809 592.575 343.48 593.198C343.151 593.81 342.704 594.292 342.137 594.643C341.582 594.994 340.953 595.17 340.25 595.17ZM340.25 593.793C340.635 593.793 340.975 593.68 341.27 593.453C341.576 593.215 341.814 592.892 341.984 592.484C342.154 592.076 342.239 591.6 342.239 591.056C342.239 590.501 342.154 590.019 341.984 589.611C341.814 589.203 341.576 588.886 341.27 588.659C340.975 588.432 340.635 588.319 340.25 588.319C339.865 588.319 339.519 588.432 339.213 588.659C338.918 588.886 338.686 589.203 338.516 589.611C338.346 590.019 338.261 590.501 338.261 591.056C338.261 591.6 338.346 592.076 338.516 592.484C338.686 592.892 338.918 593.215 339.213 593.453C339.519 593.68 339.865 593.793 340.25 593.793ZM348.376 595.187C347.957 595.187 347.549 595.102 347.152 594.932C346.767 594.751 346.421 594.49 346.115 594.15C345.809 593.81 345.565 593.379 345.384 592.858C345.214 592.325 345.129 591.713 345.129 591.022C345.129 590.319 345.214 589.713 345.384 589.203C345.565 588.693 345.809 588.274 346.115 587.945C346.421 587.605 346.772 587.356 347.169 587.197C347.566 587.027 347.979 586.942 348.41 586.942C348.716 586.942 348.994 586.982 349.243 587.061C349.504 587.14 349.736 587.259 349.94 587.418C350.144 587.577 350.308 587.775 350.433 588.013V583.627H352.082H352.235V583.78C352.178 583.848 352.139 583.922 352.116 584.001C352.093 584.08 352.088 584.216 352.099 584.409V593.895C352.099 594.076 352.105 594.263 352.116 594.456C352.139 594.637 352.19 594.819 352.269 595H350.603C350.546 594.875 350.507 594.762 350.484 594.66C350.461 594.558 350.45 594.456 350.45 594.354C350.45 594.252 350.45 594.144 350.45 594.031C350.291 594.269 350.11 594.479 349.906 594.66C349.702 594.83 349.47 594.96 349.209 595.051C348.948 595.142 348.671 595.187 348.376 595.187ZM348.665 593.793C348.971 593.793 349.232 593.731 349.447 593.606C349.662 593.481 349.838 593.3 349.974 593.062C350.11 592.824 350.212 592.535 350.28 592.195C350.348 591.855 350.382 591.47 350.382 591.039C350.382 590.461 350.32 589.968 350.195 589.56C350.07 589.141 349.872 588.823 349.6 588.608C349.339 588.381 349.005 588.268 348.597 588.268C348.302 588.268 348.042 588.33 347.815 588.455C347.588 588.58 347.396 588.761 347.237 588.999C347.09 589.226 346.976 589.503 346.897 589.832C346.818 590.161 346.778 590.529 346.778 590.937C346.778 591.515 346.857 592.019 347.016 592.45C347.186 592.881 347.413 593.215 347.696 593.453C347.979 593.68 348.302 593.793 348.665 593.793ZM357.607 595.187C357.04 595.187 356.519 595.096 356.043 594.915C355.567 594.734 355.153 594.473 354.802 594.133C354.462 593.782 354.196 593.351 354.003 592.841C353.81 592.331 353.714 591.753 353.714 591.107C353.714 590.45 353.81 589.866 354.003 589.356C354.196 588.835 354.456 588.398 354.785 588.047C355.125 587.696 355.516 587.424 355.958 587.231C356.411 587.038 356.893 586.942 357.403 586.942C357.845 586.942 358.264 587.021 358.661 587.18C359.069 587.339 359.42 587.577 359.715 587.894C360.021 588.2 360.259 588.591 360.429 589.067C360.61 589.543 360.701 590.098 360.701 590.733C360.701 590.846 360.701 590.977 360.701 591.124C360.701 591.26 360.695 591.379 360.684 591.481H355.346C355.369 591.889 355.448 592.246 355.584 592.552C355.72 592.847 355.89 593.09 356.094 593.283C356.309 593.476 356.553 593.617 356.825 593.708C357.097 593.799 357.38 593.844 357.675 593.844C357.936 593.844 358.174 593.821 358.389 593.776C358.616 593.719 358.831 593.634 359.035 593.521C359.239 593.408 359.426 593.255 359.596 593.062L360.48 593.929C360.242 594.212 359.976 594.45 359.681 594.643C359.386 594.824 359.063 594.96 358.712 595.051C358.372 595.142 358.004 595.187 357.607 595.187ZM355.38 590.206H359.052C359.052 589.889 359.012 589.611 358.933 589.373C358.854 589.135 358.735 588.931 358.576 588.761C358.429 588.591 358.247 588.466 358.032 588.387C357.817 588.296 357.579 588.251 357.318 588.251C357.069 588.251 356.836 588.291 356.621 588.37C356.417 588.449 356.23 588.568 356.06 588.727C355.89 588.886 355.743 589.09 355.618 589.339C355.505 589.577 355.425 589.866 355.38 590.206ZM374.777 595.187C374.199 595.187 373.655 595.079 373.145 594.864C372.646 594.649 372.204 594.32 371.819 593.878C371.434 593.436 371.128 592.875 370.901 592.195C370.686 591.515 370.578 590.705 370.578 589.764C370.578 588.937 370.657 588.217 370.816 587.605C370.986 586.982 371.213 586.46 371.496 586.041C371.779 585.61 372.102 585.27 372.465 585.021C372.828 584.76 373.207 584.573 373.604 584.46C374.001 584.335 374.397 584.273 374.794 584.273C375.587 584.273 376.262 584.46 376.817 584.834C377.384 585.197 377.809 585.701 378.092 586.347L376.953 587.112L376.817 587.197L376.732 587.078C376.755 586.987 376.749 586.902 376.715 586.823C376.692 586.732 376.63 586.613 376.528 586.466C376.279 586.137 376.012 585.916 375.729 585.803C375.446 585.69 375.157 585.633 374.862 585.633C374.499 585.633 374.154 585.724 373.825 585.905C373.508 586.075 373.23 586.33 372.992 586.67C372.754 587.01 372.567 587.435 372.431 587.945C372.295 588.444 372.227 589.022 372.227 589.679C372.227 590.314 372.289 590.886 372.414 591.396C372.55 591.895 372.731 592.325 372.958 592.688C373.196 593.039 373.468 593.311 373.774 593.504C374.091 593.685 374.431 593.776 374.794 593.776C375.077 593.776 375.338 593.736 375.576 593.657C375.814 593.578 376.035 593.447 376.239 593.266C376.443 593.073 376.624 592.847 376.783 592.586L377.973 593.419C377.599 594.042 377.151 594.496 376.63 594.779C376.109 595.051 375.491 595.187 374.777 595.187ZM382.75 595.17C382.036 595.17 381.401 595 380.846 594.66C380.291 594.309 379.849 593.827 379.52 593.215C379.191 592.592 379.027 591.878 379.027 591.073C379.027 590.28 379.191 589.577 379.52 588.965C379.849 588.342 380.291 587.854 380.846 587.503C381.401 587.14 382.036 586.959 382.75 586.959C383.453 586.959 384.082 587.14 384.637 587.503C385.204 587.854 385.651 588.342 385.98 588.965C386.309 589.577 386.473 590.28 386.473 591.073C386.473 591.866 386.309 592.575 385.98 593.198C385.651 593.81 385.204 594.292 384.637 594.643C384.082 594.994 383.453 595.17 382.75 595.17ZM382.75 593.793C383.135 593.793 383.475 593.68 383.77 593.453C384.076 593.215 384.314 592.892 384.484 592.484C384.654 592.076 384.739 591.6 384.739 591.056C384.739 590.501 384.654 590.019 384.484 589.611C384.314 589.203 384.076 588.886 383.77 588.659C383.475 588.432 383.135 588.319 382.75 588.319C382.365 588.319 382.019 588.432 381.713 588.659C381.418 588.886 381.186 589.203 381.016 589.611C380.846 590.019 380.761 590.501 380.761 591.056C380.761 591.6 380.846 592.076 381.016 592.484C381.186 592.892 381.418 593.215 381.713 593.453C382.019 593.68 382.365 593.793 382.75 593.793ZM387.561 595V587.129H389.006V587.775C389.131 587.594 389.267 587.446 389.414 587.333C389.573 587.208 389.737 587.112 389.907 587.044C390.088 586.976 390.27 586.942 390.451 586.942C390.655 586.942 390.848 586.982 391.029 587.061C391.21 587.14 391.369 587.254 391.505 587.401C391.641 587.548 391.743 587.741 391.811 587.979C391.924 587.752 392.06 587.565 392.219 587.418C392.389 587.271 392.582 587.157 392.797 587.078C393.024 586.987 393.262 586.942 393.511 586.942C393.783 586.942 394.015 586.999 394.208 587.112C394.412 587.214 394.576 587.361 394.701 587.554C394.837 587.735 394.933 587.962 394.99 588.234C395.058 588.495 395.086 588.789 395.075 589.118V595H393.596V589.56C393.596 589.163 393.573 588.869 393.528 588.676C393.483 588.483 393.415 588.353 393.324 588.285C393.245 588.217 393.148 588.183 393.035 588.183C392.865 588.183 392.701 588.262 392.542 588.421C392.395 588.568 392.27 588.772 392.168 589.033C392.077 589.294 392.032 589.583 392.032 589.9V595H390.604V589.628C390.604 589.039 390.553 588.648 390.451 588.455C390.36 588.262 390.196 588.166 389.958 588.166C389.845 588.166 389.731 588.206 389.618 588.285C389.516 588.353 389.42 588.461 389.329 588.608C389.238 588.744 389.165 588.914 389.108 589.118C389.063 589.322 389.04 589.56 389.04 589.832V595H387.561ZM396.384 597.839V587.129H398.067V588.387C398.214 588.047 398.401 587.775 398.628 587.571C398.866 587.356 399.127 587.203 399.41 587.112C399.693 587.01 399.999 586.959 400.328 586.959C400.759 586.959 401.161 587.05 401.535 587.231C401.92 587.401 402.26 587.656 402.555 587.996C402.85 588.336 403.082 588.761 403.252 589.271C403.422 589.781 403.507 590.376 403.507 591.056C403.507 591.747 403.416 592.354 403.235 592.875C403.054 593.396 402.81 593.833 402.504 594.184C402.209 594.524 401.869 594.779 401.484 594.949C401.099 595.119 400.702 595.204 400.294 595.204C400.011 595.204 399.727 595.164 399.444 595.085C399.172 595.017 398.923 594.909 398.696 594.762C398.469 594.603 398.271 594.422 398.101 594.218V597.839H396.384ZM399.869 593.844C400.13 593.844 400.373 593.799 400.6 593.708C400.827 593.606 401.031 593.453 401.212 593.249C401.393 593.034 401.535 592.745 401.637 592.382C401.739 592.008 401.79 591.555 401.79 591.022C401.79 590.455 401.716 589.974 401.569 589.577C401.433 589.18 401.229 588.874 400.957 588.659C400.696 588.444 400.379 588.33 400.005 588.319C399.722 588.308 399.461 588.359 399.223 588.472C398.985 588.574 398.781 588.744 398.611 588.982C398.441 589.209 398.311 589.515 398.22 589.9C398.141 590.274 398.101 590.722 398.101 591.243C398.101 591.594 398.124 591.912 398.169 592.195C398.226 592.467 398.305 592.711 398.407 592.926C398.509 593.13 398.628 593.3 398.764 593.436C398.911 593.572 399.076 593.674 399.257 593.742C399.45 593.81 399.654 593.844 399.869 593.844ZM405.156 595V593.657H407.4V584.97H405.258V583.627H409.117V593.657H411.344V595H405.156ZM417.107 595.187C416.54 595.187 416.019 595.096 415.543 594.915C415.067 594.734 414.653 594.473 414.302 594.133C413.962 593.782 413.696 593.351 413.503 592.841C413.31 592.331 413.214 591.753 413.214 591.107C413.214 590.45 413.31 589.866 413.503 589.356C413.696 588.835 413.956 588.398 414.285 588.047C414.625 587.696 415.016 587.424 415.458 587.231C415.911 587.038 416.393 586.942 416.903 586.942C417.345 586.942 417.764 587.021 418.161 587.18C418.569 587.339 418.92 587.577 419.215 587.894C419.521 588.2 419.759 588.591 419.929 589.067C420.11 589.543 420.201 590.098 420.201 590.733C420.201 590.846 420.201 590.977 420.201 591.124C420.201 591.26 420.195 591.379 420.184 591.481H414.846C414.869 591.889 414.948 592.246 415.084 592.552C415.22 592.847 415.39 593.09 415.594 593.283C415.809 593.476 416.053 593.617 416.325 593.708C416.597 593.799 416.88 593.844 417.175 593.844C417.436 593.844 417.674 593.821 417.889 593.776C418.116 593.719 418.331 593.634 418.535 593.521C418.739 593.408 418.926 593.255 419.096 593.062L419.98 593.929C419.742 594.212 419.476 594.45 419.181 594.643C418.886 594.824 418.563 594.96 418.212 595.051C417.872 595.142 417.504 595.187 417.107 595.187ZM414.88 590.206H418.552C418.552 589.889 418.512 589.611 418.433 589.373C418.354 589.135 418.235 588.931 418.076 588.761C417.929 588.591 417.747 588.466 417.532 588.387C417.317 588.296 417.079 588.251 416.818 588.251C416.569 588.251 416.336 588.291 416.121 588.37C415.917 588.449 415.73 588.568 415.56 588.727C415.39 588.886 415.243 589.09 415.118 589.339C415.005 589.577 414.925 589.866 414.88 590.206ZM421.578 595L424.315 591.056L421.629 587.129H423.431L425.233 589.73L426.933 587.129H428.65L426.134 590.971L428.973 595H427.137L425.216 592.314L423.431 595H421.578ZM431.03 595V593.657H432.985V588.472H431.115V587.129H434.685V593.657H436.47V595H431.03ZM433.733 585.718C433.427 585.718 433.166 585.616 432.951 585.412C432.747 585.197 432.645 584.947 432.645 584.664C432.645 584.358 432.747 584.103 432.951 583.899C433.155 583.695 433.416 583.593 433.733 583.593C434.028 583.593 434.283 583.701 434.498 583.916C434.725 584.131 434.838 584.381 434.838 584.664C434.838 584.947 434.725 585.197 434.498 585.412C434.283 585.616 434.028 585.718 433.733 585.718ZM443.083 595.153C442.618 595.153 442.216 595.079 441.876 594.932C441.547 594.773 441.281 594.524 441.077 594.184C440.884 593.844 440.748 593.402 440.669 592.858C440.59 592.314 440.561 591.651 440.584 590.869L440.805 585.225L442.539 585.004L442.709 584.987L442.726 585.14C442.669 585.219 442.618 585.299 442.573 585.378C442.539 585.457 442.511 585.593 442.488 585.786L442.318 587.979L442.386 588.166L442.267 590.869C442.233 591.64 442.256 592.24 442.335 592.671C442.414 593.09 442.55 593.385 442.743 593.555C442.936 593.714 443.168 593.793 443.44 593.793C443.803 593.793 444.126 593.719 444.409 593.572C444.704 593.425 444.993 593.243 445.276 593.028L445.65 594.286C445.265 594.569 444.862 594.785 444.443 594.932C444.024 595.079 443.57 595.153 443.083 595.153ZM439.054 587.129H444.987L444.97 588.489H439.054V587.129ZM448.642 597.975C448.268 597.975 447.934 597.913 447.639 597.788C447.344 597.675 447.061 597.499 446.789 597.261L447.418 596.105L447.503 595.969L447.622 596.037C447.656 596.116 447.696 596.19 447.741 596.258C447.798 596.337 447.905 596.434 448.064 596.547C448.155 596.581 448.251 596.604 448.353 596.615C448.455 596.638 448.557 596.649 448.659 596.649C448.92 596.649 449.141 596.581 449.322 596.445C449.503 596.32 449.662 596.122 449.798 595.85C449.945 595.578 450.093 595.227 450.24 594.796L451.872 590.036C452.042 589.537 452.189 589.056 452.314 588.591C452.45 588.115 452.535 587.628 452.569 587.129H454.167C454.122 587.65 454.003 588.189 453.81 588.744C453.629 589.299 453.442 589.838 453.249 590.359L451.294 595.748C450.999 596.575 450.631 597.153 450.189 597.482C449.747 597.811 449.231 597.975 448.642 597.975ZM447.112 587.129H448.829L451.209 593.317L450.359 595.187L447.112 587.129Z" fill="white"/>
<path d="M157.647 548.646L608 432" stroke="#F8AF21" stroke-width="5" stroke-linecap="round"/>
<circle cx="517.5" cy="453.5" r="12.5" fill="#521E64"/>
<circle cx="264.5" cy="520.5" r="12.5" fill="#521E64"/>
<path d="M548.148 459.187C547.445 459.187 546.794 459.079 546.193 458.864C545.604 458.649 545.099 458.326 544.68 457.895L545.513 456.484L545.598 456.331L545.734 456.416C545.757 456.495 545.785 456.58 545.819 456.671C545.853 456.762 545.938 456.875 546.074 457.011C546.357 457.226 546.68 457.408 547.043 457.555C547.406 457.691 547.802 457.759 548.233 457.759C548.528 457.759 548.788 457.725 549.015 457.657C549.253 457.578 549.457 457.476 549.627 457.351C549.808 457.215 549.944 457.056 550.035 456.875C550.126 456.682 550.171 456.473 550.171 456.246C550.171 456.087 550.154 455.94 550.12 455.804C550.086 455.657 550.024 455.526 549.933 455.413C549.842 455.288 549.712 455.164 549.542 455.039C549.383 454.914 549.174 454.784 548.913 454.648C548.652 454.501 548.341 454.348 547.978 454.189C547.241 453.872 546.658 453.554 546.227 453.237C545.808 452.908 545.507 452.557 545.326 452.183C545.145 451.798 545.054 451.378 545.054 450.925C545.054 450.404 545.196 449.945 545.479 449.548C545.762 449.14 546.153 448.823 546.652 448.596C547.162 448.358 547.74 448.239 548.386 448.239C548.817 448.239 549.219 448.296 549.593 448.409C549.967 448.511 550.318 448.664 550.647 448.868C550.976 449.061 551.27 449.304 551.531 449.599L550.545 450.755L550.443 450.891L550.324 450.789C550.313 450.698 550.29 450.608 550.256 450.517C550.233 450.426 550.16 450.313 550.035 450.177C549.797 449.962 549.542 449.814 549.27 449.735C549.009 449.656 548.698 449.616 548.335 449.616C548.097 449.616 547.876 449.65 547.672 449.718C547.479 449.775 547.309 449.865 547.162 449.99C547.026 450.103 546.918 450.234 546.839 450.381C546.771 450.528 546.737 450.687 546.737 450.857C546.737 451.016 546.754 451.157 546.788 451.282C546.822 451.407 546.884 451.531 546.975 451.656C547.077 451.781 547.213 451.911 547.383 452.047C547.564 452.172 547.791 452.308 548.063 452.455C548.335 452.591 548.669 452.744 549.066 452.914C549.599 453.152 550.041 453.384 550.392 453.611C550.755 453.838 551.038 454.076 551.242 454.325C551.457 454.563 551.61 454.829 551.701 455.124C551.792 455.407 551.837 455.73 551.837 456.093C551.837 456.603 551.707 457.096 551.446 457.572C551.197 458.037 550.8 458.422 550.256 458.728C549.712 459.034 549.009 459.187 548.148 459.187ZM557.107 459.187C556.54 459.187 556.019 459.096 555.543 458.915C555.067 458.734 554.653 458.473 554.302 458.133C553.962 457.782 553.696 457.351 553.503 456.841C553.31 456.331 553.214 455.753 553.214 455.107C553.214 454.45 553.31 453.866 553.503 453.356C553.696 452.835 553.956 452.398 554.285 452.047C554.625 451.696 555.016 451.424 555.458 451.231C555.911 451.038 556.393 450.942 556.903 450.942C557.345 450.942 557.764 451.021 558.161 451.18C558.569 451.339 558.92 451.577 559.215 451.894C559.521 452.2 559.759 452.591 559.929 453.067C560.11 453.543 560.201 454.098 560.201 454.733C560.201 454.846 560.201 454.977 560.201 455.124C560.201 455.26 560.195 455.379 560.184 455.481H554.846C554.869 455.889 554.948 456.246 555.084 456.552C555.22 456.847 555.39 457.09 555.594 457.283C555.809 457.476 556.053 457.617 556.325 457.708C556.597 457.799 556.88 457.844 557.175 457.844C557.436 457.844 557.674 457.821 557.889 457.776C558.116 457.719 558.331 457.634 558.535 457.521C558.739 457.408 558.926 457.255 559.096 457.062L559.98 457.929C559.742 458.212 559.476 458.45 559.181 458.643C558.886 458.824 558.563 458.96 558.212 459.051C557.872 459.142 557.504 459.187 557.107 459.187ZM554.88 454.206H558.552C558.552 453.889 558.512 453.611 558.433 453.373C558.354 453.135 558.235 452.931 558.076 452.761C557.929 452.591 557.747 452.466 557.532 452.387C557.317 452.296 557.079 452.251 556.818 452.251C556.569 452.251 556.336 452.291 556.121 452.37C555.917 452.449 555.73 452.568 555.56 452.727C555.39 452.886 555.243 453.09 555.118 453.339C555.005 453.577 554.925 453.866 554.88 454.206ZM562.683 451.129H564.434L564.4 453.373L564.196 453.186C564.253 452.846 564.36 452.54 564.519 452.268C564.678 451.985 564.87 451.747 565.097 451.554C565.335 451.361 565.596 451.214 565.879 451.112C566.162 450.999 566.457 450.942 566.763 450.942C567.194 450.942 567.585 451.016 567.936 451.163C568.287 451.31 568.605 451.531 568.888 451.826L568.174 453.22L568.106 453.373L567.97 453.305C567.936 453.214 567.902 453.124 567.868 453.033C567.834 452.942 567.749 452.835 567.613 452.71C567.443 452.597 567.273 452.512 567.103 452.455C566.944 452.398 566.757 452.37 566.542 452.37C566.27 452.37 566.004 452.421 565.743 452.523C565.494 452.614 565.267 452.761 565.063 452.965C564.859 453.169 564.695 453.43 564.57 453.747C564.457 454.053 564.4 454.427 564.4 454.869V459.017H562.683V451.129ZM573.053 459L570.061 451.129H571.812L573.988 457.045H573.733L574.906 454.274C575.133 453.696 575.32 453.146 575.467 452.625C575.614 452.104 575.711 451.605 575.756 451.129H577.337C577.269 451.628 577.139 452.16 576.946 452.727C576.765 453.282 576.549 453.86 576.3 454.461L574.396 459H573.053ZM582.607 459.187C582.04 459.187 581.519 459.096 581.043 458.915C580.567 458.734 580.153 458.473 579.802 458.133C579.462 457.782 579.196 457.351 579.003 456.841C578.81 456.331 578.714 455.753 578.714 455.107C578.714 454.45 578.81 453.866 579.003 453.356C579.196 452.835 579.456 452.398 579.785 452.047C580.125 451.696 580.516 451.424 580.958 451.231C581.411 451.038 581.893 450.942 582.403 450.942C582.845 450.942 583.264 451.021 583.661 451.18C584.069 451.339 584.42 451.577 584.715 451.894C585.021 452.2 585.259 452.591 585.429 453.067C585.61 453.543 585.701 454.098 585.701 454.733C585.701 454.846 585.701 454.977 585.701 455.124C585.701 455.26 585.695 455.379 585.684 455.481H580.346C580.369 455.889 580.448 456.246 580.584 456.552C580.72 456.847 580.89 457.09 581.094 457.283C581.309 457.476 581.553 457.617 581.825 457.708C582.097 457.799 582.38 457.844 582.675 457.844C582.936 457.844 583.174 457.821 583.389 457.776C583.616 457.719 583.831 457.634 584.035 457.521C584.239 457.408 584.426 457.255 584.596 457.062L585.48 457.929C585.242 458.212 584.976 458.45 584.681 458.643C584.386 458.824 584.063 458.96 583.712 459.051C583.372 459.142 583.004 459.187 582.607 459.187ZM580.38 454.206H584.052C584.052 453.889 584.012 453.611 583.933 453.373C583.854 453.135 583.735 452.931 583.576 452.761C583.429 452.591 583.247 452.466 583.032 452.387C582.817 452.296 582.579 452.251 582.318 452.251C582.069 452.251 581.836 452.291 581.621 452.37C581.417 452.449 581.23 452.568 581.06 452.727C580.89 452.886 580.743 453.09 580.618 453.339C580.505 453.577 580.425 453.866 580.38 454.206ZM588.183 451.129H589.934L589.9 453.373L589.696 453.186C589.753 452.846 589.86 452.54 590.019 452.268C590.178 451.985 590.37 451.747 590.597 451.554C590.835 451.361 591.096 451.214 591.379 451.112C591.662 450.999 591.957 450.942 592.263 450.942C592.694 450.942 593.085 451.016 593.436 451.163C593.787 451.31 594.105 451.531 594.388 451.826L593.674 453.22L593.606 453.373L593.47 453.305C593.436 453.214 593.402 453.124 593.368 453.033C593.334 452.942 593.249 452.835 593.113 452.71C592.943 452.597 592.773 452.512 592.603 452.455C592.444 452.398 592.257 452.37 592.042 452.37C591.77 452.37 591.504 452.421 591.243 452.523C590.994 452.614 590.767 452.761 590.563 452.965C590.359 453.169 590.195 453.43 590.07 453.747C589.957 454.053 589.9 454.427 589.9 454.869V459.017H588.183V451.129ZM604.316 459V448.409H607.614C608.464 448.409 609.155 448.539 609.688 448.8C610.232 449.049 610.629 449.406 610.878 449.871C611.139 450.324 611.269 450.863 611.269 451.486C611.269 451.883 611.184 452.279 611.014 452.676C610.855 453.061 610.617 453.407 610.3 453.713C609.994 454.008 609.631 454.223 609.212 454.359L611.558 459H609.773L607.546 454.512H606.033V459H604.316ZM606.033 453.101H607.733C608.345 453.101 608.798 452.959 609.093 452.676C609.399 452.381 609.552 451.996 609.552 451.52C609.552 451.225 609.484 450.953 609.348 450.704C609.223 450.455 609.025 450.256 608.753 450.109C608.492 449.962 608.152 449.888 607.733 449.888H606.033V453.101ZM616.607 459.187C616.04 459.187 615.519 459.096 615.043 458.915C614.567 458.734 614.153 458.473 613.802 458.133C613.462 457.782 613.196 457.351 613.003 456.841C612.81 456.331 612.714 455.753 612.714 455.107C612.714 454.45 612.81 453.866 613.003 453.356C613.196 452.835 613.456 452.398 613.785 452.047C614.125 451.696 614.516 451.424 614.958 451.231C615.411 451.038 615.893 450.942 616.403 450.942C616.845 450.942 617.264 451.021 617.661 451.18C618.069 451.339 618.42 451.577 618.715 451.894C619.021 452.2 619.259 452.591 619.429 453.067C619.61 453.543 619.701 454.098 619.701 454.733C619.701 454.846 619.701 454.977 619.701 455.124C619.701 455.26 619.695 455.379 619.684 455.481H614.346C614.369 455.889 614.448 456.246 614.584 456.552C614.72 456.847 614.89 457.09 615.094 457.283C615.309 457.476 615.553 457.617 615.825 457.708C616.097 457.799 616.38 457.844 616.675 457.844C616.936 457.844 617.174 457.821 617.389 457.776C617.616 457.719 617.831 457.634 618.035 457.521C618.239 457.408 618.426 457.255 618.596 457.062L619.48 457.929C619.242 458.212 618.976 458.45 618.681 458.643C618.386 458.824 618.063 458.96 617.712 459.051C617.372 459.142 617.004 459.187 616.607 459.187ZM614.38 454.206H618.052C618.052 453.889 618.012 453.611 617.933 453.373C617.854 453.135 617.735 452.931 617.576 452.761C617.429 452.591 617.247 452.466 617.032 452.387C616.817 452.296 616.579 452.251 616.318 452.251C616.069 452.251 615.836 452.291 615.621 452.37C615.417 452.449 615.23 452.568 615.06 452.727C614.89 452.886 614.743 453.09 614.618 453.339C614.505 453.577 614.425 453.866 614.38 454.206ZM621.52 459V451.129H623.22V452.336C623.413 452.053 623.628 451.809 623.866 451.605C624.104 451.401 624.37 451.242 624.665 451.129C624.96 451.004 625.277 450.942 625.617 450.942C626.059 450.942 626.467 451.055 626.841 451.282C627.215 451.509 627.515 451.866 627.742 452.353C627.969 452.829 628.082 453.464 628.082 454.257V459H626.399V454.274C626.399 453.809 626.348 453.43 626.246 453.135C626.144 452.84 625.997 452.625 625.804 452.489C625.623 452.353 625.402 452.285 625.141 452.285C624.914 452.285 624.688 452.336 624.461 452.438C624.234 452.54 624.025 452.682 623.832 452.863C623.651 453.033 623.503 453.248 623.39 453.509C623.277 453.758 623.22 454.042 623.22 454.359V459H621.52ZM632.876 459.187C632.457 459.187 632.049 459.102 631.652 458.932C631.267 458.751 630.921 458.49 630.615 458.15C630.309 457.81 630.065 457.379 629.884 456.858C629.714 456.325 629.629 455.713 629.629 455.022C629.629 454.319 629.714 453.713 629.884 453.203C630.065 452.693 630.309 452.274 630.615 451.945C630.921 451.605 631.272 451.356 631.669 451.197C632.066 451.027 632.479 450.942 632.91 450.942C633.216 450.942 633.494 450.982 633.743 451.061C634.004 451.14 634.236 451.259 634.44 451.418C634.644 451.577 634.808 451.775 634.933 452.013V447.627H636.582H636.735V447.78C636.678 447.848 636.639 447.922 636.616 448.001C636.593 448.08 636.588 448.216 636.599 448.409V457.895C636.599 458.076 636.605 458.263 636.616 458.456C636.639 458.637 636.69 458.819 636.769 459H635.103C635.046 458.875 635.007 458.762 634.984 458.66C634.961 458.558 634.95 458.456 634.95 458.354C634.95 458.252 634.95 458.144 634.95 458.031C634.791 458.269 634.61 458.479 634.406 458.66C634.202 458.83 633.97 458.96 633.709 459.051C633.448 459.142 633.171 459.187 632.876 459.187ZM633.165 457.793C633.471 457.793 633.732 457.731 633.947 457.606C634.162 457.481 634.338 457.3 634.474 457.062C634.61 456.824 634.712 456.535 634.78 456.195C634.848 455.855 634.882 455.47 634.882 455.039C634.882 454.461 634.82 453.968 634.695 453.56C634.57 453.141 634.372 452.823 634.1 452.608C633.839 452.381 633.505 452.268 633.097 452.268C632.802 452.268 632.542 452.33 632.315 452.455C632.088 452.58 631.896 452.761 631.737 452.999C631.59 453.226 631.476 453.503 631.397 453.832C631.318 454.161 631.278 454.529 631.278 454.937C631.278 455.515 631.357 456.019 631.516 456.45C631.686 456.881 631.913 457.215 632.196 457.453C632.479 457.68 632.802 457.793 633.165 457.793ZM642.107 459.187C641.54 459.187 641.019 459.096 640.543 458.915C640.067 458.734 639.653 458.473 639.302 458.133C638.962 457.782 638.696 457.351 638.503 456.841C638.31 456.331 638.214 455.753 638.214 455.107C638.214 454.45 638.31 453.866 638.503 453.356C638.696 452.835 638.956 452.398 639.285 452.047C639.625 451.696 640.016 451.424 640.458 451.231C640.911 451.038 641.393 450.942 641.903 450.942C642.345 450.942 642.764 451.021 643.161 451.18C643.569 451.339 643.92 451.577 644.215 451.894C644.521 452.2 644.759 452.591 644.929 453.067C645.11 453.543 645.201 454.098 645.201 454.733C645.201 454.846 645.201 454.977 645.201 455.124C645.201 455.26 645.195 455.379 645.184 455.481H639.846C639.869 455.889 639.948 456.246 640.084 456.552C640.22 456.847 640.39 457.09 640.594 457.283C640.809 457.476 641.053 457.617 641.325 457.708C641.597 457.799 641.88 457.844 642.175 457.844C642.436 457.844 642.674 457.821 642.889 457.776C643.116 457.719 643.331 457.634 643.535 457.521C643.739 457.408 643.926 457.255 644.096 457.062L644.98 457.929C644.742 458.212 644.476 458.45 644.181 458.643C643.886 458.824 643.563 458.96 643.212 459.051C642.872 459.142 642.504 459.187 642.107 459.187ZM639.88 454.206H643.552C643.552 453.889 643.512 453.611 643.433 453.373C643.354 453.135 643.235 452.931 643.076 452.761C642.929 452.591 642.747 452.466 642.532 452.387C642.317 452.296 642.079 452.251 641.818 452.251C641.569 452.251 641.336 452.291 641.121 452.37C640.917 452.449 640.73 452.568 640.56 452.727C640.39 452.886 640.243 453.09 640.118 453.339C640.005 453.577 639.925 453.866 639.88 454.206ZM647.683 451.129H649.434L649.4 453.373L649.196 453.186C649.253 452.846 649.36 452.54 649.519 452.268C649.678 451.985 649.87 451.747 650.097 451.554C650.335 451.361 650.596 451.214 650.879 451.112C651.162 450.999 651.457 450.942 651.763 450.942C652.194 450.942 652.585 451.016 652.936 451.163C653.287 451.31 653.605 451.531 653.888 451.826L653.174 453.22L653.106 453.373L652.97 453.305C652.936 453.214 652.902 453.124 652.868 453.033C652.834 452.942 652.749 452.835 652.613 452.71C652.443 452.597 652.273 452.512 652.103 452.455C651.944 452.398 651.757 452.37 651.542 452.37C651.27 452.37 651.004 452.421 650.743 452.523C650.494 452.614 650.267 452.761 650.063 452.965C649.859 453.169 649.695 453.43 649.57 453.747C649.457 454.053 649.4 454.427 649.4 454.869V459.017H647.683V451.129ZM659.107 459.187C658.54 459.187 658.019 459.096 657.543 458.915C657.067 458.734 656.653 458.473 656.302 458.133C655.962 457.782 655.696 457.351 655.503 456.841C655.31 456.331 655.214 455.753 655.214 455.107C655.214 454.45 655.31 453.866 655.503 453.356C655.696 452.835 655.956 452.398 656.285 452.047C656.625 451.696 657.016 451.424 657.458 451.231C657.911 451.038 658.393 450.942 658.903 450.942C659.345 450.942 659.764 451.021 660.161 451.18C660.569 451.339 660.92 451.577 661.215 451.894C661.521 452.2 661.759 452.591 661.929 453.067C662.11 453.543 662.201 454.098 662.201 454.733C662.201 454.846 662.201 454.977 662.201 455.124C662.201 455.26 662.195 455.379 662.184 455.481H656.846C656.869 455.889 656.948 456.246 657.084 456.552C657.22 456.847 657.39 457.09 657.594 457.283C657.809 457.476 658.053 457.617 658.325 457.708C658.597 457.799 658.88 457.844 659.175 457.844C659.436 457.844 659.674 457.821 659.889 457.776C660.116 457.719 660.331 457.634 660.535 457.521C660.739 457.408 660.926 457.255 661.096 457.062L661.98 457.929C661.742 458.212 661.476 458.45 661.181 458.643C660.886 458.824 660.563 458.96 660.212 459.051C659.872 459.142 659.504 459.187 659.107 459.187ZM656.88 454.206H660.552C660.552 453.889 660.512 453.611 660.433 453.373C660.354 453.135 660.235 452.931 660.076 452.761C659.929 452.591 659.747 452.466 659.532 452.387C659.317 452.296 659.079 452.251 658.818 452.251C658.569 452.251 658.336 452.291 658.121 452.37C657.917 452.449 657.73 452.568 657.56 452.727C657.39 452.886 657.243 453.09 657.118 453.339C657.005 453.577 656.925 453.866 656.88 454.206ZM666.876 459.187C666.457 459.187 666.049 459.102 665.652 458.932C665.267 458.751 664.921 458.49 664.615 458.15C664.309 457.81 664.065 457.379 663.884 456.858C663.714 456.325 663.629 455.713 663.629 455.022C663.629 454.319 663.714 453.713 663.884 453.203C664.065 452.693 664.309 452.274 664.615 451.945C664.921 451.605 665.272 451.356 665.669 451.197C666.066 451.027 666.479 450.942 666.91 450.942C667.216 450.942 667.494 450.982 667.743 451.061C668.004 451.14 668.236 451.259 668.44 451.418C668.644 451.577 668.808 451.775 668.933 452.013V447.627H670.582H670.735V447.78C670.678 447.848 670.639 447.922 670.616 448.001C670.593 448.08 670.588 448.216 670.599 448.409V457.895C670.599 458.076 670.605 458.263 670.616 458.456C670.639 458.637 670.69 458.819 670.769 459H669.103C669.046 458.875 669.007 458.762 668.984 458.66C668.961 458.558 668.95 458.456 668.95 458.354C668.95 458.252 668.95 458.144 668.95 458.031C668.791 458.269 668.61 458.479 668.406 458.66C668.202 458.83 667.97 458.96 667.709 459.051C667.448 459.142 667.171 459.187 666.876 459.187ZM667.165 457.793C667.471 457.793 667.732 457.731 667.947 457.606C668.162 457.481 668.338 457.3 668.474 457.062C668.61 456.824 668.712 456.535 668.78 456.195C668.848 455.855 668.882 455.47 668.882 455.039C668.882 454.461 668.82 453.968 668.695 453.56C668.57 453.141 668.372 452.823 668.1 452.608C667.839 452.381 667.505 452.268 667.097 452.268C666.802 452.268 666.542 452.33 666.315 452.455C666.088 452.58 665.896 452.761 665.737 452.999C665.59 453.226 665.476 453.503 665.397 453.832C665.318 454.161 665.278 454.529 665.278 454.937C665.278 455.515 665.357 456.019 665.516 456.45C665.686 456.881 665.913 457.215 666.196 457.453C666.479 457.68 666.802 457.793 667.165 457.793Z" fill="#521E64"/>
<path d="M289.867 526V515.409H293.42C294.225 515.409 294.882 515.551 295.392 515.834C295.913 516.106 296.299 516.474 296.548 516.939C296.797 517.404 296.922 517.914 296.922 518.469C296.922 518.888 296.854 519.279 296.718 519.642C296.582 520.005 296.372 520.328 296.089 520.611C295.817 520.883 295.466 521.098 295.035 521.257C294.604 521.404 294.094 521.478 293.505 521.478H291.584V526H289.867ZM291.584 520.067H293.369C293.788 520.067 294.128 520.005 294.389 519.88C294.661 519.744 294.865 519.557 295.001 519.319C295.137 519.07 295.205 518.792 295.205 518.486C295.205 518.18 295.137 517.908 295.001 517.67C294.865 517.432 294.661 517.245 294.389 517.109C294.128 516.962 293.794 516.888 293.386 516.888H291.584V520.067ZM301.155 526.187C300.838 526.187 300.537 526.142 300.254 526.051C299.982 525.972 299.733 525.841 299.506 525.66C299.279 525.479 299.081 525.252 298.911 524.98C298.752 524.708 298.628 524.379 298.537 523.994C298.458 523.609 298.418 523.172 298.418 522.685L298.435 518.129H300.101V522.685C300.101 523.082 300.135 523.422 300.203 523.705C300.282 523.977 300.384 524.198 300.509 524.368C300.645 524.538 300.798 524.663 300.968 524.742C301.138 524.81 301.319 524.844 301.512 524.844C301.761 524.844 301.994 524.799 302.209 524.708C302.424 524.617 302.611 524.481 302.77 524.3C302.94 524.107 303.065 523.869 303.144 523.586C303.235 523.291 303.28 522.951 303.28 522.566V518.129H304.98V524.759C304.98 524.986 304.986 525.201 304.997 525.405C305.02 525.598 305.071 525.796 305.15 526H303.569C303.512 525.875 303.473 525.756 303.45 525.643C303.427 525.518 303.41 525.399 303.399 525.286C303.399 525.161 303.399 525.037 303.399 524.912C303.286 525.127 303.144 525.314 302.974 525.473C302.815 525.632 302.634 525.768 302.43 525.881C302.237 525.983 302.033 526.057 301.818 526.102C301.614 526.159 301.393 526.187 301.155 526.187ZM307.683 518.129H309.434L309.4 520.373L309.196 520.186C309.253 519.846 309.36 519.54 309.519 519.268C309.678 518.985 309.87 518.747 310.097 518.554C310.335 518.361 310.596 518.214 310.879 518.112C311.162 517.999 311.457 517.942 311.763 517.942C312.194 517.942 312.585 518.016 312.936 518.163C313.287 518.31 313.605 518.531 313.888 518.826L313.174 520.22L313.106 520.373L312.97 520.305C312.936 520.214 312.902 520.124 312.868 520.033C312.834 519.942 312.749 519.835 312.613 519.71C312.443 519.597 312.273 519.512 312.103 519.455C311.944 519.398 311.757 519.37 311.542 519.37C311.27 519.37 311.004 519.421 310.743 519.523C310.494 519.614 310.267 519.761 310.063 519.965C309.859 520.169 309.695 520.43 309.57 520.747C309.457 521.053 309.4 521.427 309.4 521.869V526.017H307.683V518.129ZM319.107 526.187C318.54 526.187 318.019 526.096 317.543 525.915C317.067 525.734 316.653 525.473 316.302 525.133C315.962 524.782 315.696 524.351 315.503 523.841C315.31 523.331 315.214 522.753 315.214 522.107C315.214 521.45 315.31 520.866 315.503 520.356C315.696 519.835 315.956 519.398 316.285 519.047C316.625 518.696 317.016 518.424 317.458 518.231C317.911 518.038 318.393 517.942 318.903 517.942C319.345 517.942 319.764 518.021 320.161 518.18C320.569 518.339 320.92 518.577 321.215 518.894C321.521 519.2 321.759 519.591 321.929 520.067C322.11 520.543 322.201 521.098 322.201 521.733C322.201 521.846 322.201 521.977 322.201 522.124C322.201 522.26 322.195 522.379 322.184 522.481H316.846C316.869 522.889 316.948 523.246 317.084 523.552C317.22 523.847 317.39 524.09 317.594 524.283C317.809 524.476 318.053 524.617 318.325 524.708C318.597 524.799 318.88 524.844 319.175 524.844C319.436 524.844 319.674 524.821 319.889 524.776C320.116 524.719 320.331 524.634 320.535 524.521C320.739 524.408 320.926 524.255 321.096 524.062L321.98 524.929C321.742 525.212 321.476 525.45 321.181 525.643C320.886 525.824 320.563 525.96 320.212 526.051C319.872 526.142 319.504 526.187 319.107 526.187ZM316.88 521.206H320.552C320.552 520.889 320.512 520.611 320.433 520.373C320.354 520.135 320.235 519.931 320.076 519.761C319.929 519.591 319.747 519.466 319.532 519.387C319.317 519.296 319.079 519.251 318.818 519.251C318.569 519.251 318.336 519.291 318.121 519.37C317.917 519.449 317.73 519.568 317.56 519.727C317.39 519.886 317.243 520.09 317.118 520.339C317.005 520.577 316.925 520.866 316.88 521.206ZM336.277 526.187C335.699 526.187 335.155 526.079 334.645 525.864C334.146 525.649 333.704 525.32 333.319 524.878C332.934 524.436 332.628 523.875 332.401 523.195C332.186 522.515 332.078 521.705 332.078 520.764C332.078 519.937 332.157 519.217 332.316 518.605C332.486 517.982 332.713 517.46 332.996 517.041C333.279 516.61 333.602 516.27 333.965 516.021C334.328 515.76 334.707 515.573 335.104 515.46C335.501 515.335 335.897 515.273 336.294 515.273C337.087 515.273 337.762 515.46 338.317 515.834C338.884 516.197 339.309 516.701 339.592 517.347L338.453 518.112L338.317 518.197L338.232 518.078C338.255 517.987 338.249 517.902 338.215 517.823C338.192 517.732 338.13 517.613 338.028 517.466C337.779 517.137 337.512 516.916 337.229 516.803C336.946 516.69 336.657 516.633 336.362 516.633C335.999 516.633 335.654 516.724 335.325 516.905C335.008 517.075 334.73 517.33 334.492 517.67C334.254 518.01 334.067 518.435 333.931 518.945C333.795 519.444 333.727 520.022 333.727 520.679C333.727 521.314 333.789 521.886 333.914 522.396C334.05 522.895 334.231 523.325 334.458 523.688C334.696 524.039 334.968 524.311 335.274 524.504C335.591 524.685 335.931 524.776 336.294 524.776C336.577 524.776 336.838 524.736 337.076 524.657C337.314 524.578 337.535 524.447 337.739 524.266C337.943 524.073 338.124 523.847 338.283 523.586L339.473 524.419C339.099 525.042 338.651 525.496 338.13 525.779C337.609 526.051 336.991 526.187 336.277 526.187ZM341.156 526V524.657H343.4V515.97H341.258V514.627H345.117V524.657H347.344V526H341.156ZM350.03 526V524.657H351.985V519.472H350.115V518.129H353.685V524.657H355.47V526H350.03ZM352.733 516.718C352.427 516.718 352.166 516.616 351.951 516.412C351.747 516.197 351.645 515.947 351.645 515.664C351.645 515.358 351.747 515.103 351.951 514.899C352.155 514.695 352.416 514.593 352.733 514.593C353.028 514.593 353.283 514.701 353.498 514.916C353.725 515.131 353.838 515.381 353.838 515.664C353.838 515.947 353.725 516.197 353.498 516.412C353.283 516.616 353.028 516.718 352.733 516.718ZM361.607 526.187C361.04 526.187 360.519 526.096 360.043 525.915C359.567 525.734 359.153 525.473 358.802 525.133C358.462 524.782 358.196 524.351 358.003 523.841C357.81 523.331 357.714 522.753 357.714 522.107C357.714 521.45 357.81 520.866 358.003 520.356C358.196 519.835 358.456 519.398 358.785 519.047C359.125 518.696 359.516 518.424 359.958 518.231C360.411 518.038 360.893 517.942 361.403 517.942C361.845 517.942 362.264 518.021 362.661 518.18C363.069 518.339 363.42 518.577 363.715 518.894C364.021 519.2 364.259 519.591 364.429 520.067C364.61 520.543 364.701 521.098 364.701 521.733C364.701 521.846 364.701 521.977 364.701 522.124C364.701 522.26 364.695 522.379 364.684 522.481H359.346C359.369 522.889 359.448 523.246 359.584 523.552C359.72 523.847 359.89 524.09 360.094 524.283C360.309 524.476 360.553 524.617 360.825 524.708C361.097 524.799 361.38 524.844 361.675 524.844C361.936 524.844 362.174 524.821 362.389 524.776C362.616 524.719 362.831 524.634 363.035 524.521C363.239 524.408 363.426 524.255 363.596 524.062L364.48 524.929C364.242 525.212 363.976 525.45 363.681 525.643C363.386 525.824 363.063 525.96 362.712 526.051C362.372 526.142 362.004 526.187 361.607 526.187ZM359.38 521.206H363.052C363.052 520.889 363.012 520.611 362.933 520.373C362.854 520.135 362.735 519.931 362.576 519.761C362.429 519.591 362.247 519.466 362.032 519.387C361.817 519.296 361.579 519.251 361.318 519.251C361.069 519.251 360.836 519.291 360.621 519.37C360.417 519.449 360.23 519.568 360.06 519.727C359.89 519.886 359.743 520.09 359.618 520.339C359.505 520.577 359.425 520.866 359.38 521.206ZM366.52 526V518.129H368.22V519.336C368.413 519.053 368.628 518.809 368.866 518.605C369.104 518.401 369.37 518.242 369.665 518.129C369.96 518.004 370.277 517.942 370.617 517.942C371.059 517.942 371.467 518.055 371.841 518.282C372.215 518.509 372.515 518.866 372.742 519.353C372.969 519.829 373.082 520.464 373.082 521.257V526H371.399V521.274C371.399 520.809 371.348 520.43 371.246 520.135C371.144 519.84 370.997 519.625 370.804 519.489C370.623 519.353 370.402 519.285 370.141 519.285C369.914 519.285 369.688 519.336 369.461 519.438C369.234 519.54 369.025 519.682 368.832 519.863C368.651 520.033 368.503 520.248 368.39 520.509C368.277 520.758 368.22 521.042 368.22 521.359V526H366.52ZM379.083 526.153C378.618 526.153 378.216 526.079 377.876 525.932C377.547 525.773 377.281 525.524 377.077 525.184C376.884 524.844 376.748 524.402 376.669 523.858C376.59 523.314 376.561 522.651 376.584 521.869L376.805 516.225L378.539 516.004L378.709 515.987L378.726 516.14C378.669 516.219 378.618 516.299 378.573 516.378C378.539 516.457 378.511 516.593 378.488 516.786L378.318 518.979L378.386 519.166L378.267 521.869C378.233 522.64 378.256 523.24 378.335 523.671C378.414 524.09 378.55 524.385 378.743 524.555C378.936 524.714 379.168 524.793 379.44 524.793C379.803 524.793 380.126 524.719 380.409 524.572C380.704 524.425 380.993 524.243 381.276 524.028L381.65 525.286C381.265 525.569 380.862 525.785 380.443 525.932C380.024 526.079 379.57 526.153 379.083 526.153ZM375.054 518.129H380.987L380.97 519.489H375.054V518.129Z" fill="#521E64"/>
<path d="M228.38 88.03V69.31H233.03C234.13 69.31 235.05 69.41 235.79 69.61C236.55 69.81 237.19 70.1 237.71 70.48C238.25 70.86 238.72 71.33 239.12 71.89C239.54 72.45 239.89 73.08 240.17 73.78C240.47 74.48 240.69 75.25 240.83 76.09C240.97 76.91 241.04 77.8 241.04 78.76C241.02 80.2 240.84 81.49 240.5 82.63C240.18 83.77 239.68 84.74 239 85.54C238.34 86.34 237.49 86.96 236.45 87.4C235.41 87.82 234.15 88.03 232.67 88.03H228.38ZM231.23 85.69H232.61C233.95 85.69 235.02 85.42 235.82 84.88C236.64 84.32 237.23 83.53 237.59 82.51C237.97 81.47 238.16 80.25 238.16 78.85C238.16 77.37 237.99 76.1 237.65 75.04C237.31 73.98 236.76 73.16 236 72.58C235.26 71.98 234.23 71.68 232.91 71.68H231.23V85.69ZM248.06 88.33C246.52 88.33 245.32 87.98 244.46 87.28C243.62 86.56 243.2 85.63 243.2 84.49C243.2 83.73 243.37 83.05 243.71 82.45C244.07 81.83 244.57 81.3 245.21 80.86C245.87 80.42 246.66 80.08 247.58 79.84C248.5 79.58 249.54 79.45 250.7 79.45C250.94 79.45 251.19 79.46 251.45 79.48C251.73 79.48 252.02 79.49 252.32 79.51C252.64 79.53 252.96 79.55 253.28 79.57L253.37 81.7C253.09 81.66 252.79 81.63 252.47 81.61C252.17 81.59 251.87 81.58 251.57 81.58C251.27 81.58 250.99 81.58 250.73 81.58C249.95 81.58 249.27 81.64 248.69 81.76C248.13 81.86 247.66 82.02 247.28 82.24C246.92 82.46 246.65 82.73 246.47 83.05C246.29 83.37 246.2 83.74 246.2 84.16C246.2 84.5 246.26 84.8 246.38 85.06C246.5 85.3 246.66 85.49 246.86 85.63C247.08 85.77 247.33 85.88 247.61 85.96C247.91 86.02 248.23 86.05 248.57 86.05C249.23 86.05 249.81 85.94 250.31 85.72C250.81 85.5 251.23 85.18 251.57 84.76C251.93 84.32 252.2 83.78 252.38 83.14C252.56 82.48 252.65 81.71 252.65 80.83C252.65 79.61 252.51 78.66 252.23 77.98C251.97 77.3 251.58 76.83 251.06 76.57C250.54 76.31 249.89 76.18 249.11 76.18C248.47 76.18 247.85 76.29 247.25 76.51C246.67 76.71 246.1 77.09 245.54 77.65L243.95 75.85C244.71 75.13 245.54 74.61 246.44 74.29C247.36 73.97 248.3 73.81 249.26 73.81C250.14 73.81 250.95 73.92 251.69 74.14C252.45 74.34 253.11 74.68 253.67 75.16C254.25 75.64 254.69 76.29 254.99 77.11C255.31 77.93 255.47 78.97 255.47 80.23V88H252.35V86.29C252.09 86.69 251.8 87.03 251.48 87.31C251.16 87.57 250.81 87.78 250.43 87.94C250.07 88.08 249.69 88.18 249.29 88.24C248.89 88.3 248.48 88.33 248.06 88.33ZM264.71 88.33C263.87 88.33 263.08 88.25 262.34 88.09C261.6 87.93 260.9 87.69 260.24 87.37C259.6 87.05 259.01 86.64 258.47 86.14L259.85 83.62L260.03 83.35L260.24 83.47C260.28 83.63 260.33 83.8 260.39 83.98C260.45 84.14 260.59 84.34 260.81 84.58C261.29 85 261.84 85.34 262.46 85.6C263.08 85.84 263.84 85.96 264.74 85.96C265.36 85.96 265.88 85.89 266.3 85.75C266.74 85.59 267.08 85.38 267.32 85.12C267.56 84.84 267.68 84.53 267.68 84.19C267.68 83.93 267.61 83.71 267.47 83.53C267.35 83.33 267.16 83.15 266.9 82.99C266.64 82.81 266.3 82.64 265.88 82.48C265.46 82.3 264.95 82.13 264.35 81.97C263.33 81.67 262.44 81.33 261.68 80.95C260.92 80.55 260.33 80.08 259.91 79.54C259.49 79 259.28 78.36 259.28 77.62C259.28 76.88 259.49 76.23 259.91 75.67C260.35 75.09 260.97 74.63 261.77 74.29C262.57 73.95 263.52 73.78 264.62 73.78C265.22 73.78 265.78 73.83 266.3 73.93C266.84 74.01 267.33 74.14 267.77 74.32C268.23 74.5 268.66 74.73 269.06 75.01C269.46 75.27 269.84 75.58 270.2 75.94L268.67 77.98L268.49 78.22L268.28 78.04C268.26 77.88 268.21 77.73 268.13 77.59C268.07 77.45 267.93 77.27 267.71 77.05C267.27 76.73 266.79 76.49 266.27 76.33C265.75 76.17 265.22 76.09 264.68 76.09C263.98 76.09 263.36 76.21 262.82 76.45C262.3 76.69 262.04 77.05 262.04 77.53C262.04 77.81 262.15 78.07 262.37 78.31C262.61 78.55 262.99 78.79 263.51 79.03C264.03 79.25 264.74 79.48 265.64 79.72C266.78 80.02 267.7 80.37 268.4 80.77C269.1 81.15 269.61 81.6 269.93 82.12C270.27 82.64 270.44 83.25 270.44 83.95C270.44 84.73 270.22 85.46 269.78 86.14C269.36 86.8 268.72 87.33 267.86 87.73C267 88.13 265.95 88.33 264.71 88.33ZM273.83 67.93H276.77H277.07V68.2C276.95 68.32 276.87 68.45 276.83 68.59C276.81 68.73 276.8 68.97 276.8 69.31V76.15C277.14 75.65 277.54 75.23 278 74.89C278.48 74.53 278.97 74.26 279.47 74.08C279.99 73.88 280.51 73.78 281.03 73.78C281.91 73.78 282.67 73.98 283.31 74.38C283.97 74.78 284.48 75.41 284.84 76.27C285.2 77.11 285.38 78.23 285.38 79.63V88H282.44V79.66C282.44 78.8 282.35 78.12 282.17 77.62C281.99 77.1 281.74 76.73 281.42 76.51C281.1 76.27 280.72 76.15 280.28 76.15C279.92 76.15 279.57 76.21 279.23 76.33C278.91 76.45 278.6 76.62 278.3 76.84C278 77.04 277.74 77.3 277.52 77.62C277.3 77.94 277.12 78.3 276.98 78.7C276.86 79.1 276.8 79.54 276.8 80.02V88H273.83V67.93ZM295.22 88.33C294.72 88.33 294.23 88.25 293.75 88.09C293.29 87.95 292.85 87.74 292.43 87.46C292.03 87.16 291.67 86.8 291.35 86.38L290.72 88H288.56V67.93H291.56H291.83V68.2C291.73 68.32 291.66 68.45 291.62 68.59C291.6 68.73 291.59 68.97 291.59 69.31V75.88C291.79 75.56 292.03 75.28 292.31 75.04C292.59 74.78 292.89 74.56 293.21 74.38C293.55 74.18 293.9 74.03 294.26 73.93C294.64 73.83 295.01 73.78 295.37 73.78C296.21 73.8 296.97 73.96 297.65 74.26C298.35 74.54 298.95 74.98 299.45 75.58C299.95 76.16 300.33 76.89 300.59 77.77C300.87 78.65 301.01 79.68 301.01 80.86C301.01 82.12 300.85 83.22 300.53 84.16C300.23 85.1 299.81 85.88 299.27 86.5C298.73 87.12 298.11 87.58 297.41 87.88C296.71 88.18 295.98 88.33 295.22 88.33ZM294.71 85.93C295.15 85.93 295.56 85.85 295.94 85.69C296.34 85.53 296.69 85.26 296.99 84.88C297.31 84.5 297.56 84 297.74 83.38C297.92 82.76 298.01 82.01 298.01 81.13C298.01 80.31 297.93 79.59 297.77 78.97C297.63 78.35 297.42 77.83 297.14 77.41C296.86 76.97 296.51 76.65 296.09 76.45C295.69 76.23 295.25 76.12 294.77 76.12C294.11 76.12 293.54 76.32 293.06 76.72C292.6 77.12 292.24 77.69 291.98 78.43C291.72 79.15 291.59 80.01 291.59 81.01C291.59 81.79 291.65 82.49 291.77 83.11C291.89 83.71 292.07 84.22 292.31 84.64C292.57 85.06 292.89 85.38 293.27 85.6C293.67 85.82 294.15 85.93 294.71 85.93ZM309.5 88.3C308.24 88.3 307.12 88 306.14 87.4C305.16 86.78 304.38 85.93 303.8 84.85C303.22 83.75 302.93 82.49 302.93 81.07C302.93 79.67 303.22 78.43 303.8 77.35C304.38 76.25 305.16 75.39 306.14 74.77C307.12 74.13 308.24 73.81 309.5 73.81C310.74 73.81 311.85 74.13 312.83 74.77C313.83 75.39 314.62 76.25 315.2 77.35C315.78 78.43 316.07 79.67 316.07 81.07C316.07 82.47 315.78 83.72 315.2 84.82C314.62 85.9 313.83 86.75 312.83 87.37C311.85 87.99 310.74 88.3 309.5 88.3ZM309.5 85.87C310.18 85.87 310.78 85.67 311.3 85.27C311.84 84.85 312.26 84.28 312.56 83.56C312.86 82.84 313.01 82 313.01 81.04C313.01 80.06 312.86 79.21 312.56 78.49C312.26 77.77 311.84 77.21 311.3 76.81C310.78 76.41 310.18 76.21 309.5 76.21C308.82 76.21 308.21 76.41 307.67 76.81C307.15 77.21 306.74 77.77 306.44 78.49C306.14 79.21 305.99 80.06 305.99 81.04C305.99 82 306.14 82.84 306.44 83.56C306.74 84.28 307.15 84.85 307.67 85.27C308.21 85.67 308.82 85.87 309.5 85.87ZM323.06 88.33C321.52 88.33 320.32 87.98 319.46 87.28C318.62 86.56 318.2 85.63 318.2 84.49C318.2 83.73 318.37 83.05 318.71 82.45C319.07 81.83 319.57 81.3 320.21 80.86C320.87 80.42 321.66 80.08 322.58 79.84C323.5 79.58 324.54 79.45 325.7 79.45C325.94 79.45 326.19 79.46 326.45 79.48C326.73 79.48 327.02 79.49 327.32 79.51C327.64 79.53 327.96 79.55 328.28 79.57L328.37 81.7C328.09 81.66 327.79 81.63 327.47 81.61C327.17 81.59 326.87 81.58 326.57 81.58C326.27 81.58 325.99 81.58 325.73 81.58C324.95 81.58 324.27 81.64 323.69 81.76C323.13 81.86 322.66 82.02 322.28 82.24C321.92 82.46 321.65 82.73 321.47 83.05C321.29 83.37 321.2 83.74 321.2 84.16C321.2 84.5 321.26 84.8 321.38 85.06C321.5 85.3 321.66 85.49 321.86 85.63C322.08 85.77 322.33 85.88 322.61 85.96C322.91 86.02 323.23 86.05 323.57 86.05C324.23 86.05 324.81 85.94 325.31 85.72C325.81 85.5 326.23 85.18 326.57 84.76C326.93 84.32 327.2 83.78 327.38 83.14C327.56 82.48 327.65 81.71 327.65 80.83C327.65 79.61 327.51 78.66 327.23 77.98C326.97 77.3 326.58 76.83 326.06 76.57C325.54 76.31 324.89 76.18 324.11 76.18C323.47 76.18 322.85 76.29 322.25 76.51C321.67 76.71 321.1 77.09 320.54 77.65L318.95 75.85C319.71 75.13 320.54 74.61 321.44 74.29C322.36 73.97 323.3 73.81 324.26 73.81C325.14 73.81 325.95 73.92 326.69 74.14C327.45 74.34 328.11 74.68 328.67 75.16C329.25 75.64 329.69 76.29 329.99 77.11C330.31 77.93 330.47 78.97 330.47 80.23V88H327.35V86.29C327.09 86.69 326.8 87.03 326.48 87.31C326.16 87.57 325.81 87.78 325.43 87.94C325.07 88.08 324.69 88.18 324.29 88.24C323.89 88.3 323.48 88.33 323.06 88.33ZM334.97 74.11H338.06L338 78.07L337.64 77.74C337.74 77.14 337.93 76.6 338.21 76.12C338.49 75.62 338.83 75.2 339.23 74.86C339.65 74.52 340.11 74.26 340.61 74.08C341.11 73.88 341.63 73.78 342.17 73.78C342.93 73.78 343.62 73.91 344.24 74.17C344.86 74.43 345.42 74.82 345.92 75.34L344.66 77.8L344.54 78.07L344.3 77.95C344.24 77.79 344.18 77.63 344.12 77.47C344.06 77.31 343.91 77.12 343.67 76.9C343.37 76.7 343.07 76.55 342.77 76.45C342.49 76.35 342.16 76.3 341.78 76.3C341.3 76.3 340.83 76.39 340.37 76.57C339.93 76.73 339.53 76.99 339.17 77.35C338.81 77.71 338.52 78.17 338.3 78.73C338.1 79.27 338 79.93 338 80.71V88.03H334.97V74.11ZM353.84 88.33C353.1 88.33 352.38 88.18 351.68 87.88C351 87.56 350.39 87.1 349.85 86.5C349.31 85.9 348.88 85.14 348.56 84.22C348.26 83.28 348.11 82.2 348.11 80.98C348.11 79.74 348.26 78.67 348.56 77.77C348.88 76.87 349.31 76.13 349.85 75.55C350.39 74.95 351.01 74.51 351.71 74.23C352.41 73.93 353.14 73.78 353.9 73.78C354.44 73.78 354.93 73.85 355.37 73.99C355.83 74.13 356.24 74.34 356.6 74.62C356.96 74.9 357.25 75.25 357.47 75.67V67.93H360.38H360.65V68.2C360.55 68.32 360.48 68.45 360.44 68.59C360.4 68.73 360.39 68.97 360.41 69.31V86.05C360.41 86.37 360.42 86.7 360.44 87.04C360.48 87.36 360.57 87.68 360.71 88H357.77C357.67 87.78 357.6 87.58 357.56 87.4C357.52 87.22 357.5 87.04 357.5 86.86C357.5 86.68 357.5 86.49 357.5 86.29C357.22 86.71 356.9 87.08 356.54 87.4C356.18 87.7 355.77 87.93 355.31 88.09C354.85 88.25 354.36 88.33 353.84 88.33ZM354.35 85.87C354.89 85.87 355.35 85.76 355.73 85.54C356.11 85.32 356.42 85 356.66 84.58C356.9 84.16 357.08 83.65 357.2 83.05C357.32 82.45 357.38 81.77 357.38 81.01C357.38 79.99 357.27 79.12 357.05 78.4C356.83 77.66 356.48 77.1 356 76.72C355.54 76.32 354.95 76.12 354.23 76.12C353.71 76.12 353.25 76.23 352.85 76.45C352.45 76.67 352.11 76.99 351.83 77.41C351.57 77.81 351.37 78.3 351.23 78.88C351.09 79.46 351.02 80.11 351.02 80.83C351.02 81.85 351.16 82.74 351.44 83.5C351.74 84.26 352.14 84.85 352.64 85.27C353.14 85.67 353.71 85.87 354.35 85.87ZM378.23 88V69.31H383.81C384.91 69.31 385.86 69.42 386.66 69.64C387.48 69.86 388.15 70.18 388.67 70.6C389.21 71.02 389.61 71.52 389.87 72.1C390.13 72.66 390.26 73.28 390.26 73.96C390.26 74.5 390.15 75.05 389.93 75.61C389.73 76.15 389.43 76.64 389.03 77.08C388.65 77.5 388.16 77.82 387.56 78.04C388.08 78.24 388.55 78.5 388.97 78.82C389.39 79.14 389.75 79.51 390.05 79.93C390.35 80.33 390.58 80.76 390.74 81.22C390.92 81.68 391.01 82.16 391.01 82.66C391.01 83.46 390.86 84.19 390.56 84.85C390.26 85.51 389.81 86.08 389.21 86.56C388.61 87.02 387.86 87.38 386.96 87.64C386.06 87.88 385 88 383.78 88H378.23ZM381.17 85.51H384.11C384.89 85.51 385.56 85.41 386.12 85.21C386.68 84.99 387.11 84.66 387.41 84.22C387.73 83.78 387.89 83.22 387.89 82.54C387.89 81.9 387.75 81.34 387.47 80.86C387.21 80.36 386.77 79.97 386.15 79.69C385.53 79.41 384.69 79.27 383.63 79.27H381.17V85.51ZM381.17 76.87H383.51C384.47 76.87 385.22 76.76 385.76 76.54C386.32 76.32 386.71 76.01 386.93 75.61C387.17 75.21 387.29 74.76 387.29 74.26C387.29 73.88 387.22 73.54 387.08 73.24C386.96 72.94 386.76 72.68 386.48 72.46C386.2 72.22 385.84 72.04 385.4 71.92C384.96 71.8 384.44 71.74 383.84 71.74H381.17V76.87ZM400.13 88.33C399.13 88.33 398.21 88.17 397.37 87.85C396.53 87.53 395.8 87.07 395.18 86.47C394.58 85.85 394.11 85.09 393.77 84.19C393.43 83.29 393.26 82.27 393.26 81.13C393.26 79.97 393.43 78.94 393.77 78.04C394.11 77.12 394.57 76.35 395.15 75.73C395.75 75.11 396.44 74.63 397.22 74.29C398.02 73.95 398.87 73.78 399.77 73.78C400.55 73.78 401.29 73.92 401.99 74.2C402.71 74.48 403.33 74.9 403.85 75.46C404.39 76 404.81 76.69 405.11 77.53C405.43 78.37 405.59 79.35 405.59 80.47C405.59 80.67 405.59 80.9 405.59 81.16C405.59 81.4 405.58 81.61 405.56 81.79H396.14C396.18 82.51 396.32 83.14 396.56 83.68C396.8 84.2 397.1 84.63 397.46 84.97C397.84 85.31 398.27 85.56 398.75 85.72C399.23 85.88 399.73 85.96 400.25 85.96C400.71 85.96 401.13 85.92 401.51 85.84C401.91 85.74 402.29 85.59 402.65 85.39C403.01 85.19 403.34 84.92 403.64 84.58L405.2 86.11C404.78 86.61 404.31 87.03 403.79 87.37C403.27 87.69 402.7 87.93 402.08 88.09C401.48 88.25 400.83 88.33 400.13 88.33ZM396.2 79.54H402.68C402.68 78.98 402.61 78.49 402.47 78.07C402.33 77.65 402.12 77.29 401.84 76.99C401.58 76.69 401.26 76.47 400.88 76.33C400.5 76.17 400.08 76.09 399.62 76.09C399.18 76.09 398.77 76.16 398.39 76.3C398.03 76.44 397.7 76.65 397.4 76.93C397.1 77.21 396.84 77.57 396.62 78.01C396.42 78.43 396.28 78.94 396.2 79.54ZM408.83 67.93H411.77H412.07V68.2C411.95 68.32 411.87 68.45 411.83 68.59C411.81 68.73 411.8 68.97 411.8 69.31V76.15C412.14 75.65 412.54 75.23 413 74.89C413.48 74.53 413.97 74.26 414.47 74.08C414.99 73.88 415.51 73.78 416.03 73.78C416.91 73.78 417.67 73.98 418.31 74.38C418.97 74.78 419.48 75.41 419.84 76.27C420.2 77.11 420.38 78.23 420.38 79.63V88H417.44V79.66C417.44 78.8 417.35 78.12 417.17 77.62C416.99 77.1 416.74 76.73 416.42 76.51C416.1 76.27 415.72 76.15 415.28 76.15C414.92 76.15 414.57 76.21 414.23 76.33C413.91 76.45 413.6 76.62 413.3 76.84C413 77.04 412.74 77.3 412.52 77.62C412.3 77.94 412.12 78.3 411.98 78.7C411.86 79.1 411.8 79.54 411.8 80.02V88H408.83V67.93ZM424.7 88V85.63H428.15V76.48H424.85V74.11H431.15V85.63H434.3V88H424.7ZM429.47 71.62C428.93 71.62 428.47 71.44 428.09 71.08C427.73 70.7 427.55 70.26 427.55 69.76C427.55 69.22 427.73 68.77 428.09 68.41C428.45 68.05 428.91 67.87 429.47 67.87C429.99 67.87 430.44 68.06 430.82 68.44C431.22 68.82 431.42 69.26 431.42 69.76C431.42 70.26 431.22 70.7 430.82 71.08C430.44 71.44 429.99 71.62 429.47 71.62ZM438.8 88V74.11H441.8V76.24C442.14 75.74 442.52 75.31 442.94 74.95C443.36 74.59 443.83 74.31 444.35 74.11C444.87 73.89 445.43 73.78 446.03 73.78C446.81 73.78 447.53 73.98 448.19 74.38C448.85 74.78 449.38 75.41 449.78 76.27C450.18 77.11 450.38 78.23 450.38 79.63V88H447.41V79.66C447.41 78.84 447.32 78.17 447.14 77.65C446.96 77.13 446.7 76.75 446.36 76.51C446.04 76.27 445.65 76.15 445.19 76.15C444.79 76.15 444.39 76.24 443.99 76.42C443.59 76.6 443.22 76.85 442.88 77.17C442.56 77.47 442.3 77.85 442.1 78.31C441.9 78.75 441.8 79.25 441.8 79.81V88H438.8ZM458.84 88.33C458.1 88.33 457.38 88.18 456.68 87.88C456 87.56 455.39 87.1 454.85 86.5C454.31 85.9 453.88 85.14 453.56 84.22C453.26 83.28 453.11 82.2 453.11 80.98C453.11 79.74 453.26 78.67 453.56 77.77C453.88 76.87 454.31 76.13 454.85 75.55C455.39 74.95 456.01 74.51 456.71 74.23C457.41 73.93 458.14 73.78 458.9 73.78C459.44 73.78 459.93 73.85 460.37 73.99C460.83 74.13 461.24 74.34 461.6 74.62C461.96 74.9 462.25 75.25 462.47 75.67V67.93H465.38H465.65V68.2C465.55 68.32 465.48 68.45 465.44 68.59C465.4 68.73 465.39 68.97 465.41 69.31V86.05C465.41 86.37 465.42 86.7 465.44 87.04C465.48 87.36 465.57 87.68 465.71 88H462.77C462.67 87.78 462.6 87.58 462.56 87.4C462.52 87.22 462.5 87.04 462.5 86.86C462.5 86.68 462.5 86.49 462.5 86.29C462.22 86.71 461.9 87.08 461.54 87.4C461.18 87.7 460.77 87.93 460.31 88.09C459.85 88.25 459.36 88.33 458.84 88.33ZM459.35 85.87C459.89 85.87 460.35 85.76 460.73 85.54C461.11 85.32 461.42 85 461.66 84.58C461.9 84.16 462.08 83.65 462.2 83.05C462.32 82.45 462.38 81.77 462.38 81.01C462.38 79.99 462.27 79.12 462.05 78.4C461.83 77.66 461.48 77.1 461 76.72C460.54 76.32 459.95 76.12 459.23 76.12C458.71 76.12 458.25 76.23 457.85 76.45C457.45 76.67 457.11 76.99 456.83 77.41C456.57 77.81 456.37 78.3 456.23 78.88C456.09 79.46 456.02 80.11 456.02 80.83C456.02 81.85 456.16 82.74 456.44 83.5C456.74 84.26 457.14 84.85 457.64 85.27C458.14 85.67 458.71 85.87 459.35 85.87ZM483.8 69.31H486.8H487.07V69.58C486.95 69.7 486.88 69.83 486.86 69.97C486.84 70.11 486.83 70.35 486.83 70.69V85.54H495.53V88H483.8V69.31ZM504.5 88.3C503.24 88.3 502.12 88 501.14 87.4C500.16 86.78 499.38 85.93 498.8 84.85C498.22 83.75 497.93 82.49 497.93 81.07C497.93 79.67 498.22 78.43 498.8 77.35C499.38 76.25 500.16 75.39 501.14 74.77C502.12 74.13 503.24 73.81 504.5 73.81C505.74 73.81 506.85 74.13 507.83 74.77C508.83 75.39 509.62 76.25 510.2 77.35C510.78 78.43 511.07 79.67 511.07 81.07C511.07 82.47 510.78 83.72 510.2 84.82C509.62 85.9 508.83 86.75 507.83 87.37C506.85 87.99 505.74 88.3 504.5 88.3ZM504.5 85.87C505.18 85.87 505.78 85.67 506.3 85.27C506.84 84.85 507.26 84.28 507.56 83.56C507.86 82.84 508.01 82 508.01 81.04C508.01 80.06 507.86 79.21 507.56 78.49C507.26 77.77 506.84 77.21 506.3 76.81C505.78 76.41 505.18 76.21 504.5 76.21C503.82 76.21 503.21 76.41 502.67 76.81C502.15 77.21 501.74 77.77 501.44 78.49C501.14 79.21 500.99 80.06 500.99 81.04C500.99 82 501.14 82.84 501.44 83.56C501.74 84.28 502.15 84.85 502.67 85.27C503.21 85.67 503.82 85.87 504.5 85.87ZM519.23 93.28C518.27 93.28 517.4 93.2 516.62 93.04C515.84 92.88 515.17 92.64 514.61 92.32C514.07 92.02 513.66 91.64 513.38 91.18C513.1 90.74 512.96 90.24 512.96 89.68C512.96 89.16 513.08 88.69 513.32 88.27C513.56 87.85 513.88 87.49 514.28 87.19C514.68 86.87 515.12 86.63 515.6 86.47L516.92 87.07C516.6 87.27 516.32 87.47 516.08 87.67C515.84 87.87 515.65 88.09 515.51 88.33C515.39 88.59 515.33 88.89 515.33 89.23C515.33 89.53 515.43 89.79 515.63 90.01C515.83 90.23 516.11 90.41 516.47 90.55C516.83 90.69 517.26 90.8 517.76 90.88C518.26 90.96 518.82 91 519.44 91C520.26 91 520.94 90.92 521.48 90.76C522.02 90.62 522.42 90.41 522.68 90.13C522.96 89.85 523.1 89.53 523.1 89.17C523.1 88.81 523.02 88.52 522.86 88.3C522.7 88.1 522.4 87.95 521.96 87.85C521.52 87.73 520.88 87.67 520.04 87.67C519.36 87.67 518.71 87.65 518.09 87.61C517.49 87.55 516.93 87.45 516.41 87.31C515.91 87.17 515.47 86.99 515.09 86.77C514.71 86.55 514.41 86.28 514.19 85.96C513.99 85.62 513.89 85.22 513.89 84.76C513.89 84.16 514.07 83.62 514.43 83.14C514.79 82.64 515.24 82.19 515.78 81.79L517.13 82.63C516.95 82.83 516.79 83 516.65 83.14C516.51 83.28 516.4 83.42 516.32 83.56C516.24 83.68 516.2 83.83 516.2 84.01C516.2 84.27 516.35 84.49 516.65 84.67C516.95 84.85 517.43 84.98 518.09 85.06C518.77 85.14 519.67 85.18 520.79 85.18C521.73 85.18 522.51 85.28 523.13 85.48C523.77 85.66 524.27 85.92 524.63 86.26C524.99 86.6 525.24 86.99 525.38 87.43C525.54 87.85 525.62 88.32 525.62 88.84C525.62 89.4 525.5 89.94 525.26 90.46C525.02 91 524.64 91.48 524.12 91.9C523.62 92.32 522.96 92.65 522.14 92.89C521.34 93.15 520.37 93.28 519.23 93.28ZM518.84 83.32C517.86 83.32 516.99 83.11 516.23 82.69C515.47 82.25 514.87 81.67 514.43 80.95C514.01 80.23 513.8 79.42 513.8 78.52C513.8 77.62 514.01 76.81 514.43 76.09C514.87 75.35 515.47 74.77 516.23 74.35C516.99 73.91 517.86 73.69 518.84 73.69C519.84 73.69 520.72 73.91 521.48 74.35C522.24 74.77 522.83 75.35 523.25 76.09C523.69 76.81 523.91 77.62 523.91 78.52C523.91 79.42 523.69 80.23 523.25 80.95C522.83 81.67 522.24 82.25 521.48 82.69C520.72 83.11 519.84 83.32 518.84 83.32ZM518.84 81.07C519.34 81.07 519.78 80.96 520.16 80.74C520.54 80.52 520.84 80.22 521.06 79.84C521.28 79.44 521.39 79 521.39 78.52C521.39 78.02 521.28 77.59 521.06 77.23C520.84 76.85 520.53 76.55 520.13 76.33C519.75 76.11 519.32 76 518.84 76C518.38 76 517.96 76.11 517.58 76.33C517.2 76.55 516.89 76.85 516.65 77.23C516.43 77.61 516.32 78.04 516.32 78.52C516.32 78.98 516.43 79.41 516.65 79.81C516.87 80.19 517.17 80.5 517.55 80.74C517.93 80.96 518.36 81.07 518.84 81.07ZM523.07 76.57L521.93 75.16C522.51 74.68 523.14 74.32 523.82 74.08C524.52 73.82 525.29 73.72 526.13 73.78L526.43 75.91C525.81 75.83 525.21 75.84 524.63 75.94C524.05 76.02 523.53 76.23 523.07 76.57ZM529.7 88V85.63H533.15V76.48H529.85V74.11H536.15V85.63H539.3V88H529.7ZM534.47 71.62C533.93 71.62 533.47 71.44 533.09 71.08C532.73 70.7 532.55 70.26 532.55 69.76C532.55 69.22 532.73 68.77 533.09 68.41C533.45 68.05 533.91 67.87 534.47 67.87C534.99 67.87 535.44 68.06 535.82 68.44C536.22 68.82 536.42 69.26 536.42 69.76C536.42 70.26 536.22 70.7 535.82 71.08C535.44 71.44 534.99 71.62 534.47 71.62ZM543.8 88V74.11H546.8V76.24C547.14 75.74 547.52 75.31 547.94 74.95C548.36 74.59 548.83 74.31 549.35 74.11C549.87 73.89 550.43 73.78 551.03 73.78C551.81 73.78 552.53 73.98 553.19 74.38C553.85 74.78 554.38 75.41 554.78 76.27C555.18 77.11 555.38 78.23 555.38 79.63V88H552.41V79.66C552.41 78.84 552.32 78.17 552.14 77.65C551.96 77.13 551.7 76.75 551.36 76.51C551.04 76.27 550.65 76.15 550.19 76.15C549.79 76.15 549.39 76.24 548.99 76.42C548.59 76.6 548.22 76.85 547.88 77.17C547.56 77.47 547.3 77.85 547.1 78.31C546.9 78.75 546.8 79.25 546.8 79.81V88H543.8Z" fill="white"/>
</svg>
