<svg width="984" height="413" viewBox="0 0 984 413" fill="none" xmlns="http://www.w3.org/2000/svg">
<rect x="41" y="65" width="234" height="54" rx="6" fill="white" fill-opacity="0.95" stroke="#360575" stroke-width="2"/>
<path d="M91.854 86.634H93.226H93.366V86.76C93.31 86.816 93.2727 86.8767 93.254 86.942C93.2447 87.0073 93.24 87.1193 93.24 87.278V90.47C93.3987 90.2367 93.5853 90.0407 93.8 89.882C94.024 89.714 94.2527 89.588 94.486 89.504C94.7287 89.4107 94.9713 89.364 95.214 89.364C95.6247 89.364 95.9793 89.4573 96.278 89.644C96.586 89.8307 96.824 90.1247 96.992 90.526C97.16 90.918 97.244 91.4407 97.244 92.094V96H95.872V92.108C95.872 91.7067 95.83 91.3893 95.746 91.156C95.662 90.9133 95.5453 90.7407 95.396 90.638C95.2467 90.526 95.0693 90.47 94.864 90.47C94.696 90.47 94.5327 90.498 94.374 90.554C94.2247 90.61 94.08 90.6893 93.94 90.792C93.8 90.8853 93.6787 91.0067 93.576 91.156C93.4733 91.3053 93.3893 91.4733 93.324 91.66C93.268 91.8467 93.24 92.052 93.24 92.276V96H91.854V86.634ZM102.186 96.126C101.803 96.126 101.472 96.0653 101.192 95.944C100.921 95.8133 100.702 95.608 100.534 95.328C100.375 95.048 100.263 94.684 100.198 94.236C100.133 93.788 100.109 93.242 100.128 92.598L100.31 87.95L101.738 87.768L101.878 87.754L101.892 87.88C101.845 87.9453 101.803 88.0107 101.766 88.076C101.738 88.1413 101.715 88.2533 101.696 88.412L101.556 90.218L101.612 90.372L101.514 92.598C101.486 93.2327 101.505 93.7273 101.57 94.082C101.635 94.4273 101.747 94.67 101.906 94.81C102.065 94.9407 102.256 95.006 102.48 95.006C102.779 95.006 103.045 94.9453 103.278 94.824C103.521 94.7027 103.759 94.5533 103.992 94.376L104.3 95.412C103.983 95.6453 103.651 95.8227 103.306 95.944C102.961 96.0653 102.587 96.126 102.186 96.126ZM98.868 89.518H103.754L103.74 90.638H98.868V89.518ZM109.186 96.126C108.803 96.126 108.472 96.0653 108.192 95.944C107.921 95.8133 107.702 95.608 107.534 95.328C107.375 95.048 107.263 94.684 107.198 94.236C107.133 93.788 107.109 93.242 107.128 92.598L107.31 87.95L108.738 87.768L108.878 87.754L108.892 87.88C108.845 87.9453 108.803 88.0107 108.766 88.076C108.738 88.1413 108.715 88.2533 108.696 88.412L108.556 90.218L108.612 90.372L108.514 92.598C108.486 93.2327 108.505 93.7273 108.57 94.082C108.635 94.4273 108.747 94.67 108.906 94.81C109.065 94.9407 109.256 95.006 109.48 95.006C109.779 95.006 110.045 94.9453 110.278 94.824C110.521 94.7027 110.759 94.5533 110.992 94.376L111.3 95.412C110.983 95.6453 110.651 95.8227 110.306 95.944C109.961 96.0653 109.587 96.126 109.186 96.126ZM105.868 89.518H110.754L110.74 90.638H105.868V89.518ZM112.728 98.338V89.518H114.114V90.554C114.235 90.274 114.389 90.05 114.576 89.882C114.772 89.7047 114.987 89.5787 115.22 89.504C115.453 89.42 115.705 89.378 115.976 89.378C116.331 89.378 116.662 89.4527 116.97 89.602C117.287 89.742 117.567 89.952 117.81 90.232C118.053 90.512 118.244 90.862 118.384 91.282C118.524 91.702 118.594 92.192 118.594 92.752C118.594 93.3213 118.519 93.8207 118.37 94.25C118.221 94.6793 118.02 95.0387 117.768 95.328C117.525 95.608 117.245 95.818 116.928 95.958C116.611 96.098 116.284 96.168 115.948 96.168C115.715 96.168 115.481 96.1353 115.248 96.07C115.024 96.014 114.819 95.9253 114.632 95.804C114.445 95.6733 114.282 95.524 114.142 95.356V98.338H112.728ZM115.598 95.048C115.813 95.048 116.013 95.0107 116.2 94.936C116.387 94.852 116.555 94.726 116.704 94.558C116.853 94.3807 116.97 94.1427 117.054 93.844C117.138 93.536 117.18 93.1627 117.18 92.724C117.18 92.2573 117.119 91.8607 116.998 91.534C116.886 91.2073 116.718 90.9553 116.494 90.778C116.279 90.6007 116.018 90.5073 115.71 90.498C115.477 90.4887 115.262 90.5307 115.066 90.624C114.87 90.708 114.702 90.848 114.562 91.044C114.422 91.2307 114.315 91.4827 114.24 91.8C114.175 92.108 114.142 92.4767 114.142 92.906C114.142 93.1953 114.161 93.4567 114.198 93.69C114.245 93.914 114.31 94.1147 114.394 94.292C114.478 94.46 114.576 94.6 114.688 94.712C114.809 94.824 114.945 94.908 115.094 94.964C115.253 95.02 115.421 95.048 115.598 95.048ZM122.598 96.154C122.206 96.154 121.837 96.1167 121.492 96.042C121.147 95.9673 120.82 95.8553 120.512 95.706C120.213 95.5567 119.938 95.3653 119.686 95.132L120.33 93.956L120.414 93.83L120.512 93.886C120.531 93.9607 120.554 94.04 120.582 94.124C120.61 94.1987 120.675 94.292 120.778 94.404C121.002 94.6 121.259 94.7587 121.548 94.88C121.837 94.992 122.192 95.048 122.612 95.048C122.901 95.048 123.144 95.0153 123.34 94.95C123.545 94.8753 123.704 94.7773 123.816 94.656C123.928 94.5253 123.984 94.3807 123.984 94.222C123.984 94.1007 123.951 93.998 123.886 93.914C123.83 93.8207 123.741 93.7367 123.62 93.662C123.499 93.578 123.34 93.4987 123.144 93.424C122.948 93.34 122.71 93.2607 122.43 93.186C121.954 93.046 121.539 92.8873 121.184 92.71C120.829 92.5233 120.554 92.304 120.358 92.052C120.162 91.8 120.064 91.5013 120.064 91.156C120.064 90.8107 120.162 90.5073 120.358 90.246C120.563 89.9753 120.853 89.7607 121.226 89.602C121.599 89.4433 122.043 89.364 122.556 89.364C122.836 89.364 123.097 89.3873 123.34 89.434C123.592 89.4713 123.821 89.532 124.026 89.616C124.241 89.7 124.441 89.8073 124.628 89.938C124.815 90.0593 124.992 90.204 125.16 90.372L124.446 91.324L124.362 91.436L124.264 91.352C124.255 91.2773 124.231 91.2073 124.194 91.142C124.166 91.0767 124.101 90.9927 123.998 90.89C123.793 90.7407 123.569 90.6287 123.326 90.554C123.083 90.4793 122.836 90.442 122.584 90.442C122.257 90.442 121.968 90.498 121.716 90.61C121.473 90.722 121.352 90.89 121.352 91.114C121.352 91.2447 121.403 91.366 121.506 91.478C121.618 91.59 121.795 91.702 122.038 91.814C122.281 91.9167 122.612 92.024 123.032 92.136C123.564 92.276 123.993 92.4393 124.32 92.626C124.647 92.8033 124.885 93.0133 125.034 93.256C125.193 93.4987 125.272 93.7833 125.272 94.11C125.272 94.474 125.169 94.8147 124.964 95.132C124.768 95.44 124.469 95.6873 124.068 95.874C123.667 96.0607 123.177 96.154 122.598 96.154ZM129.304 91.856C129.043 91.856 128.814 91.758 128.618 91.562C128.422 91.366 128.324 91.1373 128.324 90.876C128.324 90.6147 128.422 90.386 128.618 90.19C128.814 89.994 129.043 89.896 129.304 89.896C129.556 89.896 129.785 89.994 129.99 90.19C130.195 90.3767 130.298 90.6053 130.298 90.876C130.298 91.1373 130.2 91.366 130.004 91.562C129.817 91.758 129.584 91.856 129.304 91.856ZM129.304 96.168C129.024 96.168 128.791 96.0747 128.604 95.888C128.417 95.692 128.324 95.4633 128.324 95.202C128.324 94.9313 128.422 94.698 128.618 94.502C128.814 94.306 129.043 94.208 129.304 94.208C129.556 94.208 129.785 94.306 129.99 94.502C130.195 94.698 130.298 94.9313 130.298 95.202C130.298 95.454 130.2 95.678 130.004 95.874C129.817 96.07 129.584 96.168 129.304 96.168ZM134.974 96.602L133.728 96.042L138.054 86.676L139.286 87.306L134.974 96.602ZM141.974 96.602L140.728 96.042L145.054 86.676L146.286 87.306L141.974 96.602ZM150.794 96.154C150.327 96.154 149.898 96.0793 149.506 95.93C149.114 95.7807 148.773 95.566 148.484 95.286C148.204 94.9967 147.985 94.642 147.826 94.222C147.667 93.802 147.588 93.326 147.588 92.794C147.588 92.2527 147.667 91.772 147.826 91.352C147.985 90.9227 148.199 90.5633 148.47 90.274C148.75 89.9847 149.072 89.7607 149.436 89.602C149.809 89.4433 150.206 89.364 150.626 89.364C150.99 89.364 151.335 89.4293 151.662 89.56C151.998 89.6907 152.287 89.8867 152.53 90.148C152.782 90.4 152.978 90.722 153.118 91.114C153.267 91.506 153.342 91.9633 153.342 92.486C153.342 92.5793 153.342 92.6867 153.342 92.808C153.342 92.92 153.337 93.018 153.328 93.102H148.932C148.951 93.438 149.016 93.732 149.128 93.984C149.24 94.2267 149.38 94.4273 149.548 94.586C149.725 94.7447 149.926 94.8613 150.15 94.936C150.374 95.0107 150.607 95.048 150.85 95.048C151.065 95.048 151.261 95.0293 151.438 94.992C151.625 94.9453 151.802 94.8753 151.97 94.782C152.138 94.6887 152.292 94.5627 152.432 94.404L153.16 95.118C152.964 95.3513 152.745 95.5473 152.502 95.706C152.259 95.8553 151.993 95.9673 151.704 96.042C151.424 96.1167 151.121 96.154 150.794 96.154ZM148.96 92.052H151.984C151.984 91.7907 151.951 91.562 151.886 91.366C151.821 91.17 151.723 91.002 151.592 90.862C151.471 90.722 151.321 90.6193 151.144 90.554C150.967 90.4793 150.771 90.442 150.556 90.442C150.351 90.442 150.159 90.4747 149.982 90.54C149.814 90.6053 149.66 90.7033 149.52 90.834C149.38 90.9647 149.259 91.1327 149.156 91.338C149.063 91.534 148.997 91.772 148.96 92.052ZM154.476 96L156.73 92.752L154.518 89.518H156.002L157.486 91.66L158.886 89.518H160.3L158.228 92.682L160.566 96H159.054L157.472 93.788L156.002 96H154.476ZM163.828 96.154C163.109 96.154 162.549 95.9907 162.148 95.664C161.756 95.328 161.56 94.894 161.56 94.362C161.56 94.0073 161.639 93.69 161.798 93.41C161.966 93.1207 162.199 92.8733 162.498 92.668C162.806 92.4627 163.175 92.304 163.604 92.192C164.033 92.0707 164.519 92.01 165.06 92.01C165.172 92.01 165.289 92.0147 165.41 92.024C165.541 92.024 165.676 92.0287 165.816 92.038C165.965 92.0473 166.115 92.0567 166.264 92.066L166.306 93.06C166.175 93.0413 166.035 93.0273 165.886 93.018C165.746 93.0087 165.606 93.004 165.466 93.004C165.326 93.004 165.195 93.004 165.074 93.004C164.71 93.004 164.393 93.032 164.122 93.088C163.861 93.1347 163.641 93.2093 163.464 93.312C163.296 93.4147 163.17 93.5407 163.086 93.69C163.002 93.8393 162.96 94.012 162.96 94.208C162.96 94.3667 162.988 94.5067 163.044 94.628C163.1 94.74 163.175 94.8287 163.268 94.894C163.371 94.9593 163.487 95.0107 163.618 95.048C163.758 95.076 163.907 95.09 164.066 95.09C164.374 95.09 164.645 95.0387 164.878 94.936C165.111 94.8333 165.307 94.684 165.466 94.488C165.634 94.2827 165.76 94.0307 165.844 93.732C165.928 93.424 165.97 93.0647 165.97 92.654C165.97 92.0847 165.905 91.6413 165.774 91.324C165.653 91.0067 165.471 90.7873 165.228 90.666C164.985 90.5447 164.682 90.484 164.318 90.484C164.019 90.484 163.73 90.5353 163.45 90.638C163.179 90.7313 162.913 90.9087 162.652 91.17L161.91 90.33C162.265 89.994 162.652 89.7513 163.072 89.602C163.501 89.4527 163.94 89.378 164.388 89.378C164.799 89.378 165.177 89.4293 165.522 89.532C165.877 89.6253 166.185 89.784 166.446 90.008C166.717 90.232 166.922 90.5353 167.062 90.918C167.211 91.3007 167.286 91.786 167.286 92.374V96H165.83V95.202C165.709 95.3887 165.573 95.5473 165.424 95.678C165.275 95.7993 165.111 95.8973 164.934 95.972C164.766 96.0373 164.589 96.084 164.402 96.112C164.215 96.14 164.024 96.154 163.828 96.154ZM168.462 96V89.518H169.652V90.05C169.755 89.9007 169.867 89.7793 169.988 89.686C170.119 89.5833 170.254 89.504 170.394 89.448C170.543 89.392 170.693 89.364 170.842 89.364C171.01 89.364 171.169 89.3967 171.318 89.462C171.467 89.5273 171.598 89.6207 171.71 89.742C171.822 89.8633 171.906 90.022 171.962 90.218C172.055 90.0313 172.167 89.8773 172.298 89.756C172.438 89.6347 172.597 89.5413 172.774 89.476C172.961 89.4013 173.157 89.364 173.362 89.364C173.586 89.364 173.777 89.4107 173.936 89.504C174.104 89.588 174.239 89.7093 174.342 89.868C174.454 90.0173 174.533 90.204 174.58 90.428C174.636 90.6427 174.659 90.8853 174.65 91.156V96H173.432V91.52C173.432 91.1933 173.413 90.9507 173.376 90.792C173.339 90.6333 173.283 90.526 173.208 90.47C173.143 90.414 173.063 90.386 172.97 90.386C172.83 90.386 172.695 90.4513 172.564 90.582C172.443 90.7033 172.34 90.8713 172.256 91.086C172.181 91.3007 172.144 91.5387 172.144 91.8V96H170.968V91.576C170.968 91.0907 170.926 90.7687 170.842 90.61C170.767 90.4513 170.632 90.372 170.436 90.372C170.343 90.372 170.249 90.4047 170.156 90.47C170.072 90.526 169.993 90.6147 169.918 90.736C169.843 90.848 169.783 90.988 169.736 91.156C169.699 91.324 169.68 91.52 169.68 91.744V96H168.462ZM175.728 98.338V89.518H177.114V90.554C177.235 90.274 177.389 90.05 177.576 89.882C177.772 89.7047 177.987 89.5787 178.22 89.504C178.453 89.42 178.705 89.378 178.976 89.378C179.331 89.378 179.662 89.4527 179.97 89.602C180.287 89.742 180.567 89.952 180.81 90.232C181.053 90.512 181.244 90.862 181.384 91.282C181.524 91.702 181.594 92.192 181.594 92.752C181.594 93.3213 181.519 93.8207 181.37 94.25C181.221 94.6793 181.02 95.0387 180.768 95.328C180.525 95.608 180.245 95.818 179.928 95.958C179.611 96.098 179.284 96.168 178.948 96.168C178.715 96.168 178.481 96.1353 178.248 96.07C178.024 96.014 177.819 95.9253 177.632 95.804C177.445 95.6733 177.282 95.524 177.142 95.356V98.338H175.728ZM178.598 95.048C178.813 95.048 179.013 95.0107 179.2 94.936C179.387 94.852 179.555 94.726 179.704 94.558C179.853 94.3807 179.97 94.1427 180.054 93.844C180.138 93.536 180.18 93.1627 180.18 92.724C180.18 92.2573 180.119 91.8607 179.998 91.534C179.886 91.2073 179.718 90.9553 179.494 90.778C179.279 90.6007 179.018 90.5073 178.71 90.498C178.477 90.4887 178.262 90.5307 178.066 90.624C177.87 90.708 177.702 90.848 177.562 91.044C177.422 91.2307 177.315 91.4827 177.24 91.8C177.175 92.108 177.142 92.4767 177.142 92.906C177.142 93.1953 177.161 93.4567 177.198 93.69C177.245 93.914 177.31 94.1147 177.394 94.292C177.478 94.46 177.576 94.6 177.688 94.712C177.809 94.824 177.945 94.908 178.094 94.964C178.253 95.02 178.421 95.048 178.598 95.048ZM182.952 96V94.894H184.8V87.74H183.036V86.634H186.214V94.894H188.048V96H182.952ZM192.794 96.154C192.327 96.154 191.898 96.0793 191.506 95.93C191.114 95.7807 190.773 95.566 190.484 95.286C190.204 94.9967 189.985 94.642 189.826 94.222C189.667 93.802 189.588 93.326 189.588 92.794C189.588 92.2527 189.667 91.772 189.826 91.352C189.985 90.9227 190.199 90.5633 190.47 90.274C190.75 89.9847 191.072 89.7607 191.436 89.602C191.809 89.4433 192.206 89.364 192.626 89.364C192.99 89.364 193.335 89.4293 193.662 89.56C193.998 89.6907 194.287 89.8867 194.53 90.148C194.782 90.4 194.978 90.722 195.118 91.114C195.267 91.506 195.342 91.9633 195.342 92.486C195.342 92.5793 195.342 92.6867 195.342 92.808C195.342 92.92 195.337 93.018 195.328 93.102H190.932C190.951 93.438 191.016 93.732 191.128 93.984C191.24 94.2267 191.38 94.4273 191.548 94.586C191.725 94.7447 191.926 94.8613 192.15 94.936C192.374 95.0107 192.607 95.048 192.85 95.048C193.065 95.048 193.261 95.0293 193.438 94.992C193.625 94.9453 193.802 94.8753 193.97 94.782C194.138 94.6887 194.292 94.5627 194.432 94.404L195.16 95.118C194.964 95.3513 194.745 95.5473 194.502 95.706C194.259 95.8553 193.993 95.9673 193.704 96.042C193.424 96.1167 193.121 96.154 192.794 96.154ZM190.96 92.052H193.984C193.984 91.7907 193.951 91.562 193.886 91.366C193.821 91.17 193.723 91.002 193.592 90.862C193.471 90.722 193.321 90.6193 193.144 90.554C192.967 90.4793 192.771 90.442 192.556 90.442C192.351 90.442 192.159 90.4747 191.982 90.54C191.814 90.6053 191.66 90.7033 191.52 90.834C191.38 90.9647 191.259 91.1327 191.156 91.338C191.063 91.534 190.997 91.772 190.96 92.052ZM199.346 96.168C199.075 96.168 198.842 96.0747 198.646 95.888C198.459 95.692 198.366 95.4633 198.366 95.202C198.366 94.9313 198.459 94.7027 198.646 94.516C198.842 94.32 199.075 94.222 199.346 94.222C199.607 94.222 199.831 94.32 200.018 94.516C200.214 94.7027 200.312 94.9313 200.312 95.202C200.312 95.4633 200.214 95.692 200.018 95.888C199.831 96.0747 199.607 96.168 199.346 96.168ZM206.934 96.154C206.458 96.154 206.015 96.0747 205.604 95.916C205.203 95.748 204.853 95.5147 204.554 95.216C204.265 94.908 204.036 94.5533 203.868 94.152C203.709 93.7413 203.63 93.2933 203.63 92.808C203.63 92.3227 203.709 91.8747 203.868 91.464C204.036 91.044 204.265 90.68 204.554 90.372C204.853 90.064 205.203 89.826 205.604 89.658C206.015 89.4807 206.453 89.392 206.92 89.392C207.499 89.392 208.003 89.4993 208.432 89.714C208.871 89.9287 209.225 90.232 209.496 90.624L208.698 91.464L208.6 91.562L208.516 91.478C208.507 91.4033 208.488 91.3333 208.46 91.268C208.441 91.1933 208.381 91.0953 208.278 90.974C208.091 90.806 207.886 90.6893 207.662 90.624C207.438 90.5493 207.181 90.512 206.892 90.512C206.649 90.512 206.416 90.5633 206.192 90.666C205.977 90.7687 205.781 90.918 205.604 91.114C205.436 91.31 205.301 91.548 205.198 91.828C205.095 92.108 205.044 92.4207 205.044 92.766C205.044 93.102 205.095 93.41 205.198 93.69C205.301 93.9607 205.441 94.194 205.618 94.39C205.795 94.5767 206.001 94.726 206.234 94.838C206.477 94.9407 206.729 94.992 206.99 94.992C207.195 94.992 207.391 94.9687 207.578 94.922C207.774 94.866 207.961 94.782 208.138 94.67C208.315 94.5487 208.483 94.3947 208.642 94.208L209.412 95.104C209.076 95.468 208.689 95.734 208.25 95.902C207.821 96.07 207.382 96.154 206.934 96.154ZM213.5 96.14C212.912 96.14 212.389 96 211.932 95.72C211.475 95.4307 211.111 95.034 210.84 94.53C210.569 94.0167 210.434 93.4287 210.434 92.766C210.434 92.1127 210.569 91.534 210.84 91.03C211.111 90.5167 211.475 90.1153 211.932 89.826C212.389 89.5273 212.912 89.378 213.5 89.378C214.079 89.378 214.597 89.5273 215.054 89.826C215.521 90.1153 215.889 90.5167 216.16 91.03C216.431 91.534 216.566 92.1127 216.566 92.766C216.566 93.4193 216.431 94.0027 216.16 94.516C215.889 95.02 215.521 95.4167 215.054 95.706C214.597 95.9953 214.079 96.14 213.5 96.14ZM213.5 95.006C213.817 95.006 214.097 94.9127 214.34 94.726C214.592 94.53 214.788 94.264 214.928 93.928C215.068 93.592 215.138 93.2 215.138 92.752C215.138 92.2947 215.068 91.898 214.928 91.562C214.788 91.226 214.592 90.9647 214.34 90.778C214.097 90.5913 213.817 90.498 213.5 90.498C213.183 90.498 212.898 90.5913 212.646 90.778C212.403 90.9647 212.212 91.226 212.072 91.562C211.932 91.898 211.862 92.2947 211.862 92.752C211.862 93.2 211.932 93.592 212.072 93.928C212.212 94.264 212.403 94.53 212.646 94.726C212.898 94.9127 213.183 95.006 213.5 95.006ZM217.462 96V89.518H218.652V90.05C218.755 89.9007 218.867 89.7793 218.988 89.686C219.119 89.5833 219.254 89.504 219.394 89.448C219.543 89.392 219.693 89.364 219.842 89.364C220.01 89.364 220.169 89.3967 220.318 89.462C220.467 89.5273 220.598 89.6207 220.71 89.742C220.822 89.8633 220.906 90.022 220.962 90.218C221.055 90.0313 221.167 89.8773 221.298 89.756C221.438 89.6347 221.597 89.5413 221.774 89.476C221.961 89.4013 222.157 89.364 222.362 89.364C222.586 89.364 222.777 89.4107 222.936 89.504C223.104 89.588 223.239 89.7093 223.342 89.868C223.454 90.0173 223.533 90.204 223.58 90.428C223.636 90.6427 223.659 90.8853 223.65 91.156V96H222.432V91.52C222.432 91.1933 222.413 90.9507 222.376 90.792C222.339 90.6333 222.283 90.526 222.208 90.47C222.143 90.414 222.063 90.386 221.97 90.386C221.83 90.386 221.695 90.4513 221.564 90.582C221.443 90.7033 221.34 90.8713 221.256 91.086C221.181 91.3007 221.144 91.5387 221.144 91.8V96H219.968V91.576C219.968 91.0907 219.926 90.7687 219.842 90.61C219.767 90.4513 219.632 90.372 219.436 90.372C219.343 90.372 219.249 90.4047 219.156 90.47C219.072 90.526 218.993 90.6147 218.918 90.736C218.843 90.848 218.783 90.988 218.736 91.156C218.699 91.324 218.68 91.52 218.68 91.744V96H217.462Z" fill="#6601E9"/>
<rect x="41" y="179" width="234" height="54" rx="6" fill="white" fill-opacity="0.95" stroke="#360575" stroke-width="2"/>
<path d="M70.854 200.634H72.226H72.366V200.76C72.31 200.816 72.2727 200.877 72.254 200.942C72.2447 201.007 72.24 201.119 72.24 201.278V204.47C72.3987 204.237 72.5853 204.041 72.8 203.882C73.024 203.714 73.2527 203.588 73.486 203.504C73.7287 203.411 73.9713 203.364 74.214 203.364C74.6247 203.364 74.9793 203.457 75.278 203.644C75.586 203.831 75.824 204.125 75.992 204.526C76.16 204.918 76.244 205.441 76.244 206.094V210H74.872V206.108C74.872 205.707 74.83 205.389 74.746 205.156C74.662 204.913 74.5453 204.741 74.396 204.638C74.2467 204.526 74.0693 204.47 73.864 204.47C73.696 204.47 73.5327 204.498 73.374 204.554C73.2247 204.61 73.08 204.689 72.94 204.792C72.8 204.885 72.6787 205.007 72.576 205.156C72.4733 205.305 72.3893 205.473 72.324 205.66C72.268 205.847 72.24 206.052 72.24 206.276V210H70.854V200.634ZM81.186 210.126C80.8033 210.126 80.472 210.065 80.192 209.944C79.9213 209.813 79.702 209.608 79.534 209.328C79.3753 209.048 79.2633 208.684 79.198 208.236C79.1327 207.788 79.1093 207.242 79.128 206.598L79.31 201.95L80.738 201.768L80.878 201.754L80.892 201.88C80.8453 201.945 80.8033 202.011 80.766 202.076C80.738 202.141 80.7147 202.253 80.696 202.412L80.556 204.218L80.612 204.372L80.514 206.598C80.486 207.233 80.5047 207.727 80.57 208.082C80.6353 208.427 80.7473 208.67 80.906 208.81C81.0647 208.941 81.256 209.006 81.48 209.006C81.7787 209.006 82.0447 208.945 82.278 208.824C82.5207 208.703 82.7587 208.553 82.992 208.376L83.3 209.412C82.9827 209.645 82.6513 209.823 82.306 209.944C81.9607 210.065 81.5873 210.126 81.186 210.126ZM77.868 203.518H82.754L82.74 204.638H77.868V203.518ZM88.186 210.126C87.8033 210.126 87.472 210.065 87.192 209.944C86.9213 209.813 86.702 209.608 86.534 209.328C86.3753 209.048 86.2633 208.684 86.198 208.236C86.1327 207.788 86.1093 207.242 86.128 206.598L86.31 201.95L87.738 201.768L87.878 201.754L87.892 201.88C87.8453 201.945 87.8033 202.011 87.766 202.076C87.738 202.141 87.7147 202.253 87.696 202.412L87.556 204.218L87.612 204.372L87.514 206.598C87.486 207.233 87.5047 207.727 87.57 208.082C87.6353 208.427 87.7473 208.67 87.906 208.81C88.0647 208.941 88.256 209.006 88.48 209.006C88.7787 209.006 89.0447 208.945 89.278 208.824C89.5207 208.703 89.7587 208.553 89.992 208.376L90.3 209.412C89.9827 209.645 89.6513 209.823 89.306 209.944C88.9607 210.065 88.5873 210.126 88.186 210.126ZM84.868 203.518H89.754L89.74 204.638H84.868V203.518ZM91.728 212.338V203.518H93.114V204.554C93.2353 204.274 93.3893 204.05 93.576 203.882C93.772 203.705 93.9867 203.579 94.22 203.504C94.4533 203.42 94.7053 203.378 94.976 203.378C95.3307 203.378 95.662 203.453 95.97 203.602C96.2873 203.742 96.5673 203.952 96.81 204.232C97.0527 204.512 97.244 204.862 97.384 205.282C97.524 205.702 97.594 206.192 97.594 206.752C97.594 207.321 97.5193 207.821 97.37 208.25C97.2207 208.679 97.02 209.039 96.768 209.328C96.5253 209.608 96.2453 209.818 95.928 209.958C95.6107 210.098 95.284 210.168 94.948 210.168C94.7147 210.168 94.4813 210.135 94.248 210.07C94.024 210.014 93.8187 209.925 93.632 209.804C93.4453 209.673 93.282 209.524 93.142 209.356V212.338H91.728ZM94.598 209.048C94.8127 209.048 95.0133 209.011 95.2 208.936C95.3867 208.852 95.5547 208.726 95.704 208.558C95.8533 208.381 95.97 208.143 96.054 207.844C96.138 207.536 96.18 207.163 96.18 206.724C96.18 206.257 96.1193 205.861 95.998 205.534C95.886 205.207 95.718 204.955 95.494 204.778C95.2793 204.601 95.018 204.507 94.71 204.498C94.4767 204.489 94.262 204.531 94.066 204.624C93.87 204.708 93.702 204.848 93.562 205.044C93.422 205.231 93.3147 205.483 93.24 205.8C93.1747 206.108 93.142 206.477 93.142 206.906C93.142 207.195 93.1607 207.457 93.198 207.69C93.2447 207.914 93.31 208.115 93.394 208.292C93.478 208.46 93.576 208.6 93.688 208.712C93.8093 208.824 93.9447 208.908 94.094 208.964C94.2527 209.02 94.4207 209.048 94.598 209.048ZM101.598 210.154C101.206 210.154 100.837 210.117 100.492 210.042C100.147 209.967 99.82 209.855 99.512 209.706C99.2133 209.557 98.938 209.365 98.686 209.132L99.33 207.956L99.414 207.83L99.512 207.886C99.5307 207.961 99.554 208.04 99.582 208.124C99.61 208.199 99.6753 208.292 99.778 208.404C100.002 208.6 100.259 208.759 100.548 208.88C100.837 208.992 101.192 209.048 101.612 209.048C101.901 209.048 102.144 209.015 102.34 208.95C102.545 208.875 102.704 208.777 102.816 208.656C102.928 208.525 102.984 208.381 102.984 208.222C102.984 208.101 102.951 207.998 102.886 207.914C102.83 207.821 102.741 207.737 102.62 207.662C102.499 207.578 102.34 207.499 102.144 207.424C101.948 207.34 101.71 207.261 101.43 207.186C100.954 207.046 100.539 206.887 100.184 206.71C99.8293 206.523 99.554 206.304 99.358 206.052C99.162 205.8 99.064 205.501 99.064 205.156C99.064 204.811 99.162 204.507 99.358 204.246C99.5633 203.975 99.8527 203.761 100.226 203.602C100.599 203.443 101.043 203.364 101.556 203.364C101.836 203.364 102.097 203.387 102.34 203.434C102.592 203.471 102.821 203.532 103.026 203.616C103.241 203.7 103.441 203.807 103.628 203.938C103.815 204.059 103.992 204.204 104.16 204.372L103.446 205.324L103.362 205.436L103.264 205.352C103.255 205.277 103.231 205.207 103.194 205.142C103.166 205.077 103.101 204.993 102.998 204.89C102.793 204.741 102.569 204.629 102.326 204.554C102.083 204.479 101.836 204.442 101.584 204.442C101.257 204.442 100.968 204.498 100.716 204.61C100.473 204.722 100.352 204.89 100.352 205.114C100.352 205.245 100.403 205.366 100.506 205.478C100.618 205.59 100.795 205.702 101.038 205.814C101.281 205.917 101.612 206.024 102.032 206.136C102.564 206.276 102.993 206.439 103.32 206.626C103.647 206.803 103.885 207.013 104.034 207.256C104.193 207.499 104.272 207.783 104.272 208.11C104.272 208.474 104.169 208.815 103.964 209.132C103.768 209.44 103.469 209.687 103.068 209.874C102.667 210.061 102.177 210.154 101.598 210.154ZM108.304 205.856C108.043 205.856 107.814 205.758 107.618 205.562C107.422 205.366 107.324 205.137 107.324 204.876C107.324 204.615 107.422 204.386 107.618 204.19C107.814 203.994 108.043 203.896 108.304 203.896C108.556 203.896 108.785 203.994 108.99 204.19C109.195 204.377 109.298 204.605 109.298 204.876C109.298 205.137 109.2 205.366 109.004 205.562C108.817 205.758 108.584 205.856 108.304 205.856ZM108.304 210.168C108.024 210.168 107.791 210.075 107.604 209.888C107.417 209.692 107.324 209.463 107.324 209.202C107.324 208.931 107.422 208.698 107.618 208.502C107.814 208.306 108.043 208.208 108.304 208.208C108.556 208.208 108.785 208.306 108.99 208.502C109.195 208.698 109.298 208.931 109.298 209.202C109.298 209.454 109.2 209.678 109.004 209.874C108.817 210.07 108.584 210.168 108.304 210.168ZM113.974 210.602L112.728 210.042L117.054 200.676L118.286 201.306L113.974 210.602ZM120.974 210.602L119.728 210.042L124.054 200.676L125.286 201.306L120.974 210.602ZM129.794 210.154C129.327 210.154 128.898 210.079 128.506 209.93C128.114 209.781 127.773 209.566 127.484 209.286C127.204 208.997 126.985 208.642 126.826 208.222C126.667 207.802 126.588 207.326 126.588 206.794C126.588 206.253 126.667 205.772 126.826 205.352C126.985 204.923 127.199 204.563 127.47 204.274C127.75 203.985 128.072 203.761 128.436 203.602C128.809 203.443 129.206 203.364 129.626 203.364C129.99 203.364 130.335 203.429 130.662 203.56C130.998 203.691 131.287 203.887 131.53 204.148C131.782 204.4 131.978 204.722 132.118 205.114C132.267 205.506 132.342 205.963 132.342 206.486C132.342 206.579 132.342 206.687 132.342 206.808C132.342 206.92 132.337 207.018 132.328 207.102H127.932C127.951 207.438 128.016 207.732 128.128 207.984C128.24 208.227 128.38 208.427 128.548 208.586C128.725 208.745 128.926 208.861 129.15 208.936C129.374 209.011 129.607 209.048 129.85 209.048C130.065 209.048 130.261 209.029 130.438 208.992C130.625 208.945 130.802 208.875 130.97 208.782C131.138 208.689 131.292 208.563 131.432 208.404L132.16 209.118C131.964 209.351 131.745 209.547 131.502 209.706C131.259 209.855 130.993 209.967 130.704 210.042C130.424 210.117 130.121 210.154 129.794 210.154ZM127.96 206.052H130.984C130.984 205.791 130.951 205.562 130.886 205.366C130.821 205.17 130.723 205.002 130.592 204.862C130.471 204.722 130.321 204.619 130.144 204.554C129.967 204.479 129.771 204.442 129.556 204.442C129.351 204.442 129.159 204.475 128.982 204.54C128.814 204.605 128.66 204.703 128.52 204.834C128.38 204.965 128.259 205.133 128.156 205.338C128.063 205.534 127.997 205.772 127.96 206.052ZM133.476 210L135.73 206.752L133.518 203.518H135.002L136.486 205.66L137.886 203.518H139.3L137.228 206.682L139.566 210H138.054L136.472 207.788L135.002 210H133.476ZM142.828 210.154C142.109 210.154 141.549 209.991 141.148 209.664C140.756 209.328 140.56 208.894 140.56 208.362C140.56 208.007 140.639 207.69 140.798 207.41C140.966 207.121 141.199 206.873 141.498 206.668C141.806 206.463 142.175 206.304 142.604 206.192C143.033 206.071 143.519 206.01 144.06 206.01C144.172 206.01 144.289 206.015 144.41 206.024C144.541 206.024 144.676 206.029 144.816 206.038C144.965 206.047 145.115 206.057 145.264 206.066L145.306 207.06C145.175 207.041 145.035 207.027 144.886 207.018C144.746 207.009 144.606 207.004 144.466 207.004C144.326 207.004 144.195 207.004 144.074 207.004C143.71 207.004 143.393 207.032 143.122 207.088C142.861 207.135 142.641 207.209 142.464 207.312C142.296 207.415 142.17 207.541 142.086 207.69C142.002 207.839 141.96 208.012 141.96 208.208C141.96 208.367 141.988 208.507 142.044 208.628C142.1 208.74 142.175 208.829 142.268 208.894C142.371 208.959 142.487 209.011 142.618 209.048C142.758 209.076 142.907 209.09 143.066 209.09C143.374 209.09 143.645 209.039 143.878 208.936C144.111 208.833 144.307 208.684 144.466 208.488C144.634 208.283 144.76 208.031 144.844 207.732C144.928 207.424 144.97 207.065 144.97 206.654C144.97 206.085 144.905 205.641 144.774 205.324C144.653 205.007 144.471 204.787 144.228 204.666C143.985 204.545 143.682 204.484 143.318 204.484C143.019 204.484 142.73 204.535 142.45 204.638C142.179 204.731 141.913 204.909 141.652 205.17L140.91 204.33C141.265 203.994 141.652 203.751 142.072 203.602C142.501 203.453 142.94 203.378 143.388 203.378C143.799 203.378 144.177 203.429 144.522 203.532C144.877 203.625 145.185 203.784 145.446 204.008C145.717 204.232 145.922 204.535 146.062 204.918C146.211 205.301 146.286 205.786 146.286 206.374V210H144.83V209.202C144.709 209.389 144.573 209.547 144.424 209.678C144.275 209.799 144.111 209.897 143.934 209.972C143.766 210.037 143.589 210.084 143.402 210.112C143.215 210.14 143.024 210.154 142.828 210.154ZM147.462 210V203.518H148.652V204.05C148.755 203.901 148.867 203.779 148.988 203.686C149.119 203.583 149.254 203.504 149.394 203.448C149.543 203.392 149.693 203.364 149.842 203.364C150.01 203.364 150.169 203.397 150.318 203.462C150.467 203.527 150.598 203.621 150.71 203.742C150.822 203.863 150.906 204.022 150.962 204.218C151.055 204.031 151.167 203.877 151.298 203.756C151.438 203.635 151.597 203.541 151.774 203.476C151.961 203.401 152.157 203.364 152.362 203.364C152.586 203.364 152.777 203.411 152.936 203.504C153.104 203.588 153.239 203.709 153.342 203.868C153.454 204.017 153.533 204.204 153.58 204.428C153.636 204.643 153.659 204.885 153.65 205.156V210H152.432V205.52C152.432 205.193 152.413 204.951 152.376 204.792C152.339 204.633 152.283 204.526 152.208 204.47C152.143 204.414 152.063 204.386 151.97 204.386C151.83 204.386 151.695 204.451 151.564 204.582C151.443 204.703 151.34 204.871 151.256 205.086C151.181 205.301 151.144 205.539 151.144 205.8V210H149.968V205.576C149.968 205.091 149.926 204.769 149.842 204.61C149.767 204.451 149.632 204.372 149.436 204.372C149.343 204.372 149.249 204.405 149.156 204.47C149.072 204.526 148.993 204.615 148.918 204.736C148.843 204.848 148.783 204.988 148.736 205.156C148.699 205.324 148.68 205.52 148.68 205.744V210H147.462ZM154.728 212.338V203.518H156.114V204.554C156.235 204.274 156.389 204.05 156.576 203.882C156.772 203.705 156.987 203.579 157.22 203.504C157.453 203.42 157.705 203.378 157.976 203.378C158.331 203.378 158.662 203.453 158.97 203.602C159.287 203.742 159.567 203.952 159.81 204.232C160.053 204.512 160.244 204.862 160.384 205.282C160.524 205.702 160.594 206.192 160.594 206.752C160.594 207.321 160.519 207.821 160.37 208.25C160.221 208.679 160.02 209.039 159.768 209.328C159.525 209.608 159.245 209.818 158.928 209.958C158.611 210.098 158.284 210.168 157.948 210.168C157.715 210.168 157.481 210.135 157.248 210.07C157.024 210.014 156.819 209.925 156.632 209.804C156.445 209.673 156.282 209.524 156.142 209.356V212.338H154.728ZM157.598 209.048C157.813 209.048 158.013 209.011 158.2 208.936C158.387 208.852 158.555 208.726 158.704 208.558C158.853 208.381 158.97 208.143 159.054 207.844C159.138 207.536 159.18 207.163 159.18 206.724C159.18 206.257 159.119 205.861 158.998 205.534C158.886 205.207 158.718 204.955 158.494 204.778C158.279 204.601 158.018 204.507 157.71 204.498C157.477 204.489 157.262 204.531 157.066 204.624C156.87 204.708 156.702 204.848 156.562 205.044C156.422 205.231 156.315 205.483 156.24 205.8C156.175 206.108 156.142 206.477 156.142 206.906C156.142 207.195 156.161 207.457 156.198 207.69C156.245 207.914 156.31 208.115 156.394 208.292C156.478 208.46 156.576 208.6 156.688 208.712C156.809 208.824 156.945 208.908 157.094 208.964C157.253 209.02 157.421 209.048 157.598 209.048ZM161.952 210V208.894H163.8V201.74H162.036V200.634H165.214V208.894H167.048V210H161.952ZM171.794 210.154C171.327 210.154 170.898 210.079 170.506 209.93C170.114 209.781 169.773 209.566 169.484 209.286C169.204 208.997 168.985 208.642 168.826 208.222C168.667 207.802 168.588 207.326 168.588 206.794C168.588 206.253 168.667 205.772 168.826 205.352C168.985 204.923 169.199 204.563 169.47 204.274C169.75 203.985 170.072 203.761 170.436 203.602C170.809 203.443 171.206 203.364 171.626 203.364C171.99 203.364 172.335 203.429 172.662 203.56C172.998 203.691 173.287 203.887 173.53 204.148C173.782 204.4 173.978 204.722 174.118 205.114C174.267 205.506 174.342 205.963 174.342 206.486C174.342 206.579 174.342 206.687 174.342 206.808C174.342 206.92 174.337 207.018 174.328 207.102H169.932C169.951 207.438 170.016 207.732 170.128 207.984C170.24 208.227 170.38 208.427 170.548 208.586C170.725 208.745 170.926 208.861 171.15 208.936C171.374 209.011 171.607 209.048 171.85 209.048C172.065 209.048 172.261 209.029 172.438 208.992C172.625 208.945 172.802 208.875 172.97 208.782C173.138 208.689 173.292 208.563 173.432 208.404L174.16 209.118C173.964 209.351 173.745 209.547 173.502 209.706C173.259 209.855 172.993 209.967 172.704 210.042C172.424 210.117 172.121 210.154 171.794 210.154ZM169.96 206.052H172.984C172.984 205.791 172.951 205.562 172.886 205.366C172.821 205.17 172.723 205.002 172.592 204.862C172.471 204.722 172.321 204.619 172.144 204.554C171.967 204.479 171.771 204.442 171.556 204.442C171.351 204.442 171.159 204.475 170.982 204.54C170.814 204.605 170.66 204.703 170.52 204.834C170.38 204.965 170.259 205.133 170.156 205.338C170.063 205.534 169.997 205.772 169.96 206.052ZM178.346 210.168C178.075 210.168 177.842 210.075 177.646 209.888C177.459 209.692 177.366 209.463 177.366 209.202C177.366 208.931 177.459 208.703 177.646 208.516C177.842 208.32 178.075 208.222 178.346 208.222C178.607 208.222 178.831 208.32 179.018 208.516C179.214 208.703 179.312 208.931 179.312 209.202C179.312 209.463 179.214 209.692 179.018 209.888C178.831 210.075 178.607 210.168 178.346 210.168ZM185.934 210.154C185.458 210.154 185.015 210.075 184.604 209.916C184.203 209.748 183.853 209.515 183.554 209.216C183.265 208.908 183.036 208.553 182.868 208.152C182.709 207.741 182.63 207.293 182.63 206.808C182.63 206.323 182.709 205.875 182.868 205.464C183.036 205.044 183.265 204.68 183.554 204.372C183.853 204.064 184.203 203.826 184.604 203.658C185.015 203.481 185.453 203.392 185.92 203.392C186.499 203.392 187.003 203.499 187.432 203.714C187.871 203.929 188.225 204.232 188.496 204.624L187.698 205.464L187.6 205.562L187.516 205.478C187.507 205.403 187.488 205.333 187.46 205.268C187.441 205.193 187.381 205.095 187.278 204.974C187.091 204.806 186.886 204.689 186.662 204.624C186.438 204.549 186.181 204.512 185.892 204.512C185.649 204.512 185.416 204.563 185.192 204.666C184.977 204.769 184.781 204.918 184.604 205.114C184.436 205.31 184.301 205.548 184.198 205.828C184.095 206.108 184.044 206.421 184.044 206.766C184.044 207.102 184.095 207.41 184.198 207.69C184.301 207.961 184.441 208.194 184.618 208.39C184.795 208.577 185.001 208.726 185.234 208.838C185.477 208.941 185.729 208.992 185.99 208.992C186.195 208.992 186.391 208.969 186.578 208.922C186.774 208.866 186.961 208.782 187.138 208.67C187.315 208.549 187.483 208.395 187.642 208.208L188.412 209.104C188.076 209.468 187.689 209.734 187.25 209.902C186.821 210.07 186.382 210.154 185.934 210.154ZM192.5 210.14C191.912 210.14 191.389 210 190.932 209.72C190.475 209.431 190.111 209.034 189.84 208.53C189.569 208.017 189.434 207.429 189.434 206.766C189.434 206.113 189.569 205.534 189.84 205.03C190.111 204.517 190.475 204.115 190.932 203.826C191.389 203.527 191.912 203.378 192.5 203.378C193.079 203.378 193.597 203.527 194.054 203.826C194.521 204.115 194.889 204.517 195.16 205.03C195.431 205.534 195.566 206.113 195.566 206.766C195.566 207.419 195.431 208.003 195.16 208.516C194.889 209.02 194.521 209.417 194.054 209.706C193.597 209.995 193.079 210.14 192.5 210.14ZM192.5 209.006C192.817 209.006 193.097 208.913 193.34 208.726C193.592 208.53 193.788 208.264 193.928 207.928C194.068 207.592 194.138 207.2 194.138 206.752C194.138 206.295 194.068 205.898 193.928 205.562C193.788 205.226 193.592 204.965 193.34 204.778C193.097 204.591 192.817 204.498 192.5 204.498C192.183 204.498 191.898 204.591 191.646 204.778C191.403 204.965 191.212 205.226 191.072 205.562C190.932 205.898 190.862 206.295 190.862 206.752C190.862 207.2 190.932 207.592 191.072 207.928C191.212 208.264 191.403 208.53 191.646 208.726C191.898 208.913 192.183 209.006 192.5 209.006ZM196.462 210V203.518H197.652V204.05C197.755 203.901 197.867 203.779 197.988 203.686C198.119 203.583 198.254 203.504 198.394 203.448C198.543 203.392 198.693 203.364 198.842 203.364C199.01 203.364 199.169 203.397 199.318 203.462C199.467 203.527 199.598 203.621 199.71 203.742C199.822 203.863 199.906 204.022 199.962 204.218C200.055 204.031 200.167 203.877 200.298 203.756C200.438 203.635 200.597 203.541 200.774 203.476C200.961 203.401 201.157 203.364 201.362 203.364C201.586 203.364 201.777 203.411 201.936 203.504C202.104 203.588 202.239 203.709 202.342 203.868C202.454 204.017 202.533 204.204 202.58 204.428C202.636 204.643 202.659 204.885 202.65 205.156V210H201.432V205.52C201.432 205.193 201.413 204.951 201.376 204.792C201.339 204.633 201.283 204.526 201.208 204.47C201.143 204.414 201.063 204.386 200.97 204.386C200.83 204.386 200.695 204.451 200.564 204.582C200.443 204.703 200.34 204.871 200.256 205.086C200.181 205.301 200.144 205.539 200.144 205.8V210H198.968V205.576C198.968 205.091 198.926 204.769 198.842 204.61C198.767 204.451 198.632 204.372 198.436 204.372C198.343 204.372 198.249 204.405 198.156 204.47C198.072 204.526 197.993 204.615 197.918 204.736C197.843 204.848 197.783 204.988 197.736 205.156C197.699 205.324 197.68 205.52 197.68 205.744V210H196.462ZM204.974 210.602L203.728 210.042L208.054 200.676L209.286 201.306L204.974 210.602ZM212.828 210.154C212.109 210.154 211.549 209.991 211.148 209.664C210.756 209.328 210.56 208.894 210.56 208.362C210.56 208.007 210.639 207.69 210.798 207.41C210.966 207.121 211.199 206.873 211.498 206.668C211.806 206.463 212.175 206.304 212.604 206.192C213.033 206.071 213.519 206.01 214.06 206.01C214.172 206.01 214.289 206.015 214.41 206.024C214.541 206.024 214.676 206.029 214.816 206.038C214.965 206.047 215.115 206.057 215.264 206.066L215.306 207.06C215.175 207.041 215.035 207.027 214.886 207.018C214.746 207.009 214.606 207.004 214.466 207.004C214.326 207.004 214.195 207.004 214.074 207.004C213.71 207.004 213.393 207.032 213.122 207.088C212.861 207.135 212.641 207.209 212.464 207.312C212.296 207.415 212.17 207.541 212.086 207.69C212.002 207.839 211.96 208.012 211.96 208.208C211.96 208.367 211.988 208.507 212.044 208.628C212.1 208.74 212.175 208.829 212.268 208.894C212.371 208.959 212.487 209.011 212.618 209.048C212.758 209.076 212.907 209.09 213.066 209.09C213.374 209.09 213.645 209.039 213.878 208.936C214.111 208.833 214.307 208.684 214.466 208.488C214.634 208.283 214.76 208.031 214.844 207.732C214.928 207.424 214.97 207.065 214.97 206.654C214.97 206.085 214.905 205.641 214.774 205.324C214.653 205.007 214.471 204.787 214.228 204.666C213.985 204.545 213.682 204.484 213.318 204.484C213.019 204.484 212.73 204.535 212.45 204.638C212.179 204.731 211.913 204.909 211.652 205.17L210.91 204.33C211.265 203.994 211.652 203.751 212.072 203.602C212.501 203.453 212.94 203.378 213.388 203.378C213.799 203.378 214.177 203.429 214.522 203.532C214.877 203.625 215.185 203.784 215.446 204.008C215.717 204.232 215.922 204.535 216.062 204.918C216.211 205.301 216.286 205.786 216.286 206.374V210H214.83V209.202C214.709 209.389 214.573 209.547 214.424 209.678C214.275 209.799 214.111 209.897 213.934 209.972C213.766 210.037 213.589 210.084 213.402 210.112C213.215 210.14 213.024 210.154 212.828 210.154ZM220.836 210.154C220.603 210.154 220.374 210.117 220.15 210.042C219.935 209.977 219.73 209.879 219.534 209.748C219.347 209.608 219.179 209.44 219.03 209.244L218.736 210H217.728V200.634H219.128H219.254V200.76C219.207 200.816 219.175 200.877 219.156 200.942C219.147 201.007 219.142 201.119 219.142 201.278V204.344C219.235 204.195 219.347 204.064 219.478 203.952C219.609 203.831 219.749 203.728 219.898 203.644C220.057 203.551 220.22 203.481 220.388 203.434C220.565 203.387 220.738 203.364 220.906 203.364C221.298 203.373 221.653 203.448 221.97 203.588C222.297 203.719 222.577 203.924 222.81 204.204C223.043 204.475 223.221 204.815 223.342 205.226C223.473 205.637 223.538 206.117 223.538 206.668C223.538 207.256 223.463 207.769 223.314 208.208C223.174 208.647 222.978 209.011 222.726 209.3C222.474 209.589 222.185 209.804 221.858 209.944C221.531 210.084 221.191 210.154 220.836 210.154ZM220.598 209.034C220.803 209.034 220.995 208.997 221.172 208.922C221.359 208.847 221.522 208.721 221.662 208.544C221.811 208.367 221.928 208.133 222.012 207.844C222.096 207.555 222.138 207.205 222.138 206.794C222.138 206.411 222.101 206.075 222.026 205.786C221.961 205.497 221.863 205.254 221.732 205.058C221.601 204.853 221.438 204.703 221.242 204.61C221.055 204.507 220.85 204.456 220.626 204.456C220.318 204.456 220.052 204.549 219.828 204.736C219.613 204.923 219.445 205.189 219.324 205.534C219.203 205.87 219.142 206.271 219.142 206.738C219.142 207.102 219.17 207.429 219.226 207.718C219.282 207.998 219.366 208.236 219.478 208.432C219.599 208.628 219.749 208.777 219.926 208.88C220.113 208.983 220.337 209.034 220.598 209.034ZM227.5 210.14C226.912 210.14 226.389 210 225.932 209.72C225.475 209.431 225.111 209.034 224.84 208.53C224.569 208.017 224.434 207.429 224.434 206.766C224.434 206.113 224.569 205.534 224.84 205.03C225.111 204.517 225.475 204.115 225.932 203.826C226.389 203.527 226.912 203.378 227.5 203.378C228.079 203.378 228.597 203.527 229.054 203.826C229.521 204.115 229.889 204.517 230.16 205.03C230.431 205.534 230.566 206.113 230.566 206.766C230.566 207.419 230.431 208.003 230.16 208.516C229.889 209.02 229.521 209.417 229.054 209.706C228.597 209.995 228.079 210.14 227.5 210.14ZM227.5 209.006C227.817 209.006 228.097 208.913 228.34 208.726C228.592 208.53 228.788 208.264 228.928 207.928C229.068 207.592 229.138 207.2 229.138 206.752C229.138 206.295 229.068 205.898 228.928 205.562C228.788 205.226 228.592 204.965 228.34 204.778C228.097 204.591 227.817 204.498 227.5 204.498C227.183 204.498 226.898 204.591 226.646 204.778C226.403 204.965 226.212 205.226 226.072 205.562C225.932 205.898 225.862 206.295 225.862 206.752C225.862 207.2 225.932 207.592 226.072 207.928C226.212 208.264 226.403 208.53 226.646 208.726C226.898 208.913 227.183 209.006 227.5 209.006ZM234.01 210.154C233.749 210.154 233.501 210.117 233.268 210.042C233.044 209.977 232.839 209.869 232.652 209.72C232.465 209.571 232.302 209.384 232.162 209.16C232.031 208.936 231.929 208.665 231.854 208.348C231.789 208.031 231.756 207.671 231.756 207.27L231.77 203.518H233.142V207.27C233.142 207.597 233.17 207.877 233.226 208.11C233.291 208.334 233.375 208.516 233.478 208.656C233.59 208.796 233.716 208.899 233.856 208.964C233.996 209.02 234.145 209.048 234.304 209.048C234.509 209.048 234.701 209.011 234.878 208.936C235.055 208.861 235.209 208.749 235.34 208.6C235.48 208.441 235.583 208.245 235.648 208.012C235.723 207.769 235.76 207.489 235.76 207.172V203.518H237.16V208.978C237.16 209.165 237.165 209.342 237.174 209.51C237.193 209.669 237.235 209.832 237.3 210H235.998C235.951 209.897 235.919 209.799 235.9 209.706C235.881 209.603 235.867 209.505 235.858 209.412C235.858 209.309 235.858 209.207 235.858 209.104C235.765 209.281 235.648 209.435 235.508 209.566C235.377 209.697 235.228 209.809 235.06 209.902C234.901 209.986 234.733 210.047 234.556 210.084C234.388 210.131 234.206 210.154 234.01 210.154ZM242.186 210.126C241.803 210.126 241.472 210.065 241.192 209.944C240.921 209.813 240.702 209.608 240.534 209.328C240.375 209.048 240.263 208.684 240.198 208.236C240.133 207.788 240.109 207.242 240.128 206.598L240.31 201.95L241.738 201.768L241.878 201.754L241.892 201.88C241.845 201.945 241.803 202.011 241.766 202.076C241.738 202.141 241.715 202.253 241.696 202.412L241.556 204.218L241.612 204.372L241.514 206.598C241.486 207.233 241.505 207.727 241.57 208.082C241.635 208.427 241.747 208.67 241.906 208.81C242.065 208.941 242.256 209.006 242.48 209.006C242.779 209.006 243.045 208.945 243.278 208.824C243.521 208.703 243.759 208.553 243.992 208.376L244.3 209.412C243.983 209.645 243.651 209.823 243.306 209.944C242.961 210.065 242.587 210.126 242.186 210.126ZM238.868 203.518H243.754L243.74 204.638H238.868V203.518Z" fill="#6601E9"/>
<rect x="375" y="179" width="234" height="54" rx="6" fill="white" fill-opacity="0.95" stroke="#360575" stroke-width="2"/>
<path d="M429.574 201.278H430.988L434.194 207.27L434.138 201.278H435.384H435.524V201.404C435.468 201.46 435.431 201.521 435.412 201.586C435.403 201.651 435.398 201.763 435.398 201.922V210H434.166L430.834 203.644V210H429.574V201.278ZM439.878 210.154C439.159 210.154 438.539 209.972 438.016 209.608C437.493 209.235 437.092 208.712 436.812 208.04C436.541 207.368 436.406 206.589 436.406 205.702C436.397 204.955 436.467 204.321 436.616 203.798C436.775 203.266 436.98 202.827 437.232 202.482C437.484 202.137 437.764 201.866 438.072 201.67C438.38 201.474 438.688 201.339 438.996 201.264C439.304 201.189 439.589 201.152 439.85 201.152C440.214 201.152 440.569 201.213 440.914 201.334C441.259 201.455 441.572 201.628 441.852 201.852C442.141 202.067 442.37 202.333 442.538 202.65L441.698 203.448L441.586 203.546L441.502 203.448C441.511 203.373 441.502 203.303 441.474 203.238C441.446 203.173 441.385 203.079 441.292 202.958C441.171 202.818 441.04 202.701 440.9 202.608C440.769 202.515 440.62 202.445 440.452 202.398C440.284 202.342 440.088 202.314 439.864 202.314C439.64 202.314 439.425 202.351 439.22 202.426C439.015 202.491 438.823 202.603 438.646 202.762C438.469 202.911 438.315 203.112 438.184 203.364C438.053 203.616 437.951 203.924 437.876 204.288C437.801 204.643 437.764 205.058 437.764 205.534C437.764 206.113 437.815 206.617 437.918 207.046C438.021 207.475 438.161 207.835 438.338 208.124C438.525 208.413 438.749 208.633 439.01 208.782C439.271 208.931 439.561 209.006 439.878 209.006C439.99 209.006 440.107 208.997 440.228 208.978C440.359 208.959 440.485 208.936 440.606 208.908C440.737 208.871 440.858 208.819 440.97 208.754C441.091 208.689 441.203 208.619 441.306 208.544V206.766H439.822V205.618H442.552V209.244C442.141 209.561 441.707 209.795 441.25 209.944C440.802 210.084 440.345 210.154 439.878 210.154ZM444.036 210V208.866H445.744V202.412H444.12V201.278H448.782V202.412H447.074V208.88H448.866V210H444.036ZM450.574 201.278H451.988L455.194 207.27L455.138 201.278H456.384H456.524V201.404C456.468 201.46 456.431 201.521 456.412 201.586C456.403 201.651 456.398 201.763 456.398 201.922V210H455.166L451.834 203.644V210H450.574V201.278ZM457.462 210L459.772 205.548L457.504 201.264H458.918L460.514 204.288L462.082 201.264H463.426L461.284 205.534L463.692 210H462.222L460.528 206.836L458.89 210H457.462ZM474.5 210.14C473.912 210.14 473.389 210 472.932 209.72C472.475 209.431 472.111 209.034 471.84 208.53C471.569 208.017 471.434 207.429 471.434 206.766C471.434 206.113 471.569 205.534 471.84 205.03C472.111 204.517 472.475 204.115 472.932 203.826C473.389 203.527 473.912 203.378 474.5 203.378C475.079 203.378 475.597 203.527 476.054 203.826C476.521 204.115 476.889 204.517 477.16 205.03C477.431 205.534 477.566 206.113 477.566 206.766C477.566 207.419 477.431 208.003 477.16 208.516C476.889 209.02 476.521 209.417 476.054 209.706C475.597 209.995 475.079 210.14 474.5 210.14ZM474.5 209.006C474.817 209.006 475.097 208.913 475.34 208.726C475.592 208.53 475.788 208.264 475.928 207.928C476.068 207.592 476.138 207.2 476.138 206.752C476.138 206.295 476.068 205.898 475.928 205.562C475.788 205.226 475.592 204.965 475.34 204.778C475.097 204.591 474.817 204.498 474.5 204.498C474.183 204.498 473.898 204.591 473.646 204.778C473.403 204.965 473.212 205.226 473.072 205.562C472.932 205.898 472.862 206.295 472.862 206.752C472.862 207.2 472.932 207.592 473.072 207.928C473.212 208.264 473.403 208.53 473.646 208.726C473.898 208.913 474.183 209.006 474.5 209.006ZM479.386 203.518H480.828L480.8 205.366L480.632 205.212C480.679 204.932 480.767 204.68 480.898 204.456C481.029 204.223 481.187 204.027 481.374 203.868C481.57 203.709 481.785 203.588 482.018 203.504C482.251 203.411 482.494 203.364 482.746 203.364C483.101 203.364 483.423 203.425 483.712 203.546C484.001 203.667 484.263 203.849 484.496 204.092L483.908 205.24L483.852 205.366L483.74 205.31C483.712 205.235 483.684 205.161 483.656 205.086C483.628 205.011 483.558 204.923 483.446 204.82C483.306 204.727 483.166 204.657 483.026 204.61C482.895 204.563 482.741 204.54 482.564 204.54C482.34 204.54 482.121 204.582 481.906 204.666C481.701 204.741 481.514 204.862 481.346 205.03C481.178 205.198 481.043 205.413 480.94 205.674C480.847 205.926 480.8 206.234 480.8 206.598V210.014H479.386V203.518ZM495.416 210.154C494.837 210.154 494.301 210.065 493.806 209.888C493.321 209.711 492.905 209.445 492.56 209.09L493.246 207.928L493.316 207.802L493.428 207.872C493.447 207.937 493.47 208.007 493.498 208.082C493.526 208.157 493.596 208.25 493.708 208.362C493.941 208.539 494.207 208.689 494.506 208.81C494.805 208.922 495.131 208.978 495.486 208.978C495.729 208.978 495.943 208.95 496.13 208.894C496.326 208.829 496.494 208.745 496.634 208.642C496.783 208.53 496.895 208.399 496.97 208.25C497.045 208.091 497.082 207.919 497.082 207.732C497.082 207.601 497.068 207.48 497.04 207.368C497.012 207.247 496.961 207.139 496.886 207.046C496.811 206.943 496.704 206.841 496.564 206.738C496.433 206.635 496.261 206.528 496.046 206.416C495.831 206.295 495.575 206.169 495.276 206.038C494.669 205.777 494.189 205.515 493.834 205.254C493.489 204.983 493.241 204.694 493.092 204.386C492.943 204.069 492.868 203.723 492.868 203.35C492.868 202.921 492.985 202.543 493.218 202.216C493.451 201.88 493.773 201.619 494.184 201.432C494.604 201.236 495.08 201.138 495.612 201.138C495.967 201.138 496.298 201.185 496.606 201.278C496.914 201.362 497.203 201.488 497.474 201.656C497.745 201.815 497.987 202.015 498.202 202.258L497.39 203.21L497.306 203.322L497.208 203.238C497.199 203.163 497.18 203.089 497.152 203.014C497.133 202.939 497.073 202.846 496.97 202.734C496.774 202.557 496.564 202.435 496.34 202.37C496.125 202.305 495.869 202.272 495.57 202.272C495.374 202.272 495.192 202.3 495.024 202.356C494.865 202.403 494.725 202.477 494.604 202.58C494.492 202.673 494.403 202.781 494.338 202.902C494.282 203.023 494.254 203.154 494.254 203.294C494.254 203.425 494.268 203.541 494.296 203.644C494.324 203.747 494.375 203.849 494.45 203.952C494.534 204.055 494.646 204.162 494.786 204.274C494.935 204.377 495.122 204.489 495.346 204.61C495.57 204.722 495.845 204.848 496.172 204.988C496.611 205.184 496.975 205.375 497.264 205.562C497.563 205.749 497.796 205.945 497.964 206.15C498.141 206.346 498.267 206.565 498.342 206.808C498.417 207.041 498.454 207.307 498.454 207.606C498.454 208.026 498.347 208.432 498.132 208.824C497.927 209.207 497.6 209.524 497.152 209.776C496.704 210.028 496.125 210.154 495.416 210.154ZM502.5 210.14C501.912 210.14 501.389 210 500.932 209.72C500.475 209.431 500.111 209.034 499.84 208.53C499.569 208.017 499.434 207.429 499.434 206.766C499.434 206.113 499.569 205.534 499.84 205.03C500.111 204.517 500.475 204.115 500.932 203.826C501.389 203.527 501.912 203.378 502.5 203.378C503.079 203.378 503.597 203.527 504.054 203.826C504.521 204.115 504.889 204.517 505.16 205.03C505.431 205.534 505.566 206.113 505.566 206.766C505.566 207.419 505.431 208.003 505.16 208.516C504.889 209.02 504.521 209.417 504.054 209.706C503.597 209.995 503.079 210.14 502.5 210.14ZM502.5 209.006C502.817 209.006 503.097 208.913 503.34 208.726C503.592 208.53 503.788 208.264 503.928 207.928C504.068 207.592 504.138 207.2 504.138 206.752C504.138 206.295 504.068 205.898 503.928 205.562C503.788 205.226 503.592 204.965 503.34 204.778C503.097 204.591 502.817 204.498 502.5 204.498C502.183 204.498 501.898 204.591 501.646 204.778C501.403 204.965 501.212 205.226 501.072 205.562C500.932 205.898 500.862 206.295 500.862 206.752C500.862 207.2 500.932 207.592 501.072 207.928C501.212 208.264 501.403 208.53 501.646 208.726C501.898 208.913 502.183 209.006 502.5 209.006ZM506.462 210V203.518H507.652V204.05C507.755 203.901 507.867 203.779 507.988 203.686C508.119 203.583 508.254 203.504 508.394 203.448C508.543 203.392 508.693 203.364 508.842 203.364C509.01 203.364 509.169 203.397 509.318 203.462C509.467 203.527 509.598 203.621 509.71 203.742C509.822 203.863 509.906 204.022 509.962 204.218C510.055 204.031 510.167 203.877 510.298 203.756C510.438 203.635 510.597 203.541 510.774 203.476C510.961 203.401 511.157 203.364 511.362 203.364C511.586 203.364 511.777 203.411 511.936 203.504C512.104 203.588 512.239 203.709 512.342 203.868C512.454 204.017 512.533 204.204 512.58 204.428C512.636 204.643 512.659 204.885 512.65 205.156V210H511.432V205.52C511.432 205.193 511.413 204.951 511.376 204.792C511.339 204.633 511.283 204.526 511.208 204.47C511.143 204.414 511.063 204.386 510.97 204.386C510.83 204.386 510.695 204.451 510.564 204.582C510.443 204.703 510.34 204.871 510.256 205.086C510.181 205.301 510.144 205.539 510.144 205.8V210H508.968V205.576C508.968 205.091 508.926 204.769 508.842 204.61C508.767 204.451 508.632 204.372 508.436 204.372C508.343 204.372 508.249 204.405 508.156 204.47C508.072 204.526 507.993 204.615 507.918 204.736C507.843 204.848 507.783 204.988 507.736 205.156C507.699 205.324 507.68 205.52 507.68 205.744V210H506.462ZM516.794 210.154C516.327 210.154 515.898 210.079 515.506 209.93C515.114 209.781 514.773 209.566 514.484 209.286C514.204 208.997 513.985 208.642 513.826 208.222C513.667 207.802 513.588 207.326 513.588 206.794C513.588 206.253 513.667 205.772 513.826 205.352C513.985 204.923 514.199 204.563 514.47 204.274C514.75 203.985 515.072 203.761 515.436 203.602C515.809 203.443 516.206 203.364 516.626 203.364C516.99 203.364 517.335 203.429 517.662 203.56C517.998 203.691 518.287 203.887 518.53 204.148C518.782 204.4 518.978 204.722 519.118 205.114C519.267 205.506 519.342 205.963 519.342 206.486C519.342 206.579 519.342 206.687 519.342 206.808C519.342 206.92 519.337 207.018 519.328 207.102H514.932C514.951 207.438 515.016 207.732 515.128 207.984C515.24 208.227 515.38 208.427 515.548 208.586C515.725 208.745 515.926 208.861 516.15 208.936C516.374 209.011 516.607 209.048 516.85 209.048C517.065 209.048 517.261 209.029 517.438 208.992C517.625 208.945 517.802 208.875 517.97 208.782C518.138 208.689 518.292 208.563 518.432 208.404L519.16 209.118C518.964 209.351 518.745 209.547 518.502 209.706C518.259 209.855 517.993 209.967 517.704 210.042C517.424 210.117 517.121 210.154 516.794 210.154ZM514.96 206.052H517.984C517.984 205.791 517.951 205.562 517.886 205.366C517.821 205.17 517.723 205.002 517.592 204.862C517.471 204.722 517.321 204.619 517.144 204.554C516.967 204.479 516.771 204.442 516.556 204.442C516.351 204.442 516.159 204.475 515.982 204.54C515.814 204.605 515.66 204.703 515.52 204.834C515.38 204.965 515.259 205.133 515.156 205.338C515.063 205.534 514.997 205.772 514.96 206.052ZM524.186 210.126C523.803 210.126 523.472 210.065 523.192 209.944C522.921 209.813 522.702 209.608 522.534 209.328C522.375 209.048 522.263 208.684 522.198 208.236C522.133 207.788 522.109 207.242 522.128 206.598L522.31 201.95L523.738 201.768L523.878 201.754L523.892 201.88C523.845 201.945 523.803 202.011 523.766 202.076C523.738 202.141 523.715 202.253 523.696 202.412L523.556 204.218L523.612 204.372L523.514 206.598C523.486 207.233 523.505 207.727 523.57 208.082C523.635 208.427 523.747 208.67 523.906 208.81C524.065 208.941 524.256 209.006 524.48 209.006C524.779 209.006 525.045 208.945 525.278 208.824C525.521 208.703 525.759 208.553 525.992 208.376L526.3 209.412C525.983 209.645 525.651 209.823 525.306 209.944C524.961 210.065 524.587 210.126 524.186 210.126ZM520.868 203.518H525.754L525.74 204.638H520.868V203.518ZM527.854 200.634H529.226H529.366V200.76C529.31 200.816 529.273 200.877 529.254 200.942C529.245 201.007 529.24 201.119 529.24 201.278V204.47C529.399 204.237 529.585 204.041 529.8 203.882C530.024 203.714 530.253 203.588 530.486 203.504C530.729 203.411 530.971 203.364 531.214 203.364C531.625 203.364 531.979 203.457 532.278 203.644C532.586 203.831 532.824 204.125 532.992 204.526C533.16 204.918 533.244 205.441 533.244 206.094V210H531.872V206.108C531.872 205.707 531.83 205.389 531.746 205.156C531.662 204.913 531.545 204.741 531.396 204.638C531.247 204.526 531.069 204.47 530.864 204.47C530.696 204.47 530.533 204.498 530.374 204.554C530.225 204.61 530.08 204.689 529.94 204.792C529.8 204.885 529.679 205.007 529.576 205.156C529.473 205.305 529.389 205.473 529.324 205.66C529.268 205.847 529.24 206.052 529.24 206.276V210H527.854V200.634ZM535.26 210V208.894H536.87V204.624H535.33V203.518H538.27V208.894H539.74V210H535.26ZM537.486 202.356C537.234 202.356 537.019 202.272 536.842 202.104C536.674 201.927 536.59 201.721 536.59 201.488C536.59 201.236 536.674 201.026 536.842 200.858C537.01 200.69 537.225 200.606 537.486 200.606C537.729 200.606 537.939 200.695 538.116 200.872C538.303 201.049 538.396 201.255 538.396 201.488C538.396 201.721 538.303 201.927 538.116 202.104C537.939 202.272 537.729 202.356 537.486 202.356ZM541.84 210V203.518H543.24V204.512C543.399 204.279 543.576 204.078 543.772 203.91C543.968 203.742 544.187 203.611 544.43 203.518C544.673 203.415 544.934 203.364 545.214 203.364C545.578 203.364 545.914 203.457 546.222 203.644C546.53 203.831 546.777 204.125 546.964 204.526C547.151 204.918 547.244 205.441 547.244 206.094V210H545.858V206.108C545.858 205.725 545.816 205.413 545.732 205.17C545.648 204.927 545.527 204.75 545.368 204.638C545.219 204.526 545.037 204.47 544.822 204.47C544.635 204.47 544.449 204.512 544.262 204.596C544.075 204.68 543.903 204.797 543.744 204.946C543.595 205.086 543.473 205.263 543.38 205.478C543.287 205.683 543.24 205.917 543.24 206.178V210H541.84ZM551.374 212.464C550.926 212.464 550.52 212.427 550.156 212.352C549.792 212.277 549.479 212.165 549.218 212.016C548.966 211.876 548.775 211.699 548.644 211.484C548.513 211.279 548.448 211.045 548.448 210.784C548.448 210.541 548.504 210.322 548.616 210.126C548.728 209.93 548.877 209.762 549.064 209.622C549.251 209.473 549.456 209.361 549.68 209.286L550.296 209.566C550.147 209.659 550.016 209.753 549.904 209.846C549.792 209.939 549.703 210.042 549.638 210.154C549.582 210.275 549.554 210.415 549.554 210.574C549.554 210.714 549.601 210.835 549.694 210.938C549.787 211.041 549.918 211.125 550.086 211.19C550.254 211.255 550.455 211.307 550.688 211.344C550.921 211.381 551.183 211.4 551.472 211.4C551.855 211.4 552.172 211.363 552.424 211.288C552.676 211.223 552.863 211.125 552.984 210.994C553.115 210.863 553.18 210.714 553.18 210.546C553.18 210.378 553.143 210.243 553.068 210.14C552.993 210.047 552.853 209.977 552.648 209.93C552.443 209.874 552.144 209.846 551.752 209.846C551.435 209.846 551.131 209.837 550.842 209.818C550.562 209.79 550.301 209.743 550.058 209.678C549.825 209.613 549.619 209.529 549.442 209.426C549.265 209.323 549.125 209.197 549.022 209.048C548.929 208.889 548.882 208.703 548.882 208.488C548.882 208.208 548.966 207.956 549.134 207.732C549.302 207.499 549.512 207.289 549.764 207.102L550.394 207.494C550.31 207.587 550.235 207.667 550.17 207.732C550.105 207.797 550.053 207.863 550.016 207.928C549.979 207.984 549.96 208.054 549.96 208.138C549.96 208.259 550.03 208.362 550.17 208.446C550.31 208.53 550.534 208.591 550.842 208.628C551.159 208.665 551.579 208.684 552.102 208.684C552.541 208.684 552.905 208.731 553.194 208.824C553.493 208.908 553.726 209.029 553.894 209.188C554.062 209.347 554.179 209.529 554.244 209.734C554.319 209.93 554.356 210.149 554.356 210.392C554.356 210.653 554.3 210.905 554.188 211.148C554.076 211.4 553.899 211.624 553.656 211.82C553.423 212.016 553.115 212.17 552.732 212.282C552.359 212.403 551.906 212.464 551.374 212.464ZM551.192 207.816C550.735 207.816 550.329 207.718 549.974 207.522C549.619 207.317 549.339 207.046 549.134 206.71C548.938 206.374 548.84 205.996 548.84 205.576C548.84 205.156 548.938 204.778 549.134 204.442C549.339 204.097 549.619 203.826 549.974 203.63C550.329 203.425 550.735 203.322 551.192 203.322C551.659 203.322 552.069 203.425 552.424 203.63C552.779 203.826 553.054 204.097 553.25 204.442C553.455 204.778 553.558 205.156 553.558 205.576C553.558 205.996 553.455 206.374 553.25 206.71C553.054 207.046 552.779 207.317 552.424 207.522C552.069 207.718 551.659 207.816 551.192 207.816ZM551.192 206.766C551.425 206.766 551.631 206.715 551.808 206.612C551.985 206.509 552.125 206.369 552.228 206.192C552.331 206.005 552.382 205.8 552.382 205.576C552.382 205.343 552.331 205.142 552.228 204.974C552.125 204.797 551.981 204.657 551.794 204.554C551.617 204.451 551.416 204.4 551.192 204.4C550.977 204.4 550.781 204.451 550.604 204.554C550.427 204.657 550.282 204.797 550.17 204.974C550.067 205.151 550.016 205.352 550.016 205.576C550.016 205.791 550.067 205.991 550.17 206.178C550.273 206.355 550.413 206.5 550.59 206.612C550.767 206.715 550.968 206.766 551.192 206.766ZM553.166 204.666L552.634 204.008C552.905 203.784 553.199 203.616 553.516 203.504C553.843 203.383 554.202 203.336 554.594 203.364L554.734 204.358C554.445 204.321 554.165 204.325 553.894 204.372C553.623 204.409 553.381 204.507 553.166 204.666Z" fill="#6601E9"/>
<rect x="709" y="179" width="234" height="54" rx="6" fill="white" fill-opacity="0.95" stroke="#360575" stroke-width="2"/>
<path d="M789.974 210.602L788.728 210.042L793.054 200.676L794.286 201.306L789.974 210.602ZM796.26 210V208.894H797.87V204.624H796.33V203.518H799.27V208.894H800.74V210H796.26ZM798.486 202.356C798.234 202.356 798.019 202.272 797.842 202.104C797.674 201.927 797.59 201.721 797.59 201.488C797.59 201.236 797.674 201.026 797.842 200.858C798.01 200.69 798.225 200.606 798.486 200.606C798.729 200.606 798.939 200.695 799.116 200.872C799.303 201.049 799.396 201.255 799.396 201.488C799.396 201.721 799.303 201.927 799.116 202.104C798.939 202.272 798.729 202.356 798.486 202.356ZM802.84 210V203.518H804.24V204.512C804.399 204.279 804.576 204.078 804.772 203.91C804.968 203.742 805.187 203.611 805.43 203.518C805.673 203.415 805.934 203.364 806.214 203.364C806.578 203.364 806.914 203.457 807.222 203.644C807.53 203.831 807.777 204.125 807.964 204.526C808.151 204.918 808.244 205.441 808.244 206.094V210H806.858V206.108C806.858 205.725 806.816 205.413 806.732 205.17C806.648 204.927 806.527 204.75 806.368 204.638C806.219 204.526 806.037 204.47 805.822 204.47C805.635 204.47 805.449 204.512 805.262 204.596C805.075 204.68 804.903 204.797 804.744 204.946C804.595 205.086 804.473 205.263 804.38 205.478C804.287 205.683 804.24 205.917 804.24 206.178V210H802.84ZM812.192 210.154C811.847 210.154 811.511 210.084 811.184 209.944C810.867 209.795 810.582 209.58 810.33 209.3C810.078 209.02 809.877 208.665 809.728 208.236C809.588 207.797 809.518 207.293 809.518 206.724C809.518 206.145 809.588 205.646 809.728 205.226C809.877 204.806 810.078 204.461 810.33 204.19C810.582 203.91 810.871 203.705 811.198 203.574C811.525 203.434 811.865 203.364 812.22 203.364C812.472 203.364 812.701 203.397 812.906 203.462C813.121 203.527 813.312 203.625 813.48 203.756C813.648 203.887 813.783 204.05 813.886 204.246V200.634H815.244H815.37V200.76C815.323 200.816 815.291 200.877 815.272 200.942C815.253 201.007 815.249 201.119 815.258 201.278V209.09C815.258 209.239 815.263 209.393 815.272 209.552C815.291 209.701 815.333 209.851 815.398 210H814.026C813.979 209.897 813.947 209.804 813.928 209.72C813.909 209.636 813.9 209.552 813.9 209.468C813.9 209.384 813.9 209.295 813.9 209.202C813.769 209.398 813.62 209.571 813.452 209.72C813.284 209.86 813.093 209.967 812.878 210.042C812.663 210.117 812.435 210.154 812.192 210.154ZM812.43 209.006C812.682 209.006 812.897 208.955 813.074 208.852C813.251 208.749 813.396 208.6 813.508 208.404C813.62 208.208 813.704 207.97 813.76 207.69C813.816 207.41 813.844 207.093 813.844 206.738C813.844 206.262 813.793 205.856 813.69 205.52C813.587 205.175 813.424 204.913 813.2 204.736C812.985 204.549 812.71 204.456 812.374 204.456C812.131 204.456 811.917 204.507 811.73 204.61C811.543 204.713 811.385 204.862 811.254 205.058C811.133 205.245 811.039 205.473 810.974 205.744C810.909 206.015 810.876 206.318 810.876 206.654C810.876 207.13 810.941 207.545 811.072 207.9C811.212 208.255 811.399 208.53 811.632 208.726C811.865 208.913 812.131 209.006 812.43 209.006ZM819.794 210.154C819.327 210.154 818.898 210.079 818.506 209.93C818.114 209.781 817.773 209.566 817.484 209.286C817.204 208.997 816.985 208.642 816.826 208.222C816.667 207.802 816.588 207.326 816.588 206.794C816.588 206.253 816.667 205.772 816.826 205.352C816.985 204.923 817.199 204.563 817.47 204.274C817.75 203.985 818.072 203.761 818.436 203.602C818.809 203.443 819.206 203.364 819.626 203.364C819.99 203.364 820.335 203.429 820.662 203.56C820.998 203.691 821.287 203.887 821.53 204.148C821.782 204.4 821.978 204.722 822.118 205.114C822.267 205.506 822.342 205.963 822.342 206.486C822.342 206.579 822.342 206.687 822.342 206.808C822.342 206.92 822.337 207.018 822.328 207.102H817.932C817.951 207.438 818.016 207.732 818.128 207.984C818.24 208.227 818.38 208.427 818.548 208.586C818.725 208.745 818.926 208.861 819.15 208.936C819.374 209.011 819.607 209.048 819.85 209.048C820.065 209.048 820.261 209.029 820.438 208.992C820.625 208.945 820.802 208.875 820.97 208.782C821.138 208.689 821.292 208.563 821.432 208.404L822.16 209.118C821.964 209.351 821.745 209.547 821.502 209.706C821.259 209.855 820.993 209.967 820.704 210.042C820.424 210.117 820.121 210.154 819.794 210.154ZM817.96 206.052H820.984C820.984 205.791 820.951 205.562 820.886 205.366C820.821 205.17 820.723 205.002 820.592 204.862C820.471 204.722 820.321 204.619 820.144 204.554C819.967 204.479 819.771 204.442 819.556 204.442C819.351 204.442 819.159 204.475 818.982 204.54C818.814 204.605 818.66 204.703 818.52 204.834C818.38 204.965 818.259 205.133 818.156 205.338C818.063 205.534 817.997 205.772 817.96 206.052ZM823.476 210L825.73 206.752L823.518 203.518H825.002L826.486 205.66L827.886 203.518H829.3L827.228 206.682L829.566 210H828.054L826.472 207.788L825.002 210H823.476ZM833.346 210.168C833.075 210.168 832.842 210.075 832.646 209.888C832.459 209.692 832.366 209.463 832.366 209.202C832.366 208.931 832.459 208.703 832.646 208.516C832.842 208.32 833.075 208.222 833.346 208.222C833.607 208.222 833.831 208.32 834.018 208.516C834.214 208.703 834.312 208.931 834.312 209.202C834.312 209.463 834.214 209.692 834.018 209.888C833.831 210.075 833.607 210.168 833.346 210.168ZM837.854 200.634H839.226H839.366V200.76C839.31 200.816 839.273 200.877 839.254 200.942C839.245 201.007 839.24 201.119 839.24 201.278V204.47C839.399 204.237 839.585 204.041 839.8 203.882C840.024 203.714 840.253 203.588 840.486 203.504C840.729 203.411 840.971 203.364 841.214 203.364C841.625 203.364 841.979 203.457 842.278 203.644C842.586 203.831 842.824 204.125 842.992 204.526C843.16 204.918 843.244 205.441 843.244 206.094V210H841.872V206.108C841.872 205.707 841.83 205.389 841.746 205.156C841.662 204.913 841.545 204.741 841.396 204.638C841.247 204.526 841.069 204.47 840.864 204.47C840.696 204.47 840.533 204.498 840.374 204.554C840.225 204.61 840.08 204.689 839.94 204.792C839.8 204.885 839.679 205.007 839.576 205.156C839.473 205.305 839.389 205.473 839.324 205.66C839.268 205.847 839.24 206.052 839.24 206.276V210H837.854V200.634ZM848.186 210.126C847.803 210.126 847.472 210.065 847.192 209.944C846.921 209.813 846.702 209.608 846.534 209.328C846.375 209.048 846.263 208.684 846.198 208.236C846.133 207.788 846.109 207.242 846.128 206.598L846.31 201.95L847.738 201.768L847.878 201.754L847.892 201.88C847.845 201.945 847.803 202.011 847.766 202.076C847.738 202.141 847.715 202.253 847.696 202.412L847.556 204.218L847.612 204.372L847.514 206.598C847.486 207.233 847.505 207.727 847.57 208.082C847.635 208.427 847.747 208.67 847.906 208.81C848.065 208.941 848.256 209.006 848.48 209.006C848.779 209.006 849.045 208.945 849.278 208.824C849.521 208.703 849.759 208.553 849.992 208.376L850.3 209.412C849.983 209.645 849.651 209.823 849.306 209.944C848.961 210.065 848.587 210.126 848.186 210.126ZM844.868 203.518H849.754L849.74 204.638H844.868V203.518ZM851.462 210V203.518H852.652V204.05C852.755 203.901 852.867 203.779 852.988 203.686C853.119 203.583 853.254 203.504 853.394 203.448C853.543 203.392 853.693 203.364 853.842 203.364C854.01 203.364 854.169 203.397 854.318 203.462C854.467 203.527 854.598 203.621 854.71 203.742C854.822 203.863 854.906 204.022 854.962 204.218C855.055 204.031 855.167 203.877 855.298 203.756C855.438 203.635 855.597 203.541 855.774 203.476C855.961 203.401 856.157 203.364 856.362 203.364C856.586 203.364 856.777 203.411 856.936 203.504C857.104 203.588 857.239 203.709 857.342 203.868C857.454 204.017 857.533 204.204 857.58 204.428C857.636 204.643 857.659 204.885 857.65 205.156V210H856.432V205.52C856.432 205.193 856.413 204.951 856.376 204.792C856.339 204.633 856.283 204.526 856.208 204.47C856.143 204.414 856.063 204.386 855.97 204.386C855.83 204.386 855.695 204.451 855.564 204.582C855.443 204.703 855.34 204.871 855.256 205.086C855.181 205.301 855.144 205.539 855.144 205.8V210H853.968V205.576C853.968 205.091 853.926 204.769 853.842 204.61C853.767 204.451 853.632 204.372 853.436 204.372C853.343 204.372 853.249 204.405 853.156 204.47C853.072 204.526 852.993 204.615 852.918 204.736C852.843 204.848 852.783 204.988 852.736 205.156C852.699 205.324 852.68 205.52 852.68 205.744V210H851.462ZM858.952 210V208.894H860.8V201.74H859.036V200.634H862.214V208.894H864.048V210H858.952Z" fill="#6601E9"/>
<rect x="41" y="293" width="234" height="54" rx="6" fill="white" fill-opacity="0.95" stroke="#360575" stroke-width="2"/>
<path d="M56.854 314.634H58.226H58.366V314.76C58.31 314.816 58.2727 314.877 58.254 314.942C58.2447 315.007 58.24 315.119 58.24 315.278V318.47C58.3987 318.237 58.5853 318.041 58.8 317.882C59.024 317.714 59.2527 317.588 59.486 317.504C59.7287 317.411 59.9713 317.364 60.214 317.364C60.6247 317.364 60.9793 317.457 61.278 317.644C61.586 317.831 61.824 318.125 61.992 318.526C62.16 318.918 62.244 319.441 62.244 320.094V324H60.872V320.108C60.872 319.707 60.83 319.389 60.746 319.156C60.662 318.913 60.5453 318.741 60.396 318.638C60.2467 318.526 60.0693 318.47 59.864 318.47C59.696 318.47 59.5327 318.498 59.374 318.554C59.2247 318.61 59.08 318.689 58.94 318.792C58.8 318.885 58.6787 319.007 58.576 319.156C58.4733 319.305 58.3893 319.473 58.324 319.66C58.268 319.847 58.24 320.052 58.24 320.276V324H56.854V314.634ZM67.186 324.126C66.8033 324.126 66.472 324.065 66.192 323.944C65.9213 323.813 65.702 323.608 65.534 323.328C65.3753 323.048 65.2633 322.684 65.198 322.236C65.1327 321.788 65.1093 321.242 65.128 320.598L65.31 315.95L66.738 315.768L66.878 315.754L66.892 315.88C66.8453 315.945 66.8033 316.011 66.766 316.076C66.738 316.141 66.7147 316.253 66.696 316.412L66.556 318.218L66.612 318.372L66.514 320.598C66.486 321.233 66.5047 321.727 66.57 322.082C66.6353 322.427 66.7473 322.67 66.906 322.81C67.0647 322.941 67.256 323.006 67.48 323.006C67.7787 323.006 68.0447 322.945 68.278 322.824C68.5207 322.703 68.7587 322.553 68.992 322.376L69.3 323.412C68.9827 323.645 68.6513 323.823 68.306 323.944C67.9607 324.065 67.5873 324.126 67.186 324.126ZM63.868 317.518H68.754L68.74 318.638H63.868V317.518ZM74.186 324.126C73.8033 324.126 73.472 324.065 73.192 323.944C72.9213 323.813 72.702 323.608 72.534 323.328C72.3753 323.048 72.2633 322.684 72.198 322.236C72.1327 321.788 72.1093 321.242 72.128 320.598L72.31 315.95L73.738 315.768L73.878 315.754L73.892 315.88C73.8453 315.945 73.8033 316.011 73.766 316.076C73.738 316.141 73.7147 316.253 73.696 316.412L73.556 318.218L73.612 318.372L73.514 320.598C73.486 321.233 73.5047 321.727 73.57 322.082C73.6353 322.427 73.7473 322.67 73.906 322.81C74.0647 322.941 74.256 323.006 74.48 323.006C74.7787 323.006 75.0447 322.945 75.278 322.824C75.5207 322.703 75.7587 322.553 75.992 322.376L76.3 323.412C75.9827 323.645 75.6513 323.823 75.306 323.944C74.9607 324.065 74.5873 324.126 74.186 324.126ZM70.868 317.518H75.754L75.74 318.638H70.868V317.518ZM77.728 326.338V317.518H79.114V318.554C79.2353 318.274 79.3893 318.05 79.576 317.882C79.772 317.705 79.9867 317.579 80.22 317.504C80.4533 317.42 80.7053 317.378 80.976 317.378C81.3307 317.378 81.662 317.453 81.97 317.602C82.2873 317.742 82.5673 317.952 82.81 318.232C83.0527 318.512 83.244 318.862 83.384 319.282C83.524 319.702 83.594 320.192 83.594 320.752C83.594 321.321 83.5193 321.821 83.37 322.25C83.2207 322.679 83.02 323.039 82.768 323.328C82.5253 323.608 82.2453 323.818 81.928 323.958C81.6107 324.098 81.284 324.168 80.948 324.168C80.7147 324.168 80.4813 324.135 80.248 324.07C80.024 324.014 79.8187 323.925 79.632 323.804C79.4453 323.673 79.282 323.524 79.142 323.356V326.338H77.728ZM80.598 323.048C80.8127 323.048 81.0133 323.011 81.2 322.936C81.3867 322.852 81.5547 322.726 81.704 322.558C81.8533 322.381 81.97 322.143 82.054 321.844C82.138 321.536 82.18 321.163 82.18 320.724C82.18 320.257 82.1193 319.861 81.998 319.534C81.886 319.207 81.718 318.955 81.494 318.778C81.2793 318.601 81.018 318.507 80.71 318.498C80.4767 318.489 80.262 318.531 80.066 318.624C79.87 318.708 79.702 318.848 79.562 319.044C79.422 319.231 79.3147 319.483 79.24 319.8C79.1747 320.108 79.142 320.477 79.142 320.906C79.142 321.195 79.1607 321.457 79.198 321.69C79.2447 321.914 79.31 322.115 79.394 322.292C79.478 322.46 79.576 322.6 79.688 322.712C79.8093 322.824 79.9447 322.908 80.094 322.964C80.2527 323.02 80.4207 323.048 80.598 323.048ZM87.598 324.154C87.206 324.154 86.8373 324.117 86.492 324.042C86.1467 323.967 85.82 323.855 85.512 323.706C85.2133 323.557 84.938 323.365 84.686 323.132L85.33 321.956L85.414 321.83L85.512 321.886C85.5307 321.961 85.554 322.04 85.582 322.124C85.61 322.199 85.6753 322.292 85.778 322.404C86.002 322.6 86.2587 322.759 86.548 322.88C86.8373 322.992 87.192 323.048 87.612 323.048C87.9013 323.048 88.144 323.015 88.34 322.95C88.5453 322.875 88.704 322.777 88.816 322.656C88.928 322.525 88.984 322.381 88.984 322.222C88.984 322.101 88.9513 321.998 88.886 321.914C88.83 321.821 88.7413 321.737 88.62 321.662C88.4987 321.578 88.34 321.499 88.144 321.424C87.948 321.34 87.71 321.261 87.43 321.186C86.954 321.046 86.5387 320.887 86.184 320.71C85.8293 320.523 85.554 320.304 85.358 320.052C85.162 319.8 85.064 319.501 85.064 319.156C85.064 318.811 85.162 318.507 85.358 318.246C85.5633 317.975 85.8527 317.761 86.226 317.602C86.5993 317.443 87.0427 317.364 87.556 317.364C87.836 317.364 88.0973 317.387 88.34 317.434C88.592 317.471 88.8207 317.532 89.026 317.616C89.2407 317.7 89.4413 317.807 89.628 317.938C89.8147 318.059 89.992 318.204 90.16 318.372L89.446 319.324L89.362 319.436L89.264 319.352C89.2547 319.277 89.2313 319.207 89.194 319.142C89.166 319.077 89.1007 318.993 88.998 318.89C88.7927 318.741 88.5687 318.629 88.326 318.554C88.0833 318.479 87.836 318.442 87.584 318.442C87.2573 318.442 86.968 318.498 86.716 318.61C86.4733 318.722 86.352 318.89 86.352 319.114C86.352 319.245 86.4033 319.366 86.506 319.478C86.618 319.59 86.7953 319.702 87.038 319.814C87.2807 319.917 87.612 320.024 88.032 320.136C88.564 320.276 88.9933 320.439 89.32 320.626C89.6467 320.803 89.8847 321.013 90.034 321.256C90.1927 321.499 90.272 321.783 90.272 322.11C90.272 322.474 90.1693 322.815 89.964 323.132C89.768 323.44 89.4693 323.687 89.068 323.874C88.6667 324.061 88.1767 324.154 87.598 324.154ZM94.304 319.856C94.0427 319.856 93.814 319.758 93.618 319.562C93.422 319.366 93.324 319.137 93.324 318.876C93.324 318.615 93.422 318.386 93.618 318.19C93.814 317.994 94.0427 317.896 94.304 317.896C94.556 317.896 94.7847 317.994 94.99 318.19C95.1953 318.377 95.298 318.605 95.298 318.876C95.298 319.137 95.2 319.366 95.004 319.562C94.8173 319.758 94.584 319.856 94.304 319.856ZM94.304 324.168C94.024 324.168 93.7907 324.075 93.604 323.888C93.4173 323.692 93.324 323.463 93.324 323.202C93.324 322.931 93.422 322.698 93.618 322.502C93.814 322.306 94.0427 322.208 94.304 322.208C94.556 322.208 94.7847 322.306 94.99 322.502C95.1953 322.698 95.298 322.931 95.298 323.202C95.298 323.454 95.2 323.678 95.004 323.874C94.8173 324.07 94.584 324.168 94.304 324.168ZM99.974 324.602L98.728 324.042L103.054 314.676L104.286 315.306L99.974 324.602ZM106.974 324.602L105.728 324.042L110.054 314.676L111.286 315.306L106.974 324.602ZM115.794 324.154C115.327 324.154 114.898 324.079 114.506 323.93C114.114 323.781 113.773 323.566 113.484 323.286C113.204 322.997 112.985 322.642 112.826 322.222C112.667 321.802 112.588 321.326 112.588 320.794C112.588 320.253 112.667 319.772 112.826 319.352C112.985 318.923 113.199 318.563 113.47 318.274C113.75 317.985 114.072 317.761 114.436 317.602C114.809 317.443 115.206 317.364 115.626 317.364C115.99 317.364 116.335 317.429 116.662 317.56C116.998 317.691 117.287 317.887 117.53 318.148C117.782 318.4 117.978 318.722 118.118 319.114C118.267 319.506 118.342 319.963 118.342 320.486C118.342 320.579 118.342 320.687 118.342 320.808C118.342 320.92 118.337 321.018 118.328 321.102H113.932C113.951 321.438 114.016 321.732 114.128 321.984C114.24 322.227 114.38 322.427 114.548 322.586C114.725 322.745 114.926 322.861 115.15 322.936C115.374 323.011 115.607 323.048 115.85 323.048C116.065 323.048 116.261 323.029 116.438 322.992C116.625 322.945 116.802 322.875 116.97 322.782C117.138 322.689 117.292 322.563 117.432 322.404L118.16 323.118C117.964 323.351 117.745 323.547 117.502 323.706C117.259 323.855 116.993 323.967 116.704 324.042C116.424 324.117 116.121 324.154 115.794 324.154ZM113.96 320.052H116.984C116.984 319.791 116.951 319.562 116.886 319.366C116.821 319.17 116.723 319.002 116.592 318.862C116.471 318.722 116.321 318.619 116.144 318.554C115.967 318.479 115.771 318.442 115.556 318.442C115.351 318.442 115.159 318.475 114.982 318.54C114.814 318.605 114.66 318.703 114.52 318.834C114.38 318.965 114.259 319.133 114.156 319.338C114.063 319.534 113.997 319.772 113.96 320.052ZM119.476 324L121.73 320.752L119.518 317.518H121.002L122.486 319.66L123.886 317.518H125.3L123.228 320.682L125.566 324H124.054L122.472 321.788L121.002 324H119.476ZM128.828 324.154C128.109 324.154 127.549 323.991 127.148 323.664C126.756 323.328 126.56 322.894 126.56 322.362C126.56 322.007 126.639 321.69 126.798 321.41C126.966 321.121 127.199 320.873 127.498 320.668C127.806 320.463 128.175 320.304 128.604 320.192C129.033 320.071 129.519 320.01 130.06 320.01C130.172 320.01 130.289 320.015 130.41 320.024C130.541 320.024 130.676 320.029 130.816 320.038C130.965 320.047 131.115 320.057 131.264 320.066L131.306 321.06C131.175 321.041 131.035 321.027 130.886 321.018C130.746 321.009 130.606 321.004 130.466 321.004C130.326 321.004 130.195 321.004 130.074 321.004C129.71 321.004 129.393 321.032 129.122 321.088C128.861 321.135 128.641 321.209 128.464 321.312C128.296 321.415 128.17 321.541 128.086 321.69C128.002 321.839 127.96 322.012 127.96 322.208C127.96 322.367 127.988 322.507 128.044 322.628C128.1 322.74 128.175 322.829 128.268 322.894C128.371 322.959 128.487 323.011 128.618 323.048C128.758 323.076 128.907 323.09 129.066 323.09C129.374 323.09 129.645 323.039 129.878 322.936C130.111 322.833 130.307 322.684 130.466 322.488C130.634 322.283 130.76 322.031 130.844 321.732C130.928 321.424 130.97 321.065 130.97 320.654C130.97 320.085 130.905 319.641 130.774 319.324C130.653 319.007 130.471 318.787 130.228 318.666C129.985 318.545 129.682 318.484 129.318 318.484C129.019 318.484 128.73 318.535 128.45 318.638C128.179 318.731 127.913 318.909 127.652 319.17L126.91 318.33C127.265 317.994 127.652 317.751 128.072 317.602C128.501 317.453 128.94 317.378 129.388 317.378C129.799 317.378 130.177 317.429 130.522 317.532C130.877 317.625 131.185 317.784 131.446 318.008C131.717 318.232 131.922 318.535 132.062 318.918C132.211 319.301 132.286 319.786 132.286 320.374V324H130.83V323.202C130.709 323.389 130.573 323.547 130.424 323.678C130.275 323.799 130.111 323.897 129.934 323.972C129.766 324.037 129.589 324.084 129.402 324.112C129.215 324.14 129.024 324.154 128.828 324.154ZM133.462 324V317.518H134.652V318.05C134.755 317.901 134.867 317.779 134.988 317.686C135.119 317.583 135.254 317.504 135.394 317.448C135.543 317.392 135.693 317.364 135.842 317.364C136.01 317.364 136.169 317.397 136.318 317.462C136.467 317.527 136.598 317.621 136.71 317.742C136.822 317.863 136.906 318.022 136.962 318.218C137.055 318.031 137.167 317.877 137.298 317.756C137.438 317.635 137.597 317.541 137.774 317.476C137.961 317.401 138.157 317.364 138.362 317.364C138.586 317.364 138.777 317.411 138.936 317.504C139.104 317.588 139.239 317.709 139.342 317.868C139.454 318.017 139.533 318.204 139.58 318.428C139.636 318.643 139.659 318.885 139.65 319.156V324H138.432V319.52C138.432 319.193 138.413 318.951 138.376 318.792C138.339 318.633 138.283 318.526 138.208 318.47C138.143 318.414 138.063 318.386 137.97 318.386C137.83 318.386 137.695 318.451 137.564 318.582C137.443 318.703 137.34 318.871 137.256 319.086C137.181 319.301 137.144 319.539 137.144 319.8V324H135.968V319.576C135.968 319.091 135.926 318.769 135.842 318.61C135.767 318.451 135.632 318.372 135.436 318.372C135.343 318.372 135.249 318.405 135.156 318.47C135.072 318.526 134.993 318.615 134.918 318.736C134.843 318.848 134.783 318.988 134.736 319.156C134.699 319.324 134.68 319.52 134.68 319.744V324H133.462ZM140.728 326.338V317.518H142.114V318.554C142.235 318.274 142.389 318.05 142.576 317.882C142.772 317.705 142.987 317.579 143.22 317.504C143.453 317.42 143.705 317.378 143.976 317.378C144.331 317.378 144.662 317.453 144.97 317.602C145.287 317.742 145.567 317.952 145.81 318.232C146.053 318.512 146.244 318.862 146.384 319.282C146.524 319.702 146.594 320.192 146.594 320.752C146.594 321.321 146.519 321.821 146.37 322.25C146.221 322.679 146.02 323.039 145.768 323.328C145.525 323.608 145.245 323.818 144.928 323.958C144.611 324.098 144.284 324.168 143.948 324.168C143.715 324.168 143.481 324.135 143.248 324.07C143.024 324.014 142.819 323.925 142.632 323.804C142.445 323.673 142.282 323.524 142.142 323.356V326.338H140.728ZM143.598 323.048C143.813 323.048 144.013 323.011 144.2 322.936C144.387 322.852 144.555 322.726 144.704 322.558C144.853 322.381 144.97 322.143 145.054 321.844C145.138 321.536 145.18 321.163 145.18 320.724C145.18 320.257 145.119 319.861 144.998 319.534C144.886 319.207 144.718 318.955 144.494 318.778C144.279 318.601 144.018 318.507 143.71 318.498C143.477 318.489 143.262 318.531 143.066 318.624C142.87 318.708 142.702 318.848 142.562 319.044C142.422 319.231 142.315 319.483 142.24 319.8C142.175 320.108 142.142 320.477 142.142 320.906C142.142 321.195 142.161 321.457 142.198 321.69C142.245 321.914 142.31 322.115 142.394 322.292C142.478 322.46 142.576 322.6 142.688 322.712C142.809 322.824 142.945 322.908 143.094 322.964C143.253 323.02 143.421 323.048 143.598 323.048ZM147.952 324V322.894H149.8V315.74H148.036V314.634H151.214V322.894H153.048V324H147.952ZM157.794 324.154C157.327 324.154 156.898 324.079 156.506 323.93C156.114 323.781 155.773 323.566 155.484 323.286C155.204 322.997 154.985 322.642 154.826 322.222C154.667 321.802 154.588 321.326 154.588 320.794C154.588 320.253 154.667 319.772 154.826 319.352C154.985 318.923 155.199 318.563 155.47 318.274C155.75 317.985 156.072 317.761 156.436 317.602C156.809 317.443 157.206 317.364 157.626 317.364C157.99 317.364 158.335 317.429 158.662 317.56C158.998 317.691 159.287 317.887 159.53 318.148C159.782 318.4 159.978 318.722 160.118 319.114C160.267 319.506 160.342 319.963 160.342 320.486C160.342 320.579 160.342 320.687 160.342 320.808C160.342 320.92 160.337 321.018 160.328 321.102H155.932C155.951 321.438 156.016 321.732 156.128 321.984C156.24 322.227 156.38 322.427 156.548 322.586C156.725 322.745 156.926 322.861 157.15 322.936C157.374 323.011 157.607 323.048 157.85 323.048C158.065 323.048 158.261 323.029 158.438 322.992C158.625 322.945 158.802 322.875 158.97 322.782C159.138 322.689 159.292 322.563 159.432 322.404L160.16 323.118C159.964 323.351 159.745 323.547 159.502 323.706C159.259 323.855 158.993 323.967 158.704 324.042C158.424 324.117 158.121 324.154 157.794 324.154ZM155.96 320.052H158.984C158.984 319.791 158.951 319.562 158.886 319.366C158.821 319.17 158.723 319.002 158.592 318.862C158.471 318.722 158.321 318.619 158.144 318.554C157.967 318.479 157.771 318.442 157.556 318.442C157.351 318.442 157.159 318.475 156.982 318.54C156.814 318.605 156.66 318.703 156.52 318.834C156.38 318.965 156.259 319.133 156.156 319.338C156.063 319.534 155.997 319.772 155.96 320.052ZM164.346 324.168C164.075 324.168 163.842 324.075 163.646 323.888C163.459 323.692 163.366 323.463 163.366 323.202C163.366 322.931 163.459 322.703 163.646 322.516C163.842 322.32 164.075 322.222 164.346 322.222C164.607 322.222 164.831 322.32 165.018 322.516C165.214 322.703 165.312 322.931 165.312 323.202C165.312 323.463 165.214 323.692 165.018 323.888C164.831 324.075 164.607 324.168 164.346 324.168ZM171.934 324.154C171.458 324.154 171.015 324.075 170.604 323.916C170.203 323.748 169.853 323.515 169.554 323.216C169.265 322.908 169.036 322.553 168.868 322.152C168.709 321.741 168.63 321.293 168.63 320.808C168.63 320.323 168.709 319.875 168.868 319.464C169.036 319.044 169.265 318.68 169.554 318.372C169.853 318.064 170.203 317.826 170.604 317.658C171.015 317.481 171.453 317.392 171.92 317.392C172.499 317.392 173.003 317.499 173.432 317.714C173.871 317.929 174.225 318.232 174.496 318.624L173.698 319.464L173.6 319.562L173.516 319.478C173.507 319.403 173.488 319.333 173.46 319.268C173.441 319.193 173.381 319.095 173.278 318.974C173.091 318.806 172.886 318.689 172.662 318.624C172.438 318.549 172.181 318.512 171.892 318.512C171.649 318.512 171.416 318.563 171.192 318.666C170.977 318.769 170.781 318.918 170.604 319.114C170.436 319.31 170.301 319.548 170.198 319.828C170.095 320.108 170.044 320.421 170.044 320.766C170.044 321.102 170.095 321.41 170.198 321.69C170.301 321.961 170.441 322.194 170.618 322.39C170.795 322.577 171.001 322.726 171.234 322.838C171.477 322.941 171.729 322.992 171.99 322.992C172.195 322.992 172.391 322.969 172.578 322.922C172.774 322.866 172.961 322.782 173.138 322.67C173.315 322.549 173.483 322.395 173.642 322.208L174.412 323.104C174.076 323.468 173.689 323.734 173.25 323.902C172.821 324.07 172.382 324.154 171.934 324.154ZM178.5 324.14C177.912 324.14 177.389 324 176.932 323.72C176.475 323.431 176.111 323.034 175.84 322.53C175.569 322.017 175.434 321.429 175.434 320.766C175.434 320.113 175.569 319.534 175.84 319.03C176.111 318.517 176.475 318.115 176.932 317.826C177.389 317.527 177.912 317.378 178.5 317.378C179.079 317.378 179.597 317.527 180.054 317.826C180.521 318.115 180.889 318.517 181.16 319.03C181.431 319.534 181.566 320.113 181.566 320.766C181.566 321.419 181.431 322.003 181.16 322.516C180.889 323.02 180.521 323.417 180.054 323.706C179.597 323.995 179.079 324.14 178.5 324.14ZM178.5 323.006C178.817 323.006 179.097 322.913 179.34 322.726C179.592 322.53 179.788 322.264 179.928 321.928C180.068 321.592 180.138 321.2 180.138 320.752C180.138 320.295 180.068 319.898 179.928 319.562C179.788 319.226 179.592 318.965 179.34 318.778C179.097 318.591 178.817 318.498 178.5 318.498C178.183 318.498 177.898 318.591 177.646 318.778C177.403 318.965 177.212 319.226 177.072 319.562C176.932 319.898 176.862 320.295 176.862 320.752C176.862 321.2 176.932 321.592 177.072 321.928C177.212 322.264 177.403 322.53 177.646 322.726C177.898 322.913 178.183 323.006 178.5 323.006ZM182.462 324V317.518H183.652V318.05C183.755 317.901 183.867 317.779 183.988 317.686C184.119 317.583 184.254 317.504 184.394 317.448C184.543 317.392 184.693 317.364 184.842 317.364C185.01 317.364 185.169 317.397 185.318 317.462C185.467 317.527 185.598 317.621 185.71 317.742C185.822 317.863 185.906 318.022 185.962 318.218C186.055 318.031 186.167 317.877 186.298 317.756C186.438 317.635 186.597 317.541 186.774 317.476C186.961 317.401 187.157 317.364 187.362 317.364C187.586 317.364 187.777 317.411 187.936 317.504C188.104 317.588 188.239 317.709 188.342 317.868C188.454 318.017 188.533 318.204 188.58 318.428C188.636 318.643 188.659 318.885 188.65 319.156V324H187.432V319.52C187.432 319.193 187.413 318.951 187.376 318.792C187.339 318.633 187.283 318.526 187.208 318.47C187.143 318.414 187.063 318.386 186.97 318.386C186.83 318.386 186.695 318.451 186.564 318.582C186.443 318.703 186.34 318.871 186.256 319.086C186.181 319.301 186.144 319.539 186.144 319.8V324H184.968V319.576C184.968 319.091 184.926 318.769 184.842 318.61C184.767 318.451 184.632 318.372 184.436 318.372C184.343 318.372 184.249 318.405 184.156 318.47C184.072 318.526 183.993 318.615 183.918 318.736C183.843 318.848 183.783 318.988 183.736 319.156C183.699 319.324 183.68 319.52 183.68 319.744V324H182.462ZM190.974 324.602L189.728 324.042L194.054 314.676L195.286 315.306L190.974 324.602ZM199.01 324.154C198.749 324.154 198.501 324.117 198.268 324.042C198.044 323.977 197.839 323.869 197.652 323.72C197.465 323.571 197.302 323.384 197.162 323.16C197.031 322.936 196.929 322.665 196.854 322.348C196.789 322.031 196.756 321.671 196.756 321.27L196.77 317.518H198.142V321.27C198.142 321.597 198.17 321.877 198.226 322.11C198.291 322.334 198.375 322.516 198.478 322.656C198.59 322.796 198.716 322.899 198.856 322.964C198.996 323.02 199.145 323.048 199.304 323.048C199.509 323.048 199.701 323.011 199.878 322.936C200.055 322.861 200.209 322.749 200.34 322.6C200.48 322.441 200.583 322.245 200.648 322.012C200.723 321.769 200.76 321.489 200.76 321.172V317.518H202.16V322.978C202.16 323.165 202.165 323.342 202.174 323.51C202.193 323.669 202.235 323.832 202.3 324H200.998C200.951 323.897 200.919 323.799 200.9 323.706C200.881 323.603 200.867 323.505 200.858 323.412C200.858 323.309 200.858 323.207 200.858 323.104C200.765 323.281 200.648 323.435 200.508 323.566C200.377 323.697 200.228 323.809 200.06 323.902C199.901 323.986 199.733 324.047 199.556 324.084C199.388 324.131 199.206 324.154 199.01 324.154ZM206.598 324.154C206.206 324.154 205.837 324.117 205.492 324.042C205.147 323.967 204.82 323.855 204.512 323.706C204.213 323.557 203.938 323.365 203.686 323.132L204.33 321.956L204.414 321.83L204.512 321.886C204.531 321.961 204.554 322.04 204.582 322.124C204.61 322.199 204.675 322.292 204.778 322.404C205.002 322.6 205.259 322.759 205.548 322.88C205.837 322.992 206.192 323.048 206.612 323.048C206.901 323.048 207.144 323.015 207.34 322.95C207.545 322.875 207.704 322.777 207.816 322.656C207.928 322.525 207.984 322.381 207.984 322.222C207.984 322.101 207.951 321.998 207.886 321.914C207.83 321.821 207.741 321.737 207.62 321.662C207.499 321.578 207.34 321.499 207.144 321.424C206.948 321.34 206.71 321.261 206.43 321.186C205.954 321.046 205.539 320.887 205.184 320.71C204.829 320.523 204.554 320.304 204.358 320.052C204.162 319.8 204.064 319.501 204.064 319.156C204.064 318.811 204.162 318.507 204.358 318.246C204.563 317.975 204.853 317.761 205.226 317.602C205.599 317.443 206.043 317.364 206.556 317.364C206.836 317.364 207.097 317.387 207.34 317.434C207.592 317.471 207.821 317.532 208.026 317.616C208.241 317.7 208.441 317.807 208.628 317.938C208.815 318.059 208.992 318.204 209.16 318.372L208.446 319.324L208.362 319.436L208.264 319.352C208.255 319.277 208.231 319.207 208.194 319.142C208.166 319.077 208.101 318.993 207.998 318.89C207.793 318.741 207.569 318.629 207.326 318.554C207.083 318.479 206.836 318.442 206.584 318.442C206.257 318.442 205.968 318.498 205.716 318.61C205.473 318.722 205.352 318.89 205.352 319.114C205.352 319.245 205.403 319.366 205.506 319.478C205.618 319.59 205.795 319.702 206.038 319.814C206.281 319.917 206.612 320.024 207.032 320.136C207.564 320.276 207.993 320.439 208.32 320.626C208.647 320.803 208.885 321.013 209.034 321.256C209.193 321.499 209.272 321.783 209.272 322.11C209.272 322.474 209.169 322.815 208.964 323.132C208.768 323.44 208.469 323.687 208.068 323.874C207.667 324.061 207.177 324.154 206.598 324.154ZM213.794 324.154C213.327 324.154 212.898 324.079 212.506 323.93C212.114 323.781 211.773 323.566 211.484 323.286C211.204 322.997 210.985 322.642 210.826 322.222C210.667 321.802 210.588 321.326 210.588 320.794C210.588 320.253 210.667 319.772 210.826 319.352C210.985 318.923 211.199 318.563 211.47 318.274C211.75 317.985 212.072 317.761 212.436 317.602C212.809 317.443 213.206 317.364 213.626 317.364C213.99 317.364 214.335 317.429 214.662 317.56C214.998 317.691 215.287 317.887 215.53 318.148C215.782 318.4 215.978 318.722 216.118 319.114C216.267 319.506 216.342 319.963 216.342 320.486C216.342 320.579 216.342 320.687 216.342 320.808C216.342 320.92 216.337 321.018 216.328 321.102H211.932C211.951 321.438 212.016 321.732 212.128 321.984C212.24 322.227 212.38 322.427 212.548 322.586C212.725 322.745 212.926 322.861 213.15 322.936C213.374 323.011 213.607 323.048 213.85 323.048C214.065 323.048 214.261 323.029 214.438 322.992C214.625 322.945 214.802 322.875 214.97 322.782C215.138 322.689 215.292 322.563 215.432 322.404L216.16 323.118C215.964 323.351 215.745 323.547 215.502 323.706C215.259 323.855 214.993 323.967 214.704 324.042C214.424 324.117 214.121 324.154 213.794 324.154ZM211.96 320.052H214.984C214.984 319.791 214.951 319.562 214.886 319.366C214.821 319.17 214.723 319.002 214.592 318.862C214.471 318.722 214.321 318.619 214.144 318.554C213.967 318.479 213.771 318.442 213.556 318.442C213.351 318.442 213.159 318.475 212.982 318.54C212.814 318.605 212.66 318.703 212.52 318.834C212.38 318.965 212.259 319.133 212.156 319.338C212.063 319.534 211.997 319.772 211.96 320.052ZM218.386 317.518H219.828L219.8 319.366L219.632 319.212C219.679 318.932 219.767 318.68 219.898 318.456C220.029 318.223 220.187 318.027 220.374 317.868C220.57 317.709 220.785 317.588 221.018 317.504C221.251 317.411 221.494 317.364 221.746 317.364C222.101 317.364 222.423 317.425 222.712 317.546C223.001 317.667 223.263 317.849 223.496 318.092L222.908 319.24L222.852 319.366L222.74 319.31C222.712 319.235 222.684 319.161 222.656 319.086C222.628 319.011 222.558 318.923 222.446 318.82C222.306 318.727 222.166 318.657 222.026 318.61C221.895 318.563 221.741 318.54 221.564 318.54C221.34 318.54 221.121 318.582 220.906 318.666C220.701 318.741 220.514 318.862 220.346 319.03C220.178 319.198 220.043 319.413 219.94 319.674C219.847 319.926 219.8 320.234 219.8 320.598V324.014H218.386V317.518ZM225.974 324.602L224.728 324.042L229.054 314.676L230.286 315.306L225.974 324.602ZM233.688 326.45C233.259 326.45 232.862 326.366 232.498 326.198C232.134 326.039 231.817 325.801 231.546 325.484L232.316 324.476L232.4 324.364L232.498 324.434C232.517 324.509 232.535 324.583 232.554 324.658C232.582 324.733 232.643 324.826 232.736 324.938C232.857 325.041 232.993 325.125 233.142 325.19C233.301 325.255 233.478 325.288 233.674 325.288C233.935 325.288 234.155 325.232 234.332 325.12C234.509 325.017 234.64 324.849 234.724 324.616C234.817 324.392 234.864 324.103 234.864 323.748V318.638H232.554V317.518H236.278V323.636C236.278 324.299 236.157 324.835 235.914 325.246C235.671 325.666 235.354 325.969 234.962 326.156C234.57 326.352 234.145 326.45 233.688 326.45ZM235.466 316.356C235.214 316.356 234.999 316.272 234.822 316.104C234.654 315.927 234.57 315.721 234.57 315.488C234.57 315.236 234.654 315.026 234.822 314.858C234.99 314.69 235.205 314.606 235.466 314.606C235.709 314.606 235.919 314.695 236.096 314.872C236.283 315.049 236.376 315.255 236.376 315.488C236.376 315.721 236.283 315.927 236.096 316.104C235.919 316.272 235.709 316.356 235.466 316.356ZM241.794 324.154C241.327 324.154 240.898 324.079 240.506 323.93C240.114 323.781 239.773 323.566 239.484 323.286C239.204 322.997 238.985 322.642 238.826 322.222C238.667 321.802 238.588 321.326 238.588 320.794C238.588 320.253 238.667 319.772 238.826 319.352C238.985 318.923 239.199 318.563 239.47 318.274C239.75 317.985 240.072 317.761 240.436 317.602C240.809 317.443 241.206 317.364 241.626 317.364C241.99 317.364 242.335 317.429 242.662 317.56C242.998 317.691 243.287 317.887 243.53 318.148C243.782 318.4 243.978 318.722 244.118 319.114C244.267 319.506 244.342 319.963 244.342 320.486C244.342 320.579 244.342 320.687 244.342 320.808C244.342 320.92 244.337 321.018 244.328 321.102H239.932C239.951 321.438 240.016 321.732 240.128 321.984C240.24 322.227 240.38 322.427 240.548 322.586C240.725 322.745 240.926 322.861 241.15 322.936C241.374 323.011 241.607 323.048 241.85 323.048C242.065 323.048 242.261 323.029 242.438 322.992C242.625 322.945 242.802 322.875 242.97 322.782C243.138 322.689 243.292 322.563 243.432 322.404L244.16 323.118C243.964 323.351 243.745 323.547 243.502 323.706C243.259 323.855 242.993 323.967 242.704 324.042C242.424 324.117 242.121 324.154 241.794 324.154ZM239.96 320.052H242.984C242.984 319.791 242.951 319.562 242.886 319.366C242.821 319.17 242.723 319.002 242.592 318.862C242.471 318.722 242.321 318.619 242.144 318.554C241.967 318.479 241.771 318.442 241.556 318.442C241.351 318.442 241.159 318.475 240.982 318.54C240.814 318.605 240.66 318.703 240.52 318.834C240.38 318.965 240.259 319.133 240.156 319.338C240.063 319.534 239.997 319.772 239.96 320.052ZM247.044 318.624H245.658V317.518H247.044V317.084C247.044 316.505 247.161 316.029 247.394 315.656C247.637 315.273 247.954 314.993 248.346 314.816C248.738 314.629 249.167 314.536 249.634 314.536C250.063 314.536 250.46 314.611 250.824 314.76C251.188 314.909 251.501 315.133 251.762 315.432L251.174 316.398L251.104 316.51L251.006 316.454C250.987 316.379 250.959 316.305 250.922 316.23C250.894 316.155 250.824 316.067 250.712 315.964C250.553 315.843 250.399 315.759 250.25 315.712C250.101 315.665 249.919 315.642 249.704 315.642C249.443 315.642 249.214 315.693 249.018 315.796C248.831 315.889 248.682 316.043 248.57 316.258C248.467 316.463 248.416 316.739 248.416 317.084V317.518H250.432V318.624H248.416V324H247.044V318.624ZM254.044 318.624H252.658V317.518H254.044V317.084C254.044 316.505 254.161 316.029 254.394 315.656C254.637 315.273 254.954 314.993 255.346 314.816C255.738 314.629 256.167 314.536 256.634 314.536C257.063 314.536 257.46 314.611 257.824 314.76C258.188 314.909 258.501 315.133 258.762 315.432L258.174 316.398L258.104 316.51L258.006 316.454C257.987 316.379 257.959 316.305 257.922 316.23C257.894 316.155 257.824 316.067 257.712 315.964C257.553 315.843 257.399 315.759 257.25 315.712C257.101 315.665 256.919 315.642 256.704 315.642C256.443 315.642 256.214 315.693 256.018 315.796C255.831 315.889 255.682 316.043 255.57 316.258C255.467 316.463 255.416 316.739 255.416 317.084V317.518H257.432V318.624H255.416V324H254.044V318.624Z" fill="#6601E9"/>
<path d="M357.885 180.496C358.711 180.559 359.432 179.941 359.496 179.115L360.531 165.655C360.595 164.829 359.976 164.108 359.15 164.044C358.324 163.981 357.603 164.599 357.54 165.425L356.619 177.389L344.655 176.469C343.829 176.405 343.108 177.024 343.044 177.85C342.981 178.676 343.599 179.397 344.425 179.46L357.885 180.496ZM284.861 95.9762L356.861 179.976L359.139 178.024L287.139 94.0238L284.861 95.9762Z" fill="white" fill-opacity="0.7"/>
<path d="M359.061 209.061C359.646 208.475 359.646 207.525 359.061 206.939L349.515 197.393C348.929 196.808 347.979 196.808 347.393 197.393C346.808 197.979 346.808 198.929 347.393 199.515L355.879 208L347.393 216.485C346.808 217.071 346.808 218.021 347.393 218.607C347.979 219.192 348.929 219.192 349.515 218.607L359.061 209.061ZM292 209.5H358V206.5H292V209.5Z" fill="white" fill-opacity="0.7"/>
<path d="M359.495 239.883C359.431 239.058 358.709 238.44 357.883 238.505L344.424 239.553C343.598 239.618 342.981 240.339 343.045 241.165C343.11 241.991 343.831 242.609 344.657 242.544L356.621 241.612L357.553 253.576C357.618 254.402 358.339 255.019 359.165 254.955C359.991 254.89 360.609 254.169 360.544 253.343L359.495 239.883ZM288.14 323.975L359.14 240.975L356.86 239.025L285.86 322.025L288.14 323.975Z" fill="white" fill-opacity="0.7"/>
<path d="M689.061 208.061C689.646 207.475 689.646 206.525 689.061 205.939L679.515 196.393C678.929 195.808 677.979 195.808 677.393 196.393C676.808 196.979 676.808 197.929 677.393 198.515L685.879 207L677.393 215.485C676.808 216.071 676.808 217.021 677.393 217.607C677.979 218.192 678.929 218.192 679.515 217.607L689.061 208.061ZM623 208.5H688V205.5H623V208.5Z" fill="white" fill-opacity="0.7"/>
</svg>
