<svg width="761" height="687" viewBox="0 0 761 687" fill="none" xmlns="http://www.w3.org/2000/svg">
<path d="M153 117L153 553" stroke="#D1CECE" stroke-width="6" stroke-linecap="round"/>
<path d="M589 553L153 553" stroke="#D1CECE" stroke-width="6" stroke-linecap="round"/>
<path d="M35.367 322V311.409H38.92C39.7247 311.409 40.382 311.551 40.892 311.834C41.4133 312.106 41.7987 312.474 42.048 312.939C42.2973 313.404 42.422 313.914 42.422 314.469C42.422 314.888 42.354 315.279 42.218 315.642C42.082 316.005 41.8723 316.328 41.589 316.611C41.317 316.883 40.9657 317.098 40.535 317.257C40.1043 317.404 39.5943 317.478 39.005 317.478H37.084V322H35.367ZM37.084 316.067H38.869C39.2883 316.067 39.6283 316.005 39.889 315.88C40.161 315.744 40.365 315.557 40.501 315.319C40.637 315.07 40.705 314.792 40.705 314.486C40.705 314.18 40.637 313.908 40.501 313.67C40.365 313.432 40.161 313.245 39.889 313.109C39.6283 312.962 39.294 312.888 38.886 312.888H37.084V316.067ZM47.607 322.187C47.0403 322.187 46.519 322.096 46.043 321.915C45.567 321.734 45.1533 321.473 44.802 321.133C44.462 320.782 44.1957 320.351 44.003 319.841C43.8103 319.331 43.714 318.753 43.714 318.107C43.714 317.45 43.8103 316.866 44.003 316.356C44.1957 315.835 44.4563 315.398 44.785 315.047C45.125 314.696 45.516 314.424 45.958 314.231C46.4113 314.038 46.893 313.942 47.403 313.942C47.845 313.942 48.2643 314.021 48.661 314.18C49.069 314.339 49.4203 314.577 49.715 314.894C50.021 315.2 50.259 315.591 50.429 316.067C50.6103 316.543 50.701 317.098 50.701 317.733C50.701 317.846 50.701 317.977 50.701 318.124C50.701 318.26 50.6953 318.379 50.684 318.481H45.346C45.3687 318.889 45.448 319.246 45.584 319.552C45.72 319.847 45.89 320.09 46.094 320.283C46.3093 320.476 46.553 320.617 46.825 320.708C47.097 320.799 47.3803 320.844 47.675 320.844C47.9357 320.844 48.1737 320.821 48.389 320.776C48.6157 320.719 48.831 320.634 49.035 320.521C49.239 320.408 49.426 320.255 49.596 320.062L50.48 320.929C50.242 321.212 49.9757 321.45 49.681 321.643C49.3863 321.824 49.0633 321.96 48.712 322.051C48.372 322.142 48.0037 322.187 47.607 322.187ZM45.38 317.206H49.052C49.052 316.889 49.0123 316.611 48.933 316.373C48.8537 316.135 48.7347 315.931 48.576 315.761C48.4287 315.591 48.2473 315.466 48.032 315.387C47.8167 315.296 47.5787 315.251 47.318 315.251C47.0687 315.251 46.8363 315.291 46.621 315.37C46.417 315.449 46.23 315.568 46.06 315.727C45.89 315.886 45.7427 316.09 45.618 316.339C45.5047 316.577 45.4253 316.866 45.38 317.206ZM53.183 314.129H54.934L54.9 316.373L54.696 316.186C54.7527 315.846 54.8603 315.54 55.019 315.268C55.1777 314.985 55.3703 314.747 55.597 314.554C55.835 314.361 56.0957 314.214 56.379 314.112C56.6623 313.999 56.957 313.942 57.263 313.942C57.6937 313.942 58.0847 314.016 58.436 314.163C58.7873 314.31 59.1047 314.531 59.388 314.826L58.674 316.22L58.606 316.373L58.47 316.305C58.436 316.214 58.402 316.124 58.368 316.033C58.334 315.942 58.249 315.835 58.113 315.71C57.943 315.597 57.773 315.512 57.603 315.455C57.4443 315.398 57.2573 315.37 57.042 315.37C56.77 315.37 56.5037 315.421 56.243 315.523C55.9937 315.614 55.767 315.761 55.563 315.965C55.359 316.169 55.1947 316.43 55.07 316.747C54.9567 317.053 54.9 317.427 54.9 317.869V322.017H53.183V314.129ZM62.482 315.472H60.799V314.129H62.482V313.602C62.482 312.899 62.6237 312.321 62.907 311.868C63.2017 311.403 63.587 311.063 64.063 310.848C64.539 310.621 65.0603 310.508 65.627 310.508C66.1483 310.508 66.63 310.599 67.072 310.78C67.514 310.961 67.8937 311.233 68.211 311.596L67.497 312.769L67.412 312.905L67.293 312.837C67.2703 312.746 67.2363 312.656 67.191 312.565C67.157 312.474 67.072 312.367 66.936 312.242C66.7433 312.095 66.5563 311.993 66.375 311.936C66.1937 311.879 65.9727 311.851 65.712 311.851C65.3947 311.851 65.117 311.913 64.879 312.038C64.6523 312.151 64.471 312.338 64.335 312.599C64.2103 312.848 64.148 313.183 64.148 313.602V314.129H66.596V315.472H64.148V322H62.482V315.472ZM72.75 322.17C72.036 322.17 71.4013 322 70.846 321.66C70.2907 321.309 69.8487 320.827 69.52 320.215C69.1913 319.592 69.027 318.878 69.027 318.073C69.027 317.28 69.1913 316.577 69.52 315.965C69.8487 315.342 70.2907 314.854 70.846 314.503C71.4013 314.14 72.036 313.959 72.75 313.959C73.4527 313.959 74.0817 314.14 74.637 314.503C75.2037 314.854 75.6513 315.342 75.98 315.965C76.3087 316.577 76.473 317.28 76.473 318.073C76.473 318.866 76.3087 319.575 75.98 320.198C75.6513 320.81 75.2037 321.292 74.637 321.643C74.0817 321.994 73.4527 322.17 72.75 322.17ZM72.75 320.793C73.1353 320.793 73.4753 320.68 73.77 320.453C74.076 320.215 74.314 319.892 74.484 319.484C74.654 319.076 74.739 318.6 74.739 318.056C74.739 317.501 74.654 317.019 74.484 316.611C74.314 316.203 74.076 315.886 73.77 315.659C73.4753 315.432 73.1353 315.319 72.75 315.319C72.3647 315.319 72.019 315.432 71.713 315.659C71.4183 315.886 71.186 316.203 71.016 316.611C70.846 317.019 70.761 317.501 70.761 318.056C70.761 318.6 70.846 319.076 71.016 319.484C71.186 319.892 71.4183 320.215 71.713 320.453C72.019 320.68 72.3647 320.793 72.75 320.793ZM78.683 314.129H80.434L80.4 316.373L80.196 316.186C80.2527 315.846 80.3603 315.54 80.519 315.268C80.6777 314.985 80.8703 314.747 81.097 314.554C81.335 314.361 81.5957 314.214 81.879 314.112C82.1623 313.999 82.457 313.942 82.763 313.942C83.1937 313.942 83.5847 314.016 83.936 314.163C84.2873 314.31 84.6047 314.531 84.888 314.826L84.174 316.22L84.106 316.373L83.97 316.305C83.936 316.214 83.902 316.124 83.868 316.033C83.834 315.942 83.749 315.835 83.613 315.71C83.443 315.597 83.273 315.512 83.103 315.455C82.9443 315.398 82.7573 315.37 82.542 315.37C82.27 315.37 82.0037 315.421 81.743 315.523C81.4937 315.614 81.267 315.761 81.063 315.965C80.859 316.169 80.6947 316.43 80.57 316.747C80.4567 317.053 80.4 317.427 80.4 317.869V322.017H78.683V314.129ZM86.061 322V314.129H87.506V314.775C87.6307 314.594 87.7667 314.446 87.914 314.333C88.0727 314.208 88.237 314.112 88.407 314.044C88.5883 313.976 88.7697 313.942 88.951 313.942C89.155 313.942 89.3477 313.982 89.529 314.061C89.7103 314.14 89.869 314.254 90.005 314.401C90.141 314.548 90.243 314.741 90.311 314.979C90.4243 314.752 90.5603 314.565 90.719 314.418C90.889 314.271 91.0817 314.157 91.297 314.078C91.5237 313.987 91.7617 313.942 92.011 313.942C92.283 313.942 92.5153 313.999 92.708 314.112C92.912 314.214 93.0763 314.361 93.201 314.554C93.337 314.735 93.4333 314.962 93.49 315.234C93.558 315.495 93.5863 315.789 93.575 316.118V322H92.096V316.56C92.096 316.163 92.0733 315.869 92.028 315.676C91.9827 315.483 91.9147 315.353 91.824 315.285C91.7447 315.217 91.6483 315.183 91.535 315.183C91.365 315.183 91.2007 315.262 91.042 315.421C90.8947 315.568 90.77 315.772 90.668 316.033C90.5773 316.294 90.532 316.583 90.532 316.9V322H89.104V316.628C89.104 316.039 89.053 315.648 88.951 315.455C88.8603 315.262 88.696 315.166 88.458 315.166C88.3447 315.166 88.2313 315.206 88.118 315.285C88.016 315.353 87.9197 315.461 87.829 315.608C87.7383 315.744 87.6647 315.914 87.608 316.118C87.5627 316.322 87.54 316.56 87.54 316.832V322H86.061ZM97.434 322.187C96.5613 322.187 95.8813 321.989 95.394 321.592C94.918 321.184 94.68 320.657 94.68 320.011C94.68 319.58 94.7763 319.195 94.969 318.855C95.173 318.504 95.4563 318.203 95.819 317.954C96.193 317.705 96.6407 317.512 97.162 317.376C97.6833 317.229 98.2727 317.155 98.93 317.155C99.066 317.155 99.2077 317.161 99.355 317.172C99.5137 317.172 99.678 317.178 99.848 317.189C100.029 317.2 100.211 317.212 100.392 317.223L100.443 318.43C100.284 318.407 100.114 318.39 99.933 318.379C99.763 318.368 99.593 318.362 99.423 318.362C99.253 318.362 99.0943 318.362 98.947 318.362C98.505 318.362 98.1197 318.396 97.791 318.464C97.4737 318.521 97.2073 318.611 96.992 318.736C96.788 318.861 96.635 319.014 96.533 319.195C96.431 319.376 96.38 319.586 96.38 319.824C96.38 320.017 96.414 320.187 96.482 320.334C96.55 320.47 96.6407 320.578 96.754 320.657C96.8787 320.736 97.0203 320.799 97.179 320.844C97.349 320.878 97.5303 320.895 97.723 320.895C98.097 320.895 98.4257 320.833 98.709 320.708C98.9923 320.583 99.2303 320.402 99.423 320.164C99.627 319.915 99.78 319.609 99.882 319.246C99.984 318.872 100.035 318.436 100.035 317.937C100.035 317.246 99.9557 316.707 99.797 316.322C99.6497 315.937 99.4287 315.67 99.134 315.523C98.8393 315.376 98.471 315.302 98.029 315.302C97.6663 315.302 97.315 315.364 96.975 315.489C96.6463 315.602 96.3233 315.818 96.006 316.135L95.105 315.115C95.5357 314.707 96.006 314.412 96.516 314.231C97.0373 314.05 97.57 313.959 98.114 313.959C98.6127 313.959 99.0717 314.021 99.491 314.146C99.9217 314.259 100.296 314.452 100.613 314.724C100.942 314.996 101.191 315.364 101.361 315.829C101.542 316.294 101.633 316.883 101.633 317.597V322H99.865V321.031C99.7177 321.258 99.5533 321.45 99.372 321.609C99.1907 321.756 98.9923 321.875 98.777 321.966C98.573 322.045 98.3577 322.102 98.131 322.136C97.9043 322.17 97.672 322.187 97.434 322.187ZM103.52 322V314.129H105.22V315.336C105.413 315.053 105.628 314.809 105.866 314.605C106.104 314.401 106.37 314.242 106.665 314.129C106.96 314.004 107.277 313.942 107.617 313.942C108.059 313.942 108.467 314.055 108.841 314.282C109.215 314.509 109.515 314.866 109.742 315.353C109.969 315.829 110.082 316.464 110.082 317.257V322H108.399V317.274C108.399 316.809 108.348 316.43 108.246 316.135C108.144 315.84 107.997 315.625 107.804 315.489C107.623 315.353 107.402 315.285 107.141 315.285C106.914 315.285 106.688 315.336 106.461 315.438C106.234 315.54 106.025 315.682 105.832 315.863C105.651 316.033 105.503 316.248 105.39 316.509C105.277 316.758 105.22 317.042 105.22 317.359V322H103.52ZM115.777 322.187C115.199 322.187 114.661 322.091 114.162 321.898C113.675 321.694 113.25 321.411 112.887 321.048C112.536 320.674 112.258 320.243 112.054 319.756C111.861 319.257 111.765 318.713 111.765 318.124C111.765 317.535 111.861 316.991 112.054 316.492C112.258 315.982 112.536 315.54 112.887 315.166C113.25 314.792 113.675 314.503 114.162 314.299C114.661 314.084 115.193 313.976 115.76 313.976C116.463 313.976 117.075 314.106 117.596 314.367C118.129 314.628 118.559 314.996 118.888 315.472L117.919 316.492L117.8 316.611L117.698 316.509C117.687 316.418 117.664 316.333 117.63 316.254C117.607 316.163 117.534 316.044 117.409 315.897C117.182 315.693 116.933 315.551 116.661 315.472C116.389 315.381 116.077 315.336 115.726 315.336C115.431 315.336 115.148 315.398 114.876 315.523C114.615 315.648 114.377 315.829 114.162 316.067C113.958 316.305 113.794 316.594 113.669 316.934C113.544 317.274 113.482 317.654 113.482 318.073C113.482 318.481 113.544 318.855 113.669 319.195C113.794 319.524 113.964 319.807 114.179 320.045C114.394 320.272 114.644 320.453 114.927 320.589C115.222 320.714 115.528 320.776 115.845 320.776C116.094 320.776 116.332 320.748 116.559 320.691C116.797 320.623 117.024 320.521 117.239 320.385C117.454 320.238 117.658 320.051 117.851 319.824L118.786 320.912C118.378 321.354 117.908 321.677 117.375 321.881C116.854 322.085 116.321 322.187 115.777 322.187ZM124.107 322.187C123.54 322.187 123.019 322.096 122.543 321.915C122.067 321.734 121.653 321.473 121.302 321.133C120.962 320.782 120.696 320.351 120.503 319.841C120.31 319.331 120.214 318.753 120.214 318.107C120.214 317.45 120.31 316.866 120.503 316.356C120.696 315.835 120.956 315.398 121.285 315.047C121.625 314.696 122.016 314.424 122.458 314.231C122.911 314.038 123.393 313.942 123.903 313.942C124.345 313.942 124.764 314.021 125.161 314.18C125.569 314.339 125.92 314.577 126.215 314.894C126.521 315.2 126.759 315.591 126.929 316.067C127.11 316.543 127.201 317.098 127.201 317.733C127.201 317.846 127.201 317.977 127.201 318.124C127.201 318.26 127.195 318.379 127.184 318.481H121.846C121.869 318.889 121.948 319.246 122.084 319.552C122.22 319.847 122.39 320.09 122.594 320.283C122.809 320.476 123.053 320.617 123.325 320.708C123.597 320.799 123.88 320.844 124.175 320.844C124.436 320.844 124.674 320.821 124.889 320.776C125.116 320.719 125.331 320.634 125.535 320.521C125.739 320.408 125.926 320.255 126.096 320.062L126.98 320.929C126.742 321.212 126.476 321.45 126.181 321.643C125.886 321.824 125.563 321.96 125.212 322.051C124.872 322.142 124.504 322.187 124.107 322.187ZM121.88 317.206H125.552C125.552 316.889 125.512 316.611 125.433 316.373C125.354 316.135 125.235 315.931 125.076 315.761C124.929 315.591 124.747 315.466 124.532 315.387C124.317 315.296 124.079 315.251 123.818 315.251C123.569 315.251 123.336 315.291 123.121 315.37C122.917 315.449 122.73 315.568 122.56 315.727C122.39 315.886 122.243 316.09 122.118 316.339C122.005 316.577 121.925 316.866 121.88 317.206ZM60.697 347V336.409H63.859C64.4823 336.409 65.0207 336.471 65.474 336.596C65.9387 336.721 66.3183 336.902 66.613 337.14C66.919 337.378 67.1457 337.661 67.293 337.99C67.4403 338.307 67.514 338.659 67.514 339.044C67.514 339.35 67.4517 339.662 67.327 339.979C67.2137 340.285 67.0437 340.563 66.817 340.812C66.6017 341.05 66.324 341.231 65.984 341.356C66.2787 341.469 66.545 341.617 66.783 341.798C67.021 341.979 67.225 342.189 67.395 342.427C67.565 342.654 67.6953 342.897 67.786 343.158C67.888 343.419 67.939 343.691 67.939 343.974C67.939 344.427 67.854 344.841 67.684 345.215C67.514 345.589 67.259 345.912 66.919 346.184C66.579 346.445 66.154 346.649 65.644 346.796C65.134 346.932 64.5333 347 63.842 347H60.697ZM62.363 345.589H64.029C64.471 345.589 64.8507 345.532 65.168 345.419C65.4853 345.294 65.729 345.107 65.899 344.858C66.0803 344.609 66.171 344.291 66.171 343.906C66.171 343.543 66.0917 343.226 65.933 342.954C65.7857 342.671 65.5363 342.45 65.185 342.291C64.8337 342.132 64.3577 342.053 63.757 342.053H62.363V345.589ZM62.363 340.693H63.689C64.233 340.693 64.658 340.631 64.964 340.506C65.2813 340.381 65.5023 340.206 65.627 339.979C65.763 339.752 65.831 339.497 65.831 339.214C65.831 338.999 65.7913 338.806 65.712 338.636C65.644 338.466 65.5307 338.319 65.372 338.194C65.2133 338.058 65.0093 337.956 64.76 337.888C64.5107 337.82 64.216 337.786 63.876 337.786H62.363V340.693ZM73.107 347.187C72.5403 347.187 72.019 347.096 71.543 346.915C71.067 346.734 70.6533 346.473 70.302 346.133C69.962 345.782 69.6957 345.351 69.503 344.841C69.3103 344.331 69.214 343.753 69.214 343.107C69.214 342.45 69.3103 341.866 69.503 341.356C69.6957 340.835 69.9563 340.398 70.285 340.047C70.625 339.696 71.016 339.424 71.458 339.231C71.9113 339.038 72.393 338.942 72.903 338.942C73.345 338.942 73.7643 339.021 74.161 339.18C74.569 339.339 74.9203 339.577 75.215 339.894C75.521 340.2 75.759 340.591 75.929 341.067C76.1103 341.543 76.201 342.098 76.201 342.733C76.201 342.846 76.201 342.977 76.201 343.124C76.201 343.26 76.1953 343.379 76.184 343.481H70.846C70.8687 343.889 70.948 344.246 71.084 344.552C71.22 344.847 71.39 345.09 71.594 345.283C71.8093 345.476 72.053 345.617 72.325 345.708C72.597 345.799 72.8803 345.844 73.175 345.844C73.4357 345.844 73.6737 345.821 73.889 345.776C74.1157 345.719 74.331 345.634 74.535 345.521C74.739 345.408 74.926 345.255 75.096 345.062L75.98 345.929C75.742 346.212 75.4757 346.45 75.181 346.643C74.8863 346.824 74.5633 346.96 74.212 347.051C73.872 347.142 73.5037 347.187 73.107 347.187ZM70.88 342.206H74.552C74.552 341.889 74.5123 341.611 74.433 341.373C74.3537 341.135 74.2347 340.931 74.076 340.761C73.9287 340.591 73.7473 340.466 73.532 340.387C73.3167 340.296 73.0787 340.251 72.818 340.251C72.5687 340.251 72.3363 340.291 72.121 340.37C71.917 340.449 71.73 340.568 71.56 340.727C71.39 340.886 71.2427 341.09 71.118 341.339C71.0047 341.577 70.9253 341.866 70.88 342.206ZM78.02 347V339.129H79.72V340.336C79.9127 340.053 80.128 339.809 80.366 339.605C80.604 339.401 80.8703 339.242 81.165 339.129C81.4597 339.004 81.777 338.942 82.117 338.942C82.559 338.942 82.967 339.055 83.341 339.282C83.715 339.509 84.0153 339.866 84.242 340.353C84.4687 340.829 84.582 341.464 84.582 342.257V347H82.899V342.274C82.899 341.809 82.848 341.43 82.746 341.135C82.644 340.84 82.4967 340.625 82.304 340.489C82.1227 340.353 81.9017 340.285 81.641 340.285C81.4143 340.285 81.1877 340.336 80.961 340.438C80.7343 340.54 80.5247 340.682 80.332 340.863C80.1507 341.033 80.0033 341.248 79.89 341.509C79.7767 341.758 79.72 342.042 79.72 342.359V347H78.02ZM90.107 347.187C89.5403 347.187 89.019 347.096 88.543 346.915C88.067 346.734 87.6533 346.473 87.302 346.133C86.962 345.782 86.6957 345.351 86.503 344.841C86.3103 344.331 86.214 343.753 86.214 343.107C86.214 342.45 86.3103 341.866 86.503 341.356C86.6957 340.835 86.9563 340.398 87.285 340.047C87.625 339.696 88.016 339.424 88.458 339.231C88.9113 339.038 89.393 338.942 89.903 338.942C90.345 338.942 90.7643 339.021 91.161 339.18C91.569 339.339 91.9203 339.577 92.215 339.894C92.521 340.2 92.759 340.591 92.929 341.067C93.1103 341.543 93.201 342.098 93.201 342.733C93.201 342.846 93.201 342.977 93.201 343.124C93.201 343.26 93.1953 343.379 93.184 343.481H87.846C87.8687 343.889 87.948 344.246 88.084 344.552C88.22 344.847 88.39 345.09 88.594 345.283C88.8093 345.476 89.053 345.617 89.325 345.708C89.597 345.799 89.8803 345.844 90.175 345.844C90.4357 345.844 90.6737 345.821 90.889 345.776C91.1157 345.719 91.331 345.634 91.535 345.521C91.739 345.408 91.926 345.255 92.096 345.062L92.98 345.929C92.742 346.212 92.4757 346.45 92.181 346.643C91.8863 346.824 91.5633 346.96 91.212 347.051C90.872 347.142 90.5037 347.187 90.107 347.187ZM87.88 342.206H91.552C91.552 341.889 91.5123 341.611 91.433 341.373C91.3537 341.135 91.2347 340.931 91.076 340.761C90.9287 340.591 90.7473 340.466 90.532 340.387C90.3167 340.296 90.0787 340.251 89.818 340.251C89.5687 340.251 89.3363 340.291 89.121 340.37C88.917 340.449 88.73 340.568 88.56 340.727C88.39 340.886 88.2427 341.09 88.118 341.339C88.0047 341.577 87.9253 341.866 87.88 342.206ZM96.482 340.472H94.799V339.129H96.482V338.602C96.482 337.899 96.6237 337.321 96.907 336.868C97.2017 336.403 97.587 336.063 98.063 335.848C98.539 335.621 99.0603 335.508 99.627 335.508C100.148 335.508 100.63 335.599 101.072 335.78C101.514 335.961 101.894 336.233 102.211 336.596L101.497 337.769L101.412 337.905L101.293 337.837C101.27 337.746 101.236 337.656 101.191 337.565C101.157 337.474 101.072 337.367 100.936 337.242C100.743 337.095 100.556 336.993 100.375 336.936C100.194 336.879 99.9727 336.851 99.712 336.851C99.3947 336.851 99.117 336.913 98.879 337.038C98.6523 337.151 98.471 337.338 98.335 337.599C98.2103 337.848 98.148 338.183 98.148 338.602V339.129H100.596V340.472H98.148V347H96.482V340.472ZM104.03 347V345.657H105.985V340.472H104.115V339.129H107.685V345.657H109.47V347H104.03ZM106.733 337.718C106.427 337.718 106.166 337.616 105.951 337.412C105.747 337.197 105.645 336.947 105.645 336.664C105.645 336.358 105.747 336.103 105.951 335.899C106.155 335.695 106.416 335.593 106.733 335.593C107.028 335.593 107.283 335.701 107.498 335.916C107.725 336.131 107.838 336.381 107.838 336.664C107.838 336.947 107.725 337.197 107.498 337.412C107.283 337.616 107.028 337.718 106.733 337.718ZM116.083 347.153C115.618 347.153 115.216 347.079 114.876 346.932C114.547 346.773 114.281 346.524 114.077 346.184C113.884 345.844 113.748 345.402 113.669 344.858C113.59 344.314 113.561 343.651 113.584 342.869L113.805 337.225L115.539 337.004L115.709 336.987L115.726 337.14C115.669 337.219 115.618 337.299 115.573 337.378C115.539 337.457 115.511 337.593 115.488 337.786L115.318 339.979L115.386 340.166L115.267 342.869C115.233 343.64 115.256 344.24 115.335 344.671C115.414 345.09 115.55 345.385 115.743 345.555C115.936 345.714 116.168 345.793 116.44 345.793C116.803 345.793 117.126 345.719 117.409 345.572C117.704 345.425 117.993 345.243 118.276 345.028L118.65 346.286C118.265 346.569 117.862 346.785 117.443 346.932C117.024 347.079 116.57 347.153 116.083 347.153ZM112.054 339.129H117.987L117.97 340.489H112.054V339.129ZM123.869 347.187C123.393 347.187 122.945 347.142 122.526 347.051C122.107 346.96 121.71 346.824 121.336 346.643C120.973 346.462 120.639 346.229 120.333 345.946L121.115 344.518L121.217 344.365L121.336 344.433C121.359 344.524 121.387 344.62 121.421 344.722C121.455 344.813 121.534 344.926 121.659 345.062C121.931 345.3 122.243 345.493 122.594 345.64C122.945 345.776 123.376 345.844 123.886 345.844C124.237 345.844 124.532 345.804 124.77 345.725C125.019 345.634 125.212 345.515 125.348 345.368C125.484 345.209 125.552 345.034 125.552 344.841C125.552 344.694 125.512 344.569 125.433 344.467C125.365 344.354 125.257 344.252 125.11 344.161C124.963 344.059 124.77 343.963 124.532 343.872C124.294 343.77 124.005 343.674 123.665 343.583C123.087 343.413 122.583 343.22 122.152 343.005C121.721 342.778 121.387 342.512 121.149 342.206C120.911 341.9 120.792 341.537 120.792 341.118C120.792 340.699 120.911 340.33 121.149 340.013C121.398 339.684 121.75 339.424 122.203 339.231C122.656 339.038 123.195 338.942 123.818 338.942C124.158 338.942 124.475 338.97 124.77 339.027C125.076 339.072 125.354 339.146 125.603 339.248C125.864 339.35 126.107 339.48 126.334 339.639C126.561 339.786 126.776 339.962 126.98 340.166L126.113 341.322L126.011 341.458L125.892 341.356C125.881 341.265 125.852 341.18 125.807 341.101C125.773 341.022 125.694 340.92 125.569 340.795C125.32 340.614 125.048 340.478 124.753 340.387C124.458 340.296 124.158 340.251 123.852 340.251C123.455 340.251 123.104 340.319 122.798 340.455C122.503 340.591 122.356 340.795 122.356 341.067C122.356 341.226 122.418 341.373 122.543 341.509C122.679 341.645 122.894 341.781 123.189 341.917C123.484 342.042 123.886 342.172 124.396 342.308C125.042 342.478 125.563 342.676 125.96 342.903C126.357 343.118 126.646 343.373 126.827 343.668C127.02 343.963 127.116 344.308 127.116 344.705C127.116 345.147 126.991 345.561 126.742 345.946C126.504 346.32 126.141 346.62 125.654 346.847C125.167 347.074 124.572 347.187 123.869 347.187Z" fill="white"/>
<path d="M332.277 595.187C331.699 595.187 331.155 595.079 330.645 594.864C330.146 594.649 329.704 594.32 329.319 593.878C328.934 593.436 328.628 592.875 328.401 592.195C328.186 591.515 328.078 590.705 328.078 589.764C328.078 588.937 328.157 588.217 328.316 587.605C328.486 586.982 328.713 586.46 328.996 586.041C329.279 585.61 329.602 585.27 329.965 585.021C330.328 584.76 330.707 584.573 331.104 584.46C331.501 584.335 331.897 584.273 332.294 584.273C333.087 584.273 333.762 584.46 334.317 584.834C334.884 585.197 335.309 585.701 335.592 586.347L334.453 587.112L334.317 587.197L334.232 587.078C334.255 586.987 334.249 586.902 334.215 586.823C334.192 586.732 334.13 586.613 334.028 586.466C333.779 586.137 333.512 585.916 333.229 585.803C332.946 585.69 332.657 585.633 332.362 585.633C331.999 585.633 331.654 585.724 331.325 585.905C331.008 586.075 330.73 586.33 330.492 586.67C330.254 587.01 330.067 587.435 329.931 587.945C329.795 588.444 329.727 589.022 329.727 589.679C329.727 590.314 329.789 590.886 329.914 591.396C330.05 591.895 330.231 592.325 330.458 592.688C330.696 593.039 330.968 593.311 331.274 593.504C331.591 593.685 331.931 593.776 332.294 593.776C332.577 593.776 332.838 593.736 333.076 593.657C333.314 593.578 333.535 593.447 333.739 593.266C333.943 593.073 334.124 592.847 334.283 592.586L335.473 593.419C335.099 594.042 334.651 594.496 334.13 594.779C333.609 595.051 332.991 595.187 332.277 595.187ZM340.25 595.17C339.536 595.17 338.901 595 338.346 594.66C337.791 594.309 337.349 593.827 337.02 593.215C336.691 592.592 336.527 591.878 336.527 591.073C336.527 590.28 336.691 589.577 337.02 588.965C337.349 588.342 337.791 587.854 338.346 587.503C338.901 587.14 339.536 586.959 340.25 586.959C340.953 586.959 341.582 587.14 342.137 587.503C342.704 587.854 343.151 588.342 343.48 588.965C343.809 589.577 343.973 590.28 343.973 591.073C343.973 591.866 343.809 592.575 343.48 593.198C343.151 593.81 342.704 594.292 342.137 594.643C341.582 594.994 340.953 595.17 340.25 595.17ZM340.25 593.793C340.635 593.793 340.975 593.68 341.27 593.453C341.576 593.215 341.814 592.892 341.984 592.484C342.154 592.076 342.239 591.6 342.239 591.056C342.239 590.501 342.154 590.019 341.984 589.611C341.814 589.203 341.576 588.886 341.27 588.659C340.975 588.432 340.635 588.319 340.25 588.319C339.865 588.319 339.519 588.432 339.213 588.659C338.918 588.886 338.686 589.203 338.516 589.611C338.346 590.019 338.261 590.501 338.261 591.056C338.261 591.6 338.346 592.076 338.516 592.484C338.686 592.892 338.918 593.215 339.213 593.453C339.519 593.68 339.865 593.793 340.25 593.793ZM348.376 595.187C347.957 595.187 347.549 595.102 347.152 594.932C346.767 594.751 346.421 594.49 346.115 594.15C345.809 593.81 345.565 593.379 345.384 592.858C345.214 592.325 345.129 591.713 345.129 591.022C345.129 590.319 345.214 589.713 345.384 589.203C345.565 588.693 345.809 588.274 346.115 587.945C346.421 587.605 346.772 587.356 347.169 587.197C347.566 587.027 347.979 586.942 348.41 586.942C348.716 586.942 348.994 586.982 349.243 587.061C349.504 587.14 349.736 587.259 349.94 587.418C350.144 587.577 350.308 587.775 350.433 588.013V583.627H352.082H352.235V583.78C352.178 583.848 352.139 583.922 352.116 584.001C352.093 584.08 352.088 584.216 352.099 584.409V593.895C352.099 594.076 352.105 594.263 352.116 594.456C352.139 594.637 352.19 594.819 352.269 595H350.603C350.546 594.875 350.507 594.762 350.484 594.66C350.461 594.558 350.45 594.456 350.45 594.354C350.45 594.252 350.45 594.144 350.45 594.031C350.291 594.269 350.11 594.479 349.906 594.66C349.702 594.83 349.47 594.96 349.209 595.051C348.948 595.142 348.671 595.187 348.376 595.187ZM348.665 593.793C348.971 593.793 349.232 593.731 349.447 593.606C349.662 593.481 349.838 593.3 349.974 593.062C350.11 592.824 350.212 592.535 350.28 592.195C350.348 591.855 350.382 591.47 350.382 591.039C350.382 590.461 350.32 589.968 350.195 589.56C350.07 589.141 349.872 588.823 349.6 588.608C349.339 588.381 349.005 588.268 348.597 588.268C348.302 588.268 348.042 588.33 347.815 588.455C347.588 588.58 347.396 588.761 347.237 588.999C347.09 589.226 346.976 589.503 346.897 589.832C346.818 590.161 346.778 590.529 346.778 590.937C346.778 591.515 346.857 592.019 347.016 592.45C347.186 592.881 347.413 593.215 347.696 593.453C347.979 593.68 348.302 593.793 348.665 593.793ZM357.607 595.187C357.04 595.187 356.519 595.096 356.043 594.915C355.567 594.734 355.153 594.473 354.802 594.133C354.462 593.782 354.196 593.351 354.003 592.841C353.81 592.331 353.714 591.753 353.714 591.107C353.714 590.45 353.81 589.866 354.003 589.356C354.196 588.835 354.456 588.398 354.785 588.047C355.125 587.696 355.516 587.424 355.958 587.231C356.411 587.038 356.893 586.942 357.403 586.942C357.845 586.942 358.264 587.021 358.661 587.18C359.069 587.339 359.42 587.577 359.715 587.894C360.021 588.2 360.259 588.591 360.429 589.067C360.61 589.543 360.701 590.098 360.701 590.733C360.701 590.846 360.701 590.977 360.701 591.124C360.701 591.26 360.695 591.379 360.684 591.481H355.346C355.369 591.889 355.448 592.246 355.584 592.552C355.72 592.847 355.89 593.09 356.094 593.283C356.309 593.476 356.553 593.617 356.825 593.708C357.097 593.799 357.38 593.844 357.675 593.844C357.936 593.844 358.174 593.821 358.389 593.776C358.616 593.719 358.831 593.634 359.035 593.521C359.239 593.408 359.426 593.255 359.596 593.062L360.48 593.929C360.242 594.212 359.976 594.45 359.681 594.643C359.386 594.824 359.063 594.96 358.712 595.051C358.372 595.142 358.004 595.187 357.607 595.187ZM355.38 590.206H359.052C359.052 589.889 359.012 589.611 358.933 589.373C358.854 589.135 358.735 588.931 358.576 588.761C358.429 588.591 358.247 588.466 358.032 588.387C357.817 588.296 357.579 588.251 357.318 588.251C357.069 588.251 356.836 588.291 356.621 588.37C356.417 588.449 356.23 588.568 356.06 588.727C355.89 588.886 355.743 589.09 355.618 589.339C355.505 589.577 355.425 589.866 355.38 590.206ZM374.777 595.187C374.199 595.187 373.655 595.079 373.145 594.864C372.646 594.649 372.204 594.32 371.819 593.878C371.434 593.436 371.128 592.875 370.901 592.195C370.686 591.515 370.578 590.705 370.578 589.764C370.578 588.937 370.657 588.217 370.816 587.605C370.986 586.982 371.213 586.46 371.496 586.041C371.779 585.61 372.102 585.27 372.465 585.021C372.828 584.76 373.207 584.573 373.604 584.46C374.001 584.335 374.397 584.273 374.794 584.273C375.587 584.273 376.262 584.46 376.817 584.834C377.384 585.197 377.809 585.701 378.092 586.347L376.953 587.112L376.817 587.197L376.732 587.078C376.755 586.987 376.749 586.902 376.715 586.823C376.692 586.732 376.63 586.613 376.528 586.466C376.279 586.137 376.012 585.916 375.729 585.803C375.446 585.69 375.157 585.633 374.862 585.633C374.499 585.633 374.154 585.724 373.825 585.905C373.508 586.075 373.23 586.33 372.992 586.67C372.754 587.01 372.567 587.435 372.431 587.945C372.295 588.444 372.227 589.022 372.227 589.679C372.227 590.314 372.289 590.886 372.414 591.396C372.55 591.895 372.731 592.325 372.958 592.688C373.196 593.039 373.468 593.311 373.774 593.504C374.091 593.685 374.431 593.776 374.794 593.776C375.077 593.776 375.338 593.736 375.576 593.657C375.814 593.578 376.035 593.447 376.239 593.266C376.443 593.073 376.624 592.847 376.783 592.586L377.973 593.419C377.599 594.042 377.151 594.496 376.63 594.779C376.109 595.051 375.491 595.187 374.777 595.187ZM382.75 595.17C382.036 595.17 381.401 595 380.846 594.66C380.291 594.309 379.849 593.827 379.52 593.215C379.191 592.592 379.027 591.878 379.027 591.073C379.027 590.28 379.191 589.577 379.52 588.965C379.849 588.342 380.291 587.854 380.846 587.503C381.401 587.14 382.036 586.959 382.75 586.959C383.453 586.959 384.082 587.14 384.637 587.503C385.204 587.854 385.651 588.342 385.98 588.965C386.309 589.577 386.473 590.28 386.473 591.073C386.473 591.866 386.309 592.575 385.98 593.198C385.651 593.81 385.204 594.292 384.637 594.643C384.082 594.994 383.453 595.17 382.75 595.17ZM382.75 593.793C383.135 593.793 383.475 593.68 383.77 593.453C384.076 593.215 384.314 592.892 384.484 592.484C384.654 592.076 384.739 591.6 384.739 591.056C384.739 590.501 384.654 590.019 384.484 589.611C384.314 589.203 384.076 588.886 383.77 588.659C383.475 588.432 383.135 588.319 382.75 588.319C382.365 588.319 382.019 588.432 381.713 588.659C381.418 588.886 381.186 589.203 381.016 589.611C380.846 590.019 380.761 590.501 380.761 591.056C380.761 591.6 380.846 592.076 381.016 592.484C381.186 592.892 381.418 593.215 381.713 593.453C382.019 593.68 382.365 593.793 382.75 593.793ZM387.561 595V587.129H389.006V587.775C389.131 587.594 389.267 587.446 389.414 587.333C389.573 587.208 389.737 587.112 389.907 587.044C390.088 586.976 390.27 586.942 390.451 586.942C390.655 586.942 390.848 586.982 391.029 587.061C391.21 587.14 391.369 587.254 391.505 587.401C391.641 587.548 391.743 587.741 391.811 587.979C391.924 587.752 392.06 587.565 392.219 587.418C392.389 587.271 392.582 587.157 392.797 587.078C393.024 586.987 393.262 586.942 393.511 586.942C393.783 586.942 394.015 586.999 394.208 587.112C394.412 587.214 394.576 587.361 394.701 587.554C394.837 587.735 394.933 587.962 394.99 588.234C395.058 588.495 395.086 588.789 395.075 589.118V595H393.596V589.56C393.596 589.163 393.573 588.869 393.528 588.676C393.483 588.483 393.415 588.353 393.324 588.285C393.245 588.217 393.148 588.183 393.035 588.183C392.865 588.183 392.701 588.262 392.542 588.421C392.395 588.568 392.27 588.772 392.168 589.033C392.077 589.294 392.032 589.583 392.032 589.9V595H390.604V589.628C390.604 589.039 390.553 588.648 390.451 588.455C390.36 588.262 390.196 588.166 389.958 588.166C389.845 588.166 389.731 588.206 389.618 588.285C389.516 588.353 389.42 588.461 389.329 588.608C389.238 588.744 389.165 588.914 389.108 589.118C389.063 589.322 389.04 589.56 389.04 589.832V595H387.561ZM396.384 597.839V587.129H398.067V588.387C398.214 588.047 398.401 587.775 398.628 587.571C398.866 587.356 399.127 587.203 399.41 587.112C399.693 587.01 399.999 586.959 400.328 586.959C400.759 586.959 401.161 587.05 401.535 587.231C401.92 587.401 402.26 587.656 402.555 587.996C402.85 588.336 403.082 588.761 403.252 589.271C403.422 589.781 403.507 590.376 403.507 591.056C403.507 591.747 403.416 592.354 403.235 592.875C403.054 593.396 402.81 593.833 402.504 594.184C402.209 594.524 401.869 594.779 401.484 594.949C401.099 595.119 400.702 595.204 400.294 595.204C400.011 595.204 399.727 595.164 399.444 595.085C399.172 595.017 398.923 594.909 398.696 594.762C398.469 594.603 398.271 594.422 398.101 594.218V597.839H396.384ZM399.869 593.844C400.13 593.844 400.373 593.799 400.6 593.708C400.827 593.606 401.031 593.453 401.212 593.249C401.393 593.034 401.535 592.745 401.637 592.382C401.739 592.008 401.79 591.555 401.79 591.022C401.79 590.455 401.716 589.974 401.569 589.577C401.433 589.18 401.229 588.874 400.957 588.659C400.696 588.444 400.379 588.33 400.005 588.319C399.722 588.308 399.461 588.359 399.223 588.472C398.985 588.574 398.781 588.744 398.611 588.982C398.441 589.209 398.311 589.515 398.22 589.9C398.141 590.274 398.101 590.722 398.101 591.243C398.101 591.594 398.124 591.912 398.169 592.195C398.226 592.467 398.305 592.711 398.407 592.926C398.509 593.13 398.628 593.3 398.764 593.436C398.911 593.572 399.076 593.674 399.257 593.742C399.45 593.81 399.654 593.844 399.869 593.844ZM405.156 595V593.657H407.4V584.97H405.258V583.627H409.117V593.657H411.344V595H405.156ZM417.107 595.187C416.54 595.187 416.019 595.096 415.543 594.915C415.067 594.734 414.653 594.473 414.302 594.133C413.962 593.782 413.696 593.351 413.503 592.841C413.31 592.331 413.214 591.753 413.214 591.107C413.214 590.45 413.31 589.866 413.503 589.356C413.696 588.835 413.956 588.398 414.285 588.047C414.625 587.696 415.016 587.424 415.458 587.231C415.911 587.038 416.393 586.942 416.903 586.942C417.345 586.942 417.764 587.021 418.161 587.18C418.569 587.339 418.92 587.577 419.215 587.894C419.521 588.2 419.759 588.591 419.929 589.067C420.11 589.543 420.201 590.098 420.201 590.733C420.201 590.846 420.201 590.977 420.201 591.124C420.201 591.26 420.195 591.379 420.184 591.481H414.846C414.869 591.889 414.948 592.246 415.084 592.552C415.22 592.847 415.39 593.09 415.594 593.283C415.809 593.476 416.053 593.617 416.325 593.708C416.597 593.799 416.88 593.844 417.175 593.844C417.436 593.844 417.674 593.821 417.889 593.776C418.116 593.719 418.331 593.634 418.535 593.521C418.739 593.408 418.926 593.255 419.096 593.062L419.98 593.929C419.742 594.212 419.476 594.45 419.181 594.643C418.886 594.824 418.563 594.96 418.212 595.051C417.872 595.142 417.504 595.187 417.107 595.187ZM414.88 590.206H418.552C418.552 589.889 418.512 589.611 418.433 589.373C418.354 589.135 418.235 588.931 418.076 588.761C417.929 588.591 417.747 588.466 417.532 588.387C417.317 588.296 417.079 588.251 416.818 588.251C416.569 588.251 416.336 588.291 416.121 588.37C415.917 588.449 415.73 588.568 415.56 588.727C415.39 588.886 415.243 589.09 415.118 589.339C415.005 589.577 414.925 589.866 414.88 590.206ZM421.578 595L424.315 591.056L421.629 587.129H423.431L425.233 589.73L426.933 587.129H428.65L426.134 590.971L428.973 595H427.137L425.216 592.314L423.431 595H421.578ZM431.03 595V593.657H432.985V588.472H431.115V587.129H434.685V593.657H436.47V595H431.03ZM433.733 585.718C433.427 585.718 433.166 585.616 432.951 585.412C432.747 585.197 432.645 584.947 432.645 584.664C432.645 584.358 432.747 584.103 432.951 583.899C433.155 583.695 433.416 583.593 433.733 583.593C434.028 583.593 434.283 583.701 434.498 583.916C434.725 584.131 434.838 584.381 434.838 584.664C434.838 584.947 434.725 585.197 434.498 585.412C434.283 585.616 434.028 585.718 433.733 585.718ZM443.083 595.153C442.618 595.153 442.216 595.079 441.876 594.932C441.547 594.773 441.281 594.524 441.077 594.184C440.884 593.844 440.748 593.402 440.669 592.858C440.59 592.314 440.561 591.651 440.584 590.869L440.805 585.225L442.539 585.004L442.709 584.987L442.726 585.14C442.669 585.219 442.618 585.299 442.573 585.378C442.539 585.457 442.511 585.593 442.488 585.786L442.318 587.979L442.386 588.166L442.267 590.869C442.233 591.64 442.256 592.24 442.335 592.671C442.414 593.09 442.55 593.385 442.743 593.555C442.936 593.714 443.168 593.793 443.44 593.793C443.803 593.793 444.126 593.719 444.409 593.572C444.704 593.425 444.993 593.243 445.276 593.028L445.65 594.286C445.265 594.569 444.862 594.785 444.443 594.932C444.024 595.079 443.57 595.153 443.083 595.153ZM439.054 587.129H444.987L444.97 588.489H439.054V587.129ZM448.642 597.975C448.268 597.975 447.934 597.913 447.639 597.788C447.344 597.675 447.061 597.499 446.789 597.261L447.418 596.105L447.503 595.969L447.622 596.037C447.656 596.116 447.696 596.19 447.741 596.258C447.798 596.337 447.905 596.434 448.064 596.547C448.155 596.581 448.251 596.604 448.353 596.615C448.455 596.638 448.557 596.649 448.659 596.649C448.92 596.649 449.141 596.581 449.322 596.445C449.503 596.32 449.662 596.122 449.798 595.85C449.945 595.578 450.093 595.227 450.24 594.796L451.872 590.036C452.042 589.537 452.189 589.056 452.314 588.591C452.45 588.115 452.535 587.628 452.569 587.129H454.167C454.122 587.65 454.003 588.189 453.81 588.744C453.629 589.299 453.442 589.838 453.249 590.359L451.294 595.748C450.999 596.575 450.631 597.153 450.189 597.482C449.747 597.811 449.231 597.975 448.642 597.975ZM447.112 587.129H448.829L451.209 593.317L450.359 595.187L447.112 587.129Z" fill="white"/>
<path d="M157.647 548.646L550 157" stroke="#F8AF21" stroke-width="5" stroke-linecap="round"/>
<circle cx="403.5" cy="303.5" r="12.5" fill="#521E64"/>
<circle cx="253.5" cy="454.5" r="12.5" fill="#521E64"/>
<path d="M434.148 309.187C433.445 309.187 432.794 309.079 432.193 308.864C431.604 308.649 431.099 308.326 430.68 307.895L431.513 306.484L431.598 306.331L431.734 306.416C431.757 306.495 431.785 306.58 431.819 306.671C431.853 306.762 431.938 306.875 432.074 307.011C432.357 307.226 432.68 307.408 433.043 307.555C433.406 307.691 433.802 307.759 434.233 307.759C434.528 307.759 434.788 307.725 435.015 307.657C435.253 307.578 435.457 307.476 435.627 307.351C435.808 307.215 435.944 307.056 436.035 306.875C436.126 306.682 436.171 306.473 436.171 306.246C436.171 306.087 436.154 305.94 436.12 305.804C436.086 305.657 436.024 305.526 435.933 305.413C435.842 305.288 435.712 305.164 435.542 305.039C435.383 304.914 435.174 304.784 434.913 304.648C434.652 304.501 434.341 304.348 433.978 304.189C433.241 303.872 432.658 303.554 432.227 303.237C431.808 302.908 431.507 302.557 431.326 302.183C431.145 301.798 431.054 301.378 431.054 300.925C431.054 300.404 431.196 299.945 431.479 299.548C431.762 299.14 432.153 298.823 432.652 298.596C433.162 298.358 433.74 298.239 434.386 298.239C434.817 298.239 435.219 298.296 435.593 298.409C435.967 298.511 436.318 298.664 436.647 298.868C436.976 299.061 437.27 299.304 437.531 299.599L436.545 300.755L436.443 300.891L436.324 300.789C436.313 300.698 436.29 300.608 436.256 300.517C436.233 300.426 436.16 300.313 436.035 300.177C435.797 299.962 435.542 299.814 435.27 299.735C435.009 299.656 434.698 299.616 434.335 299.616C434.097 299.616 433.876 299.65 433.672 299.718C433.479 299.775 433.309 299.865 433.162 299.99C433.026 300.103 432.918 300.234 432.839 300.381C432.771 300.528 432.737 300.687 432.737 300.857C432.737 301.016 432.754 301.157 432.788 301.282C432.822 301.407 432.884 301.531 432.975 301.656C433.077 301.781 433.213 301.911 433.383 302.047C433.564 302.172 433.791 302.308 434.063 302.455C434.335 302.591 434.669 302.744 435.066 302.914C435.599 303.152 436.041 303.384 436.392 303.611C436.755 303.838 437.038 304.076 437.242 304.325C437.457 304.563 437.61 304.829 437.701 305.124C437.792 305.407 437.837 305.73 437.837 306.093C437.837 306.603 437.707 307.096 437.446 307.572C437.197 308.037 436.8 308.422 436.256 308.728C435.712 309.034 435.009 309.187 434.148 309.187ZM443.107 309.187C442.54 309.187 442.019 309.096 441.543 308.915C441.067 308.734 440.653 308.473 440.302 308.133C439.962 307.782 439.696 307.351 439.503 306.841C439.31 306.331 439.214 305.753 439.214 305.107C439.214 304.45 439.31 303.866 439.503 303.356C439.696 302.835 439.956 302.398 440.285 302.047C440.625 301.696 441.016 301.424 441.458 301.231C441.911 301.038 442.393 300.942 442.903 300.942C443.345 300.942 443.764 301.021 444.161 301.18C444.569 301.339 444.92 301.577 445.215 301.894C445.521 302.2 445.759 302.591 445.929 303.067C446.11 303.543 446.201 304.098 446.201 304.733C446.201 304.846 446.201 304.977 446.201 305.124C446.201 305.26 446.195 305.379 446.184 305.481H440.846C440.869 305.889 440.948 306.246 441.084 306.552C441.22 306.847 441.39 307.09 441.594 307.283C441.809 307.476 442.053 307.617 442.325 307.708C442.597 307.799 442.88 307.844 443.175 307.844C443.436 307.844 443.674 307.821 443.889 307.776C444.116 307.719 444.331 307.634 444.535 307.521C444.739 307.408 444.926 307.255 445.096 307.062L445.98 307.929C445.742 308.212 445.476 308.45 445.181 308.643C444.886 308.824 444.563 308.96 444.212 309.051C443.872 309.142 443.504 309.187 443.107 309.187ZM440.88 304.206H444.552C444.552 303.889 444.512 303.611 444.433 303.373C444.354 303.135 444.235 302.931 444.076 302.761C443.929 302.591 443.747 302.466 443.532 302.387C443.317 302.296 443.079 302.251 442.818 302.251C442.569 302.251 442.336 302.291 442.121 302.37C441.917 302.449 441.73 302.568 441.56 302.727C441.39 302.886 441.243 303.09 441.118 303.339C441.005 303.577 440.925 303.866 440.88 304.206ZM448.683 301.129H450.434L450.4 303.373L450.196 303.186C450.253 302.846 450.36 302.54 450.519 302.268C450.678 301.985 450.87 301.747 451.097 301.554C451.335 301.361 451.596 301.214 451.879 301.112C452.162 300.999 452.457 300.942 452.763 300.942C453.194 300.942 453.585 301.016 453.936 301.163C454.287 301.31 454.605 301.531 454.888 301.826L454.174 303.22L454.106 303.373L453.97 303.305C453.936 303.214 453.902 303.124 453.868 303.033C453.834 302.942 453.749 302.835 453.613 302.71C453.443 302.597 453.273 302.512 453.103 302.455C452.944 302.398 452.757 302.37 452.542 302.37C452.27 302.37 452.004 302.421 451.743 302.523C451.494 302.614 451.267 302.761 451.063 302.965C450.859 303.169 450.695 303.43 450.57 303.747C450.457 304.053 450.4 304.427 450.4 304.869V309.017H448.683V301.129ZM459.053 309L456.061 301.129H457.812L459.988 307.045H459.733L460.906 304.274C461.133 303.696 461.32 303.146 461.467 302.625C461.614 302.104 461.711 301.605 461.756 301.129H463.337C463.269 301.628 463.139 302.16 462.946 302.727C462.765 303.282 462.549 303.86 462.3 304.461L460.396 309H459.053ZM468.607 309.187C468.04 309.187 467.519 309.096 467.043 308.915C466.567 308.734 466.153 308.473 465.802 308.133C465.462 307.782 465.196 307.351 465.003 306.841C464.81 306.331 464.714 305.753 464.714 305.107C464.714 304.45 464.81 303.866 465.003 303.356C465.196 302.835 465.456 302.398 465.785 302.047C466.125 301.696 466.516 301.424 466.958 301.231C467.411 301.038 467.893 300.942 468.403 300.942C468.845 300.942 469.264 301.021 469.661 301.18C470.069 301.339 470.42 301.577 470.715 301.894C471.021 302.2 471.259 302.591 471.429 303.067C471.61 303.543 471.701 304.098 471.701 304.733C471.701 304.846 471.701 304.977 471.701 305.124C471.701 305.26 471.695 305.379 471.684 305.481H466.346C466.369 305.889 466.448 306.246 466.584 306.552C466.72 306.847 466.89 307.09 467.094 307.283C467.309 307.476 467.553 307.617 467.825 307.708C468.097 307.799 468.38 307.844 468.675 307.844C468.936 307.844 469.174 307.821 469.389 307.776C469.616 307.719 469.831 307.634 470.035 307.521C470.239 307.408 470.426 307.255 470.596 307.062L471.48 307.929C471.242 308.212 470.976 308.45 470.681 308.643C470.386 308.824 470.063 308.96 469.712 309.051C469.372 309.142 469.004 309.187 468.607 309.187ZM466.38 304.206H470.052C470.052 303.889 470.012 303.611 469.933 303.373C469.854 303.135 469.735 302.931 469.576 302.761C469.429 302.591 469.247 302.466 469.032 302.387C468.817 302.296 468.579 302.251 468.318 302.251C468.069 302.251 467.836 302.291 467.621 302.37C467.417 302.449 467.23 302.568 467.06 302.727C466.89 302.886 466.743 303.09 466.618 303.339C466.505 303.577 466.425 303.866 466.38 304.206ZM474.183 301.129H475.934L475.9 303.373L475.696 303.186C475.753 302.846 475.86 302.54 476.019 302.268C476.178 301.985 476.37 301.747 476.597 301.554C476.835 301.361 477.096 301.214 477.379 301.112C477.662 300.999 477.957 300.942 478.263 300.942C478.694 300.942 479.085 301.016 479.436 301.163C479.787 301.31 480.105 301.531 480.388 301.826L479.674 303.22L479.606 303.373L479.47 303.305C479.436 303.214 479.402 303.124 479.368 303.033C479.334 302.942 479.249 302.835 479.113 302.71C478.943 302.597 478.773 302.512 478.603 302.455C478.444 302.398 478.257 302.37 478.042 302.37C477.77 302.37 477.504 302.421 477.243 302.523C476.994 302.614 476.767 302.761 476.563 302.965C476.359 303.169 476.195 303.43 476.07 303.747C475.957 304.053 475.9 304.427 475.9 304.869V309.017H474.183V301.129ZM490.316 309V298.409H493.614C494.464 298.409 495.155 298.539 495.688 298.8C496.232 299.049 496.629 299.406 496.878 299.871C497.139 300.324 497.269 300.863 497.269 301.486C497.269 301.883 497.184 302.279 497.014 302.676C496.855 303.061 496.617 303.407 496.3 303.713C495.994 304.008 495.631 304.223 495.212 304.359L497.558 309H495.773L493.546 304.512H492.033V309H490.316ZM492.033 303.101H493.733C494.345 303.101 494.798 302.959 495.093 302.676C495.399 302.381 495.552 301.996 495.552 301.52C495.552 301.225 495.484 300.953 495.348 300.704C495.223 300.455 495.025 300.256 494.753 300.109C494.492 299.962 494.152 299.888 493.733 299.888H492.033V303.101ZM502.607 309.187C502.04 309.187 501.519 309.096 501.043 308.915C500.567 308.734 500.153 308.473 499.802 308.133C499.462 307.782 499.196 307.351 499.003 306.841C498.81 306.331 498.714 305.753 498.714 305.107C498.714 304.45 498.81 303.866 499.003 303.356C499.196 302.835 499.456 302.398 499.785 302.047C500.125 301.696 500.516 301.424 500.958 301.231C501.411 301.038 501.893 300.942 502.403 300.942C502.845 300.942 503.264 301.021 503.661 301.18C504.069 301.339 504.42 301.577 504.715 301.894C505.021 302.2 505.259 302.591 505.429 303.067C505.61 303.543 505.701 304.098 505.701 304.733C505.701 304.846 505.701 304.977 505.701 305.124C505.701 305.26 505.695 305.379 505.684 305.481H500.346C500.369 305.889 500.448 306.246 500.584 306.552C500.72 306.847 500.89 307.09 501.094 307.283C501.309 307.476 501.553 307.617 501.825 307.708C502.097 307.799 502.38 307.844 502.675 307.844C502.936 307.844 503.174 307.821 503.389 307.776C503.616 307.719 503.831 307.634 504.035 307.521C504.239 307.408 504.426 307.255 504.596 307.062L505.48 307.929C505.242 308.212 504.976 308.45 504.681 308.643C504.386 308.824 504.063 308.96 503.712 309.051C503.372 309.142 503.004 309.187 502.607 309.187ZM500.38 304.206H504.052C504.052 303.889 504.012 303.611 503.933 303.373C503.854 303.135 503.735 302.931 503.576 302.761C503.429 302.591 503.247 302.466 503.032 302.387C502.817 302.296 502.579 302.251 502.318 302.251C502.069 302.251 501.836 302.291 501.621 302.37C501.417 302.449 501.23 302.568 501.06 302.727C500.89 302.886 500.743 303.09 500.618 303.339C500.505 303.577 500.425 303.866 500.38 304.206ZM507.52 309V301.129H509.22V302.336C509.413 302.053 509.628 301.809 509.866 301.605C510.104 301.401 510.37 301.242 510.665 301.129C510.96 301.004 511.277 300.942 511.617 300.942C512.059 300.942 512.467 301.055 512.841 301.282C513.215 301.509 513.515 301.866 513.742 302.353C513.969 302.829 514.082 303.464 514.082 304.257V309H512.399V304.274C512.399 303.809 512.348 303.43 512.246 303.135C512.144 302.84 511.997 302.625 511.804 302.489C511.623 302.353 511.402 302.285 511.141 302.285C510.914 302.285 510.688 302.336 510.461 302.438C510.234 302.54 510.025 302.682 509.832 302.863C509.651 303.033 509.503 303.248 509.39 303.509C509.277 303.758 509.22 304.042 509.22 304.359V309H507.52ZM518.876 309.187C518.457 309.187 518.049 309.102 517.652 308.932C517.267 308.751 516.921 308.49 516.615 308.15C516.309 307.81 516.065 307.379 515.884 306.858C515.714 306.325 515.629 305.713 515.629 305.022C515.629 304.319 515.714 303.713 515.884 303.203C516.065 302.693 516.309 302.274 516.615 301.945C516.921 301.605 517.272 301.356 517.669 301.197C518.066 301.027 518.479 300.942 518.91 300.942C519.216 300.942 519.494 300.982 519.743 301.061C520.004 301.14 520.236 301.259 520.44 301.418C520.644 301.577 520.808 301.775 520.933 302.013V297.627H522.582H522.735V297.78C522.678 297.848 522.639 297.922 522.616 298.001C522.593 298.08 522.588 298.216 522.599 298.409V307.895C522.599 308.076 522.605 308.263 522.616 308.456C522.639 308.637 522.69 308.819 522.769 309H521.103C521.046 308.875 521.007 308.762 520.984 308.66C520.961 308.558 520.95 308.456 520.95 308.354C520.95 308.252 520.95 308.144 520.95 308.031C520.791 308.269 520.61 308.479 520.406 308.66C520.202 308.83 519.97 308.96 519.709 309.051C519.448 309.142 519.171 309.187 518.876 309.187ZM519.165 307.793C519.471 307.793 519.732 307.731 519.947 307.606C520.162 307.481 520.338 307.3 520.474 307.062C520.61 306.824 520.712 306.535 520.78 306.195C520.848 305.855 520.882 305.47 520.882 305.039C520.882 304.461 520.82 303.968 520.695 303.56C520.57 303.141 520.372 302.823 520.1 302.608C519.839 302.381 519.505 302.268 519.097 302.268C518.802 302.268 518.542 302.33 518.315 302.455C518.088 302.58 517.896 302.761 517.737 302.999C517.59 303.226 517.476 303.503 517.397 303.832C517.318 304.161 517.278 304.529 517.278 304.937C517.278 305.515 517.357 306.019 517.516 306.45C517.686 306.881 517.913 307.215 518.196 307.453C518.479 307.68 518.802 307.793 519.165 307.793ZM528.107 309.187C527.54 309.187 527.019 309.096 526.543 308.915C526.067 308.734 525.653 308.473 525.302 308.133C524.962 307.782 524.696 307.351 524.503 306.841C524.31 306.331 524.214 305.753 524.214 305.107C524.214 304.45 524.31 303.866 524.503 303.356C524.696 302.835 524.956 302.398 525.285 302.047C525.625 301.696 526.016 301.424 526.458 301.231C526.911 301.038 527.393 300.942 527.903 300.942C528.345 300.942 528.764 301.021 529.161 301.18C529.569 301.339 529.92 301.577 530.215 301.894C530.521 302.2 530.759 302.591 530.929 303.067C531.11 303.543 531.201 304.098 531.201 304.733C531.201 304.846 531.201 304.977 531.201 305.124C531.201 305.26 531.195 305.379 531.184 305.481H525.846C525.869 305.889 525.948 306.246 526.084 306.552C526.22 306.847 526.39 307.09 526.594 307.283C526.809 307.476 527.053 307.617 527.325 307.708C527.597 307.799 527.88 307.844 528.175 307.844C528.436 307.844 528.674 307.821 528.889 307.776C529.116 307.719 529.331 307.634 529.535 307.521C529.739 307.408 529.926 307.255 530.096 307.062L530.98 307.929C530.742 308.212 530.476 308.45 530.181 308.643C529.886 308.824 529.563 308.96 529.212 309.051C528.872 309.142 528.504 309.187 528.107 309.187ZM525.88 304.206H529.552C529.552 303.889 529.512 303.611 529.433 303.373C529.354 303.135 529.235 302.931 529.076 302.761C528.929 302.591 528.747 302.466 528.532 302.387C528.317 302.296 528.079 302.251 527.818 302.251C527.569 302.251 527.336 302.291 527.121 302.37C526.917 302.449 526.73 302.568 526.56 302.727C526.39 302.886 526.243 303.09 526.118 303.339C526.005 303.577 525.925 303.866 525.88 304.206ZM533.683 301.129H535.434L535.4 303.373L535.196 303.186C535.253 302.846 535.36 302.54 535.519 302.268C535.678 301.985 535.87 301.747 536.097 301.554C536.335 301.361 536.596 301.214 536.879 301.112C537.162 300.999 537.457 300.942 537.763 300.942C538.194 300.942 538.585 301.016 538.936 301.163C539.287 301.31 539.605 301.531 539.888 301.826L539.174 303.22L539.106 303.373L538.97 303.305C538.936 303.214 538.902 303.124 538.868 303.033C538.834 302.942 538.749 302.835 538.613 302.71C538.443 302.597 538.273 302.512 538.103 302.455C537.944 302.398 537.757 302.37 537.542 302.37C537.27 302.37 537.004 302.421 536.743 302.523C536.494 302.614 536.267 302.761 536.063 302.965C535.859 303.169 535.695 303.43 535.57 303.747C535.457 304.053 535.4 304.427 535.4 304.869V309.017H533.683V301.129ZM545.107 309.187C544.54 309.187 544.019 309.096 543.543 308.915C543.067 308.734 542.653 308.473 542.302 308.133C541.962 307.782 541.696 307.351 541.503 306.841C541.31 306.331 541.214 305.753 541.214 305.107C541.214 304.45 541.31 303.866 541.503 303.356C541.696 302.835 541.956 302.398 542.285 302.047C542.625 301.696 543.016 301.424 543.458 301.231C543.911 301.038 544.393 300.942 544.903 300.942C545.345 300.942 545.764 301.021 546.161 301.18C546.569 301.339 546.92 301.577 547.215 301.894C547.521 302.2 547.759 302.591 547.929 303.067C548.11 303.543 548.201 304.098 548.201 304.733C548.201 304.846 548.201 304.977 548.201 305.124C548.201 305.26 548.195 305.379 548.184 305.481H542.846C542.869 305.889 542.948 306.246 543.084 306.552C543.22 306.847 543.39 307.09 543.594 307.283C543.809 307.476 544.053 307.617 544.325 307.708C544.597 307.799 544.88 307.844 545.175 307.844C545.436 307.844 545.674 307.821 545.889 307.776C546.116 307.719 546.331 307.634 546.535 307.521C546.739 307.408 546.926 307.255 547.096 307.062L547.98 307.929C547.742 308.212 547.476 308.45 547.181 308.643C546.886 308.824 546.563 308.96 546.212 309.051C545.872 309.142 545.504 309.187 545.107 309.187ZM542.88 304.206H546.552C546.552 303.889 546.512 303.611 546.433 303.373C546.354 303.135 546.235 302.931 546.076 302.761C545.929 302.591 545.747 302.466 545.532 302.387C545.317 302.296 545.079 302.251 544.818 302.251C544.569 302.251 544.336 302.291 544.121 302.37C543.917 302.449 543.73 302.568 543.56 302.727C543.39 302.886 543.243 303.09 543.118 303.339C543.005 303.577 542.925 303.866 542.88 304.206ZM552.876 309.187C552.457 309.187 552.049 309.102 551.652 308.932C551.267 308.751 550.921 308.49 550.615 308.15C550.309 307.81 550.065 307.379 549.884 306.858C549.714 306.325 549.629 305.713 549.629 305.022C549.629 304.319 549.714 303.713 549.884 303.203C550.065 302.693 550.309 302.274 550.615 301.945C550.921 301.605 551.272 301.356 551.669 301.197C552.066 301.027 552.479 300.942 552.91 300.942C553.216 300.942 553.494 300.982 553.743 301.061C554.004 301.14 554.236 301.259 554.44 301.418C554.644 301.577 554.808 301.775 554.933 302.013V297.627H556.582H556.735V297.78C556.678 297.848 556.639 297.922 556.616 298.001C556.593 298.08 556.588 298.216 556.599 298.409V307.895C556.599 308.076 556.605 308.263 556.616 308.456C556.639 308.637 556.69 308.819 556.769 309H555.103C555.046 308.875 555.007 308.762 554.984 308.66C554.961 308.558 554.95 308.456 554.95 308.354C554.95 308.252 554.95 308.144 554.95 308.031C554.791 308.269 554.61 308.479 554.406 308.66C554.202 308.83 553.97 308.96 553.709 309.051C553.448 309.142 553.171 309.187 552.876 309.187ZM553.165 307.793C553.471 307.793 553.732 307.731 553.947 307.606C554.162 307.481 554.338 307.3 554.474 307.062C554.61 306.824 554.712 306.535 554.78 306.195C554.848 305.855 554.882 305.47 554.882 305.039C554.882 304.461 554.82 303.968 554.695 303.56C554.57 303.141 554.372 302.823 554.1 302.608C553.839 302.381 553.505 302.268 553.097 302.268C552.802 302.268 552.542 302.33 552.315 302.455C552.088 302.58 551.896 302.761 551.737 302.999C551.59 303.226 551.476 303.503 551.397 303.832C551.318 304.161 551.278 304.529 551.278 304.937C551.278 305.515 551.357 306.019 551.516 306.45C551.686 306.881 551.913 307.215 552.196 307.453C552.479 307.68 552.802 307.793 553.165 307.793Z" fill="#521E64"/>
<path d="M278.867 462V451.409H282.42C283.225 451.409 283.882 451.551 284.392 451.834C284.913 452.106 285.299 452.474 285.548 452.939C285.797 453.404 285.922 453.914 285.922 454.469C285.922 454.888 285.854 455.279 285.718 455.642C285.582 456.005 285.372 456.328 285.089 456.611C284.817 456.883 284.466 457.098 284.035 457.257C283.604 457.404 283.094 457.478 282.505 457.478H280.584V462H278.867ZM280.584 456.067H282.369C282.788 456.067 283.128 456.005 283.389 455.88C283.661 455.744 283.865 455.557 284.001 455.319C284.137 455.07 284.205 454.792 284.205 454.486C284.205 454.18 284.137 453.908 284.001 453.67C283.865 453.432 283.661 453.245 283.389 453.109C283.128 452.962 282.794 452.888 282.386 452.888H280.584V456.067ZM290.155 462.187C289.838 462.187 289.537 462.142 289.254 462.051C288.982 461.972 288.733 461.841 288.506 461.66C288.279 461.479 288.081 461.252 287.911 460.98C287.752 460.708 287.628 460.379 287.537 459.994C287.458 459.609 287.418 459.172 287.418 458.685L287.435 454.129H289.101V458.685C289.101 459.082 289.135 459.422 289.203 459.705C289.282 459.977 289.384 460.198 289.509 460.368C289.645 460.538 289.798 460.663 289.968 460.742C290.138 460.81 290.319 460.844 290.512 460.844C290.761 460.844 290.994 460.799 291.209 460.708C291.424 460.617 291.611 460.481 291.77 460.3C291.94 460.107 292.065 459.869 292.144 459.586C292.235 459.291 292.28 458.951 292.28 458.566V454.129H293.98V460.759C293.98 460.986 293.986 461.201 293.997 461.405C294.02 461.598 294.071 461.796 294.15 462H292.569C292.512 461.875 292.473 461.756 292.45 461.643C292.427 461.518 292.41 461.399 292.399 461.286C292.399 461.161 292.399 461.037 292.399 460.912C292.286 461.127 292.144 461.314 291.974 461.473C291.815 461.632 291.634 461.768 291.43 461.881C291.237 461.983 291.033 462.057 290.818 462.102C290.614 462.159 290.393 462.187 290.155 462.187ZM296.683 454.129H298.434L298.4 456.373L298.196 456.186C298.253 455.846 298.36 455.54 298.519 455.268C298.678 454.985 298.87 454.747 299.097 454.554C299.335 454.361 299.596 454.214 299.879 454.112C300.162 453.999 300.457 453.942 300.763 453.942C301.194 453.942 301.585 454.016 301.936 454.163C302.287 454.31 302.605 454.531 302.888 454.826L302.174 456.22L302.106 456.373L301.97 456.305C301.936 456.214 301.902 456.124 301.868 456.033C301.834 455.942 301.749 455.835 301.613 455.71C301.443 455.597 301.273 455.512 301.103 455.455C300.944 455.398 300.757 455.37 300.542 455.37C300.27 455.37 300.004 455.421 299.743 455.523C299.494 455.614 299.267 455.761 299.063 455.965C298.859 456.169 298.695 456.43 298.57 456.747C298.457 457.053 298.4 457.427 298.4 457.869V462.017H296.683V454.129ZM308.107 462.187C307.54 462.187 307.019 462.096 306.543 461.915C306.067 461.734 305.653 461.473 305.302 461.133C304.962 460.782 304.696 460.351 304.503 459.841C304.31 459.331 304.214 458.753 304.214 458.107C304.214 457.45 304.31 456.866 304.503 456.356C304.696 455.835 304.956 455.398 305.285 455.047C305.625 454.696 306.016 454.424 306.458 454.231C306.911 454.038 307.393 453.942 307.903 453.942C308.345 453.942 308.764 454.021 309.161 454.18C309.569 454.339 309.92 454.577 310.215 454.894C310.521 455.2 310.759 455.591 310.929 456.067C311.11 456.543 311.201 457.098 311.201 457.733C311.201 457.846 311.201 457.977 311.201 458.124C311.201 458.26 311.195 458.379 311.184 458.481H305.846C305.869 458.889 305.948 459.246 306.084 459.552C306.22 459.847 306.39 460.09 306.594 460.283C306.809 460.476 307.053 460.617 307.325 460.708C307.597 460.799 307.88 460.844 308.175 460.844C308.436 460.844 308.674 460.821 308.889 460.776C309.116 460.719 309.331 460.634 309.535 460.521C309.739 460.408 309.926 460.255 310.096 460.062L310.98 460.929C310.742 461.212 310.476 461.45 310.181 461.643C309.886 461.824 309.563 461.96 309.212 462.051C308.872 462.142 308.504 462.187 308.107 462.187ZM305.88 457.206H309.552C309.552 456.889 309.512 456.611 309.433 456.373C309.354 456.135 309.235 455.931 309.076 455.761C308.929 455.591 308.747 455.466 308.532 455.387C308.317 455.296 308.079 455.251 307.818 455.251C307.569 455.251 307.336 455.291 307.121 455.37C306.917 455.449 306.73 455.568 306.56 455.727C306.39 455.886 306.243 456.09 306.118 456.339C306.005 456.577 305.925 456.866 305.88 457.206ZM325.277 462.187C324.699 462.187 324.155 462.079 323.645 461.864C323.146 461.649 322.704 461.32 322.319 460.878C321.934 460.436 321.628 459.875 321.401 459.195C321.186 458.515 321.078 457.705 321.078 456.764C321.078 455.937 321.157 455.217 321.316 454.605C321.486 453.982 321.713 453.46 321.996 453.041C322.279 452.61 322.602 452.27 322.965 452.021C323.328 451.76 323.707 451.573 324.104 451.46C324.501 451.335 324.897 451.273 325.294 451.273C326.087 451.273 326.762 451.46 327.317 451.834C327.884 452.197 328.309 452.701 328.592 453.347L327.453 454.112L327.317 454.197L327.232 454.078C327.255 453.987 327.249 453.902 327.215 453.823C327.192 453.732 327.13 453.613 327.028 453.466C326.779 453.137 326.512 452.916 326.229 452.803C325.946 452.69 325.657 452.633 325.362 452.633C324.999 452.633 324.654 452.724 324.325 452.905C324.008 453.075 323.73 453.33 323.492 453.67C323.254 454.01 323.067 454.435 322.931 454.945C322.795 455.444 322.727 456.022 322.727 456.679C322.727 457.314 322.789 457.886 322.914 458.396C323.05 458.895 323.231 459.325 323.458 459.688C323.696 460.039 323.968 460.311 324.274 460.504C324.591 460.685 324.931 460.776 325.294 460.776C325.577 460.776 325.838 460.736 326.076 460.657C326.314 460.578 326.535 460.447 326.739 460.266C326.943 460.073 327.124 459.847 327.283 459.586L328.473 460.419C328.099 461.042 327.651 461.496 327.13 461.779C326.609 462.051 325.991 462.187 325.277 462.187ZM330.156 462V460.657H332.4V451.97H330.258V450.627H334.117V460.657H336.344V462H330.156ZM339.03 462V460.657H340.985V455.472H339.115V454.129H342.685V460.657H344.47V462H339.03ZM341.733 452.718C341.427 452.718 341.166 452.616 340.951 452.412C340.747 452.197 340.645 451.947 340.645 451.664C340.645 451.358 340.747 451.103 340.951 450.899C341.155 450.695 341.416 450.593 341.733 450.593C342.028 450.593 342.283 450.701 342.498 450.916C342.725 451.131 342.838 451.381 342.838 451.664C342.838 451.947 342.725 452.197 342.498 452.412C342.283 452.616 342.028 452.718 341.733 452.718ZM350.607 462.187C350.04 462.187 349.519 462.096 349.043 461.915C348.567 461.734 348.153 461.473 347.802 461.133C347.462 460.782 347.196 460.351 347.003 459.841C346.81 459.331 346.714 458.753 346.714 458.107C346.714 457.45 346.81 456.866 347.003 456.356C347.196 455.835 347.456 455.398 347.785 455.047C348.125 454.696 348.516 454.424 348.958 454.231C349.411 454.038 349.893 453.942 350.403 453.942C350.845 453.942 351.264 454.021 351.661 454.18C352.069 454.339 352.42 454.577 352.715 454.894C353.021 455.2 353.259 455.591 353.429 456.067C353.61 456.543 353.701 457.098 353.701 457.733C353.701 457.846 353.701 457.977 353.701 458.124C353.701 458.26 353.695 458.379 353.684 458.481H348.346C348.369 458.889 348.448 459.246 348.584 459.552C348.72 459.847 348.89 460.09 349.094 460.283C349.309 460.476 349.553 460.617 349.825 460.708C350.097 460.799 350.38 460.844 350.675 460.844C350.936 460.844 351.174 460.821 351.389 460.776C351.616 460.719 351.831 460.634 352.035 460.521C352.239 460.408 352.426 460.255 352.596 460.062L353.48 460.929C353.242 461.212 352.976 461.45 352.681 461.643C352.386 461.824 352.063 461.96 351.712 462.051C351.372 462.142 351.004 462.187 350.607 462.187ZM348.38 457.206H352.052C352.052 456.889 352.012 456.611 351.933 456.373C351.854 456.135 351.735 455.931 351.576 455.761C351.429 455.591 351.247 455.466 351.032 455.387C350.817 455.296 350.579 455.251 350.318 455.251C350.069 455.251 349.836 455.291 349.621 455.37C349.417 455.449 349.23 455.568 349.06 455.727C348.89 455.886 348.743 456.09 348.618 456.339C348.505 456.577 348.425 456.866 348.38 457.206ZM355.52 462V454.129H357.22V455.336C357.413 455.053 357.628 454.809 357.866 454.605C358.104 454.401 358.37 454.242 358.665 454.129C358.96 454.004 359.277 453.942 359.617 453.942C360.059 453.942 360.467 454.055 360.841 454.282C361.215 454.509 361.515 454.866 361.742 455.353C361.969 455.829 362.082 456.464 362.082 457.257V462H360.399V457.274C360.399 456.809 360.348 456.43 360.246 456.135C360.144 455.84 359.997 455.625 359.804 455.489C359.623 455.353 359.402 455.285 359.141 455.285C358.914 455.285 358.688 455.336 358.461 455.438C358.234 455.54 358.025 455.682 357.832 455.863C357.651 456.033 357.503 456.248 357.39 456.509C357.277 456.758 357.22 457.042 357.22 457.359V462H355.52ZM368.083 462.153C367.618 462.153 367.216 462.079 366.876 461.932C366.547 461.773 366.281 461.524 366.077 461.184C365.884 460.844 365.748 460.402 365.669 459.858C365.59 459.314 365.561 458.651 365.584 457.869L365.805 452.225L367.539 452.004L367.709 451.987L367.726 452.14C367.669 452.219 367.618 452.299 367.573 452.378C367.539 452.457 367.511 452.593 367.488 452.786L367.318 454.979L367.386 455.166L367.267 457.869C367.233 458.64 367.256 459.24 367.335 459.671C367.414 460.09 367.55 460.385 367.743 460.555C367.936 460.714 368.168 460.793 368.44 460.793C368.803 460.793 369.126 460.719 369.409 460.572C369.704 460.425 369.993 460.243 370.276 460.028L370.65 461.286C370.265 461.569 369.862 461.785 369.443 461.932C369.024 462.079 368.57 462.153 368.083 462.153ZM364.054 454.129H369.987L369.97 455.489H364.054V454.129Z" fill="#521E64"/>
<path d="M312.89 83.26H305.78L306.23 81.13H312.38L312.89 83.26ZM309.5 74.89L305.33 88H302.42L308.93 69.1H310.1L316.61 88H313.61L309.5 74.89ZM323.27 88L317.99 74.11H321.08L324.92 84.55H324.47L326.54 79.66C326.94 78.64 327.27 77.67 327.53 76.75C327.79 75.83 327.96 74.95 328.04 74.11H330.83C330.71 74.99 330.48 75.93 330.14 76.93C329.82 77.91 329.44 78.93 329 79.99L325.64 88H323.27ZM340.13 88.33C339.13 88.33 338.21 88.17 337.37 87.85C336.53 87.53 335.8 87.07 335.18 86.47C334.58 85.85 334.11 85.09 333.77 84.19C333.43 83.29 333.26 82.27 333.26 81.13C333.26 79.97 333.43 78.94 333.77 78.04C334.11 77.12 334.57 76.35 335.15 75.73C335.75 75.11 336.44 74.63 337.22 74.29C338.02 73.95 338.87 73.78 339.77 73.78C340.55 73.78 341.29 73.92 341.99 74.2C342.71 74.48 343.33 74.9 343.85 75.46C344.39 76 344.81 76.69 345.11 77.53C345.43 78.37 345.59 79.35 345.59 80.47C345.59 80.67 345.59 80.9 345.59 81.16C345.59 81.4 345.58 81.61 345.56 81.79H336.14C336.18 82.51 336.32 83.14 336.56 83.68C336.8 84.2 337.1 84.63 337.46 84.97C337.84 85.31 338.27 85.56 338.75 85.72C339.23 85.88 339.73 85.96 340.25 85.96C340.71 85.96 341.13 85.92 341.51 85.84C341.91 85.74 342.29 85.59 342.65 85.39C343.01 85.19 343.34 84.92 343.64 84.58L345.2 86.11C344.78 86.61 344.31 87.03 343.79 87.37C343.27 87.69 342.7 87.93 342.08 88.09C341.48 88.25 340.83 88.33 340.13 88.33ZM336.2 79.54H342.68C342.68 78.98 342.61 78.49 342.47 78.07C342.33 77.65 342.12 77.29 341.84 76.99C341.58 76.69 341.26 76.47 340.88 76.33C340.5 76.17 340.08 76.09 339.62 76.09C339.18 76.09 338.77 76.16 338.39 76.3C338.03 76.44 337.7 76.65 337.4 76.93C337.1 77.21 336.84 77.57 336.62 78.01C336.42 78.43 336.28 78.94 336.2 79.54ZM349.97 74.11H353.06L353 78.07L352.64 77.74C352.74 77.14 352.93 76.6 353.21 76.12C353.49 75.62 353.83 75.2 354.23 74.86C354.65 74.52 355.11 74.26 355.61 74.08C356.11 73.88 356.63 73.78 357.17 73.78C357.93 73.78 358.62 73.91 359.24 74.17C359.86 74.43 360.42 74.82 360.92 75.34L359.66 77.8L359.54 78.07L359.3 77.95C359.24 77.79 359.18 77.63 359.12 77.47C359.06 77.31 358.91 77.12 358.67 76.9C358.37 76.7 358.07 76.55 357.77 76.45C357.49 76.35 357.16 76.3 356.78 76.3C356.3 76.3 355.83 76.39 355.37 76.57C354.93 76.73 354.53 76.99 354.17 77.35C353.81 77.71 353.52 78.17 353.3 78.73C353.1 79.27 353 79.93 353 80.71V88.03H349.97V74.11ZM368.06 88.33C366.52 88.33 365.32 87.98 364.46 87.28C363.62 86.56 363.2 85.63 363.2 84.49C363.2 83.73 363.37 83.05 363.71 82.45C364.07 81.83 364.57 81.3 365.21 80.86C365.87 80.42 366.66 80.08 367.58 79.84C368.5 79.58 369.54 79.45 370.7 79.45C370.94 79.45 371.19 79.46 371.45 79.48C371.73 79.48 372.02 79.49 372.32 79.51C372.64 79.53 372.96 79.55 373.28 79.57L373.37 81.7C373.09 81.66 372.79 81.63 372.47 81.61C372.17 81.59 371.87 81.58 371.57 81.58C371.27 81.58 370.99 81.58 370.73 81.58C369.95 81.58 369.27 81.64 368.69 81.76C368.13 81.86 367.66 82.02 367.28 82.24C366.92 82.46 366.65 82.73 366.47 83.05C366.29 83.37 366.2 83.74 366.2 84.16C366.2 84.5 366.26 84.8 366.38 85.06C366.5 85.3 366.66 85.49 366.86 85.63C367.08 85.77 367.33 85.88 367.61 85.96C367.91 86.02 368.23 86.05 368.57 86.05C369.23 86.05 369.81 85.94 370.31 85.72C370.81 85.5 371.23 85.18 371.57 84.76C371.93 84.32 372.2 83.78 372.38 83.14C372.56 82.48 372.65 81.71 372.65 80.83C372.65 79.61 372.51 78.66 372.23 77.98C371.97 77.3 371.58 76.83 371.06 76.57C370.54 76.31 369.89 76.18 369.11 76.18C368.47 76.18 367.85 76.29 367.25 76.51C366.67 76.71 366.1 77.09 365.54 77.65L363.95 75.85C364.71 75.13 365.54 74.61 366.44 74.29C367.36 73.97 368.3 73.81 369.26 73.81C370.14 73.81 370.95 73.92 371.69 74.14C372.45 74.34 373.11 74.68 373.67 75.16C374.25 75.64 374.69 76.29 374.99 77.11C375.31 77.93 375.47 78.97 375.47 80.23V88H372.35V86.29C372.09 86.69 371.8 87.03 371.48 87.31C371.16 87.57 370.81 87.78 370.43 87.94C370.07 88.08 369.69 88.18 369.29 88.24C368.89 88.3 368.48 88.33 368.06 88.33ZM384.23 93.28C383.27 93.28 382.4 93.2 381.62 93.04C380.84 92.88 380.17 92.64 379.61 92.32C379.07 92.02 378.66 91.64 378.38 91.18C378.1 90.74 377.96 90.24 377.96 89.68C377.96 89.16 378.08 88.69 378.32 88.27C378.56 87.85 378.88 87.49 379.28 87.19C379.68 86.87 380.12 86.63 380.6 86.47L381.92 87.07C381.6 87.27 381.32 87.47 381.08 87.67C380.84 87.87 380.65 88.09 380.51 88.33C380.39 88.59 380.33 88.89 380.33 89.23C380.33 89.53 380.43 89.79 380.63 90.01C380.83 90.23 381.11 90.41 381.47 90.55C381.83 90.69 382.26 90.8 382.76 90.88C383.26 90.96 383.82 91 384.44 91C385.26 91 385.94 90.92 386.48 90.76C387.02 90.62 387.42 90.41 387.68 90.13C387.96 89.85 388.1 89.53 388.1 89.17C388.1 88.81 388.02 88.52 387.86 88.3C387.7 88.1 387.4 87.95 386.96 87.85C386.52 87.73 385.88 87.67 385.04 87.67C384.36 87.67 383.71 87.65 383.09 87.61C382.49 87.55 381.93 87.45 381.41 87.31C380.91 87.17 380.47 86.99 380.09 86.77C379.71 86.55 379.41 86.28 379.19 85.96C378.99 85.62 378.89 85.22 378.89 84.76C378.89 84.16 379.07 83.62 379.43 83.14C379.79 82.64 380.24 82.19 380.78 81.79L382.13 82.63C381.95 82.83 381.79 83 381.65 83.14C381.51 83.28 381.4 83.42 381.32 83.56C381.24 83.68 381.2 83.83 381.2 84.01C381.2 84.27 381.35 84.49 381.65 84.67C381.95 84.85 382.43 84.98 383.09 85.06C383.77 85.14 384.67 85.18 385.79 85.18C386.73 85.18 387.51 85.28 388.13 85.48C388.77 85.66 389.27 85.92 389.63 86.26C389.99 86.6 390.24 86.99 390.38 87.43C390.54 87.85 390.62 88.32 390.62 88.84C390.62 89.4 390.5 89.94 390.26 90.46C390.02 91 389.64 91.48 389.12 91.9C388.62 92.32 387.96 92.65 387.14 92.89C386.34 93.15 385.37 93.28 384.23 93.28ZM383.84 83.32C382.86 83.32 381.99 83.11 381.23 82.69C380.47 82.25 379.87 81.67 379.43 80.95C379.01 80.23 378.8 79.42 378.8 78.52C378.8 77.62 379.01 76.81 379.43 76.09C379.87 75.35 380.47 74.77 381.23 74.35C381.99 73.91 382.86 73.69 383.84 73.69C384.84 73.69 385.72 73.91 386.48 74.35C387.24 74.77 387.83 75.35 388.25 76.09C388.69 76.81 388.91 77.62 388.91 78.52C388.91 79.42 388.69 80.23 388.25 80.95C387.83 81.67 387.24 82.25 386.48 82.69C385.72 83.11 384.84 83.32 383.84 83.32ZM383.84 81.07C384.34 81.07 384.78 80.96 385.16 80.74C385.54 80.52 385.84 80.22 386.06 79.84C386.28 79.44 386.39 79 386.39 78.52C386.39 78.02 386.28 77.59 386.06 77.23C385.84 76.85 385.53 76.55 385.13 76.33C384.75 76.11 384.32 76 383.84 76C383.38 76 382.96 76.11 382.58 76.33C382.2 76.55 381.89 76.85 381.65 77.23C381.43 77.61 381.32 78.04 381.32 78.52C381.32 78.98 381.43 79.41 381.65 79.81C381.87 80.19 382.17 80.5 382.55 80.74C382.93 80.96 383.36 81.07 383.84 81.07ZM388.07 76.57L386.93 75.16C387.51 74.68 388.14 74.32 388.82 74.08C389.52 73.82 390.29 73.72 391.13 73.78L391.43 75.91C390.81 75.83 390.21 75.84 389.63 75.94C389.05 76.02 388.53 76.23 388.07 76.57ZM400.13 88.33C399.13 88.33 398.21 88.17 397.37 87.85C396.53 87.53 395.8 87.07 395.18 86.47C394.58 85.85 394.11 85.09 393.77 84.19C393.43 83.29 393.26 82.27 393.26 81.13C393.26 79.97 393.43 78.94 393.77 78.04C394.11 77.12 394.57 76.35 395.15 75.73C395.75 75.11 396.44 74.63 397.22 74.29C398.02 73.95 398.87 73.78 399.77 73.78C400.55 73.78 401.29 73.92 401.99 74.2C402.71 74.48 403.33 74.9 403.85 75.46C404.39 76 404.81 76.69 405.11 77.53C405.43 78.37 405.59 79.35 405.59 80.47C405.59 80.67 405.59 80.9 405.59 81.16C405.59 81.4 405.58 81.61 405.56 81.79H396.14C396.18 82.51 396.32 83.14 396.56 83.68C396.8 84.2 397.1 84.63 397.46 84.97C397.84 85.31 398.27 85.56 398.75 85.72C399.23 85.88 399.73 85.96 400.25 85.96C400.71 85.96 401.13 85.92 401.51 85.84C401.91 85.74 402.29 85.59 402.65 85.39C403.01 85.19 403.34 84.92 403.64 84.58L405.2 86.11C404.78 86.61 404.31 87.03 403.79 87.37C403.27 87.69 402.7 87.93 402.08 88.09C401.48 88.25 400.83 88.33 400.13 88.33ZM396.2 79.54H402.68C402.68 78.98 402.61 78.49 402.47 78.07C402.33 77.65 402.12 77.29 401.84 76.99C401.58 76.69 401.26 76.47 400.88 76.33C400.5 76.17 400.08 76.09 399.62 76.09C399.18 76.09 398.77 76.16 398.39 76.3C398.03 76.44 397.7 76.65 397.4 76.93C397.1 77.21 396.84 77.57 396.62 78.01C396.42 78.43 396.28 78.94 396.2 79.54ZM430.43 88.33C429.41 88.33 428.45 88.14 427.55 87.76C426.67 87.38 425.89 86.8 425.21 86.02C424.53 85.24 423.99 84.25 423.59 83.05C423.21 81.85 423.02 80.42 423.02 78.76C423.02 77.3 423.16 76.03 423.44 74.95C423.74 73.85 424.14 72.93 424.64 72.19C425.14 71.43 425.71 70.83 426.35 70.39C426.99 69.93 427.66 69.6 428.36 69.4C429.06 69.18 429.76 69.07 430.46 69.07C431.86 69.07 433.05 69.4 434.03 70.06C435.03 70.7 435.78 71.59 436.28 72.73L434.27 74.08L434.03 74.23L433.88 74.02C433.92 73.86 433.91 73.71 433.85 73.57C433.81 73.41 433.7 73.2 433.52 72.94C433.08 72.36 432.61 71.97 432.11 71.77C431.61 71.57 431.1 71.47 430.58 71.47C429.94 71.47 429.33 71.63 428.75 71.95C428.19 72.25 427.7 72.7 427.28 73.3C426.86 73.9 426.53 74.65 426.29 75.55C426.05 76.43 425.93 77.45 425.93 78.61C425.93 79.73 426.04 80.74 426.26 81.64C426.5 82.52 426.82 83.28 427.22 83.92C427.64 84.54 428.12 85.02 428.66 85.36C429.22 85.68 429.82 85.84 430.46 85.84C430.96 85.84 431.42 85.77 431.84 85.63C432.26 85.49 432.65 85.26 433.01 84.94C433.37 84.6 433.69 84.2 433.97 83.74L436.07 85.21C435.41 86.31 434.62 87.11 433.7 87.61C432.78 88.09 431.69 88.33 430.43 88.33ZM443.06 88.33C441.52 88.33 440.32 87.98 439.46 87.28C438.62 86.56 438.2 85.63 438.2 84.49C438.2 83.73 438.37 83.05 438.71 82.45C439.07 81.83 439.57 81.3 440.21 80.86C440.87 80.42 441.66 80.08 442.58 79.84C443.5 79.58 444.54 79.45 445.7 79.45C445.94 79.45 446.19 79.46 446.45 79.48C446.73 79.48 447.02 79.49 447.32 79.51C447.64 79.53 447.96 79.55 448.28 79.57L448.37 81.7C448.09 81.66 447.79 81.63 447.47 81.61C447.17 81.59 446.87 81.58 446.57 81.58C446.27 81.58 445.99 81.58 445.73 81.58C444.95 81.58 444.27 81.64 443.69 81.76C443.13 81.86 442.66 82.02 442.28 82.24C441.92 82.46 441.65 82.73 441.47 83.05C441.29 83.37 441.2 83.74 441.2 84.16C441.2 84.5 441.26 84.8 441.38 85.06C441.5 85.3 441.66 85.49 441.86 85.63C442.08 85.77 442.33 85.88 442.61 85.96C442.91 86.02 443.23 86.05 443.57 86.05C444.23 86.05 444.81 85.94 445.31 85.72C445.81 85.5 446.23 85.18 446.57 84.76C446.93 84.32 447.2 83.78 447.38 83.14C447.56 82.48 447.65 81.71 447.65 80.83C447.65 79.61 447.51 78.66 447.23 77.98C446.97 77.3 446.58 76.83 446.06 76.57C445.54 76.31 444.89 76.18 444.11 76.18C443.47 76.18 442.85 76.29 442.25 76.51C441.67 76.71 441.1 77.09 440.54 77.65L438.95 75.85C439.71 75.13 440.54 74.61 441.44 74.29C442.36 73.97 443.3 73.81 444.26 73.81C445.14 73.81 445.95 73.92 446.69 74.14C447.45 74.34 448.11 74.68 448.67 75.16C449.25 75.64 449.69 76.29 449.99 77.11C450.31 77.93 450.47 78.97 450.47 80.23V88H447.35V86.29C447.09 86.69 446.8 87.03 446.48 87.31C446.16 87.57 445.81 87.78 445.43 87.94C445.07 88.08 444.69 88.18 444.29 88.24C443.89 88.3 443.48 88.33 443.06 88.33ZM459.71 88.33C458.87 88.33 458.08 88.25 457.34 88.09C456.6 87.93 455.9 87.69 455.24 87.37C454.6 87.05 454.01 86.64 453.47 86.14L454.85 83.62L455.03 83.35L455.24 83.47C455.28 83.63 455.33 83.8 455.39 83.98C455.45 84.14 455.59 84.34 455.81 84.58C456.29 85 456.84 85.34 457.46 85.6C458.08 85.84 458.84 85.96 459.74 85.96C460.36 85.96 460.88 85.89 461.3 85.75C461.74 85.59 462.08 85.38 462.32 85.12C462.56 84.84 462.68 84.53 462.68 84.19C462.68 83.93 462.61 83.71 462.47 83.53C462.35 83.33 462.16 83.15 461.9 82.99C461.64 82.81 461.3 82.64 460.88 82.48C460.46 82.3 459.95 82.13 459.35 81.97C458.33 81.67 457.44 81.33 456.68 80.95C455.92 80.55 455.33 80.08 454.91 79.54C454.49 79 454.28 78.36 454.28 77.62C454.28 76.88 454.49 76.23 454.91 75.67C455.35 75.09 455.97 74.63 456.77 74.29C457.57 73.95 458.52 73.78 459.62 73.78C460.22 73.78 460.78 73.83 461.3 73.93C461.84 74.01 462.33 74.14 462.77 74.32C463.23 74.5 463.66 74.73 464.06 75.01C464.46 75.27 464.84 75.58 465.2 75.94L463.67 77.98L463.49 78.22L463.28 78.04C463.26 77.88 463.21 77.73 463.13 77.59C463.07 77.45 462.93 77.27 462.71 77.05C462.27 76.73 461.79 76.49 461.27 76.33C460.75 76.17 460.22 76.09 459.68 76.09C458.98 76.09 458.36 76.21 457.82 76.45C457.3 76.69 457.04 77.05 457.04 77.53C457.04 77.81 457.15 78.07 457.37 78.31C457.61 78.55 457.99 78.79 458.51 79.03C459.03 79.25 459.74 79.48 460.64 79.72C461.78 80.02 462.7 80.37 463.4 80.77C464.1 81.15 464.61 81.6 464.93 82.12C465.27 82.64 465.44 83.25 465.44 83.95C465.44 84.73 465.22 85.46 464.78 86.14C464.36 86.8 463.72 87.33 462.86 87.73C462 88.13 460.95 88.33 459.71 88.33ZM475.13 88.33C474.13 88.33 473.21 88.17 472.37 87.85C471.53 87.53 470.8 87.07 470.18 86.47C469.58 85.85 469.11 85.09 468.77 84.19C468.43 83.29 468.26 82.27 468.26 81.13C468.26 79.97 468.43 78.94 468.77 78.04C469.11 77.12 469.57 76.35 470.15 75.73C470.75 75.11 471.44 74.63 472.22 74.29C473.02 73.95 473.87 73.78 474.77 73.78C475.55 73.78 476.29 73.92 476.99 74.2C477.71 74.48 478.33 74.9 478.85 75.46C479.39 76 479.81 76.69 480.11 77.53C480.43 78.37 480.59 79.35 480.59 80.47C480.59 80.67 480.59 80.9 480.59 81.16C480.59 81.4 480.58 81.61 480.56 81.79H471.14C471.18 82.51 471.32 83.14 471.56 83.68C471.8 84.2 472.1 84.63 472.46 84.97C472.84 85.31 473.27 85.56 473.75 85.72C474.23 85.88 474.73 85.96 475.25 85.96C475.71 85.96 476.13 85.92 476.51 85.84C476.91 85.74 477.29 85.59 477.65 85.39C478.01 85.19 478.34 84.92 478.64 84.58L480.2 86.11C479.78 86.61 479.31 87.03 478.79 87.37C478.27 87.69 477.7 87.93 477.08 88.09C476.48 88.25 475.83 88.33 475.13 88.33ZM471.2 79.54H477.68C477.68 78.98 477.61 78.49 477.47 78.07C477.33 77.65 477.12 77.29 476.84 76.99C476.58 76.69 476.26 76.47 475.88 76.33C475.5 76.17 475.08 76.09 474.62 76.09C474.18 76.09 473.77 76.16 473.39 76.3C473.03 76.44 472.7 76.65 472.4 76.93C472.1 77.21 471.84 77.57 471.62 78.01C471.42 78.43 471.28 78.94 471.2 79.54Z" fill="white"/>
</svg>
