<svg width="761" height="687" viewBox="0 0 761 687" fill="none" xmlns="http://www.w3.org/2000/svg">
<path d="M153 117L153 553" stroke="#D1CECE" stroke-width="6" stroke-linecap="round"/>
<path d="M589 553L153 553" stroke="#D1CECE" stroke-width="6" stroke-linecap="round"/>
<path d="M35.367 322V311.409H38.92C39.7247 311.409 40.382 311.551 40.892 311.834C41.4133 312.106 41.7987 312.474 42.048 312.939C42.2973 313.404 42.422 313.914 42.422 314.469C42.422 314.888 42.354 315.279 42.218 315.642C42.082 316.005 41.8723 316.328 41.589 316.611C41.317 316.883 40.9657 317.098 40.535 317.257C40.1043 317.404 39.5943 317.478 39.005 317.478H37.084V322H35.367ZM37.084 316.067H38.869C39.2883 316.067 39.6283 316.005 39.889 315.88C40.161 315.744 40.365 315.557 40.501 315.319C40.637 315.07 40.705 314.792 40.705 314.486C40.705 314.18 40.637 313.908 40.501 313.67C40.365 313.432 40.161 313.245 39.889 313.109C39.6283 312.962 39.294 312.888 38.886 312.888H37.084V316.067ZM47.607 322.187C47.0403 322.187 46.519 322.096 46.043 321.915C45.567 321.734 45.1533 321.473 44.802 321.133C44.462 320.782 44.1957 320.351 44.003 319.841C43.8103 319.331 43.714 318.753 43.714 318.107C43.714 317.45 43.8103 316.866 44.003 316.356C44.1957 315.835 44.4563 315.398 44.785 315.047C45.125 314.696 45.516 314.424 45.958 314.231C46.4113 314.038 46.893 313.942 47.403 313.942C47.845 313.942 48.2643 314.021 48.661 314.18C49.069 314.339 49.4203 314.577 49.715 314.894C50.021 315.2 50.259 315.591 50.429 316.067C50.6103 316.543 50.701 317.098 50.701 317.733C50.701 317.846 50.701 317.977 50.701 318.124C50.701 318.26 50.6953 318.379 50.684 318.481H45.346C45.3687 318.889 45.448 319.246 45.584 319.552C45.72 319.847 45.89 320.09 46.094 320.283C46.3093 320.476 46.553 320.617 46.825 320.708C47.097 320.799 47.3803 320.844 47.675 320.844C47.9357 320.844 48.1737 320.821 48.389 320.776C48.6157 320.719 48.831 320.634 49.035 320.521C49.239 320.408 49.426 320.255 49.596 320.062L50.48 320.929C50.242 321.212 49.9757 321.45 49.681 321.643C49.3863 321.824 49.0633 321.96 48.712 322.051C48.372 322.142 48.0037 322.187 47.607 322.187ZM45.38 317.206H49.052C49.052 316.889 49.0123 316.611 48.933 316.373C48.8537 316.135 48.7347 315.931 48.576 315.761C48.4287 315.591 48.2473 315.466 48.032 315.387C47.8167 315.296 47.5787 315.251 47.318 315.251C47.0687 315.251 46.8363 315.291 46.621 315.37C46.417 315.449 46.23 315.568 46.06 315.727C45.89 315.886 45.7427 316.09 45.618 316.339C45.5047 316.577 45.4253 316.866 45.38 317.206ZM53.183 314.129H54.934L54.9 316.373L54.696 316.186C54.7527 315.846 54.8603 315.54 55.019 315.268C55.1777 314.985 55.3703 314.747 55.597 314.554C55.835 314.361 56.0957 314.214 56.379 314.112C56.6623 313.999 56.957 313.942 57.263 313.942C57.6937 313.942 58.0847 314.016 58.436 314.163C58.7873 314.31 59.1047 314.531 59.388 314.826L58.674 316.22L58.606 316.373L58.47 316.305C58.436 316.214 58.402 316.124 58.368 316.033C58.334 315.942 58.249 315.835 58.113 315.71C57.943 315.597 57.773 315.512 57.603 315.455C57.4443 315.398 57.2573 315.37 57.042 315.37C56.77 315.37 56.5037 315.421 56.243 315.523C55.9937 315.614 55.767 315.761 55.563 315.965C55.359 316.169 55.1947 316.43 55.07 316.747C54.9567 317.053 54.9 317.427 54.9 317.869V322.017H53.183V314.129ZM62.482 315.472H60.799V314.129H62.482V313.602C62.482 312.899 62.6237 312.321 62.907 311.868C63.2017 311.403 63.587 311.063 64.063 310.848C64.539 310.621 65.0603 310.508 65.627 310.508C66.1483 310.508 66.63 310.599 67.072 310.78C67.514 310.961 67.8937 311.233 68.211 311.596L67.497 312.769L67.412 312.905L67.293 312.837C67.2703 312.746 67.2363 312.656 67.191 312.565C67.157 312.474 67.072 312.367 66.936 312.242C66.7433 312.095 66.5563 311.993 66.375 311.936C66.1937 311.879 65.9727 311.851 65.712 311.851C65.3947 311.851 65.117 311.913 64.879 312.038C64.6523 312.151 64.471 312.338 64.335 312.599C64.2103 312.848 64.148 313.183 64.148 313.602V314.129H66.596V315.472H64.148V322H62.482V315.472ZM72.75 322.17C72.036 322.17 71.4013 322 70.846 321.66C70.2907 321.309 69.8487 320.827 69.52 320.215C69.1913 319.592 69.027 318.878 69.027 318.073C69.027 317.28 69.1913 316.577 69.52 315.965C69.8487 315.342 70.2907 314.854 70.846 314.503C71.4013 314.14 72.036 313.959 72.75 313.959C73.4527 313.959 74.0817 314.14 74.637 314.503C75.2037 314.854 75.6513 315.342 75.98 315.965C76.3087 316.577 76.473 317.28 76.473 318.073C76.473 318.866 76.3087 319.575 75.98 320.198C75.6513 320.81 75.2037 321.292 74.637 321.643C74.0817 321.994 73.4527 322.17 72.75 322.17ZM72.75 320.793C73.1353 320.793 73.4753 320.68 73.77 320.453C74.076 320.215 74.314 319.892 74.484 319.484C74.654 319.076 74.739 318.6 74.739 318.056C74.739 317.501 74.654 317.019 74.484 316.611C74.314 316.203 74.076 315.886 73.77 315.659C73.4753 315.432 73.1353 315.319 72.75 315.319C72.3647 315.319 72.019 315.432 71.713 315.659C71.4183 315.886 71.186 316.203 71.016 316.611C70.846 317.019 70.761 317.501 70.761 318.056C70.761 318.6 70.846 319.076 71.016 319.484C71.186 319.892 71.4183 320.215 71.713 320.453C72.019 320.68 72.3647 320.793 72.75 320.793ZM78.683 314.129H80.434L80.4 316.373L80.196 316.186C80.2527 315.846 80.3603 315.54 80.519 315.268C80.6777 314.985 80.8703 314.747 81.097 314.554C81.335 314.361 81.5957 314.214 81.879 314.112C82.1623 313.999 82.457 313.942 82.763 313.942C83.1937 313.942 83.5847 314.016 83.936 314.163C84.2873 314.31 84.6047 314.531 84.888 314.826L84.174 316.22L84.106 316.373L83.97 316.305C83.936 316.214 83.902 316.124 83.868 316.033C83.834 315.942 83.749 315.835 83.613 315.71C83.443 315.597 83.273 315.512 83.103 315.455C82.9443 315.398 82.7573 315.37 82.542 315.37C82.27 315.37 82.0037 315.421 81.743 315.523C81.4937 315.614 81.267 315.761 81.063 315.965C80.859 316.169 80.6947 316.43 80.57 316.747C80.4567 317.053 80.4 317.427 80.4 317.869V322.017H78.683V314.129ZM86.061 322V314.129H87.506V314.775C87.6307 314.594 87.7667 314.446 87.914 314.333C88.0727 314.208 88.237 314.112 88.407 314.044C88.5883 313.976 88.7697 313.942 88.951 313.942C89.155 313.942 89.3477 313.982 89.529 314.061C89.7103 314.14 89.869 314.254 90.005 314.401C90.141 314.548 90.243 314.741 90.311 314.979C90.4243 314.752 90.5603 314.565 90.719 314.418C90.889 314.271 91.0817 314.157 91.297 314.078C91.5237 313.987 91.7617 313.942 92.011 313.942C92.283 313.942 92.5153 313.999 92.708 314.112C92.912 314.214 93.0763 314.361 93.201 314.554C93.337 314.735 93.4333 314.962 93.49 315.234C93.558 315.495 93.5863 315.789 93.575 316.118V322H92.096V316.56C92.096 316.163 92.0733 315.869 92.028 315.676C91.9827 315.483 91.9147 315.353 91.824 315.285C91.7447 315.217 91.6483 315.183 91.535 315.183C91.365 315.183 91.2007 315.262 91.042 315.421C90.8947 315.568 90.77 315.772 90.668 316.033C90.5773 316.294 90.532 316.583 90.532 316.9V322H89.104V316.628C89.104 316.039 89.053 315.648 88.951 315.455C88.8603 315.262 88.696 315.166 88.458 315.166C88.3447 315.166 88.2313 315.206 88.118 315.285C88.016 315.353 87.9197 315.461 87.829 315.608C87.7383 315.744 87.6647 315.914 87.608 316.118C87.5627 316.322 87.54 316.56 87.54 316.832V322H86.061ZM97.434 322.187C96.5613 322.187 95.8813 321.989 95.394 321.592C94.918 321.184 94.68 320.657 94.68 320.011C94.68 319.58 94.7763 319.195 94.969 318.855C95.173 318.504 95.4563 318.203 95.819 317.954C96.193 317.705 96.6407 317.512 97.162 317.376C97.6833 317.229 98.2727 317.155 98.93 317.155C99.066 317.155 99.2077 317.161 99.355 317.172C99.5137 317.172 99.678 317.178 99.848 317.189C100.029 317.2 100.211 317.212 100.392 317.223L100.443 318.43C100.284 318.407 100.114 318.39 99.933 318.379C99.763 318.368 99.593 318.362 99.423 318.362C99.253 318.362 99.0943 318.362 98.947 318.362C98.505 318.362 98.1197 318.396 97.791 318.464C97.4737 318.521 97.2073 318.611 96.992 318.736C96.788 318.861 96.635 319.014 96.533 319.195C96.431 319.376 96.38 319.586 96.38 319.824C96.38 320.017 96.414 320.187 96.482 320.334C96.55 320.47 96.6407 320.578 96.754 320.657C96.8787 320.736 97.0203 320.799 97.179 320.844C97.349 320.878 97.5303 320.895 97.723 320.895C98.097 320.895 98.4257 320.833 98.709 320.708C98.9923 320.583 99.2303 320.402 99.423 320.164C99.627 319.915 99.78 319.609 99.882 319.246C99.984 318.872 100.035 318.436 100.035 317.937C100.035 317.246 99.9557 316.707 99.797 316.322C99.6497 315.937 99.4287 315.67 99.134 315.523C98.8393 315.376 98.471 315.302 98.029 315.302C97.6663 315.302 97.315 315.364 96.975 315.489C96.6463 315.602 96.3233 315.818 96.006 316.135L95.105 315.115C95.5357 314.707 96.006 314.412 96.516 314.231C97.0373 314.05 97.57 313.959 98.114 313.959C98.6127 313.959 99.0717 314.021 99.491 314.146C99.9217 314.259 100.296 314.452 100.613 314.724C100.942 314.996 101.191 315.364 101.361 315.829C101.542 316.294 101.633 316.883 101.633 317.597V322H99.865V321.031C99.7177 321.258 99.5533 321.45 99.372 321.609C99.1907 321.756 98.9923 321.875 98.777 321.966C98.573 322.045 98.3577 322.102 98.131 322.136C97.9043 322.17 97.672 322.187 97.434 322.187ZM103.52 322V314.129H105.22V315.336C105.413 315.053 105.628 314.809 105.866 314.605C106.104 314.401 106.37 314.242 106.665 314.129C106.96 314.004 107.277 313.942 107.617 313.942C108.059 313.942 108.467 314.055 108.841 314.282C109.215 314.509 109.515 314.866 109.742 315.353C109.969 315.829 110.082 316.464 110.082 317.257V322H108.399V317.274C108.399 316.809 108.348 316.43 108.246 316.135C108.144 315.84 107.997 315.625 107.804 315.489C107.623 315.353 107.402 315.285 107.141 315.285C106.914 315.285 106.688 315.336 106.461 315.438C106.234 315.54 106.025 315.682 105.832 315.863C105.651 316.033 105.503 316.248 105.39 316.509C105.277 316.758 105.22 317.042 105.22 317.359V322H103.52ZM115.777 322.187C115.199 322.187 114.661 322.091 114.162 321.898C113.675 321.694 113.25 321.411 112.887 321.048C112.536 320.674 112.258 320.243 112.054 319.756C111.861 319.257 111.765 318.713 111.765 318.124C111.765 317.535 111.861 316.991 112.054 316.492C112.258 315.982 112.536 315.54 112.887 315.166C113.25 314.792 113.675 314.503 114.162 314.299C114.661 314.084 115.193 313.976 115.76 313.976C116.463 313.976 117.075 314.106 117.596 314.367C118.129 314.628 118.559 314.996 118.888 315.472L117.919 316.492L117.8 316.611L117.698 316.509C117.687 316.418 117.664 316.333 117.63 316.254C117.607 316.163 117.534 316.044 117.409 315.897C117.182 315.693 116.933 315.551 116.661 315.472C116.389 315.381 116.077 315.336 115.726 315.336C115.431 315.336 115.148 315.398 114.876 315.523C114.615 315.648 114.377 315.829 114.162 316.067C113.958 316.305 113.794 316.594 113.669 316.934C113.544 317.274 113.482 317.654 113.482 318.073C113.482 318.481 113.544 318.855 113.669 319.195C113.794 319.524 113.964 319.807 114.179 320.045C114.394 320.272 114.644 320.453 114.927 320.589C115.222 320.714 115.528 320.776 115.845 320.776C116.094 320.776 116.332 320.748 116.559 320.691C116.797 320.623 117.024 320.521 117.239 320.385C117.454 320.238 117.658 320.051 117.851 319.824L118.786 320.912C118.378 321.354 117.908 321.677 117.375 321.881C116.854 322.085 116.321 322.187 115.777 322.187ZM124.107 322.187C123.54 322.187 123.019 322.096 122.543 321.915C122.067 321.734 121.653 321.473 121.302 321.133C120.962 320.782 120.696 320.351 120.503 319.841C120.31 319.331 120.214 318.753 120.214 318.107C120.214 317.45 120.31 316.866 120.503 316.356C120.696 315.835 120.956 315.398 121.285 315.047C121.625 314.696 122.016 314.424 122.458 314.231C122.911 314.038 123.393 313.942 123.903 313.942C124.345 313.942 124.764 314.021 125.161 314.18C125.569 314.339 125.92 314.577 126.215 314.894C126.521 315.2 126.759 315.591 126.929 316.067C127.11 316.543 127.201 317.098 127.201 317.733C127.201 317.846 127.201 317.977 127.201 318.124C127.201 318.26 127.195 318.379 127.184 318.481H121.846C121.869 318.889 121.948 319.246 122.084 319.552C122.22 319.847 122.39 320.09 122.594 320.283C122.809 320.476 123.053 320.617 123.325 320.708C123.597 320.799 123.88 320.844 124.175 320.844C124.436 320.844 124.674 320.821 124.889 320.776C125.116 320.719 125.331 320.634 125.535 320.521C125.739 320.408 125.926 320.255 126.096 320.062L126.98 320.929C126.742 321.212 126.476 321.45 126.181 321.643C125.886 321.824 125.563 321.96 125.212 322.051C124.872 322.142 124.504 322.187 124.107 322.187ZM121.88 317.206H125.552C125.552 316.889 125.512 316.611 125.433 316.373C125.354 316.135 125.235 315.931 125.076 315.761C124.929 315.591 124.747 315.466 124.532 315.387C124.317 315.296 124.079 315.251 123.818 315.251C123.569 315.251 123.336 315.291 123.121 315.37C122.917 315.449 122.73 315.568 122.56 315.727C122.39 315.886 122.243 316.09 122.118 316.339C122.005 316.577 121.925 316.866 121.88 317.206ZM60.697 347V336.409H63.859C64.4823 336.409 65.0207 336.471 65.474 336.596C65.9387 336.721 66.3183 336.902 66.613 337.14C66.919 337.378 67.1457 337.661 67.293 337.99C67.4403 338.307 67.514 338.659 67.514 339.044C67.514 339.35 67.4517 339.662 67.327 339.979C67.2137 340.285 67.0437 340.563 66.817 340.812C66.6017 341.05 66.324 341.231 65.984 341.356C66.2787 341.469 66.545 341.617 66.783 341.798C67.021 341.979 67.225 342.189 67.395 342.427C67.565 342.654 67.6953 342.897 67.786 343.158C67.888 343.419 67.939 343.691 67.939 343.974C67.939 344.427 67.854 344.841 67.684 345.215C67.514 345.589 67.259 345.912 66.919 346.184C66.579 346.445 66.154 346.649 65.644 346.796C65.134 346.932 64.5333 347 63.842 347H60.697ZM62.363 345.589H64.029C64.471 345.589 64.8507 345.532 65.168 345.419C65.4853 345.294 65.729 345.107 65.899 344.858C66.0803 344.609 66.171 344.291 66.171 343.906C66.171 343.543 66.0917 343.226 65.933 342.954C65.7857 342.671 65.5363 342.45 65.185 342.291C64.8337 342.132 64.3577 342.053 63.757 342.053H62.363V345.589ZM62.363 340.693H63.689C64.233 340.693 64.658 340.631 64.964 340.506C65.2813 340.381 65.5023 340.206 65.627 339.979C65.763 339.752 65.831 339.497 65.831 339.214C65.831 338.999 65.7913 338.806 65.712 338.636C65.644 338.466 65.5307 338.319 65.372 338.194C65.2133 338.058 65.0093 337.956 64.76 337.888C64.5107 337.82 64.216 337.786 63.876 337.786H62.363V340.693ZM73.107 347.187C72.5403 347.187 72.019 347.096 71.543 346.915C71.067 346.734 70.6533 346.473 70.302 346.133C69.962 345.782 69.6957 345.351 69.503 344.841C69.3103 344.331 69.214 343.753 69.214 343.107C69.214 342.45 69.3103 341.866 69.503 341.356C69.6957 340.835 69.9563 340.398 70.285 340.047C70.625 339.696 71.016 339.424 71.458 339.231C71.9113 339.038 72.393 338.942 72.903 338.942C73.345 338.942 73.7643 339.021 74.161 339.18C74.569 339.339 74.9203 339.577 75.215 339.894C75.521 340.2 75.759 340.591 75.929 341.067C76.1103 341.543 76.201 342.098 76.201 342.733C76.201 342.846 76.201 342.977 76.201 343.124C76.201 343.26 76.1953 343.379 76.184 343.481H70.846C70.8687 343.889 70.948 344.246 71.084 344.552C71.22 344.847 71.39 345.09 71.594 345.283C71.8093 345.476 72.053 345.617 72.325 345.708C72.597 345.799 72.8803 345.844 73.175 345.844C73.4357 345.844 73.6737 345.821 73.889 345.776C74.1157 345.719 74.331 345.634 74.535 345.521C74.739 345.408 74.926 345.255 75.096 345.062L75.98 345.929C75.742 346.212 75.4757 346.45 75.181 346.643C74.8863 346.824 74.5633 346.96 74.212 347.051C73.872 347.142 73.5037 347.187 73.107 347.187ZM70.88 342.206H74.552C74.552 341.889 74.5123 341.611 74.433 341.373C74.3537 341.135 74.2347 340.931 74.076 340.761C73.9287 340.591 73.7473 340.466 73.532 340.387C73.3167 340.296 73.0787 340.251 72.818 340.251C72.5687 340.251 72.3363 340.291 72.121 340.37C71.917 340.449 71.73 340.568 71.56 340.727C71.39 340.886 71.2427 341.09 71.118 341.339C71.0047 341.577 70.9253 341.866 70.88 342.206ZM78.02 347V339.129H79.72V340.336C79.9127 340.053 80.128 339.809 80.366 339.605C80.604 339.401 80.8703 339.242 81.165 339.129C81.4597 339.004 81.777 338.942 82.117 338.942C82.559 338.942 82.967 339.055 83.341 339.282C83.715 339.509 84.0153 339.866 84.242 340.353C84.4687 340.829 84.582 341.464 84.582 342.257V347H82.899V342.274C82.899 341.809 82.848 341.43 82.746 341.135C82.644 340.84 82.4967 340.625 82.304 340.489C82.1227 340.353 81.9017 340.285 81.641 340.285C81.4143 340.285 81.1877 340.336 80.961 340.438C80.7343 340.54 80.5247 340.682 80.332 340.863C80.1507 341.033 80.0033 341.248 79.89 341.509C79.7767 341.758 79.72 342.042 79.72 342.359V347H78.02ZM90.107 347.187C89.5403 347.187 89.019 347.096 88.543 346.915C88.067 346.734 87.6533 346.473 87.302 346.133C86.962 345.782 86.6957 345.351 86.503 344.841C86.3103 344.331 86.214 343.753 86.214 343.107C86.214 342.45 86.3103 341.866 86.503 341.356C86.6957 340.835 86.9563 340.398 87.285 340.047C87.625 339.696 88.016 339.424 88.458 339.231C88.9113 339.038 89.393 338.942 89.903 338.942C90.345 338.942 90.7643 339.021 91.161 339.18C91.569 339.339 91.9203 339.577 92.215 339.894C92.521 340.2 92.759 340.591 92.929 341.067C93.1103 341.543 93.201 342.098 93.201 342.733C93.201 342.846 93.201 342.977 93.201 343.124C93.201 343.26 93.1953 343.379 93.184 343.481H87.846C87.8687 343.889 87.948 344.246 88.084 344.552C88.22 344.847 88.39 345.09 88.594 345.283C88.8093 345.476 89.053 345.617 89.325 345.708C89.597 345.799 89.8803 345.844 90.175 345.844C90.4357 345.844 90.6737 345.821 90.889 345.776C91.1157 345.719 91.331 345.634 91.535 345.521C91.739 345.408 91.926 345.255 92.096 345.062L92.98 345.929C92.742 346.212 92.4757 346.45 92.181 346.643C91.8863 346.824 91.5633 346.96 91.212 347.051C90.872 347.142 90.5037 347.187 90.107 347.187ZM87.88 342.206H91.552C91.552 341.889 91.5123 341.611 91.433 341.373C91.3537 341.135 91.2347 340.931 91.076 340.761C90.9287 340.591 90.7473 340.466 90.532 340.387C90.3167 340.296 90.0787 340.251 89.818 340.251C89.5687 340.251 89.3363 340.291 89.121 340.37C88.917 340.449 88.73 340.568 88.56 340.727C88.39 340.886 88.2427 341.09 88.118 341.339C88.0047 341.577 87.9253 341.866 87.88 342.206ZM96.482 340.472H94.799V339.129H96.482V338.602C96.482 337.899 96.6237 337.321 96.907 336.868C97.2017 336.403 97.587 336.063 98.063 335.848C98.539 335.621 99.0603 335.508 99.627 335.508C100.148 335.508 100.63 335.599 101.072 335.78C101.514 335.961 101.894 336.233 102.211 336.596L101.497 337.769L101.412 337.905L101.293 337.837C101.27 337.746 101.236 337.656 101.191 337.565C101.157 337.474 101.072 337.367 100.936 337.242C100.743 337.095 100.556 336.993 100.375 336.936C100.194 336.879 99.9727 336.851 99.712 336.851C99.3947 336.851 99.117 336.913 98.879 337.038C98.6523 337.151 98.471 337.338 98.335 337.599C98.2103 337.848 98.148 338.183 98.148 338.602V339.129H100.596V340.472H98.148V347H96.482V340.472ZM104.03 347V345.657H105.985V340.472H104.115V339.129H107.685V345.657H109.47V347H104.03ZM106.733 337.718C106.427 337.718 106.166 337.616 105.951 337.412C105.747 337.197 105.645 336.947 105.645 336.664C105.645 336.358 105.747 336.103 105.951 335.899C106.155 335.695 106.416 335.593 106.733 335.593C107.028 335.593 107.283 335.701 107.498 335.916C107.725 336.131 107.838 336.381 107.838 336.664C107.838 336.947 107.725 337.197 107.498 337.412C107.283 337.616 107.028 337.718 106.733 337.718ZM116.083 347.153C115.618 347.153 115.216 347.079 114.876 346.932C114.547 346.773 114.281 346.524 114.077 346.184C113.884 345.844 113.748 345.402 113.669 344.858C113.59 344.314 113.561 343.651 113.584 342.869L113.805 337.225L115.539 337.004L115.709 336.987L115.726 337.14C115.669 337.219 115.618 337.299 115.573 337.378C115.539 337.457 115.511 337.593 115.488 337.786L115.318 339.979L115.386 340.166L115.267 342.869C115.233 343.64 115.256 344.24 115.335 344.671C115.414 345.09 115.55 345.385 115.743 345.555C115.936 345.714 116.168 345.793 116.44 345.793C116.803 345.793 117.126 345.719 117.409 345.572C117.704 345.425 117.993 345.243 118.276 345.028L118.65 346.286C118.265 346.569 117.862 346.785 117.443 346.932C117.024 347.079 116.57 347.153 116.083 347.153ZM112.054 339.129H117.987L117.97 340.489H112.054V339.129ZM123.869 347.187C123.393 347.187 122.945 347.142 122.526 347.051C122.107 346.96 121.71 346.824 121.336 346.643C120.973 346.462 120.639 346.229 120.333 345.946L121.115 344.518L121.217 344.365L121.336 344.433C121.359 344.524 121.387 344.62 121.421 344.722C121.455 344.813 121.534 344.926 121.659 345.062C121.931 345.3 122.243 345.493 122.594 345.64C122.945 345.776 123.376 345.844 123.886 345.844C124.237 345.844 124.532 345.804 124.77 345.725C125.019 345.634 125.212 345.515 125.348 345.368C125.484 345.209 125.552 345.034 125.552 344.841C125.552 344.694 125.512 344.569 125.433 344.467C125.365 344.354 125.257 344.252 125.11 344.161C124.963 344.059 124.77 343.963 124.532 343.872C124.294 343.77 124.005 343.674 123.665 343.583C123.087 343.413 122.583 343.22 122.152 343.005C121.721 342.778 121.387 342.512 121.149 342.206C120.911 341.9 120.792 341.537 120.792 341.118C120.792 340.699 120.911 340.33 121.149 340.013C121.398 339.684 121.75 339.424 122.203 339.231C122.656 339.038 123.195 338.942 123.818 338.942C124.158 338.942 124.475 338.97 124.77 339.027C125.076 339.072 125.354 339.146 125.603 339.248C125.864 339.35 126.107 339.48 126.334 339.639C126.561 339.786 126.776 339.962 126.98 340.166L126.113 341.322L126.011 341.458L125.892 341.356C125.881 341.265 125.852 341.18 125.807 341.101C125.773 341.022 125.694 340.92 125.569 340.795C125.32 340.614 125.048 340.478 124.753 340.387C124.458 340.296 124.158 340.251 123.852 340.251C123.455 340.251 123.104 340.319 122.798 340.455C122.503 340.591 122.356 340.795 122.356 341.067C122.356 341.226 122.418 341.373 122.543 341.509C122.679 341.645 122.894 341.781 123.189 341.917C123.484 342.042 123.886 342.172 124.396 342.308C125.042 342.478 125.563 342.676 125.96 342.903C126.357 343.118 126.646 343.373 126.827 343.668C127.02 343.963 127.116 344.308 127.116 344.705C127.116 345.147 126.991 345.561 126.742 345.946C126.504 346.32 126.141 346.62 125.654 346.847C125.167 347.074 124.572 347.187 123.869 347.187Z" fill="white"/>
<path d="M332.277 595.187C331.699 595.187 331.155 595.079 330.645 594.864C330.146 594.649 329.704 594.32 329.319 593.878C328.934 593.436 328.628 592.875 328.401 592.195C328.186 591.515 328.078 590.705 328.078 589.764C328.078 588.937 328.157 588.217 328.316 587.605C328.486 586.982 328.713 586.46 328.996 586.041C329.279 585.61 329.602 585.27 329.965 585.021C330.328 584.76 330.707 584.573 331.104 584.46C331.501 584.335 331.897 584.273 332.294 584.273C333.087 584.273 333.762 584.46 334.317 584.834C334.884 585.197 335.309 585.701 335.592 586.347L334.453 587.112L334.317 587.197L334.232 587.078C334.255 586.987 334.249 586.902 334.215 586.823C334.192 586.732 334.13 586.613 334.028 586.466C333.779 586.137 333.512 585.916 333.229 585.803C332.946 585.69 332.657 585.633 332.362 585.633C331.999 585.633 331.654 585.724 331.325 585.905C331.008 586.075 330.73 586.33 330.492 586.67C330.254 587.01 330.067 587.435 329.931 587.945C329.795 588.444 329.727 589.022 329.727 589.679C329.727 590.314 329.789 590.886 329.914 591.396C330.05 591.895 330.231 592.325 330.458 592.688C330.696 593.039 330.968 593.311 331.274 593.504C331.591 593.685 331.931 593.776 332.294 593.776C332.577 593.776 332.838 593.736 333.076 593.657C333.314 593.578 333.535 593.447 333.739 593.266C333.943 593.073 334.124 592.847 334.283 592.586L335.473 593.419C335.099 594.042 334.651 594.496 334.13 594.779C333.609 595.051 332.991 595.187 332.277 595.187ZM340.25 595.17C339.536 595.17 338.901 595 338.346 594.66C337.791 594.309 337.349 593.827 337.02 593.215C336.691 592.592 336.527 591.878 336.527 591.073C336.527 590.28 336.691 589.577 337.02 588.965C337.349 588.342 337.791 587.854 338.346 587.503C338.901 587.14 339.536 586.959 340.25 586.959C340.953 586.959 341.582 587.14 342.137 587.503C342.704 587.854 343.151 588.342 343.48 588.965C343.809 589.577 343.973 590.28 343.973 591.073C343.973 591.866 343.809 592.575 343.48 593.198C343.151 593.81 342.704 594.292 342.137 594.643C341.582 594.994 340.953 595.17 340.25 595.17ZM340.25 593.793C340.635 593.793 340.975 593.68 341.27 593.453C341.576 593.215 341.814 592.892 341.984 592.484C342.154 592.076 342.239 591.6 342.239 591.056C342.239 590.501 342.154 590.019 341.984 589.611C341.814 589.203 341.576 588.886 341.27 588.659C340.975 588.432 340.635 588.319 340.25 588.319C339.865 588.319 339.519 588.432 339.213 588.659C338.918 588.886 338.686 589.203 338.516 589.611C338.346 590.019 338.261 590.501 338.261 591.056C338.261 591.6 338.346 592.076 338.516 592.484C338.686 592.892 338.918 593.215 339.213 593.453C339.519 593.68 339.865 593.793 340.25 593.793ZM348.376 595.187C347.957 595.187 347.549 595.102 347.152 594.932C346.767 594.751 346.421 594.49 346.115 594.15C345.809 593.81 345.565 593.379 345.384 592.858C345.214 592.325 345.129 591.713 345.129 591.022C345.129 590.319 345.214 589.713 345.384 589.203C345.565 588.693 345.809 588.274 346.115 587.945C346.421 587.605 346.772 587.356 347.169 587.197C347.566 587.027 347.979 586.942 348.41 586.942C348.716 586.942 348.994 586.982 349.243 587.061C349.504 587.14 349.736 587.259 349.94 587.418C350.144 587.577 350.308 587.775 350.433 588.013V583.627H352.082H352.235V583.78C352.178 583.848 352.139 583.922 352.116 584.001C352.093 584.08 352.088 584.216 352.099 584.409V593.895C352.099 594.076 352.105 594.263 352.116 594.456C352.139 594.637 352.19 594.819 352.269 595H350.603C350.546 594.875 350.507 594.762 350.484 594.66C350.461 594.558 350.45 594.456 350.45 594.354C350.45 594.252 350.45 594.144 350.45 594.031C350.291 594.269 350.11 594.479 349.906 594.66C349.702 594.83 349.47 594.96 349.209 595.051C348.948 595.142 348.671 595.187 348.376 595.187ZM348.665 593.793C348.971 593.793 349.232 593.731 349.447 593.606C349.662 593.481 349.838 593.3 349.974 593.062C350.11 592.824 350.212 592.535 350.28 592.195C350.348 591.855 350.382 591.47 350.382 591.039C350.382 590.461 350.32 589.968 350.195 589.56C350.07 589.141 349.872 588.823 349.6 588.608C349.339 588.381 349.005 588.268 348.597 588.268C348.302 588.268 348.042 588.33 347.815 588.455C347.588 588.58 347.396 588.761 347.237 588.999C347.09 589.226 346.976 589.503 346.897 589.832C346.818 590.161 346.778 590.529 346.778 590.937C346.778 591.515 346.857 592.019 347.016 592.45C347.186 592.881 347.413 593.215 347.696 593.453C347.979 593.68 348.302 593.793 348.665 593.793ZM357.607 595.187C357.04 595.187 356.519 595.096 356.043 594.915C355.567 594.734 355.153 594.473 354.802 594.133C354.462 593.782 354.196 593.351 354.003 592.841C353.81 592.331 353.714 591.753 353.714 591.107C353.714 590.45 353.81 589.866 354.003 589.356C354.196 588.835 354.456 588.398 354.785 588.047C355.125 587.696 355.516 587.424 355.958 587.231C356.411 587.038 356.893 586.942 357.403 586.942C357.845 586.942 358.264 587.021 358.661 587.18C359.069 587.339 359.42 587.577 359.715 587.894C360.021 588.2 360.259 588.591 360.429 589.067C360.61 589.543 360.701 590.098 360.701 590.733C360.701 590.846 360.701 590.977 360.701 591.124C360.701 591.26 360.695 591.379 360.684 591.481H355.346C355.369 591.889 355.448 592.246 355.584 592.552C355.72 592.847 355.89 593.09 356.094 593.283C356.309 593.476 356.553 593.617 356.825 593.708C357.097 593.799 357.38 593.844 357.675 593.844C357.936 593.844 358.174 593.821 358.389 593.776C358.616 593.719 358.831 593.634 359.035 593.521C359.239 593.408 359.426 593.255 359.596 593.062L360.48 593.929C360.242 594.212 359.976 594.45 359.681 594.643C359.386 594.824 359.063 594.96 358.712 595.051C358.372 595.142 358.004 595.187 357.607 595.187ZM355.38 590.206H359.052C359.052 589.889 359.012 589.611 358.933 589.373C358.854 589.135 358.735 588.931 358.576 588.761C358.429 588.591 358.247 588.466 358.032 588.387C357.817 588.296 357.579 588.251 357.318 588.251C357.069 588.251 356.836 588.291 356.621 588.37C356.417 588.449 356.23 588.568 356.06 588.727C355.89 588.886 355.743 589.09 355.618 589.339C355.505 589.577 355.425 589.866 355.38 590.206ZM374.777 595.187C374.199 595.187 373.655 595.079 373.145 594.864C372.646 594.649 372.204 594.32 371.819 593.878C371.434 593.436 371.128 592.875 370.901 592.195C370.686 591.515 370.578 590.705 370.578 589.764C370.578 588.937 370.657 588.217 370.816 587.605C370.986 586.982 371.213 586.46 371.496 586.041C371.779 585.61 372.102 585.27 372.465 585.021C372.828 584.76 373.207 584.573 373.604 584.46C374.001 584.335 374.397 584.273 374.794 584.273C375.587 584.273 376.262 584.46 376.817 584.834C377.384 585.197 377.809 585.701 378.092 586.347L376.953 587.112L376.817 587.197L376.732 587.078C376.755 586.987 376.749 586.902 376.715 586.823C376.692 586.732 376.63 586.613 376.528 586.466C376.279 586.137 376.012 585.916 375.729 585.803C375.446 585.69 375.157 585.633 374.862 585.633C374.499 585.633 374.154 585.724 373.825 585.905C373.508 586.075 373.23 586.33 372.992 586.67C372.754 587.01 372.567 587.435 372.431 587.945C372.295 588.444 372.227 589.022 372.227 589.679C372.227 590.314 372.289 590.886 372.414 591.396C372.55 591.895 372.731 592.325 372.958 592.688C373.196 593.039 373.468 593.311 373.774 593.504C374.091 593.685 374.431 593.776 374.794 593.776C375.077 593.776 375.338 593.736 375.576 593.657C375.814 593.578 376.035 593.447 376.239 593.266C376.443 593.073 376.624 592.847 376.783 592.586L377.973 593.419C377.599 594.042 377.151 594.496 376.63 594.779C376.109 595.051 375.491 595.187 374.777 595.187ZM382.75 595.17C382.036 595.17 381.401 595 380.846 594.66C380.291 594.309 379.849 593.827 379.52 593.215C379.191 592.592 379.027 591.878 379.027 591.073C379.027 590.28 379.191 589.577 379.52 588.965C379.849 588.342 380.291 587.854 380.846 587.503C381.401 587.14 382.036 586.959 382.75 586.959C383.453 586.959 384.082 587.14 384.637 587.503C385.204 587.854 385.651 588.342 385.98 588.965C386.309 589.577 386.473 590.28 386.473 591.073C386.473 591.866 386.309 592.575 385.98 593.198C385.651 593.81 385.204 594.292 384.637 594.643C384.082 594.994 383.453 595.17 382.75 595.17ZM382.75 593.793C383.135 593.793 383.475 593.68 383.77 593.453C384.076 593.215 384.314 592.892 384.484 592.484C384.654 592.076 384.739 591.6 384.739 591.056C384.739 590.501 384.654 590.019 384.484 589.611C384.314 589.203 384.076 588.886 383.77 588.659C383.475 588.432 383.135 588.319 382.75 588.319C382.365 588.319 382.019 588.432 381.713 588.659C381.418 588.886 381.186 589.203 381.016 589.611C380.846 590.019 380.761 590.501 380.761 591.056C380.761 591.6 380.846 592.076 381.016 592.484C381.186 592.892 381.418 593.215 381.713 593.453C382.019 593.68 382.365 593.793 382.75 593.793ZM387.561 595V587.129H389.006V587.775C389.131 587.594 389.267 587.446 389.414 587.333C389.573 587.208 389.737 587.112 389.907 587.044C390.088 586.976 390.27 586.942 390.451 586.942C390.655 586.942 390.848 586.982 391.029 587.061C391.21 587.14 391.369 587.254 391.505 587.401C391.641 587.548 391.743 587.741 391.811 587.979C391.924 587.752 392.06 587.565 392.219 587.418C392.389 587.271 392.582 587.157 392.797 587.078C393.024 586.987 393.262 586.942 393.511 586.942C393.783 586.942 394.015 586.999 394.208 587.112C394.412 587.214 394.576 587.361 394.701 587.554C394.837 587.735 394.933 587.962 394.99 588.234C395.058 588.495 395.086 588.789 395.075 589.118V595H393.596V589.56C393.596 589.163 393.573 588.869 393.528 588.676C393.483 588.483 393.415 588.353 393.324 588.285C393.245 588.217 393.148 588.183 393.035 588.183C392.865 588.183 392.701 588.262 392.542 588.421C392.395 588.568 392.27 588.772 392.168 589.033C392.077 589.294 392.032 589.583 392.032 589.9V595H390.604V589.628C390.604 589.039 390.553 588.648 390.451 588.455C390.36 588.262 390.196 588.166 389.958 588.166C389.845 588.166 389.731 588.206 389.618 588.285C389.516 588.353 389.42 588.461 389.329 588.608C389.238 588.744 389.165 588.914 389.108 589.118C389.063 589.322 389.04 589.56 389.04 589.832V595H387.561ZM396.384 597.839V587.129H398.067V588.387C398.214 588.047 398.401 587.775 398.628 587.571C398.866 587.356 399.127 587.203 399.41 587.112C399.693 587.01 399.999 586.959 400.328 586.959C400.759 586.959 401.161 587.05 401.535 587.231C401.92 587.401 402.26 587.656 402.555 587.996C402.85 588.336 403.082 588.761 403.252 589.271C403.422 589.781 403.507 590.376 403.507 591.056C403.507 591.747 403.416 592.354 403.235 592.875C403.054 593.396 402.81 593.833 402.504 594.184C402.209 594.524 401.869 594.779 401.484 594.949C401.099 595.119 400.702 595.204 400.294 595.204C400.011 595.204 399.727 595.164 399.444 595.085C399.172 595.017 398.923 594.909 398.696 594.762C398.469 594.603 398.271 594.422 398.101 594.218V597.839H396.384ZM399.869 593.844C400.13 593.844 400.373 593.799 400.6 593.708C400.827 593.606 401.031 593.453 401.212 593.249C401.393 593.034 401.535 592.745 401.637 592.382C401.739 592.008 401.79 591.555 401.79 591.022C401.79 590.455 401.716 589.974 401.569 589.577C401.433 589.18 401.229 588.874 400.957 588.659C400.696 588.444 400.379 588.33 400.005 588.319C399.722 588.308 399.461 588.359 399.223 588.472C398.985 588.574 398.781 588.744 398.611 588.982C398.441 589.209 398.311 589.515 398.22 589.9C398.141 590.274 398.101 590.722 398.101 591.243C398.101 591.594 398.124 591.912 398.169 592.195C398.226 592.467 398.305 592.711 398.407 592.926C398.509 593.13 398.628 593.3 398.764 593.436C398.911 593.572 399.076 593.674 399.257 593.742C399.45 593.81 399.654 593.844 399.869 593.844ZM405.156 595V593.657H407.4V584.97H405.258V583.627H409.117V593.657H411.344V595H405.156ZM417.107 595.187C416.54 595.187 416.019 595.096 415.543 594.915C415.067 594.734 414.653 594.473 414.302 594.133C413.962 593.782 413.696 593.351 413.503 592.841C413.31 592.331 413.214 591.753 413.214 591.107C413.214 590.45 413.31 589.866 413.503 589.356C413.696 588.835 413.956 588.398 414.285 588.047C414.625 587.696 415.016 587.424 415.458 587.231C415.911 587.038 416.393 586.942 416.903 586.942C417.345 586.942 417.764 587.021 418.161 587.18C418.569 587.339 418.92 587.577 419.215 587.894C419.521 588.2 419.759 588.591 419.929 589.067C420.11 589.543 420.201 590.098 420.201 590.733C420.201 590.846 420.201 590.977 420.201 591.124C420.201 591.26 420.195 591.379 420.184 591.481H414.846C414.869 591.889 414.948 592.246 415.084 592.552C415.22 592.847 415.39 593.09 415.594 593.283C415.809 593.476 416.053 593.617 416.325 593.708C416.597 593.799 416.88 593.844 417.175 593.844C417.436 593.844 417.674 593.821 417.889 593.776C418.116 593.719 418.331 593.634 418.535 593.521C418.739 593.408 418.926 593.255 419.096 593.062L419.98 593.929C419.742 594.212 419.476 594.45 419.181 594.643C418.886 594.824 418.563 594.96 418.212 595.051C417.872 595.142 417.504 595.187 417.107 595.187ZM414.88 590.206H418.552C418.552 589.889 418.512 589.611 418.433 589.373C418.354 589.135 418.235 588.931 418.076 588.761C417.929 588.591 417.747 588.466 417.532 588.387C417.317 588.296 417.079 588.251 416.818 588.251C416.569 588.251 416.336 588.291 416.121 588.37C415.917 588.449 415.73 588.568 415.56 588.727C415.39 588.886 415.243 589.09 415.118 589.339C415.005 589.577 414.925 589.866 414.88 590.206ZM421.578 595L424.315 591.056L421.629 587.129H423.431L425.233 589.73L426.933 587.129H428.65L426.134 590.971L428.973 595H427.137L425.216 592.314L423.431 595H421.578ZM431.03 595V593.657H432.985V588.472H431.115V587.129H434.685V593.657H436.47V595H431.03ZM433.733 585.718C433.427 585.718 433.166 585.616 432.951 585.412C432.747 585.197 432.645 584.947 432.645 584.664C432.645 584.358 432.747 584.103 432.951 583.899C433.155 583.695 433.416 583.593 433.733 583.593C434.028 583.593 434.283 583.701 434.498 583.916C434.725 584.131 434.838 584.381 434.838 584.664C434.838 584.947 434.725 585.197 434.498 585.412C434.283 585.616 434.028 585.718 433.733 585.718ZM443.083 595.153C442.618 595.153 442.216 595.079 441.876 594.932C441.547 594.773 441.281 594.524 441.077 594.184C440.884 593.844 440.748 593.402 440.669 592.858C440.59 592.314 440.561 591.651 440.584 590.869L440.805 585.225L442.539 585.004L442.709 584.987L442.726 585.14C442.669 585.219 442.618 585.299 442.573 585.378C442.539 585.457 442.511 585.593 442.488 585.786L442.318 587.979L442.386 588.166L442.267 590.869C442.233 591.64 442.256 592.24 442.335 592.671C442.414 593.09 442.55 593.385 442.743 593.555C442.936 593.714 443.168 593.793 443.44 593.793C443.803 593.793 444.126 593.719 444.409 593.572C444.704 593.425 444.993 593.243 445.276 593.028L445.65 594.286C445.265 594.569 444.862 594.785 444.443 594.932C444.024 595.079 443.57 595.153 443.083 595.153ZM439.054 587.129H444.987L444.97 588.489H439.054V587.129ZM448.642 597.975C448.268 597.975 447.934 597.913 447.639 597.788C447.344 597.675 447.061 597.499 446.789 597.261L447.418 596.105L447.503 595.969L447.622 596.037C447.656 596.116 447.696 596.19 447.741 596.258C447.798 596.337 447.905 596.434 448.064 596.547C448.155 596.581 448.251 596.604 448.353 596.615C448.455 596.638 448.557 596.649 448.659 596.649C448.92 596.649 449.141 596.581 449.322 596.445C449.503 596.32 449.662 596.122 449.798 595.85C449.945 595.578 450.093 595.227 450.24 594.796L451.872 590.036C452.042 589.537 452.189 589.056 452.314 588.591C452.45 588.115 452.535 587.628 452.569 587.129H454.167C454.122 587.65 454.003 588.189 453.81 588.744C453.629 589.299 453.442 589.838 453.249 590.359L451.294 595.748C450.999 596.575 450.631 597.153 450.189 597.482C449.747 597.811 449.231 597.975 448.642 597.975ZM447.112 587.129H448.829L451.209 593.317L450.359 595.187L447.112 587.129Z" fill="white"/>
<path d="M157.647 548.646L430 124" stroke="#F8AF21" stroke-width="5" stroke-linecap="round"/>
<circle cx="375.5" cy="206.5" r="12.5" fill="#521E64"/>
<circle cx="227.5" cy="440.5" r="12.5" fill="#521E64"/>
<path d="M406.148 212.187C405.445 212.187 404.794 212.079 404.193 211.864C403.604 211.649 403.099 211.326 402.68 210.895L403.513 209.484L403.598 209.331L403.734 209.416C403.757 209.495 403.785 209.58 403.819 209.671C403.853 209.762 403.938 209.875 404.074 210.011C404.357 210.226 404.68 210.408 405.043 210.555C405.406 210.691 405.802 210.759 406.233 210.759C406.528 210.759 406.788 210.725 407.015 210.657C407.253 210.578 407.457 210.476 407.627 210.351C407.808 210.215 407.944 210.056 408.035 209.875C408.126 209.682 408.171 209.473 408.171 209.246C408.171 209.087 408.154 208.94 408.12 208.804C408.086 208.657 408.024 208.526 407.933 208.413C407.842 208.288 407.712 208.164 407.542 208.039C407.383 207.914 407.174 207.784 406.913 207.648C406.652 207.501 406.341 207.348 405.978 207.189C405.241 206.872 404.658 206.554 404.227 206.237C403.808 205.908 403.507 205.557 403.326 205.183C403.145 204.798 403.054 204.378 403.054 203.925C403.054 203.404 403.196 202.945 403.479 202.548C403.762 202.14 404.153 201.823 404.652 201.596C405.162 201.358 405.74 201.239 406.386 201.239C406.817 201.239 407.219 201.296 407.593 201.409C407.967 201.511 408.318 201.664 408.647 201.868C408.976 202.061 409.27 202.304 409.531 202.599L408.545 203.755L408.443 203.891L408.324 203.789C408.313 203.698 408.29 203.608 408.256 203.517C408.233 203.426 408.16 203.313 408.035 203.177C407.797 202.962 407.542 202.814 407.27 202.735C407.009 202.656 406.698 202.616 406.335 202.616C406.097 202.616 405.876 202.65 405.672 202.718C405.479 202.775 405.309 202.865 405.162 202.99C405.026 203.103 404.918 203.234 404.839 203.381C404.771 203.528 404.737 203.687 404.737 203.857C404.737 204.016 404.754 204.157 404.788 204.282C404.822 204.407 404.884 204.531 404.975 204.656C405.077 204.781 405.213 204.911 405.383 205.047C405.564 205.172 405.791 205.308 406.063 205.455C406.335 205.591 406.669 205.744 407.066 205.914C407.599 206.152 408.041 206.384 408.392 206.611C408.755 206.838 409.038 207.076 409.242 207.325C409.457 207.563 409.61 207.829 409.701 208.124C409.792 208.407 409.837 208.73 409.837 209.093C409.837 209.603 409.707 210.096 409.446 210.572C409.197 211.037 408.8 211.422 408.256 211.728C407.712 212.034 407.009 212.187 406.148 212.187ZM415.107 212.187C414.54 212.187 414.019 212.096 413.543 211.915C413.067 211.734 412.653 211.473 412.302 211.133C411.962 210.782 411.696 210.351 411.503 209.841C411.31 209.331 411.214 208.753 411.214 208.107C411.214 207.45 411.31 206.866 411.503 206.356C411.696 205.835 411.956 205.398 412.285 205.047C412.625 204.696 413.016 204.424 413.458 204.231C413.911 204.038 414.393 203.942 414.903 203.942C415.345 203.942 415.764 204.021 416.161 204.18C416.569 204.339 416.92 204.577 417.215 204.894C417.521 205.2 417.759 205.591 417.929 206.067C418.11 206.543 418.201 207.098 418.201 207.733C418.201 207.846 418.201 207.977 418.201 208.124C418.201 208.26 418.195 208.379 418.184 208.481H412.846C412.869 208.889 412.948 209.246 413.084 209.552C413.22 209.847 413.39 210.09 413.594 210.283C413.809 210.476 414.053 210.617 414.325 210.708C414.597 210.799 414.88 210.844 415.175 210.844C415.436 210.844 415.674 210.821 415.889 210.776C416.116 210.719 416.331 210.634 416.535 210.521C416.739 210.408 416.926 210.255 417.096 210.062L417.98 210.929C417.742 211.212 417.476 211.45 417.181 211.643C416.886 211.824 416.563 211.96 416.212 212.051C415.872 212.142 415.504 212.187 415.107 212.187ZM412.88 207.206H416.552C416.552 206.889 416.512 206.611 416.433 206.373C416.354 206.135 416.235 205.931 416.076 205.761C415.929 205.591 415.747 205.466 415.532 205.387C415.317 205.296 415.079 205.251 414.818 205.251C414.569 205.251 414.336 205.291 414.121 205.37C413.917 205.449 413.73 205.568 413.56 205.727C413.39 205.886 413.243 206.09 413.118 206.339C413.005 206.577 412.925 206.866 412.88 207.206ZM420.683 204.129H422.434L422.4 206.373L422.196 206.186C422.253 205.846 422.36 205.54 422.519 205.268C422.678 204.985 422.87 204.747 423.097 204.554C423.335 204.361 423.596 204.214 423.879 204.112C424.162 203.999 424.457 203.942 424.763 203.942C425.194 203.942 425.585 204.016 425.936 204.163C426.287 204.31 426.605 204.531 426.888 204.826L426.174 206.22L426.106 206.373L425.97 206.305C425.936 206.214 425.902 206.124 425.868 206.033C425.834 205.942 425.749 205.835 425.613 205.71C425.443 205.597 425.273 205.512 425.103 205.455C424.944 205.398 424.757 205.37 424.542 205.37C424.27 205.37 424.004 205.421 423.743 205.523C423.494 205.614 423.267 205.761 423.063 205.965C422.859 206.169 422.695 206.43 422.57 206.747C422.457 207.053 422.4 207.427 422.4 207.869V212.017H420.683V204.129ZM431.053 212L428.061 204.129H429.812L431.988 210.045H431.733L432.906 207.274C433.133 206.696 433.32 206.146 433.467 205.625C433.614 205.104 433.711 204.605 433.756 204.129H435.337C435.269 204.628 435.139 205.16 434.946 205.727C434.765 206.282 434.549 206.86 434.3 207.461L432.396 212H431.053ZM440.607 212.187C440.04 212.187 439.519 212.096 439.043 211.915C438.567 211.734 438.153 211.473 437.802 211.133C437.462 210.782 437.196 210.351 437.003 209.841C436.81 209.331 436.714 208.753 436.714 208.107C436.714 207.45 436.81 206.866 437.003 206.356C437.196 205.835 437.456 205.398 437.785 205.047C438.125 204.696 438.516 204.424 438.958 204.231C439.411 204.038 439.893 203.942 440.403 203.942C440.845 203.942 441.264 204.021 441.661 204.18C442.069 204.339 442.42 204.577 442.715 204.894C443.021 205.2 443.259 205.591 443.429 206.067C443.61 206.543 443.701 207.098 443.701 207.733C443.701 207.846 443.701 207.977 443.701 208.124C443.701 208.26 443.695 208.379 443.684 208.481H438.346C438.369 208.889 438.448 209.246 438.584 209.552C438.72 209.847 438.89 210.09 439.094 210.283C439.309 210.476 439.553 210.617 439.825 210.708C440.097 210.799 440.38 210.844 440.675 210.844C440.936 210.844 441.174 210.821 441.389 210.776C441.616 210.719 441.831 210.634 442.035 210.521C442.239 210.408 442.426 210.255 442.596 210.062L443.48 210.929C443.242 211.212 442.976 211.45 442.681 211.643C442.386 211.824 442.063 211.96 441.712 212.051C441.372 212.142 441.004 212.187 440.607 212.187ZM438.38 207.206H442.052C442.052 206.889 442.012 206.611 441.933 206.373C441.854 206.135 441.735 205.931 441.576 205.761C441.429 205.591 441.247 205.466 441.032 205.387C440.817 205.296 440.579 205.251 440.318 205.251C440.069 205.251 439.836 205.291 439.621 205.37C439.417 205.449 439.23 205.568 439.06 205.727C438.89 205.886 438.743 206.09 438.618 206.339C438.505 206.577 438.425 206.866 438.38 207.206ZM446.183 204.129H447.934L447.9 206.373L447.696 206.186C447.753 205.846 447.86 205.54 448.019 205.268C448.178 204.985 448.37 204.747 448.597 204.554C448.835 204.361 449.096 204.214 449.379 204.112C449.662 203.999 449.957 203.942 450.263 203.942C450.694 203.942 451.085 204.016 451.436 204.163C451.787 204.31 452.105 204.531 452.388 204.826L451.674 206.22L451.606 206.373L451.47 206.305C451.436 206.214 451.402 206.124 451.368 206.033C451.334 205.942 451.249 205.835 451.113 205.71C450.943 205.597 450.773 205.512 450.603 205.455C450.444 205.398 450.257 205.37 450.042 205.37C449.77 205.37 449.504 205.421 449.243 205.523C448.994 205.614 448.767 205.761 448.563 205.965C448.359 206.169 448.195 206.43 448.07 206.747C447.957 207.053 447.9 207.427 447.9 207.869V212.017H446.183V204.129ZM462.316 212V201.409H465.614C466.464 201.409 467.155 201.539 467.688 201.8C468.232 202.049 468.629 202.406 468.878 202.871C469.139 203.324 469.269 203.863 469.269 204.486C469.269 204.883 469.184 205.279 469.014 205.676C468.855 206.061 468.617 206.407 468.3 206.713C467.994 207.008 467.631 207.223 467.212 207.359L469.558 212H467.773L465.546 207.512H464.033V212H462.316ZM464.033 206.101H465.733C466.345 206.101 466.798 205.959 467.093 205.676C467.399 205.381 467.552 204.996 467.552 204.52C467.552 204.225 467.484 203.953 467.348 203.704C467.223 203.455 467.025 203.256 466.753 203.109C466.492 202.962 466.152 202.888 465.733 202.888H464.033V206.101ZM474.607 212.187C474.04 212.187 473.519 212.096 473.043 211.915C472.567 211.734 472.153 211.473 471.802 211.133C471.462 210.782 471.196 210.351 471.003 209.841C470.81 209.331 470.714 208.753 470.714 208.107C470.714 207.45 470.81 206.866 471.003 206.356C471.196 205.835 471.456 205.398 471.785 205.047C472.125 204.696 472.516 204.424 472.958 204.231C473.411 204.038 473.893 203.942 474.403 203.942C474.845 203.942 475.264 204.021 475.661 204.18C476.069 204.339 476.42 204.577 476.715 204.894C477.021 205.2 477.259 205.591 477.429 206.067C477.61 206.543 477.701 207.098 477.701 207.733C477.701 207.846 477.701 207.977 477.701 208.124C477.701 208.26 477.695 208.379 477.684 208.481H472.346C472.369 208.889 472.448 209.246 472.584 209.552C472.72 209.847 472.89 210.09 473.094 210.283C473.309 210.476 473.553 210.617 473.825 210.708C474.097 210.799 474.38 210.844 474.675 210.844C474.936 210.844 475.174 210.821 475.389 210.776C475.616 210.719 475.831 210.634 476.035 210.521C476.239 210.408 476.426 210.255 476.596 210.062L477.48 210.929C477.242 211.212 476.976 211.45 476.681 211.643C476.386 211.824 476.063 211.96 475.712 212.051C475.372 212.142 475.004 212.187 474.607 212.187ZM472.38 207.206H476.052C476.052 206.889 476.012 206.611 475.933 206.373C475.854 206.135 475.735 205.931 475.576 205.761C475.429 205.591 475.247 205.466 475.032 205.387C474.817 205.296 474.579 205.251 474.318 205.251C474.069 205.251 473.836 205.291 473.621 205.37C473.417 205.449 473.23 205.568 473.06 205.727C472.89 205.886 472.743 206.09 472.618 206.339C472.505 206.577 472.425 206.866 472.38 207.206ZM479.52 212V204.129H481.22V205.336C481.413 205.053 481.628 204.809 481.866 204.605C482.104 204.401 482.37 204.242 482.665 204.129C482.96 204.004 483.277 203.942 483.617 203.942C484.059 203.942 484.467 204.055 484.841 204.282C485.215 204.509 485.515 204.866 485.742 205.353C485.969 205.829 486.082 206.464 486.082 207.257V212H484.399V207.274C484.399 206.809 484.348 206.43 484.246 206.135C484.144 205.84 483.997 205.625 483.804 205.489C483.623 205.353 483.402 205.285 483.141 205.285C482.914 205.285 482.688 205.336 482.461 205.438C482.234 205.54 482.025 205.682 481.832 205.863C481.651 206.033 481.503 206.248 481.39 206.509C481.277 206.758 481.22 207.042 481.22 207.359V212H479.52ZM490.876 212.187C490.457 212.187 490.049 212.102 489.652 211.932C489.267 211.751 488.921 211.49 488.615 211.15C488.309 210.81 488.065 210.379 487.884 209.858C487.714 209.325 487.629 208.713 487.629 208.022C487.629 207.319 487.714 206.713 487.884 206.203C488.065 205.693 488.309 205.274 488.615 204.945C488.921 204.605 489.272 204.356 489.669 204.197C490.066 204.027 490.479 203.942 490.91 203.942C491.216 203.942 491.494 203.982 491.743 204.061C492.004 204.14 492.236 204.259 492.44 204.418C492.644 204.577 492.808 204.775 492.933 205.013V200.627H494.582H494.735V200.78C494.678 200.848 494.639 200.922 494.616 201.001C494.593 201.08 494.588 201.216 494.599 201.409V210.895C494.599 211.076 494.605 211.263 494.616 211.456C494.639 211.637 494.69 211.819 494.769 212H493.103C493.046 211.875 493.007 211.762 492.984 211.66C492.961 211.558 492.95 211.456 492.95 211.354C492.95 211.252 492.95 211.144 492.95 211.031C492.791 211.269 492.61 211.479 492.406 211.66C492.202 211.83 491.97 211.96 491.709 212.051C491.448 212.142 491.171 212.187 490.876 212.187ZM491.165 210.793C491.471 210.793 491.732 210.731 491.947 210.606C492.162 210.481 492.338 210.3 492.474 210.062C492.61 209.824 492.712 209.535 492.78 209.195C492.848 208.855 492.882 208.47 492.882 208.039C492.882 207.461 492.82 206.968 492.695 206.56C492.57 206.141 492.372 205.823 492.1 205.608C491.839 205.381 491.505 205.268 491.097 205.268C490.802 205.268 490.542 205.33 490.315 205.455C490.088 205.58 489.896 205.761 489.737 205.999C489.59 206.226 489.476 206.503 489.397 206.832C489.318 207.161 489.278 207.529 489.278 207.937C489.278 208.515 489.357 209.019 489.516 209.45C489.686 209.881 489.913 210.215 490.196 210.453C490.479 210.68 490.802 210.793 491.165 210.793ZM500.107 212.187C499.54 212.187 499.019 212.096 498.543 211.915C498.067 211.734 497.653 211.473 497.302 211.133C496.962 210.782 496.696 210.351 496.503 209.841C496.31 209.331 496.214 208.753 496.214 208.107C496.214 207.45 496.31 206.866 496.503 206.356C496.696 205.835 496.956 205.398 497.285 205.047C497.625 204.696 498.016 204.424 498.458 204.231C498.911 204.038 499.393 203.942 499.903 203.942C500.345 203.942 500.764 204.021 501.161 204.18C501.569 204.339 501.92 204.577 502.215 204.894C502.521 205.2 502.759 205.591 502.929 206.067C503.11 206.543 503.201 207.098 503.201 207.733C503.201 207.846 503.201 207.977 503.201 208.124C503.201 208.26 503.195 208.379 503.184 208.481H497.846C497.869 208.889 497.948 209.246 498.084 209.552C498.22 209.847 498.39 210.09 498.594 210.283C498.809 210.476 499.053 210.617 499.325 210.708C499.597 210.799 499.88 210.844 500.175 210.844C500.436 210.844 500.674 210.821 500.889 210.776C501.116 210.719 501.331 210.634 501.535 210.521C501.739 210.408 501.926 210.255 502.096 210.062L502.98 210.929C502.742 211.212 502.476 211.45 502.181 211.643C501.886 211.824 501.563 211.96 501.212 212.051C500.872 212.142 500.504 212.187 500.107 212.187ZM497.88 207.206H501.552C501.552 206.889 501.512 206.611 501.433 206.373C501.354 206.135 501.235 205.931 501.076 205.761C500.929 205.591 500.747 205.466 500.532 205.387C500.317 205.296 500.079 205.251 499.818 205.251C499.569 205.251 499.336 205.291 499.121 205.37C498.917 205.449 498.73 205.568 498.56 205.727C498.39 205.886 498.243 206.09 498.118 206.339C498.005 206.577 497.925 206.866 497.88 207.206ZM505.683 204.129H507.434L507.4 206.373L507.196 206.186C507.253 205.846 507.36 205.54 507.519 205.268C507.678 204.985 507.87 204.747 508.097 204.554C508.335 204.361 508.596 204.214 508.879 204.112C509.162 203.999 509.457 203.942 509.763 203.942C510.194 203.942 510.585 204.016 510.936 204.163C511.287 204.31 511.605 204.531 511.888 204.826L511.174 206.22L511.106 206.373L510.97 206.305C510.936 206.214 510.902 206.124 510.868 206.033C510.834 205.942 510.749 205.835 510.613 205.71C510.443 205.597 510.273 205.512 510.103 205.455C509.944 205.398 509.757 205.37 509.542 205.37C509.27 205.37 509.004 205.421 508.743 205.523C508.494 205.614 508.267 205.761 508.063 205.965C507.859 206.169 507.695 206.43 507.57 206.747C507.457 207.053 507.4 207.427 507.4 207.869V212.017H505.683V204.129ZM517.107 212.187C516.54 212.187 516.019 212.096 515.543 211.915C515.067 211.734 514.653 211.473 514.302 211.133C513.962 210.782 513.696 210.351 513.503 209.841C513.31 209.331 513.214 208.753 513.214 208.107C513.214 207.45 513.31 206.866 513.503 206.356C513.696 205.835 513.956 205.398 514.285 205.047C514.625 204.696 515.016 204.424 515.458 204.231C515.911 204.038 516.393 203.942 516.903 203.942C517.345 203.942 517.764 204.021 518.161 204.18C518.569 204.339 518.92 204.577 519.215 204.894C519.521 205.2 519.759 205.591 519.929 206.067C520.11 206.543 520.201 207.098 520.201 207.733C520.201 207.846 520.201 207.977 520.201 208.124C520.201 208.26 520.195 208.379 520.184 208.481H514.846C514.869 208.889 514.948 209.246 515.084 209.552C515.22 209.847 515.39 210.09 515.594 210.283C515.809 210.476 516.053 210.617 516.325 210.708C516.597 210.799 516.88 210.844 517.175 210.844C517.436 210.844 517.674 210.821 517.889 210.776C518.116 210.719 518.331 210.634 518.535 210.521C518.739 210.408 518.926 210.255 519.096 210.062L519.98 210.929C519.742 211.212 519.476 211.45 519.181 211.643C518.886 211.824 518.563 211.96 518.212 212.051C517.872 212.142 517.504 212.187 517.107 212.187ZM514.88 207.206H518.552C518.552 206.889 518.512 206.611 518.433 206.373C518.354 206.135 518.235 205.931 518.076 205.761C517.929 205.591 517.747 205.466 517.532 205.387C517.317 205.296 517.079 205.251 516.818 205.251C516.569 205.251 516.336 205.291 516.121 205.37C515.917 205.449 515.73 205.568 515.56 205.727C515.39 205.886 515.243 206.09 515.118 206.339C515.005 206.577 514.925 206.866 514.88 207.206ZM524.876 212.187C524.457 212.187 524.049 212.102 523.652 211.932C523.267 211.751 522.921 211.49 522.615 211.15C522.309 210.81 522.065 210.379 521.884 209.858C521.714 209.325 521.629 208.713 521.629 208.022C521.629 207.319 521.714 206.713 521.884 206.203C522.065 205.693 522.309 205.274 522.615 204.945C522.921 204.605 523.272 204.356 523.669 204.197C524.066 204.027 524.479 203.942 524.91 203.942C525.216 203.942 525.494 203.982 525.743 204.061C526.004 204.14 526.236 204.259 526.44 204.418C526.644 204.577 526.808 204.775 526.933 205.013V200.627H528.582H528.735V200.78C528.678 200.848 528.639 200.922 528.616 201.001C528.593 201.08 528.588 201.216 528.599 201.409V210.895C528.599 211.076 528.605 211.263 528.616 211.456C528.639 211.637 528.69 211.819 528.769 212H527.103C527.046 211.875 527.007 211.762 526.984 211.66C526.961 211.558 526.95 211.456 526.95 211.354C526.95 211.252 526.95 211.144 526.95 211.031C526.791 211.269 526.61 211.479 526.406 211.66C526.202 211.83 525.97 211.96 525.709 212.051C525.448 212.142 525.171 212.187 524.876 212.187ZM525.165 210.793C525.471 210.793 525.732 210.731 525.947 210.606C526.162 210.481 526.338 210.3 526.474 210.062C526.61 209.824 526.712 209.535 526.78 209.195C526.848 208.855 526.882 208.47 526.882 208.039C526.882 207.461 526.82 206.968 526.695 206.56C526.57 206.141 526.372 205.823 526.1 205.608C525.839 205.381 525.505 205.268 525.097 205.268C524.802 205.268 524.542 205.33 524.315 205.455C524.088 205.58 523.896 205.761 523.737 205.999C523.59 206.226 523.476 206.503 523.397 206.832C523.318 207.161 523.278 207.529 523.278 207.937C523.278 208.515 523.357 209.019 523.516 209.45C523.686 209.881 523.913 210.215 524.196 210.453C524.479 210.68 524.802 210.793 525.165 210.793Z" fill="#521E64"/>
<path d="M252.867 446V435.409H256.42C257.225 435.409 257.882 435.551 258.392 435.834C258.913 436.106 259.299 436.474 259.548 436.939C259.797 437.404 259.922 437.914 259.922 438.469C259.922 438.888 259.854 439.279 259.718 439.642C259.582 440.005 259.372 440.328 259.089 440.611C258.817 440.883 258.466 441.098 258.035 441.257C257.604 441.404 257.094 441.478 256.505 441.478H254.584V446H252.867ZM254.584 440.067H256.369C256.788 440.067 257.128 440.005 257.389 439.88C257.661 439.744 257.865 439.557 258.001 439.319C258.137 439.07 258.205 438.792 258.205 438.486C258.205 438.18 258.137 437.908 258.001 437.67C257.865 437.432 257.661 437.245 257.389 437.109C257.128 436.962 256.794 436.888 256.386 436.888H254.584V440.067ZM264.155 446.187C263.838 446.187 263.537 446.142 263.254 446.051C262.982 445.972 262.733 445.841 262.506 445.66C262.279 445.479 262.081 445.252 261.911 444.98C261.752 444.708 261.628 444.379 261.537 443.994C261.458 443.609 261.418 443.172 261.418 442.685L261.435 438.129H263.101V442.685C263.101 443.082 263.135 443.422 263.203 443.705C263.282 443.977 263.384 444.198 263.509 444.368C263.645 444.538 263.798 444.663 263.968 444.742C264.138 444.81 264.319 444.844 264.512 444.844C264.761 444.844 264.994 444.799 265.209 444.708C265.424 444.617 265.611 444.481 265.77 444.3C265.94 444.107 266.065 443.869 266.144 443.586C266.235 443.291 266.28 442.951 266.28 442.566V438.129H267.98V444.759C267.98 444.986 267.986 445.201 267.997 445.405C268.02 445.598 268.071 445.796 268.15 446H266.569C266.512 445.875 266.473 445.756 266.45 445.643C266.427 445.518 266.41 445.399 266.399 445.286C266.399 445.161 266.399 445.037 266.399 444.912C266.286 445.127 266.144 445.314 265.974 445.473C265.815 445.632 265.634 445.768 265.43 445.881C265.237 445.983 265.033 446.057 264.818 446.102C264.614 446.159 264.393 446.187 264.155 446.187ZM270.683 438.129H272.434L272.4 440.373L272.196 440.186C272.253 439.846 272.36 439.54 272.519 439.268C272.678 438.985 272.87 438.747 273.097 438.554C273.335 438.361 273.596 438.214 273.879 438.112C274.162 437.999 274.457 437.942 274.763 437.942C275.194 437.942 275.585 438.016 275.936 438.163C276.287 438.31 276.605 438.531 276.888 438.826L276.174 440.22L276.106 440.373L275.97 440.305C275.936 440.214 275.902 440.124 275.868 440.033C275.834 439.942 275.749 439.835 275.613 439.71C275.443 439.597 275.273 439.512 275.103 439.455C274.944 439.398 274.757 439.37 274.542 439.37C274.27 439.37 274.004 439.421 273.743 439.523C273.494 439.614 273.267 439.761 273.063 439.965C272.859 440.169 272.695 440.43 272.57 440.747C272.457 441.053 272.4 441.427 272.4 441.869V446.017H270.683V438.129ZM282.107 446.187C281.54 446.187 281.019 446.096 280.543 445.915C280.067 445.734 279.653 445.473 279.302 445.133C278.962 444.782 278.696 444.351 278.503 443.841C278.31 443.331 278.214 442.753 278.214 442.107C278.214 441.45 278.31 440.866 278.503 440.356C278.696 439.835 278.956 439.398 279.285 439.047C279.625 438.696 280.016 438.424 280.458 438.231C280.911 438.038 281.393 437.942 281.903 437.942C282.345 437.942 282.764 438.021 283.161 438.18C283.569 438.339 283.92 438.577 284.215 438.894C284.521 439.2 284.759 439.591 284.929 440.067C285.11 440.543 285.201 441.098 285.201 441.733C285.201 441.846 285.201 441.977 285.201 442.124C285.201 442.26 285.195 442.379 285.184 442.481H279.846C279.869 442.889 279.948 443.246 280.084 443.552C280.22 443.847 280.39 444.09 280.594 444.283C280.809 444.476 281.053 444.617 281.325 444.708C281.597 444.799 281.88 444.844 282.175 444.844C282.436 444.844 282.674 444.821 282.889 444.776C283.116 444.719 283.331 444.634 283.535 444.521C283.739 444.408 283.926 444.255 284.096 444.062L284.98 444.929C284.742 445.212 284.476 445.45 284.181 445.643C283.886 445.824 283.563 445.96 283.212 446.051C282.872 446.142 282.504 446.187 282.107 446.187ZM279.88 441.206H283.552C283.552 440.889 283.512 440.611 283.433 440.373C283.354 440.135 283.235 439.931 283.076 439.761C282.929 439.591 282.747 439.466 282.532 439.387C282.317 439.296 282.079 439.251 281.818 439.251C281.569 439.251 281.336 439.291 281.121 439.37C280.917 439.449 280.73 439.568 280.56 439.727C280.39 439.886 280.243 440.09 280.118 440.339C280.005 440.577 279.925 440.866 279.88 441.206ZM299.277 446.187C298.699 446.187 298.155 446.079 297.645 445.864C297.146 445.649 296.704 445.32 296.319 444.878C295.934 444.436 295.628 443.875 295.401 443.195C295.186 442.515 295.078 441.705 295.078 440.764C295.078 439.937 295.157 439.217 295.316 438.605C295.486 437.982 295.713 437.46 295.996 437.041C296.279 436.61 296.602 436.27 296.965 436.021C297.328 435.76 297.707 435.573 298.104 435.46C298.501 435.335 298.897 435.273 299.294 435.273C300.087 435.273 300.762 435.46 301.317 435.834C301.884 436.197 302.309 436.701 302.592 437.347L301.453 438.112L301.317 438.197L301.232 438.078C301.255 437.987 301.249 437.902 301.215 437.823C301.192 437.732 301.13 437.613 301.028 437.466C300.779 437.137 300.512 436.916 300.229 436.803C299.946 436.69 299.657 436.633 299.362 436.633C298.999 436.633 298.654 436.724 298.325 436.905C298.008 437.075 297.73 437.33 297.492 437.67C297.254 438.01 297.067 438.435 296.931 438.945C296.795 439.444 296.727 440.022 296.727 440.679C296.727 441.314 296.789 441.886 296.914 442.396C297.05 442.895 297.231 443.325 297.458 443.688C297.696 444.039 297.968 444.311 298.274 444.504C298.591 444.685 298.931 444.776 299.294 444.776C299.577 444.776 299.838 444.736 300.076 444.657C300.314 444.578 300.535 444.447 300.739 444.266C300.943 444.073 301.124 443.847 301.283 443.586L302.473 444.419C302.099 445.042 301.651 445.496 301.13 445.779C300.609 446.051 299.991 446.187 299.277 446.187ZM304.156 446V444.657H306.4V435.97H304.258V434.627H308.117V444.657H310.344V446H304.156ZM313.03 446V444.657H314.985V439.472H313.115V438.129H316.685V444.657H318.47V446H313.03ZM315.733 436.718C315.427 436.718 315.166 436.616 314.951 436.412C314.747 436.197 314.645 435.947 314.645 435.664C314.645 435.358 314.747 435.103 314.951 434.899C315.155 434.695 315.416 434.593 315.733 434.593C316.028 434.593 316.283 434.701 316.498 434.916C316.725 435.131 316.838 435.381 316.838 435.664C316.838 435.947 316.725 436.197 316.498 436.412C316.283 436.616 316.028 436.718 315.733 436.718ZM324.607 446.187C324.04 446.187 323.519 446.096 323.043 445.915C322.567 445.734 322.153 445.473 321.802 445.133C321.462 444.782 321.196 444.351 321.003 443.841C320.81 443.331 320.714 442.753 320.714 442.107C320.714 441.45 320.81 440.866 321.003 440.356C321.196 439.835 321.456 439.398 321.785 439.047C322.125 438.696 322.516 438.424 322.958 438.231C323.411 438.038 323.893 437.942 324.403 437.942C324.845 437.942 325.264 438.021 325.661 438.18C326.069 438.339 326.42 438.577 326.715 438.894C327.021 439.2 327.259 439.591 327.429 440.067C327.61 440.543 327.701 441.098 327.701 441.733C327.701 441.846 327.701 441.977 327.701 442.124C327.701 442.26 327.695 442.379 327.684 442.481H322.346C322.369 442.889 322.448 443.246 322.584 443.552C322.72 443.847 322.89 444.09 323.094 444.283C323.309 444.476 323.553 444.617 323.825 444.708C324.097 444.799 324.38 444.844 324.675 444.844C324.936 444.844 325.174 444.821 325.389 444.776C325.616 444.719 325.831 444.634 326.035 444.521C326.239 444.408 326.426 444.255 326.596 444.062L327.48 444.929C327.242 445.212 326.976 445.45 326.681 445.643C326.386 445.824 326.063 445.96 325.712 446.051C325.372 446.142 325.004 446.187 324.607 446.187ZM322.38 441.206H326.052C326.052 440.889 326.012 440.611 325.933 440.373C325.854 440.135 325.735 439.931 325.576 439.761C325.429 439.591 325.247 439.466 325.032 439.387C324.817 439.296 324.579 439.251 324.318 439.251C324.069 439.251 323.836 439.291 323.621 439.37C323.417 439.449 323.23 439.568 323.06 439.727C322.89 439.886 322.743 440.09 322.618 440.339C322.505 440.577 322.425 440.866 322.38 441.206ZM329.52 446V438.129H331.22V439.336C331.413 439.053 331.628 438.809 331.866 438.605C332.104 438.401 332.37 438.242 332.665 438.129C332.96 438.004 333.277 437.942 333.617 437.942C334.059 437.942 334.467 438.055 334.841 438.282C335.215 438.509 335.515 438.866 335.742 439.353C335.969 439.829 336.082 440.464 336.082 441.257V446H334.399V441.274C334.399 440.809 334.348 440.43 334.246 440.135C334.144 439.84 333.997 439.625 333.804 439.489C333.623 439.353 333.402 439.285 333.141 439.285C332.914 439.285 332.688 439.336 332.461 439.438C332.234 439.54 332.025 439.682 331.832 439.863C331.651 440.033 331.503 440.248 331.39 440.509C331.277 440.758 331.22 441.042 331.22 441.359V446H329.52ZM342.083 446.153C341.618 446.153 341.216 446.079 340.876 445.932C340.547 445.773 340.281 445.524 340.077 445.184C339.884 444.844 339.748 444.402 339.669 443.858C339.59 443.314 339.561 442.651 339.584 441.869L339.805 436.225L341.539 436.004L341.709 435.987L341.726 436.14C341.669 436.219 341.618 436.299 341.573 436.378C341.539 436.457 341.511 436.593 341.488 436.786L341.318 438.979L341.386 439.166L341.267 441.869C341.233 442.64 341.256 443.24 341.335 443.671C341.414 444.09 341.55 444.385 341.743 444.555C341.936 444.714 342.168 444.793 342.44 444.793C342.803 444.793 343.126 444.719 343.409 444.572C343.704 444.425 343.993 444.243 344.276 444.028L344.65 445.286C344.265 445.569 343.862 445.785 343.443 445.932C343.024 446.079 342.57 446.153 342.083 446.153ZM338.054 438.129H343.987L343.97 439.489H338.054V438.129Z" fill="#521E64"/>
<path d="M236.53 88V69.31H242.8C244.22 69.31 245.38 69.56 246.28 70.06C247.2 70.54 247.88 71.19 248.32 72.01C248.76 72.83 248.98 73.73 248.98 74.71C248.98 75.45 248.86 76.14 248.62 76.78C248.38 77.42 248.01 77.99 247.51 78.49C247.03 78.97 246.41 79.35 245.65 79.63C244.89 79.89 243.99 80.02 242.95 80.02H239.56V88H236.53ZM239.56 77.53H242.71C243.45 77.53 244.05 77.42 244.51 77.2C244.99 76.96 245.35 76.63 245.59 76.21C245.83 75.77 245.95 75.28 245.95 74.74C245.95 74.2 245.83 73.72 245.59 73.3C245.35 72.88 244.99 72.55 244.51 72.31C244.05 72.05 243.46 71.92 242.74 71.92H239.56V77.53ZM256.45 88.33C255.89 88.33 255.36 88.25 254.86 88.09C254.38 87.95 253.94 87.72 253.54 87.4C253.14 87.08 252.79 86.68 252.49 86.2C252.21 85.72 251.99 85.14 251.83 84.46C251.69 83.78 251.62 83.01 251.62 82.15L251.65 74.11H254.59V82.15C254.59 82.85 254.65 83.45 254.77 83.95C254.91 84.43 255.09 84.82 255.31 85.12C255.55 85.42 255.82 85.64 256.12 85.78C256.42 85.9 256.74 85.96 257.08 85.96C257.52 85.96 257.93 85.88 258.31 85.72C258.69 85.56 259.02 85.32 259.3 85C259.6 84.66 259.82 84.24 259.96 83.74C260.12 83.22 260.2 82.62 260.2 81.94V74.11H263.2V85.81C263.2 86.21 263.21 86.59 263.23 86.95C263.27 87.29 263.36 87.64 263.5 88H260.71C260.61 87.78 260.54 87.57 260.5 87.37C260.46 87.15 260.43 86.94 260.41 86.74C260.41 86.52 260.41 86.3 260.41 86.08C260.21 86.46 259.96 86.79 259.66 87.07C259.38 87.35 259.06 87.59 258.7 87.79C258.36 87.97 258 88.1 257.62 88.18C257.26 88.28 256.87 88.33 256.45 88.33ZM273.22 88.33C272.72 88.33 272.23 88.25 271.75 88.09C271.29 87.95 270.85 87.74 270.43 87.46C270.03 87.16 269.67 86.8 269.35 86.38L268.72 88H266.56V67.93H269.56H269.83V68.2C269.73 68.32 269.66 68.45 269.62 68.59C269.6 68.73 269.59 68.97 269.59 69.31V75.88C269.79 75.56 270.03 75.28 270.31 75.04C270.59 74.78 270.89 74.56 271.21 74.38C271.55 74.18 271.9 74.03 272.26 73.93C272.64 73.83 273.01 73.78 273.37 73.78C274.21 73.8 274.97 73.96 275.65 74.26C276.35 74.54 276.95 74.98 277.45 75.58C277.95 76.16 278.33 76.89 278.59 77.77C278.87 78.65 279.01 79.68 279.01 80.86C279.01 82.12 278.85 83.22 278.53 84.16C278.23 85.1 277.81 85.88 277.27 86.5C276.73 87.12 276.11 87.58 275.41 87.88C274.71 88.18 273.98 88.33 273.22 88.33ZM272.71 85.93C273.15 85.93 273.56 85.85 273.94 85.69C274.34 85.53 274.69 85.26 274.99 84.88C275.31 84.5 275.56 84 275.74 83.38C275.92 82.76 276.01 82.01 276.01 81.13C276.01 80.31 275.93 79.59 275.77 78.97C275.63 78.35 275.42 77.83 275.14 77.41C274.86 76.97 274.51 76.65 274.09 76.45C273.69 76.23 273.25 76.12 272.77 76.12C272.11 76.12 271.54 76.32 271.06 76.72C270.6 77.12 270.24 77.69 269.98 78.43C269.72 79.15 269.59 80.01 269.59 81.01C269.59 81.79 269.65 82.49 269.77 83.11C269.89 83.71 270.07 84.22 270.31 84.64C270.57 85.06 270.89 85.38 271.27 85.6C271.67 85.82 272.15 85.93 272.71 85.93ZM282.04 88V85.63H286V70.3H282.22V67.93H289.03V85.63H292.96V88H282.04ZM297.7 88V85.63H301.15V76.48H297.85V74.11H304.15V85.63H307.3V88H297.7ZM302.47 71.62C301.93 71.62 301.47 71.44 301.09 71.08C300.73 70.7 300.55 70.26 300.55 69.76C300.55 69.22 300.73 68.77 301.09 68.41C301.45 68.05 301.91 67.87 302.47 67.87C302.99 67.87 303.44 68.06 303.82 68.44C304.22 68.82 304.42 69.26 304.42 69.76C304.42 70.26 304.22 70.7 303.82 71.08C303.44 71.44 302.99 71.62 302.47 71.62ZM318.43 88.33C317.41 88.33 316.46 88.16 315.58 87.82C314.72 87.46 313.97 86.96 313.33 86.32C312.71 85.66 312.22 84.9 311.86 84.04C311.52 83.16 311.35 82.2 311.35 81.16C311.35 80.12 311.52 79.16 311.86 78.28C312.22 77.38 312.71 76.6 313.33 75.94C313.97 75.28 314.72 74.77 315.58 74.41C316.46 74.03 317.4 73.84 318.4 73.84C319.64 73.84 320.72 74.07 321.64 74.53C322.58 74.99 323.34 75.64 323.92 76.48L322.21 78.28L322 78.49L321.82 78.31C321.8 78.15 321.76 78 321.7 77.86C321.66 77.7 321.53 77.49 321.31 77.23C320.91 76.87 320.47 76.62 319.99 76.48C319.51 76.32 318.96 76.24 318.34 76.24C317.82 76.24 317.32 76.35 316.84 76.57C316.38 76.79 315.96 77.11 315.58 77.53C315.22 77.95 314.93 78.46 314.71 79.06C314.49 79.66 314.38 80.33 314.38 81.07C314.38 81.79 314.49 82.45 314.71 83.05C314.93 83.63 315.23 84.13 315.61 84.55C315.99 84.95 316.43 85.27 316.93 85.51C317.45 85.73 317.99 85.84 318.55 85.84C318.99 85.84 319.41 85.79 319.81 85.69C320.23 85.57 320.63 85.39 321.01 85.15C321.39 84.89 321.75 84.56 322.09 84.16L323.74 86.08C323.02 86.86 322.19 87.43 321.25 87.79C320.33 88.15 319.39 88.33 318.43 88.33ZM341.05 88V69.31H343.57L347.53 78.07L351.55 69.28H354.04V88H351.43V74.59L348.13 81.7H346.75L343.63 74.65V88H341.05ZM361.06 88.33C359.52 88.33 358.32 87.98 357.46 87.28C356.62 86.56 356.2 85.63 356.2 84.49C356.2 83.73 356.37 83.05 356.71 82.45C357.07 81.83 357.57 81.3 358.21 80.86C358.87 80.42 359.66 80.08 360.58 79.84C361.5 79.58 362.54 79.45 363.7 79.45C363.94 79.45 364.19 79.46 364.45 79.48C364.73 79.48 365.02 79.49 365.32 79.51C365.64 79.53 365.96 79.55 366.28 79.57L366.37 81.7C366.09 81.66 365.79 81.63 365.47 81.61C365.17 81.59 364.87 81.58 364.57 81.58C364.27 81.58 363.99 81.58 363.73 81.58C362.95 81.58 362.27 81.64 361.69 81.76C361.13 81.86 360.66 82.02 360.28 82.24C359.92 82.46 359.65 82.73 359.47 83.05C359.29 83.37 359.2 83.74 359.2 84.16C359.2 84.5 359.26 84.8 359.38 85.06C359.5 85.3 359.66 85.49 359.86 85.63C360.08 85.77 360.33 85.88 360.61 85.96C360.91 86.02 361.23 86.05 361.57 86.05C362.23 86.05 362.81 85.94 363.31 85.72C363.81 85.5 364.23 85.18 364.57 84.76C364.93 84.32 365.2 83.78 365.38 83.14C365.56 82.48 365.65 81.71 365.65 80.83C365.65 79.61 365.51 78.66 365.23 77.98C364.97 77.3 364.58 76.83 364.06 76.57C363.54 76.31 362.89 76.18 362.11 76.18C361.47 76.18 360.85 76.29 360.25 76.51C359.67 76.71 359.1 77.09 358.54 77.65L356.95 75.85C357.71 75.13 358.54 74.61 359.44 74.29C360.36 73.97 361.3 73.81 362.26 73.81C363.14 73.81 363.95 73.92 364.69 74.14C365.45 74.34 366.11 74.68 366.67 75.16C367.25 75.64 367.69 76.29 367.99 77.11C368.31 77.93 368.47 78.97 368.47 80.23V88H365.35V86.29C365.09 86.69 364.8 87.03 364.48 87.31C364.16 87.57 363.81 87.78 363.43 87.94C363.07 88.08 362.69 88.18 362.29 88.24C361.89 88.3 361.48 88.33 361.06 88.33ZM372.97 74.11H376.06L376 78.07L375.64 77.74C375.74 77.14 375.93 76.6 376.21 76.12C376.49 75.62 376.83 75.2 377.23 74.86C377.65 74.52 378.11 74.26 378.61 74.08C379.11 73.88 379.63 73.78 380.17 73.78C380.93 73.78 381.62 73.91 382.24 74.17C382.86 74.43 383.42 74.82 383.92 75.34L382.66 77.8L382.54 78.07L382.3 77.95C382.24 77.79 382.18 77.63 382.12 77.47C382.06 77.31 381.91 77.12 381.67 76.9C381.37 76.7 381.07 76.55 380.77 76.45C380.49 76.35 380.16 76.3 379.78 76.3C379.3 76.3 378.83 76.39 378.37 76.57C377.93 76.73 377.53 76.99 377.17 77.35C376.81 77.71 376.52 78.17 376.3 78.73C376.1 79.27 376 79.93 376 80.71V88.03H372.97V74.11ZM391.09 81.49L389.71 82.78V88H386.71V67.93H389.68H389.98V68.2C389.86 68.32 389.78 68.45 389.74 68.59C389.72 68.73 389.71 68.97 389.71 69.31V79.6L395.59 74.02C395.73 74.06 395.88 74.09 396.04 74.11C396.2 74.13 396.36 74.15 396.52 74.17C396.7 74.17 396.87 74.18 397.03 74.2C397.19 74.2 397.33 74.2 397.45 74.2H398.8L393.19 79.66L399.61 88L396.13 88.12L391.09 81.49ZM408.13 88.33C407.13 88.33 406.21 88.17 405.37 87.85C404.53 87.53 403.8 87.07 403.18 86.47C402.58 85.85 402.11 85.09 401.77 84.19C401.43 83.29 401.26 82.27 401.26 81.13C401.26 79.97 401.43 78.94 401.77 78.04C402.11 77.12 402.57 76.35 403.15 75.73C403.75 75.11 404.44 74.63 405.22 74.29C406.02 73.95 406.87 73.78 407.77 73.78C408.55 73.78 409.29 73.92 409.99 74.2C410.71 74.48 411.33 74.9 411.85 75.46C412.39 76 412.81 76.69 413.11 77.53C413.43 78.37 413.59 79.35 413.59 80.47C413.59 80.67 413.59 80.9 413.59 81.16C413.59 81.4 413.58 81.61 413.56 81.79H404.14C404.18 82.51 404.32 83.14 404.56 83.68C404.8 84.2 405.1 84.63 405.46 84.97C405.84 85.31 406.27 85.56 406.75 85.72C407.23 85.88 407.73 85.96 408.25 85.96C408.71 85.96 409.13 85.92 409.51 85.84C409.91 85.74 410.29 85.59 410.65 85.39C411.01 85.19 411.34 84.92 411.64 84.58L413.2 86.11C412.78 86.61 412.31 87.03 411.79 87.37C411.27 87.69 410.7 87.93 410.08 88.09C409.48 88.25 408.83 88.33 408.13 88.33ZM404.2 79.54H410.68C410.68 78.98 410.61 78.49 410.47 78.07C410.33 77.65 410.12 77.29 409.84 76.99C409.58 76.69 409.26 76.47 408.88 76.33C408.5 76.17 408.08 76.09 407.62 76.09C407.18 76.09 406.77 76.16 406.39 76.3C406.03 76.44 405.7 76.65 405.4 76.93C405.1 77.21 404.84 77.57 404.62 78.01C404.42 78.43 404.28 78.94 404.2 79.54ZM423.97 88.27C423.15 88.27 422.44 88.14 421.84 87.88C421.26 87.6 420.79 87.16 420.43 86.56C420.09 85.96 419.85 85.18 419.71 84.22C419.57 83.26 419.52 82.09 419.56 80.71L419.95 70.75L423.01 70.36L423.31 70.33L423.34 70.6C423.24 70.74 423.15 70.88 423.07 71.02C423.01 71.16 422.96 71.4 422.92 71.74L422.62 75.61L422.74 75.94L422.53 80.71C422.47 82.07 422.51 83.13 422.65 83.89C422.79 84.63 423.03 85.15 423.37 85.45C423.71 85.73 424.12 85.87 424.6 85.87C425.24 85.87 425.81 85.74 426.31 85.48C426.83 85.22 427.34 84.9 427.84 84.52L428.5 86.74C427.82 87.24 427.11 87.62 426.37 87.88C425.63 88.14 424.83 88.27 423.97 88.27ZM416.86 74.11H427.33L427.3 76.51H416.86V74.11ZM432.7 88V85.63H436.15V76.48H432.85V74.11H439.15V85.63H442.3V88H432.7ZM437.47 71.62C436.93 71.62 436.47 71.44 436.09 71.08C435.73 70.7 435.55 70.26 435.55 69.76C435.55 69.22 435.73 68.77 436.09 68.41C436.45 68.05 436.91 67.87 437.47 67.87C437.99 67.87 438.44 68.06 438.82 68.44C439.22 68.82 439.42 69.26 439.42 69.76C439.42 70.26 439.22 70.7 438.82 71.08C438.44 71.44 437.99 71.62 437.47 71.62ZM446.8 88V74.11H449.8V76.24C450.14 75.74 450.52 75.31 450.94 74.95C451.36 74.59 451.83 74.31 452.35 74.11C452.87 73.89 453.43 73.78 454.03 73.78C454.81 73.78 455.53 73.98 456.19 74.38C456.85 74.78 457.38 75.41 457.78 76.27C458.18 77.11 458.38 78.23 458.38 79.63V88H455.41V79.66C455.41 78.84 455.32 78.17 455.14 77.65C454.96 77.13 454.7 76.75 454.36 76.51C454.04 76.27 453.65 76.15 453.19 76.15C452.79 76.15 452.39 76.24 451.99 76.42C451.59 76.6 451.22 76.85 450.88 77.17C450.56 77.47 450.3 77.85 450.1 78.31C449.9 78.75 449.8 79.25 449.8 79.81V88H446.8ZM467.23 93.28C466.27 93.28 465.4 93.2 464.62 93.04C463.84 92.88 463.17 92.64 462.61 92.32C462.07 92.02 461.66 91.64 461.38 91.18C461.1 90.74 460.96 90.24 460.96 89.68C460.96 89.16 461.08 88.69 461.32 88.27C461.56 87.85 461.88 87.49 462.28 87.19C462.68 86.87 463.12 86.63 463.6 86.47L464.92 87.07C464.6 87.27 464.32 87.47 464.08 87.67C463.84 87.87 463.65 88.09 463.51 88.33C463.39 88.59 463.33 88.89 463.33 89.23C463.33 89.53 463.43 89.79 463.63 90.01C463.83 90.23 464.11 90.41 464.47 90.55C464.83 90.69 465.26 90.8 465.76 90.88C466.26 90.96 466.82 91 467.44 91C468.26 91 468.94 90.92 469.48 90.76C470.02 90.62 470.42 90.41 470.68 90.13C470.96 89.85 471.1 89.53 471.1 89.17C471.1 88.81 471.02 88.52 470.86 88.3C470.7 88.1 470.4 87.95 469.96 87.85C469.52 87.73 468.88 87.67 468.04 87.67C467.36 87.67 466.71 87.65 466.09 87.61C465.49 87.55 464.93 87.45 464.41 87.31C463.91 87.17 463.47 86.99 463.09 86.77C462.71 86.55 462.41 86.28 462.19 85.96C461.99 85.62 461.89 85.22 461.89 84.76C461.89 84.16 462.07 83.62 462.43 83.14C462.79 82.64 463.24 82.19 463.78 81.79L465.13 82.63C464.95 82.83 464.79 83 464.65 83.14C464.51 83.28 464.4 83.42 464.32 83.56C464.24 83.68 464.2 83.83 464.2 84.01C464.2 84.27 464.35 84.49 464.65 84.67C464.95 84.85 465.43 84.98 466.09 85.06C466.77 85.14 467.67 85.18 468.79 85.18C469.73 85.18 470.51 85.28 471.13 85.48C471.77 85.66 472.27 85.92 472.63 86.26C472.99 86.6 473.24 86.99 473.38 87.43C473.54 87.85 473.62 88.32 473.62 88.84C473.62 89.4 473.5 89.94 473.26 90.46C473.02 91 472.64 91.48 472.12 91.9C471.62 92.32 470.96 92.65 470.14 92.89C469.34 93.15 468.37 93.28 467.23 93.28ZM466.84 83.32C465.86 83.32 464.99 83.11 464.23 82.69C463.47 82.25 462.87 81.67 462.43 80.95C462.01 80.23 461.8 79.42 461.8 78.52C461.8 77.62 462.01 76.81 462.43 76.09C462.87 75.35 463.47 74.77 464.23 74.35C464.99 73.91 465.86 73.69 466.84 73.69C467.84 73.69 468.72 73.91 469.48 74.35C470.24 74.77 470.83 75.35 471.25 76.09C471.69 76.81 471.91 77.62 471.91 78.52C471.91 79.42 471.69 80.23 471.25 80.95C470.83 81.67 470.24 82.25 469.48 82.69C468.72 83.11 467.84 83.32 466.84 83.32ZM466.84 81.07C467.34 81.07 467.78 80.96 468.16 80.74C468.54 80.52 468.84 80.22 469.06 79.84C469.28 79.44 469.39 79 469.39 78.52C469.39 78.02 469.28 77.59 469.06 77.23C468.84 76.85 468.53 76.55 468.13 76.33C467.75 76.11 467.32 76 466.84 76C466.38 76 465.96 76.11 465.58 76.33C465.2 76.55 464.89 76.85 464.65 77.23C464.43 77.61 464.32 78.04 464.32 78.52C464.32 78.98 464.43 79.41 464.65 79.81C464.87 80.19 465.17 80.5 465.55 80.74C465.93 80.96 466.36 81.07 466.84 81.07ZM471.07 76.57L469.93 75.16C470.51 74.68 471.14 74.32 471.82 74.08C472.52 73.82 473.29 73.72 474.13 73.78L474.43 75.91C473.81 75.83 473.21 75.84 472.63 75.94C472.05 76.02 471.53 76.23 471.07 76.57ZM491.53 88V69.31H497.8C499.22 69.31 500.38 69.56 501.28 70.06C502.2 70.54 502.88 71.19 503.32 72.01C503.76 72.83 503.98 73.73 503.98 74.71C503.98 75.45 503.86 76.14 503.62 76.78C503.38 77.42 503.01 77.99 502.51 78.49C502.03 78.97 501.41 79.35 500.65 79.63C499.89 79.89 498.99 80.02 497.95 80.02H494.56V88H491.53ZM494.56 77.53H497.71C498.45 77.53 499.05 77.42 499.51 77.2C499.99 76.96 500.35 76.63 500.59 76.21C500.83 75.77 500.95 75.28 500.95 74.74C500.95 74.2 500.83 73.72 500.59 73.3C500.35 72.88 499.99 72.55 499.51 72.31C499.05 72.05 498.46 71.92 497.74 71.92H494.56V77.53ZM511.06 88.33C509.52 88.33 508.32 87.98 507.46 87.28C506.62 86.56 506.2 85.63 506.2 84.49C506.2 83.73 506.37 83.05 506.71 82.45C507.07 81.83 507.57 81.3 508.21 80.86C508.87 80.42 509.66 80.08 510.58 79.84C511.5 79.58 512.54 79.45 513.7 79.45C513.94 79.45 514.19 79.46 514.45 79.48C514.73 79.48 515.02 79.49 515.32 79.51C515.64 79.53 515.96 79.55 516.28 79.57L516.37 81.7C516.09 81.66 515.79 81.63 515.47 81.61C515.17 81.59 514.87 81.58 514.57 81.58C514.27 81.58 513.99 81.58 513.73 81.58C512.95 81.58 512.27 81.64 511.69 81.76C511.13 81.86 510.66 82.02 510.28 82.24C509.92 82.46 509.65 82.73 509.47 83.05C509.29 83.37 509.2 83.74 509.2 84.16C509.2 84.5 509.26 84.8 509.38 85.06C509.5 85.3 509.66 85.49 509.86 85.63C510.08 85.77 510.33 85.88 510.61 85.96C510.91 86.02 511.23 86.05 511.57 86.05C512.23 86.05 512.81 85.94 513.31 85.72C513.81 85.5 514.23 85.18 514.57 84.76C514.93 84.32 515.2 83.78 515.38 83.14C515.56 82.48 515.65 81.71 515.65 80.83C515.65 79.61 515.51 78.66 515.23 77.98C514.97 77.3 514.58 76.83 514.06 76.57C513.54 76.31 512.89 76.18 512.11 76.18C511.47 76.18 510.85 76.29 510.25 76.51C509.67 76.71 509.1 77.09 508.54 77.65L506.95 75.85C507.71 75.13 508.54 74.61 509.44 74.29C510.36 73.97 511.3 73.81 512.26 73.81C513.14 73.81 513.95 73.92 514.69 74.14C515.45 74.34 516.11 74.68 516.67 75.16C517.25 75.64 517.69 76.29 517.99 77.11C518.31 77.93 518.47 78.97 518.47 80.23V88H515.35V86.29C515.09 86.69 514.8 87.03 514.48 87.31C514.16 87.57 513.81 87.78 513.43 87.94C513.07 88.08 512.69 88.18 512.29 88.24C511.89 88.3 511.48 88.33 511.06 88.33ZM527.23 93.28C526.27 93.28 525.4 93.2 524.62 93.04C523.84 92.88 523.17 92.64 522.61 92.32C522.07 92.02 521.66 91.64 521.38 91.18C521.1 90.74 520.96 90.24 520.96 89.68C520.96 89.16 521.08 88.69 521.32 88.27C521.56 87.85 521.88 87.49 522.28 87.19C522.68 86.87 523.12 86.63 523.6 86.47L524.92 87.07C524.6 87.27 524.32 87.47 524.08 87.67C523.84 87.87 523.65 88.09 523.51 88.33C523.39 88.59 523.33 88.89 523.33 89.23C523.33 89.53 523.43 89.79 523.63 90.01C523.83 90.23 524.11 90.41 524.47 90.55C524.83 90.69 525.26 90.8 525.76 90.88C526.26 90.96 526.82 91 527.44 91C528.26 91 528.94 90.92 529.48 90.76C530.02 90.62 530.42 90.41 530.68 90.13C530.96 89.85 531.1 89.53 531.1 89.17C531.1 88.81 531.02 88.52 530.86 88.3C530.7 88.1 530.4 87.95 529.96 87.85C529.52 87.73 528.88 87.67 528.04 87.67C527.36 87.67 526.71 87.65 526.09 87.61C525.49 87.55 524.93 87.45 524.41 87.31C523.91 87.17 523.47 86.99 523.09 86.77C522.71 86.55 522.41 86.28 522.19 85.96C521.99 85.62 521.89 85.22 521.89 84.76C521.89 84.16 522.07 83.62 522.43 83.14C522.79 82.64 523.24 82.19 523.78 81.79L525.13 82.63C524.95 82.83 524.79 83 524.65 83.14C524.51 83.28 524.4 83.42 524.32 83.56C524.24 83.68 524.2 83.83 524.2 84.01C524.2 84.27 524.35 84.49 524.65 84.67C524.95 84.85 525.43 84.98 526.09 85.06C526.77 85.14 527.67 85.18 528.79 85.18C529.73 85.18 530.51 85.28 531.13 85.48C531.77 85.66 532.27 85.92 532.63 86.26C532.99 86.6 533.24 86.99 533.38 87.43C533.54 87.85 533.62 88.32 533.62 88.84C533.62 89.4 533.5 89.94 533.26 90.46C533.02 91 532.64 91.48 532.12 91.9C531.62 92.32 530.96 92.65 530.14 92.89C529.34 93.15 528.37 93.28 527.23 93.28ZM526.84 83.32C525.86 83.32 524.99 83.11 524.23 82.69C523.47 82.25 522.87 81.67 522.43 80.95C522.01 80.23 521.8 79.42 521.8 78.52C521.8 77.62 522.01 76.81 522.43 76.09C522.87 75.35 523.47 74.77 524.23 74.35C524.99 73.91 525.86 73.69 526.84 73.69C527.84 73.69 528.72 73.91 529.48 74.35C530.24 74.77 530.83 75.35 531.25 76.09C531.69 76.81 531.91 77.62 531.91 78.52C531.91 79.42 531.69 80.23 531.25 80.95C530.83 81.67 530.24 82.25 529.48 82.69C528.72 83.11 527.84 83.32 526.84 83.32ZM526.84 81.07C527.34 81.07 527.78 80.96 528.16 80.74C528.54 80.52 528.84 80.22 529.06 79.84C529.28 79.44 529.39 79 529.39 78.52C529.39 78.02 529.28 77.59 529.06 77.23C528.84 76.85 528.53 76.55 528.13 76.33C527.75 76.11 527.32 76 526.84 76C526.38 76 525.96 76.11 525.58 76.33C525.2 76.55 524.89 76.85 524.65 77.23C524.43 77.61 524.32 78.04 524.32 78.52C524.32 78.98 524.43 79.41 524.65 79.81C524.87 80.19 525.17 80.5 525.55 80.74C525.93 80.96 526.36 81.07 526.84 81.07ZM531.07 76.57L529.93 75.16C530.51 74.68 531.14 74.32 531.82 74.08C532.52 73.82 533.29 73.72 534.13 73.78L534.43 75.91C533.81 75.83 533.21 75.84 532.63 75.94C532.05 76.02 531.53 76.23 531.07 76.57ZM543.13 88.33C542.13 88.33 541.21 88.17 540.37 87.85C539.53 87.53 538.8 87.07 538.18 86.47C537.58 85.85 537.11 85.09 536.77 84.19C536.43 83.29 536.26 82.27 536.26 81.13C536.26 79.97 536.43 78.94 536.77 78.04C537.11 77.12 537.57 76.35 538.15 75.73C538.75 75.11 539.44 74.63 540.22 74.29C541.02 73.95 541.87 73.78 542.77 73.78C543.55 73.78 544.29 73.92 544.99 74.2C545.71 74.48 546.33 74.9 546.85 75.46C547.39 76 547.81 76.69 548.11 77.53C548.43 78.37 548.59 79.35 548.59 80.47C548.59 80.67 548.59 80.9 548.59 81.16C548.59 81.4 548.58 81.61 548.56 81.79H539.14C539.18 82.51 539.32 83.14 539.56 83.68C539.8 84.2 540.1 84.63 540.46 84.97C540.84 85.31 541.27 85.56 541.75 85.72C542.23 85.88 542.73 85.96 543.25 85.96C543.71 85.96 544.13 85.92 544.51 85.84C544.91 85.74 545.29 85.59 545.65 85.39C546.01 85.19 546.34 84.92 546.64 84.58L548.2 86.11C547.78 86.61 547.31 87.03 546.79 87.37C546.27 87.69 545.7 87.93 545.08 88.09C544.48 88.25 543.83 88.33 543.13 88.33ZM539.2 79.54H545.68C545.68 78.98 545.61 78.49 545.47 78.07C545.33 77.65 545.12 77.29 544.84 76.99C544.58 76.69 544.26 76.47 543.88 76.33C543.5 76.17 543.08 76.09 542.62 76.09C542.18 76.09 541.77 76.16 541.39 76.3C541.03 76.44 540.7 76.65 540.4 76.93C540.1 77.21 539.84 77.57 539.62 78.01C539.42 78.43 539.28 78.94 539.2 79.54Z" fill="white"/>
</svg>
